<?xml version="1.0" encoding="UTF-8"?>
<svg id="Frame_1" data-name="Frame 1" xmlns="http://www.w3.org/2000/svg" viewBox="0 0 1920 1080">
  <defs>
    <style>
      .cls-1 {
        fill: #7237bd;
      }

      .cls-2 {
        fill: #0013ff;
      }

      .cls-3 {
        fill: #111;
        stroke: #1d1d1b;
        stroke-miterlimit: 10;
      }

      .cls-4 {
        fill: #fd0988;
      }

      .cls-5 {
        fill: #d900ff;
      }

      .cls-6 {
        fill: red;
      }
    </style>
  </defs>
  <rect class="cls-3" x="0" width="1920" height="1080"/>
  <path class="cls-2" d="M618.91,126.14c52.93,46.26,104.8,93.73,155.54,142.38,50.57,48.48,100.01,98.13,148.3,148.89,48.45,50.93,95.73,102.98,141.78,156.08,45.9,52.93,90.58,106.91,133.99,161.88,43.58,55.19,85.88,111.39,126.85,168.54,5.03,7.02,10.04,14.05,15.04,21.1,1.85,2.6,6.18,.11,4.32-2.52-40.63-57.33-82.57-113.73-125.78-169.14s-87.44-109.48-133.02-162.68c-45.89-53.56-93.02-106.07-141.34-157.45-48.15-51.21-97.48-101.31-147.95-150.25-50.46-48.94-102.05-96.71-154.72-143.26-6.47-5.72-12.96-11.42-19.46-17.1-2.41-2.11-5.96,1.41-3.54,3.54h0Z"/>
  <path class="cls-5" d="M1378.88,135.85c-59.37,40.15-118.26,81.02-176.64,122.59-58.16,41.42-115.82,83.53-172.97,126.34-57.1,42.77-113.68,86.23-169.73,130.36-56.1,44.17-111.67,89.01-166.69,134.51-55.23,45.68-109.91,92.03-164.02,139.03-6.61,5.74-13.21,11.49-19.8,17.25-2.43,2.12,1.12,5.65,3.54,3.54,53.77-46.98,108.09-93.32,162.97-138.99,54.88-45.67,110.31-90.68,166.28-135.02,56.01-44.37,112.56-88.07,169.63-131.08,57.02-42.97,114.56-85.25,172.6-126.84,58.04-41.58,116.58-82.47,175.61-122.64,7.24-4.93,14.48-9.84,21.73-14.74,2.65-1.79,.15-6.13-2.52-4.32h0Z"/>
  <path class="cls-6" d="M1576.41,1012.21c-6.25-21.85-18.59-41.9-35.23-57.38-4.76-4.43-9.89-8.48-15.28-12.12-2.67-1.8-5.18,2.53-2.52,4.32,18.16,12.25,32.69,29.58,41.89,49.43,2.56,5.52,4.65,11.24,6.32,17.08,.88,3.09,5.71,1.78,4.82-1.33h0Z"/>
  <path class="cls-6" d="M1484.32,966.21c4.12-5.62,7.31-11.89,9.48-18.52,1.07-3.27,1.88-6.64,2.4-10.04,.46-2.98,.55-6.04,1.22-8.98,.52-2.3,1.47-4.72,3.88-5.57,2.7-.95,5.82,.07,8.43,.83,7.31,2.12,14.71,3.69,22.28,4.58,8.47,.99,17.02,1.09,25.52,.34,1.35-.12,2.5-1.06,2.5-2.5,0-1.26-1.15-2.62-2.5-2.5-15.56,1.37-31.1-.24-46.08-4.63-3.35-.98-6.87-1.89-10.37-1.22-3.09,.59-5.73,2.69-7.12,5.49s-1.8,5.99-2.13,9.11c-.34,3.25-.84,6.45-1.64,9.63-1.97,7.76-5.44,15.01-10.17,21.46-.8,1.09-.18,2.79,.9,3.42,1.27,.74,2.62,.2,3.42-.9h0Z"/>
  <path class="cls-6" d="M1573.97,73.49c-14.57,13.05-29.13,26.1-43.7,39.15l-12.46,11.16c-2.4,2.15,1.14,5.68,3.54,3.54,14.57-13.05,29.13-26.1,43.7-39.15l12.46-11.16c2.4-2.15-1.14-5.68-3.54-3.54h0Z"/>
  <path class="cls-6" d="M1485.46,82.82c-.05,11.14-.09,22.29-.14,33.43-.02,5.65-.05,11.31-.07,16.96-.02,4.96-.38,10.05,.38,14.97,.69,4.44,3.02,8.57,7.16,10.61,3.78,1.86,8.13,2.04,12.25,1.59,9.51-1.04,19.01-3.75,27.93-7.15,10.34-3.94,20.17-9.12,29.21-15.51,1.1-.78,1.62-2.18,.9-3.42-.64-1.09-2.31-1.68-3.42-.9-15.19,10.72-32.59,18.07-50.89,21.38-3.62,.66-7.5,1.25-11.14,.42-3.67-.83-6.01-3.18-6.88-6.84-1.04-4.38-.52-9.22-.51-13.67,.02-5.32,.04-10.64,.07-15.97,.05-11.97,.1-23.95,.15-35.92,.01-3.22-4.99-3.22-5,0h0Z"/>
  <path class="cls-6" d="M463.21,68.18c13.67,9.03,26.2,19.72,37.28,31.79,3.18,3.47,6.24,7.05,9.18,10.73,.84,1.06,2.66,.88,3.54,0,1.04-1.04,.85-2.48,0-3.54-10.45-13.09-22.5-24.8-35.79-34.99-3.8-2.91-7.7-5.67-11.68-8.31-2.69-1.78-5.2,2.55-2.52,4.32h0Z"/>
  <path class="cls-6" d="M532.05,76.57c6.89,12.81,12.67,26.19,17.23,40,.54,1.62,1.05,3.25,1.56,4.88,.47,1.51,1.04,3.08,1.07,4.68,.02,.9-.1,1.83-.97,2.3-.99,.54-2.45,.31-3.51,.15-7-1.03-13.97-2.94-20.68-5.14-7.6-2.49-14.96-5.61-22.04-9.32-2.85-1.49-5.38,2.82-2.52,4.32,13.68,7.16,28.64,12.52,43.91,14.96,3.49,.56,7.37,.5,9.59-2.72,2.02-2.93,1.13-6.76,.18-9.9-2.31-7.58-4.97-15.05-7.98-22.37-3.42-8.32-7.25-16.46-11.51-24.38-1.53-2.83-5.84-.31-4.32,2.52h0Z"/>
  <path class="cls-6" d="M406.05,874.51c-11.05,17.18-24.97,32.45-40.99,45.12-4.53,3.58-9.26,6.93-14.11,10.06-2.69,1.74-.19,6.07,2.52,4.32,17.69-11.42,33.48-25.75,46.47-42.33,3.7-4.72,7.19-9.6,10.43-14.65,1.75-2.71-2.58-5.22-4.32-2.52h0Z"/>
  <path class="cls-6" d="M386.21,860.56c6.31,3.64,13.28,6.17,20.49,7.3,3.57,.56,7.17,.83,10.78,.77,3.69-.06,7.37-.37,11.05-.37,6.34,.01,12.52,1.29,16.92,6.18,3.72,4.13,5.48,10.07,4.14,15.51-1.47,5.99-6.1,11.05-12.01,12.86-3.07,.94-1.76,5.76,1.33,4.82,6.23-1.9,11.55-6.58,14.17-12.56,2.75-6.27,2.48-13.21-.68-19.29-3.28-6.31-9.33-10.61-16.29-11.88-7.63-1.39-15.35,.08-23.03-.34-8.55-.47-16.93-3.04-24.34-7.31-2.79-1.61-5.31,2.71-2.52,4.32h0Z"/>
  <path class="cls-1" d="M359.78,545.63c-13.09,21-32.72,38.06-53.68,50.9-45.3,27.61-100.24,34.83-152.34,29.76-20.55-1.73-43.81-6.27-63.88-11.19,20.15,4.81,43.35,9.15,63.92,10.75,58.09,5.34,119.55-4.99,166.76-41.02,9.73-7.51,18.84-15.88,26.74-25.31,3.94-4.69,7.68-9.64,10.74-14.85,0,0,1.75,.97,1.75,.97h0Z"/>
  <circle class="cls-4" cx="358.9" cy="545.15" r="15.55"/>
</svg>