<?xml version="1.0" encoding="UTF-8"?>
<svg id="Frame_10" data-name="Frame 10" xmlns="http://www.w3.org/2000/svg" xmlns:xlink="http://www.w3.org/1999/xlink" viewBox="0 0 1920 1080">
  <defs>
    <style>
      .cls-1 {
        letter-spacing: 0em;
      }

      .cls-2, .cls-3 {
        fill: #7237bd;
      }

      .cls-4 {
        fill: url(#Dégradé_sans_nom_2);
      }

      .cls-5 {
        fill: #6262c5;
      }

      .cls-5, .cls-3, .cls-6 {
        opacity: .25;
      }

      .cls-7 {
        fill: #111;
      }

      .cls-8 {
        stroke: #fff;
        stroke-width: 2px;
      }

      .cls-8, .cls-9, .cls-6 {
        stroke-miterlimit: 10;
      }

      .cls-8, .cls-6 {
        fill: none;
      }

      .cls-10 {
        fill: #16163c;
      }

      .cls-9 {
        fill: url(#Dégradé_sans_nom_3);
        stroke: #1d1d1b;
      }

      .cls-11 {
        fill: #fff;
        font-family: Montserrat-Black, Montserrat-Black;
        font-size: 48px;
      }

      .cls-12 {
        fill: #fd0988;
      }

      .cls-6 {
        stroke: #6262c5;
        stroke-width: 4px;
      }

      .cls-13 {
        fill: #191c26;
      }

      .cls-14 {
        fill: red;
      }
    </style>
    <linearGradient id="Dégradé_sans_nom_3" data-name="Dégradé sans nom 3" x1="-2.06" y1="1076.31" x2="1918.46" y2="5.7" gradientUnits="userSpaceOnUse">
      <stop offset="0" stop-color="#191c26"/>
      <stop offset="1" stop-color="#16163c"/>
    </linearGradient>
    <linearGradient id="Dégradé_sans_nom_2" data-name="Dégradé sans nom 2" x1="690.44" y1="447.56" x2="1255.34" y2="571.49" gradientUnits="userSpaceOnUse">
      <stop offset="0" stop-color="#7237bd"/>
      <stop offset="1" stop-color="#fff"/>
    </linearGradient>
  </defs>
  <rect class="cls-9" width="1920" height="1080"/>
  <path class="cls-2" d="M1213.72,161.48v11.55h25.35c8.97,0,16.24,7.27,16.24,16.24v25.35h11.55v-28.54c0-13.59-11.01-24.6-24.6-24.6h-28.54Z"/>
  <path class="cls-2" d="M706.28,161.48v11.55h-25.35c-8.97,0-16.24,7.27-16.24,16.24v25.35h-11.55v-28.54c0-13.59,11.01-24.6,24.6-24.6h28.54Z"/>
  <path class="cls-2" d="M1213.72,918.52v-11.55h25.35c8.97,0,16.24-7.27,16.24-16.24v-25.35h11.55v28.54c0,13.59-11.01,24.6-24.6,24.6h-28.54Z"/>
  <path class="cls-2" d="M706.28,918.52v-11.55h-25.35c-8.97,0-16.24-7.27-16.24-16.24v-25.35h-11.55v28.54c0,13.59,11.01,24.6,24.6,24.6h28.54Z"/>
  <rect class="cls-10" x="566.91" y="161.48" width="61.04" height="517.61" rx="15" ry="15"/>
  <rect class="cls-3" x="1292.04" y="161.48" width="91.57" height="375.76" rx="15" ry="15"/>
  <rect class="cls-5" x="575.46" y="336.06" width="43.96" height="43.96" rx="10" ry="10"/>
  <path class="cls-2" d="M606.59,197.12c-.92-.1-1.84-.2-2.76-.3-2.09-.23-4.17-.45-6.25-.69-.22-.03-.35,.04-.49,.21-1.87,2.27-3.74,4.53-5.61,6.79-.05,.06-.11,.12-.21,.23,.08-7.18,.16-14.3,.24-21.48,5.07,5.09,10.09,10.14,15.11,15.18,0,.02-.01,.03-.02,.05Z"/>
  <path class="cls-2" d="M588.26,349.36v3.23h3v-1.23c0-.55,.45-1,1-1h2.67c.55,0,1,.45,1,1v11.48c0,.55-.45,1-1,1h-1.34v3h7.67v-3h-1.34c-.55,0-1-.45-1-1v-11.48c0-.55,.45-1,1-1h2.67c.55,0,1,.45,1,1v1.23h3v-3.23c0-1.1-.9-2-2-2h-14.35c-1.1,0-2,.9-2,2Z"/>
  <g>
    <path class="cls-2" d="M587.61,310.54c.15-.51,.31-1.02,.46-1.54,.9-3.15,1.8-6.3,2.7-9.45,.09-.33,.23-.44,.56-.44,1.85-.03,3.55-.61,5.15-1.5,.15-.08,.29-.17,.43-.25,.2-.11,.38-.08,.55,.07,.04,.03,.07,.07,.11,.11,1.54,1.54,3.08,3.08,4.61,4.61,.29,.29,.32,.44,.11,.79-.7,1.17-1.23,2.41-1.49,3.76-.1,.54-.14,1.09-.18,1.64-.03,.4-.11,.52-.48,.63-3.61,1.03-7.22,2.06-10.83,3.09-.3,.09-.5,.04-.62-.14-.14-.2-.1-.42,.12-.63,.5-.47,.99-.94,1.49-1.41,1.33-1.26,2.66-2.51,3.99-3.77,.27-.26,.57-.32,.93-.31,.69,.02,1.2-.4,1.34-1.07,.16-.71-.33-1.43-1.08-1.57-.69-.14-1.42,.37-1.54,1.06-.02,.13-.02,.27-.02,.4,.02,.31-.07,.57-.29,.8-1.72,1.82-3.44,3.65-5.17,5.47-.33,.35-.64,.31-.86-.11,0-.08,0-.15,0-.23Z"/>
    <path class="cls-2" d="M600.77,292.46c.43,.09,.74,.38,1.04,.68,1.65,1.67,3.31,3.32,4.97,4.98,.42,.41,.6,.9,.39,1.46-.08,.21-.21,.41-.37,.57-.54,.57-1.1,1.12-1.66,1.67-.62,.61-1.41,.61-2.02,0-1.75-1.74-3.49-3.49-5.23-5.24-.61-.61-.61-1.41,0-2.02,.55-.55,1.11-1.1,1.65-1.66,.23-.23,.5-.36,.81-.45h.42Z"/>
  </g>
  <polygon class="cls-2" points="597.43 403.98 588.26 419.87 606.61 419.87 597.43 403.98"/>
  <polygon class="cls-2" points="606.93 521.58 587.93 510.61 587.93 532.55 606.93 521.58"/>
  <circle class="cls-2" cx="597.43" cy="247.46" r="9.17"/>
  <rect class="cls-2" x="587.93" y="457.25" width="19" height="19"/>
  <circle class="cls-12" cx="960" cy="50.33" r="31.11"/>
  <polygon class="cls-5" points="872.75 342.22 872.75 298.08 866.75 298.08 866.75 342.22 828.61 342.22 822.61 342.22 822.61 348.22 822.61 386.49 784.47 386.49 778.47 386.49 778.47 392.49 778.47 436.63 784.47 436.63 784.47 392.49 822.61 392.49 828.61 392.49 866.75 392.49 866.75 430.75 822.61 430.75 822.61 436.75 872.75 436.75 872.75 436.63 872.75 430.75 872.75 392.49 872.75 386.49 866.75 386.49 828.61 386.49 828.61 348.22 866.75 348.22 872.75 348.22 916.89 348.22 916.89 342.22 872.75 342.22"/>
  <polygon class="cls-5" points="1095.65 387.74 1089.65 387.74 1051.51 387.74 1051.51 349.48 1089.65 349.48 1095.65 349.48 1095.65 343.48 1095.65 305.22 1095.65 299.34 1095.65 299.22 1045.51 299.22 1045.51 305.22 1089.65 305.22 1089.65 343.48 1051.51 343.48 1045.51 343.48 1007.37 343.48 1007.37 299.34 1001.37 299.34 1001.37 343.48 1001.37 349.48 1007.37 349.48 1045.51 349.48 1045.51 387.74 1045.51 393.74 1051.51 393.74 1089.65 393.74 1089.65 437.88 1095.65 437.88 1095.65 393.74 1139.8 393.74 1139.8 387.74 1095.65 387.74"/>
  <polygon class="cls-5" points="873.42 664.04 867.42 664.04 829.28 664.04 829.28 625.78 867.42 625.78 873.42 625.78 873.42 619.78 873.42 581.51 873.42 575.63 873.42 575.51 823.28 575.51 823.28 581.51 867.42 581.51 867.42 619.78 829.28 619.78 823.28 619.78 785.13 619.78 785.13 575.63 779.13 575.63 779.13 619.78 779.13 625.78 785.13 625.78 823.28 625.78 823.28 664.04 823.28 670.04 829.28 670.04 867.42 670.04 867.42 714.18 873.42 714.18 873.42 670.04 917.56 670.04 917.56 664.04 873.42 664.04"/>
  <polygon class="cls-5" points="1101.65 619.66 1101.65 575.51 1095.65 575.51 1095.65 619.66 1057.51 619.66 1051.51 619.66 1051.51 625.66 1051.51 663.92 1013.37 663.92 1007.37 663.92 1007.37 669.92 1007.37 714.06 1013.37 714.06 1013.37 669.92 1051.51 669.92 1057.51 669.92 1095.65 669.92 1095.65 708.18 1051.51 708.18 1051.51 714.18 1101.65 714.18 1101.65 714.06 1101.65 708.18 1101.65 669.92 1101.65 663.92 1095.65 663.92 1057.51 663.92 1057.51 625.66 1095.65 625.66 1101.65 625.66 1145.8 625.66 1145.8 619.66 1101.65 619.66"/>
  <polygon class="cls-2" points="1337.07 178.76 1324.22 201.01 1349.91 201.01 1337.07 178.76"/>
  <path class="cls-7" d="M1306.9,499.22h10.94v12.94h-10.94c-1.1,0-2-.9-2-2v-8.94c0-1.1,.9-2,2-2Z"/>
  <rect class="cls-13" x="1317.85" y="499.22" width="12.94" height="12.94"/>
  <rect class="cls-10" x="1330.79" y="499.22" width="12.94" height="12.94"/>
  <rect class="cls-2" x="1343.73" y="499.22" width="12.94" height="12.94"/>
  <path class="cls-12" d="M1356.67,499.22h10.94c1.1,0,2,.9,2,2v8.94c0,1.1-.9,2-2,2h-10.94v-12.94h0Z"/>
  <line class="cls-6" x1="1317.85" y1="236.75" x2="1317.85" y2="321.17"/>
  <line class="cls-6" x1="1356.67" y1="293.23" x2="1356.67" y2="368.55"/>
  <line class="cls-6" x1="1337.83" y1="414.92" x2="1337.83" y2="463.47"/>
  <polyline class="cls-8" points="511.23 614.19 511.23 100.02 663.99 100.02"/>
  <polyline class="cls-8" points="1076.58 996.04 1437.38 996.04 1437.38 918.52"/>
  <g>
    <g>
      <path class="cls-4" d="M829.18,506.41h9.84v14.21c-4.08,2.78-9.7,4.27-14.64,4.27-10.85,0-18.77-7.25-18.77-17.57s7.92-17.57,19.01-17.57c6.62,0,11.95,2.3,15.36,6.48l-7.25,6.38c-2.11-2.45-4.56-3.7-7.54-3.7-4.99,0-8.16,3.22-8.16,8.4s3.17,8.4,8.02,8.4c1.39,0,2.74-.24,4.13-.82v-8.5Z"/>
      <path class="cls-4" d="M858.27,515.67h-3.07v8.45h-11.33v-33.6h16.18c9.36,0,15.31,4.9,15.31,12.67,0,4.85-2.3,8.5-6.34,10.56l7.06,10.37h-12.1l-5.71-8.45Zm1.06-16.42h-4.13v7.87h4.13c3.12,0,4.61-1.49,4.61-3.94s-1.49-3.94-4.61-3.94Z"/>
      <path class="cls-4" d="M902.53,518.27h-12.77l-2.26,5.86h-11.52l14.69-33.6h11.14l14.69,33.6h-11.71l-2.26-5.86Zm-3.12-8.16l-3.26-8.45-3.26,8.45h6.53Z"/>
      <path class="cls-4" d="M949.81,503.19c0,7.78-5.95,12.67-15.31,12.67h-4.85v8.26h-11.33v-33.6h16.18c9.36,0,15.31,4.9,15.31,12.67Zm-11.42,0c0-2.45-1.49-3.94-4.61-3.94h-4.13v7.87h4.13c3.12,0,4.61-1.49,4.61-3.94Z"/>
      <path class="cls-4" d="M986.62,490.52v33.6h-11.33v-12.39h-10.46v12.39h-11.33v-33.6h11.33v11.91h10.46v-11.91h11.33Z"/>
      <path class="cls-4" d="M992.09,490.52h11.33v33.6h-11.33v-33.6Z"/>
      <path class="cls-4" d="M1006.78,521.43l3.65-8.26c3.17,1.87,7.39,3.07,11.09,3.07,3.22,0,4.37-.67,4.37-1.82,0-4.22-18.58-.82-18.58-13.35,0-6.24,5.23-11.33,15.65-11.33,4.51,0,9.17,.96,12.67,2.93l-3.41,8.21c-3.31-1.68-6.43-2.5-9.36-2.5-3.31,0-4.37,.96-4.37,2.11,0,4.03,18.58,.67,18.58,13.06,0,6.14-5.23,11.33-15.65,11.33-5.62,0-11.28-1.39-14.64-3.46Z"/>
      <path class="cls-4" d="M1070.43,524.12l-.1-15.31-7.3,12.29h-4.99l-7.3-11.76v14.79h-10.32v-33.6h9.31l10.94,17.91,10.66-17.91h9.31l.1,33.6h-10.32Z"/>
      <path class="cls-4" d="M1114.16,515.58v8.54h-27.94v-33.6h27.31v8.54h-16.18v3.94h14.21v8.16h-14.21v4.42h16.8Z"/>
    </g>
    <text class="cls-11" transform="translate(804.22 524.12)"><tspan x="0" y="0">GRA</tspan><tspan class="cls-1" x="111.36" y="0">P</tspan><tspan x="146.54" y="0">HISME</tspan></text>
  </g>
  <path class="cls-14" d="M1169.71,512.3c29.98-21.6,51.14-54.37,59.51-90.28,4.16-17.83,5.16-36.38,2.57-54.52-1.37-9.62-3.93-19.22-8.58-27.81-4.81-8.89-11.95-15.89-20.71-20.89-8.42-4.81-17.73-8.08-26.92-11.09-8.62-2.83-17.38-5.24-26.18-7.43-17.97-4.47-36.16-8-54.23-12.05-34.24-7.67-69.77-17.4-97.15-40.48-28.9-24.37-44.7-62.05-42.01-99.76,.33-4.66,.97-9.28,1.88-13.86,.63-3.14-4.19-4.49-4.82-1.33-7.39,37.06,3.27,76.89,28.07,105.4,23.6,27.13,57.77,40.91,91.76,49.81,35.25,9.23,71.65,14.12,106.15,26.14,9.33,3.25,18.82,6.85,26.82,12.78,7.81,5.79,13.23,14.07,16.55,23.13,6.35,17.31,6.94,36.93,4.75,55.08-4.34,35.98-22.21,70.37-49.38,94.37-3.39,3-6.93,5.82-10.6,8.46-2.59,1.86-.09,6.2,2.52,4.32h0Z"/>
  <path class="cls-14" d="M935.27,161.67c.24-5.35,.5-10.72,1.58-15.98,1.01-4.88,2.7-10.01,5.97-13.86,5.07-5.97,14.96-10.23,21.9-4.98,4.31,3.26,6.05,8.9,7.64,13.82,.98,3.05,5.81,1.75,4.82-1.33-1.75-5.42-3.71-11.21-7.98-15.21-3.78-3.55-8.9-5.1-14.03-4.47-5.24,.65-10.12,3.07-13.99,6.65-4.24,3.92-6.85,9.34-8.38,14.83-1.86,6.66-2.22,13.65-2.54,20.52-.15,3.22,4.85,3.21,5,0h0Z"/>
  <path class="cls-14" d="M448.92,236.4c-4.04,56.84-6.15,113.81-6.31,170.79-.16,56.69,1.6,113.39,5.28,169.96,2.07,31.88,4.76,63.71,8.05,95.49,.33,3.17,5.33,3.2,5,0-5.86-56.68-9.81-113.55-11.8-170.5-1.98-56.66-2.05-113.38-.19-170.05,1.05-31.93,2.71-63.83,4.97-95.7,.23-3.21-4.77-3.2-5,0h0Z"/>
  <path class="cls-14" d="M419.35,661.68c9.58,2.22,16.49,9.7,21.9,17.5,3.08,4.45,5.81,9.13,8.59,13.77,3.41,5.71,6.83,11.41,10.24,17.12,3.92,6.56,7.85,13.12,11.77,19.68,.98,1.64,3.32,1.59,4.32,0,8.75-14,15.65-29.13,20.51-44.91,.95-3.08-3.87-4.4-4.82-1.33-4.74,15.38-11.48,30.06-20.01,43.71h4.32c-7.08-11.84-14.16-23.68-21.24-35.51-5.57-9.31-10.98-19.22-19.12-26.58-4.32-3.91-9.41-6.94-15.12-8.27-3.13-.73-4.47,4.09-1.33,4.82h0Z"/>
</svg>
