<?xml version="1.0" encoding="UTF-8"?>
<svg xmlns="http://www.w3.org/2000/svg" xmlns:xlink="http://www.w3.org/1999/xlink" viewBox="0 0 1920 1080">
  <defs>
    <style>
      .cls-1 {
        letter-spacing: 0em;
      }

      .cls-2, .cls-3 {
        fill: #fff;
      }

      .cls-4 {
        fill: url(#Dégradé_sans_nom_2-2);
      }

      .cls-5 {
        fill: url(#Dégradé_sans_nom_2-10);
      }

      .cls-6 {
        fill: url(#Dégradé_sans_nom_2-7);
      }

      .cls-7 {
        fill: url(#Dégradé_sans_nom_2-14);
      }

      .cls-8 {
        fill: url(#Dégradé_sans_nom_2);
      }

      .cls-9 {
        fill: url(#Dégradé_sans_nom_2-11);
      }

      .cls-10 {
        letter-spacing: -.01em;
      }

      .cls-11 {
        fill: url(#Dégradé_sans_nom_2-13);
      }

      .cls-12 {
        fill: url(#Dégradé_sans_nom_2-4);
      }

      .cls-13 {
        fill: url(#Dégradé_sans_nom_2-9);
      }

      .cls-14 {
        fill: url(#Dégradé_sans_nom_2-18);
      }

      .cls-15 {
        fill: url(#Dégradé_sans_nom_2-19);
      }

      .cls-16 {
        fill: none;
        stroke: #6262c5;
        stroke-width: 8px;
      }

      .cls-16, .cls-17 {
        stroke-miterlimit: 10;
      }

      .cls-18 {
        fill: url(#Dégradé_sans_nom_2-3);
      }

      .cls-19 {
        fill: url(#Dégradé_sans_nom_2-17);
      }

      .cls-20 {
        fill: url(#Dégradé_sans_nom_2-15);
      }

      .cls-3 {
        font-family: Montserrat-Black, Montserrat;
        font-size: 48px;
      }

      .cls-21 {
        fill: #fd0988;
      }

      .cls-22 {
        fill: url(#Dégradé_sans_nom_2-8);
      }

      .cls-17 {
        fill: url(#Dégradé_sans_nom_4);
        stroke: #1d1d1b;
      }

      .cls-23 {
        fill: url(#Dégradé_sans_nom_2-5);
      }

      .cls-24 {
        fill: url(#Dégradé_sans_nom_2-16);
      }

      .cls-25 {
        fill: url(#Dégradé_sans_nom_2-12);
      }

      .cls-26 {
        fill: red;
      }

      .cls-27 {
        fill: url(#Dégradé_sans_nom_2-6);
      }
    </style>
    <linearGradient id="Dégradé_sans_nom_4" data-name="Dégradé sans nom 4" x1="960" y1="1080" x2="960" y2="0" gradientUnits="userSpaceOnUse">
      <stop offset="0" stop-color="#16163c"/>
      <stop offset="1" stop-color="#7237bd"/>
    </linearGradient>
    <linearGradient id="Dégradé_sans_nom_2" data-name="Dégradé sans nom 2" x1="517.08" y1="379.24" x2="1445.28" y2="582.86" gradientUnits="userSpaceOnUse">
      <stop offset="0" stop-color="#7237bd"/>
      <stop offset="1" stop-color="#fff"/>
    </linearGradient>
    <linearGradient id="Dégradé_sans_nom_2-2" data-name="Dégradé sans nom 2" x1="1290.48" y1="494.45" x2="1312.01" y2="499.18" xlink:href="#Dégradé_sans_nom_2"/>
    <linearGradient id="Dégradé_sans_nom_2-3" data-name="Dégradé sans nom 2" x1="697.06" y1="418.69" x2="1248.76" y2="539.72" xlink:href="#Dégradé_sans_nom_2"/>
    <linearGradient id="Dégradé_sans_nom_2-4" data-name="Dégradé sans nom 2" x1="697.06" y1="418.69" x2="1248.76" y2="539.72" xlink:href="#Dégradé_sans_nom_2"/>
    <linearGradient id="Dégradé_sans_nom_2-5" data-name="Dégradé sans nom 2" x1="697.06" y1="418.69" x2="1248.76" y2="539.72" xlink:href="#Dégradé_sans_nom_2"/>
    <linearGradient id="Dégradé_sans_nom_2-6" data-name="Dégradé sans nom 2" x1="697.06" y1="418.69" x2="1248.76" y2="539.72" xlink:href="#Dégradé_sans_nom_2"/>
    <linearGradient id="Dégradé_sans_nom_2-7" data-name="Dégradé sans nom 2" x1="697.06" y1="418.69" x2="1248.76" y2="539.72" xlink:href="#Dégradé_sans_nom_2"/>
    <linearGradient id="Dégradé_sans_nom_2-8" data-name="Dégradé sans nom 2" x1="697.06" y1="418.69" x2="1248.76" y2="539.72" xlink:href="#Dégradé_sans_nom_2"/>
    <linearGradient id="Dégradé_sans_nom_2-9" data-name="Dégradé sans nom 2" x1="697.06" y1="418.69" x2="1248.76" y2="539.72" xlink:href="#Dégradé_sans_nom_2"/>
    <linearGradient id="Dégradé_sans_nom_2-10" data-name="Dégradé sans nom 2" x1="697.06" y1="418.69" x2="1248.76" y2="539.72" xlink:href="#Dégradé_sans_nom_2"/>
    <linearGradient id="Dégradé_sans_nom_2-11" data-name="Dégradé sans nom 2" x1="697.06" y1="418.69" x2="1248.76" y2="539.72" xlink:href="#Dégradé_sans_nom_2"/>
    <linearGradient id="Dégradé_sans_nom_2-12" data-name="Dégradé sans nom 2" x1="697.06" y1="418.69" x2="1248.76" y2="539.72" xlink:href="#Dégradé_sans_nom_2"/>
    <linearGradient id="Dégradé_sans_nom_2-13" data-name="Dégradé sans nom 2" x1="697.06" y1="418.69" x2="1248.76" y2="539.72" xlink:href="#Dégradé_sans_nom_2"/>
    <linearGradient id="Dégradé_sans_nom_2-14" data-name="Dégradé sans nom 2" x1="697.06" y1="418.69" x2="1248.76" y2="539.72" xlink:href="#Dégradé_sans_nom_2"/>
    <linearGradient id="Dégradé_sans_nom_2-15" data-name="Dégradé sans nom 2" x1="697.06" y1="418.69" x2="1248.76" y2="539.72" xlink:href="#Dégradé_sans_nom_2"/>
    <linearGradient id="Dégradé_sans_nom_2-16" data-name="Dégradé sans nom 2" x1="697.06" y1="418.69" x2="1248.76" y2="539.72" xlink:href="#Dégradé_sans_nom_2"/>
    <linearGradient id="Dégradé_sans_nom_2-17" data-name="Dégradé sans nom 2" x1="697.06" y1="418.69" x2="1248.76" y2="539.72" xlink:href="#Dégradé_sans_nom_2"/>
    <linearGradient id="Dégradé_sans_nom_2-18" data-name="Dégradé sans nom 2" x1="697.06" y1="418.69" x2="1248.76" y2="539.72" xlink:href="#Dégradé_sans_nom_2"/>
    <linearGradient id="Dégradé_sans_nom_2-19" data-name="Dégradé sans nom 2" x1="697.06" y1="418.69" x2="1248.76" y2="539.72" xlink:href="#Dégradé_sans_nom_2"/>
  </defs>
  <g id="Frame_11" data-name="Frame 11">
    <rect class="cls-17" x="0" y="0" width="1920" height="1080"/>
    <circle class="cls-21" cx="960" cy="400.31" r="31.11"/>
    <rect class="cls-16" x="265.59" y="149.4" width="1388.81" height="781.21"/>
    <rect class="cls-16" x="265.59" y="149.4" width="1388.81" height="390.6"/>
    <rect class="cls-16" x="344.09" y="612.71" width="584.8" height="243"/>
    <rect class="cls-16" x="991.11" y="612.71" width="584.8" height="243"/>
    <rect class="cls-16" x="304.96" y="187.46" width="57.96" height="57.96"/>
    <rect class="cls-16" x="275.25" y="105.33" width="19.32" height="19.32"/>
    <rect class="cls-16" x="314.62" y="105.33" width="19.32" height="19.32"/>
    <rect class="cls-16" x="353.98" y="105.33" width="19.32" height="19.32"/>
    <rect class="cls-16" x="1384.68" y="187.46" width="231.82" height="57.96"/>
    <path class="cls-26" d="M180.5,879.65c-8.55-12.24-10.84-27.1-11.11-41.72-.3-16.37,1.07-32.82,1.85-49.17,1.72-36,3.43-72.01,5.15-108.01,1.71-35.83,3.42-71.65,5.12-107.48,1.71-35.83,3.42-71.65,5.12-107.48,1.72-36,3.43-72.01,5.15-108.01,.21-4.46,.42-8.91,.64-13.37,.15-3.22-4.85-3.21-5,0-1.72,36.18-3.45,72.37-5.17,108.55-1.72,36.18-3.45,72.37-5.17,108.55-1.72,36.18-3.45,72.37-5.17,108.55-1.72,36.18-3.45,72.37-5.17,108.55-.82,17.11-1.98,34.25-2.32,51.38-.29,14.51,.6,29.46,6.53,42.92,1.44,3.26,3.2,6.35,5.24,9.27,1.83,2.62,6.17,.12,4.32-2.52h0Z"/>
    <path class="cls-26" d="M146.01,323.2c9.46-14.79,16.69-31.04,21.3-47.99,3.89-14.29,5.71-29.24,11.41-42.99,3-7.22,7.26-13.85,13.2-18.98-1.31-.17-2.62-.34-3.93-.51,7.55,17.84,13.25,36.49,17.06,55.48,1.09,5.43,2.02,10.9,2.8,16.39,.19,1.34,1.89,2.07,3.08,1.75,1.44-.4,1.94-1.73,1.75-3.08-2.78-19.48-7.51-38.67-14.15-57.2-1.92-5.35-4.01-10.63-6.22-15.87-.68-1.6-2.86-1.43-3.93-.51-11.29,9.75-16.37,24.21-19.84,38.29-1.76,7.17-3.18,14.42-4.94,21.59-2.09,8.49-4.8,16.81-8.15,24.88-3.78,9.12-8.44,17.9-13.76,26.21-1.74,2.72,2.59,5.23,4.32,2.52h0Z"/>
    <path class="cls-26" d="M498.99,1188.42c4.16-29.27,7.5-58.65,9.96-88.11,2.46-29.4,4.05-58.87,4.79-88.37,.42-16.64,.55-33.29,.42-49.94-.03-3.22-5.03-3.22-5,0,.23,29.5-.39,59.01-1.87,88.48-1.48,29.3-3.8,58.56-6.98,87.72-1.78,16.33-3.82,32.62-6.13,48.88-.19,1.34,.33,2.69,1.75,3.08,1.17,.32,2.88-.4,3.08-1.75h0Z"/>
    <path class="cls-26" d="M484.94,962.69c4.63-11.67,10.08-23.02,16.26-33.94,1.53-2.71,3.11-5.4,4.74-8.06,1.3-2.12,2.61-4.27,4.23-6.16,2.92-3.41,6.94-5.86,11.43-4.65,4.11,1.11,7.41,4.55,9.87,7.89,3.3,4.47,5.64,9.53,8.12,14.48,6.02,11.99,12.03,23.98,18.05,35.97,6.8,13.56,13.6,27.11,20.4,40.67,1.44,2.88,5.76,.35,4.32-2.52-12.63-25.17-25.26-50.35-37.89-75.52-4.67-9.3-9.61-21.15-20.04-25.28-4.86-1.92-10.27-.94-14.38,2.19-4.58,3.49-7.47,8.75-10.36,13.61-7.58,12.79-14.09,26.18-19.57,39.99-.5,1.26,.55,2.75,1.75,3.08,1.42,.39,2.58-.49,3.08-1.75h0Z"/>
    <path class="cls-26" d="M903.47,428.77c0-7.88,0-15.75,0-23.62,0-3.22-5-3.22-5,0,0,7.88,0,15.75,0,23.62,0,3.22,5,3.22,5,0h0Z"/>
    <path class="cls-26" d="M892.66,400.22c5.78-5.78,13.62-9.28,21.79-9.63,3.21-.14,3.22-5.14,0-5-9.49,.41-18.6,4.37-25.33,11.1-2.28,2.28,1.26,5.81,3.54,3.54h0Z"/>
    <path class="cls-26" d="M1345.59,256.65c0-6.75,0-13.5,0-20.25,0-3.22-5-3.22-5,0,0,6.75,0,13.5,0,20.25,0,3.22,5,3.22,5,0h0Z"/>
    <path class="cls-26" d="M1337,231.12c.12-.28,.14-.34,.06-.15,.07-.17,.15-.33,.22-.49,.11-.25,.23-.49,.36-.73,.29-.56,.6-1.11,.94-1.65,.67-1.08,1.11-1.66,1.88-2.53,.71-.8,1.67-1.87,2.41-2.27,.15-.08,.16-.09,.03-.03,.35-.08,.36-.09,0-.02,.57,.12-.48,0,.09,.02-.3-.14-.33-.15-.08-.02,.19,.13,.22,.14,.06,.03-.26-.2,.28,.3,.33,.36-.36-.38,.05,.08,.12,.19,.16,.25,.3,.51,.44,.78,.05,.1,.29,.71,.11,.23,.08,.21,.15,.42,.22,.63,.45,1.37,.81,2.77,1.21,4.15,.81,2.8,1.62,5.61,2.43,8.41,.37,1.3,1.76,2.11,3.08,1.75,1.29-.36,2.12-1.77,1.75-3.08-.96-3.32-1.92-6.65-2.88-9.97-.81-2.79-1.57-6.01-4.18-7.69-1.48-.96-3.31-1-4.89-.24-1.39,.67-2.58,1.91-3.61,3.04-2.14,2.35-3.74,5.02-4.92,7.96-.49,1.22,.53,2.8,1.75,3.08,1.45,.33,2.55-.44,3.08-1.75h0Z"/>
    <path class="cls-26" d="M400.59,247.37v-25.31c0-3.22-5-3.22-5,0v25.31c0,3.22,5,3.22,5,0h0Z"/>
    <path class="cls-26" d="M392.83,221.85c.12-.44,.26-.88,.43-1.31,.03-.09,.23-.71,.05-.13,.06-.18,.16-.36,.25-.54,.37-.77,.81-1.5,1.31-2.19,.08-.11,.15-.21,.23-.32-.19,.25-.2,.26-.02,.04,.13-.15,.25-.3,.38-.45,.26-.29,.55-.56,.82-.84,.21-.18,.19-.17-.05,.02,.25-.14,.21-.14-.09-.01l.18-.05c-.21,.07-.42,.08-.64,.02-.17-.03-.31-.11-.43-.23-.16-.14-.16-.14,0,0,.23,.42-.26-.44,.08,.09,.48,.74,.83,1.57,1.19,2.37,.04,.1,.09,.2,.13,.3-.11-.26-.11-.26,0,0,.08,.2,.16,.4,.24,.61,.17,.44,.32,.88,.47,1.33,.6,1.82,1.02,3.69,1.29,5.59,.08,.57,.67,1.22,1.15,1.49,.54,.31,1.33,.45,1.93,.25,1.43-.46,1.94-1.68,1.75-3.08-.31-2.22-.84-4.4-1.61-6.51-.44-1.22-.95-2.42-1.52-3.59-.52-1.07-1.1-2.06-2.06-2.8-1.34-1.04-3.16-1.02-4.58-.12-1.03,.67-1.86,1.65-2.61,2.61-1.41,1.82-2.46,3.86-3.08,6.09-.35,1.26,.43,2.78,1.75,3.08s2.7-.4,3.08-1.75h0Z"/>
    <path class="cls-26" d="M396.27,129.23c.35-2.8,.69-5.61,1.04-8.41,.07-.59-.33-1.37-.73-1.77-.43-.43-1.15-.76-1.77-.73s-1.32,.24-1.77,.73c-.48,.52-.65,1.07-.73,1.77-.35,2.8-.69,5.61-1.04,8.41-.07,.59,.33,1.37,.73,1.77,.43,.43,1.15,.76,1.77,.73s1.32-.24,1.77-.73c.48-.52,.65-1.07,.73-1.77h0Z"/>
    <path class="cls-26" d="M393.3,116.8c2.52-3.19,5.04-6.38,7.56-9.58,.55-.7,1.08-1.42,1.68-2.07,.14-.15,.28-.29,.43-.43,.19-.18,.31-.24,.03-.05,.09-.06,.37-.31,.49-.3-.31,.12-.33,.14-.07,.05l.18-.04c-.35,.04-.38,.05-.09,.04l-.41-.05c.44,.1-.52-.28-.14-.05-.53-.32-.29-.24-.12-.05-.46-.54-.19-.25-.11-.07-.11-.24-.14-.52-.08-.12-.03-.21-.02-.62-.05-.19,.06-.73,.32-1.23,1.13-1.5-1.24,.42-2.18,1.74-1.75,3.08,.4,1.23,1.75,2.2,3.08,1.75,1.47-.5,2.53-1.72,2.54-3.32,.01-1.16-.44-2.31-1.23-3.16-2.04-2.17-5.1-1.31-7.02,.52-.82,.79-1.49,1.75-2.2,2.64-.8,1.02-1.61,2.04-2.41,3.06-1.66,2.11-3.32,4.21-4.99,6.32-.81,1.02-1.07,2.55,0,3.54,.9,.83,2.67,1.1,3.54,0h0Z"/>
    <path class="cls-26" d="M322.9,739.27c.59-11.22-.08-22.45-1.91-33.53-.22-1.33-1.87-2.08-3.08-1.75-1.42,.39-1.97,1.74-1.75,3.08,1.76,10.63,2.3,21.44,1.73,32.21-.17,3.22,4.83,3.21,5,0h0Z"/>
    <path class="cls-26" d="M312.1,705.72c2.18-4.04,4.37-8.09,6.55-12.13l.8-1.48c.11-.2,.21-.4,.32-.59,.05-.09,.11-.19,.17-.28,.1-.15,.07-.12-.08,.07,.18-.17,.19-.2,.05-.09-.1,.08-.21,.13-.33,.15l-.26,.04c-.34,.03-.61-.07-.81-.28-.14-.13-.12-.11,.05,.05-.15-.21-.17-.25-.07-.09,.09,.16,.17,.32,.27,.47-.26-.43,.04,.14,.08,.26,.09,.27,.17,.55,.25,.82,.13,.46,.23,.93,.33,1.39,.18,.95,.25,1.86,.25,3.04,0,1.31,1.15,2.56,2.5,2.5s2.5-1.1,2.5-2.5c0-2.69-.36-5.84-1.69-8.23-.73-1.32-1.94-2.27-3.47-2.41-1.63-.15-2.97,.89-3.82,2.19-.7,1.07-1.25,2.26-1.85,3.38-.66,1.21-1.31,2.43-1.97,3.64-1.36,2.52-2.72,5.03-4.08,7.55-.62,1.15-.32,2.78,.9,3.42s2.76,.33,3.42-.9h0Z"/>
    <path class="cls-26" d="M1595.47,751.07c-.58-7.61-1.79-15.17-3.65-22.58-.78-3.12-5.61-1.8-4.82,1.33,1.75,6.98,2.92,14.07,3.47,21.25,.1,1.35,1.08,2.5,2.5,2.5,1.27,0,2.6-1.15,2.5-2.5h0Z"/>
    <path class="cls-26" d="M1585.88,727.11c1.21-2.15,2.42-4.3,3.62-6.45,.57-1.01,1.11-2.04,1.71-3.03,.1-.17,.21-.34,.33-.49-.35,.45,.04,.01,.13-.08-.27,.19-.29,.21-.06,.07-.19,.11-.39,.17-.6,.17-.33,0-1.2-.71-.84-.28-.39-.46-.06-.02,.01,.11,.12,.25,.11,.23-.03-.08,.05,.13,.1,.25,.15,.38,.22,.55,.44,1.09,.66,1.64,.44,1.09,.88,2.18,1.32,3.28,.92,2.27,1.83,4.53,2.75,6.8,.49,1.21,1.69,2.2,3.08,1.75,1.17-.38,2.27-1.78,1.75-3.08-1.05-2.6-2.1-5.21-3.15-7.81-.54-1.34-1.08-2.69-1.63-4.03-.6-1.48-1.27-2.88-2.89-3.45-3.34-1.18-5.14,2.31-6.46,4.66s-2.77,4.94-4.16,7.41c-.64,1.14-.31,2.78,.9,3.42s2.74,.32,3.42-.9h0Z"/>
    <g>
      <g>
        <path class="cls-8" d="M663.87,472.75v8.54l-24.48,8.88v-8.16l14.55-4.99-14.55-4.99v-8.16l24.48,8.88Z"/>
        <path class="cls-8" d="M683.64,460.22h16.56c11.23,0,18.96,6.38,18.96,16.8s-7.73,16.8-18.96,16.8h-16.56v-33.6Zm16.08,24.77c4.75,0,8.02-2.83,8.02-7.97s-3.26-7.97-8.02-7.97h-4.75v15.94h4.75Z"/>
        <path class="cls-8" d="M751.23,485.28v8.54h-27.94v-33.6h27.31v8.54h-16.18v3.94h14.21v8.16h-14.21v4.42h16.8Zm-12.1-27.79h-7.2l6.34-7.68h10.32l-9.46,7.68Z"/>
        <path class="cls-8" d="M791.02,460.22l-14.21,33.6h-11.14l-14.21-33.6h12.19l8.02,19.63,8.21-19.63h11.14Z"/>
        <path class="cls-8" d="M820.06,485.28v8.54h-27.94v-33.6h27.31v8.54h-16.18v3.94h14.21v8.16h-14.21v4.42h16.8Z"/>
        <path class="cls-8" d="M824.43,460.22h11.33v24.82h15.17v8.78h-26.5v-33.6Z"/>
        <path class="cls-8" d="M852.22,477.03c0-10.18,8.02-17.57,18.96-17.57s18.96,7.39,18.96,17.57-8.02,17.57-18.96,17.57-18.96-7.39-18.96-17.57Zm26.5,0c0-5.23-3.36-8.4-7.54-8.4s-7.54,3.17-7.54,8.4,3.36,8.4,7.54,8.4,7.54-3.17,7.54-8.4Z"/>
        <path class="cls-8" d="M925.76,472.9c0,7.78-5.95,12.67-15.31,12.67h-4.85v8.26h-11.33v-33.6h16.18c9.36,0,15.31,4.9,15.31,12.67Zm-11.42,0c0-2.45-1.49-3.94-4.61-3.94h-4.13v7.87h4.13c3.12,0,4.61-1.49,4.61-3.94Z"/>
        <path class="cls-8" d="M960.94,472.9c0,7.78-5.95,12.67-15.31,12.67h-4.85v8.26h-11.33v-33.6h16.18c9.36,0,15.31,4.9,15.31,12.67Zm-11.43,0c0-2.45-1.49-3.94-4.61-3.94h-4.13v7.87h4.13c3.12,0,4.61-1.49,4.61-3.94Z"/>
        <path class="cls-8" d="M992.57,485.28v8.54h-27.94v-33.6h27.31v8.54h-16.18v3.94h14.21v8.16h-14.21v4.42h16.8Z"/>
        <path class="cls-8" d="M1026.94,493.83l-.1-15.31-7.3,12.29h-4.99l-7.3-11.76v14.79h-10.32v-33.6h9.31l10.94,17.91,10.66-17.91h9.31l.1,33.6h-10.32Z"/>
        <path class="cls-8" d="M1070.67,485.28v8.54h-27.94v-33.6h27.31v8.54h-16.18v3.94h14.21v8.16h-14.21v4.42h16.8Z"/>
        <path class="cls-8" d="M1108.16,460.22v33.6h-9.31l-12.77-15.27v15.27h-11.04v-33.6h9.31l12.77,15.27v-15.27h11.04Z"/>
        <path class="cls-8" d="M1120.92,469.01h-9.84v-8.78h31.01v8.78h-9.84v24.82h-11.33v-24.82Z"/>
        <path class="cls-8" d="M1214.09,460.22l-10.75,33.6h-12.15l-5.42-17.95-5.71,17.95h-12.15l-10.75-33.6h11.67l5.86,19.11,6.19-19.11h10.42l5.86,19.35,6.19-19.35h10.75Z"/>
        <path class="cls-8" d="M1244.52,485.28v8.54h-27.94v-33.6h27.31v8.54h-16.18v3.94h14.21v8.16h-14.21v4.42h16.8Z"/>
        <path class="cls-8" d="M1282.01,484.56c0,5.86-4.94,9.26-14.21,9.26h-18.91v-33.6h17.95c9.27,0,13.59,3.7,13.59,8.78,0,3.12-1.58,5.71-4.66,7.25,3.94,1.44,6.24,4.32,6.24,8.3Zm-21.99-16.42v4.99h5.28c2.54,0,3.7-.86,3.7-2.5s-1.15-2.5-3.7-2.5h-5.28Zm10.56,15.12c0-1.73-1.25-2.64-3.74-2.64h-6.82v5.28h6.82c2.5,0,3.74-.91,3.74-2.64Z"/>
      </g>
      <text class="cls-3" transform="translate(636.75 493.83)"><tspan x="0" y="0">&gt; D</tspan><tspan class="cls-1" x="83.81" y="0">É</tspan><tspan class="cls-10" x="115.63" y="0">V</tspan><tspan x="152.64" y="0">E</tspan><tspan class="cls-1" x="184.94" y="0">L</tspan><tspan x="214.08" y="0">O</tspan><tspan class="cls-1" x="254.78" y="0">PP</tspan><tspan x="325.15" y="0">EMENT </tspan><tspan class="cls-10" x="519.93" y="0">W</tspan><tspan x="577.1" y="0">EB</tspan></text>
    </g>
    <g>
      <path class="cls-4" d="M1288.75,493.83h24v5.76h-24v-5.76Z"/>
      <path class="cls-2" d="M1288.75,493.83h24v5.76h-24v-5.76Z"/>
    </g>
    <g>
      <g>
        <path class="cls-18" d="M663.87,472.75v8.54l-24.48,8.88v-8.16l14.55-4.99-14.55-4.99v-8.16l24.48,8.88Z"/>
        <path class="cls-12" d="M683.64,460.22h16.56c11.23,0,18.96,6.38,18.96,16.8s-7.73,16.8-18.96,16.8h-16.56v-33.6Zm16.08,24.77c4.75,0,8.02-2.83,8.02-7.97s-3.26-7.97-8.02-7.97h-4.75v15.94h4.75Z"/>
        <path class="cls-23" d="M751.23,485.28v8.54h-27.94v-33.6h27.31v8.54h-16.18v3.94h14.21v8.16h-14.21v4.42h16.8Zm-12.1-27.79h-7.2l6.34-7.68h10.32l-9.46,7.68Z"/>
        <path class="cls-27" d="M791.02,460.22l-14.21,33.6h-11.14l-14.21-33.6h12.19l8.02,19.63,8.21-19.63h11.14Z"/>
        <path class="cls-6" d="M820.06,485.28v8.54h-27.94v-33.6h27.31v8.54h-16.18v3.94h14.21v8.16h-14.21v4.42h16.8Z"/>
        <path class="cls-22" d="M824.43,460.22h11.33v24.82h15.17v8.78h-26.5v-33.6Z"/>
        <path class="cls-13" d="M852.22,477.03c0-10.18,8.02-17.57,18.96-17.57s18.96,7.39,18.96,17.57-8.02,17.57-18.96,17.57-18.96-7.39-18.96-17.57Zm26.5,0c0-5.23-3.36-8.4-7.54-8.4s-7.54,3.17-7.54,8.4,3.36,8.4,7.54,8.4,7.54-3.17,7.54-8.4Z"/>
        <path class="cls-5" d="M925.76,472.9c0,7.78-5.95,12.67-15.31,12.67h-4.85v8.26h-11.33v-33.6h16.18c9.36,0,15.31,4.9,15.31,12.67Zm-11.42,0c0-2.45-1.49-3.94-4.61-3.94h-4.13v7.87h4.13c3.12,0,4.61-1.49,4.61-3.94Z"/>
        <path class="cls-9" d="M960.94,472.9c0,7.78-5.95,12.67-15.31,12.67h-4.85v8.26h-11.33v-33.6h16.18c9.36,0,15.31,4.9,15.31,12.67Zm-11.43,0c0-2.45-1.49-3.94-4.61-3.94h-4.13v7.87h4.13c3.12,0,4.61-1.49,4.61-3.94Z"/>
        <path class="cls-25" d="M992.57,485.28v8.54h-27.94v-33.6h27.31v8.54h-16.18v3.94h14.21v8.16h-14.21v4.42h16.8Z"/>
        <path class="cls-11" d="M1026.94,493.83l-.1-15.31-7.3,12.29h-4.99l-7.3-11.76v14.79h-10.32v-33.6h9.31l10.94,17.91,10.66-17.91h9.31l.1,33.6h-10.32Z"/>
        <path class="cls-7" d="M1070.67,485.28v8.54h-27.94v-33.6h27.31v8.54h-16.18v3.94h14.21v8.16h-14.21v4.42h16.8Z"/>
        <path class="cls-20" d="M1108.15,460.22v33.6h-9.31l-12.77-15.26v15.26h-11.04v-33.6h9.31l12.77,15.27v-15.27h11.04Z"/>
        <path class="cls-24" d="M1120.92,469.01h-9.84v-8.78h31.01v8.78h-9.84v24.82h-11.33v-24.82Z"/>
        <path class="cls-19" d="M1214.09,460.22l-10.75,33.6h-12.15l-5.42-17.95-5.71,17.95h-12.14l-10.75-33.6h11.67l5.86,19.11,6.19-19.11h10.42l5.86,19.35,6.19-19.35h10.75Z"/>
        <path class="cls-14" d="M1244.52,485.28v8.54h-27.94v-33.6h27.31v8.54h-16.18v3.94h14.21v8.16h-14.21v4.42h16.8Z"/>
        <path class="cls-15" d="M1282.01,484.56c0,5.86-4.94,9.26-14.21,9.26h-18.91v-33.6h17.95c9.26,0,13.58,3.7,13.58,8.78,0,3.12-1.58,5.71-4.66,7.25,3.94,1.44,6.24,4.32,6.24,8.3Zm-21.99-16.42v4.99h5.28c2.54,0,3.7-.86,3.7-2.5s-1.15-2.5-3.7-2.5h-5.28Zm10.56,15.12c0-1.73-1.25-2.64-3.74-2.64h-6.82v5.28h6.82c2.5,0,3.74-.91,3.74-2.64Z"/>
      </g>
      <g>
        <path class="cls-2" d="M663.87,472.75v8.54l-24.48,8.88v-8.16l14.55-4.99-14.55-4.99v-8.16l24.48,8.88Z"/>
        <path class="cls-2" d="M683.64,460.22h16.56c11.23,0,18.96,6.38,18.96,16.8s-7.73,16.8-18.96,16.8h-16.56v-33.6Zm16.08,24.77c4.75,0,8.02-2.83,8.02-7.97s-3.26-7.97-8.02-7.97h-4.75v15.94h4.75Z"/>
        <path class="cls-2" d="M751.23,485.28v8.54h-27.94v-33.6h27.31v8.54h-16.18v3.94h14.21v8.16h-14.21v4.42h16.8Zm-12.1-27.79h-7.2l6.34-7.68h10.32l-9.46,7.68Z"/>
        <path class="cls-2" d="M791.02,460.22l-14.21,33.6h-11.14l-14.21-33.6h12.19l8.02,19.63,8.21-19.63h11.14Z"/>
        <path class="cls-2" d="M820.06,485.28v8.54h-27.94v-33.6h27.31v8.54h-16.18v3.94h14.21v8.16h-14.21v4.42h16.8Z"/>
        <path class="cls-2" d="M824.43,460.22h11.33v24.82h15.17v8.78h-26.5v-33.6Z"/>
        <path class="cls-2" d="M852.22,477.03c0-10.18,8.02-17.57,18.96-17.57s18.96,7.39,18.96,17.57-8.02,17.57-18.96,17.57-18.96-7.39-18.96-17.57Zm26.5,0c0-5.23-3.36-8.4-7.54-8.4s-7.54,3.17-7.54,8.4,3.36,8.4,7.54,8.4,7.54-3.17,7.54-8.4Z"/>
        <path class="cls-2" d="M925.76,472.9c0,7.78-5.95,12.67-15.31,12.67h-4.85v8.26h-11.33v-33.6h16.18c9.36,0,15.31,4.9,15.31,12.67Zm-11.42,0c0-2.45-1.49-3.94-4.61-3.94h-4.13v7.87h4.13c3.12,0,4.61-1.49,4.61-3.94Z"/>
        <path class="cls-2" d="M960.94,472.9c0,7.78-5.95,12.67-15.31,12.67h-4.85v8.26h-11.33v-33.6h16.18c9.36,0,15.31,4.9,15.31,12.67Zm-11.43,0c0-2.45-1.49-3.94-4.61-3.94h-4.13v7.87h4.13c3.12,0,4.61-1.49,4.61-3.94Z"/>
        <path class="cls-2" d="M992.57,485.28v8.54h-27.94v-33.6h27.31v8.54h-16.18v3.94h14.21v8.16h-14.21v4.42h16.8Z"/>
        <path class="cls-2" d="M1026.94,493.83l-.1-15.31-7.3,12.29h-4.99l-7.3-11.76v14.79h-10.32v-33.6h9.31l10.94,17.91,10.66-17.91h9.31l.1,33.6h-10.32Z"/>
        <path class="cls-2" d="M1070.67,485.28v8.54h-27.94v-33.6h27.31v8.54h-16.18v3.94h14.21v8.16h-14.21v4.42h16.8Z"/>
        <path class="cls-2" d="M1108.15,460.22v33.6h-9.31l-12.77-15.26v15.26h-11.04v-33.6h9.31l12.77,15.27v-15.27h11.04Z"/>
        <path class="cls-2" d="M1120.92,469.01h-9.84v-8.78h31.01v8.78h-9.84v24.82h-11.33v-24.82Z"/>
        <path class="cls-2" d="M1214.09,460.22l-10.75,33.6h-12.15l-5.42-17.95-5.71,17.95h-12.14l-10.75-33.6h11.67l5.86,19.11,6.19-19.11h10.42l5.86,19.35,6.19-19.35h10.75Z"/>
        <path class="cls-2" d="M1244.52,485.28v8.54h-27.94v-33.6h27.31v8.54h-16.18v3.94h14.21v8.16h-14.21v4.42h16.8Z"/>
        <path class="cls-2" d="M1282.01,484.56c0,5.86-4.94,9.26-14.21,9.26h-18.91v-33.6h17.95c9.26,0,13.58,3.7,13.58,8.78,0,3.12-1.58,5.71-4.66,7.25,3.94,1.44,6.24,4.32,6.24,8.3Zm-21.99-16.42v4.99h5.28c2.54,0,3.7-.86,3.7-2.5s-1.15-2.5-3.7-2.5h-5.28Zm10.56,15.12c0-1.73-1.25-2.64-3.74-2.64h-6.82v5.28h6.82c2.5,0,3.74-.91,3.74-2.64Z"/>
      </g>
    </g>
  </g>
  <g id="Frame_12" data-name="Frame 12">
    <path class="cls-26" d="M1028.14,396.55c62.76,2.72,125.59,1.63,188.34-.82,62.85-2.45,125.63-6.24,188.48-8.83,62.59-2.59,125.29-4,187.91-1.67,31.24,1.16,62.44,3.26,93.52,6.6,27.48,2.95,55.16,6.33,82.02,12.98,23.45,5.81,46.64,14.38,66.26,28.77,9.97,7.31,20.13,16.6,26.32,27.43,3.43,5.99,5.1,13.08,1.59,19.41-2.56,4.62-7.13,7.72-11.74,10.03-5.05,2.53-10.51,4.15-15.97,5.54-3.12,.8-1.8,5.62,1.33,4.82,10.05-2.57,21.43-6.15,28.3-14.43,8.02-9.66,5.2-21.86-1.46-31.43-13.94-20.04-35.55-34.06-57.73-43.38-23.42-9.85-48.48-15.14-73.51-18.93-31.21-4.73-62.68-7.91-94.17-10.06-64.91-4.42-130.04-4.15-195.03-2.06-65.03,2.09-129.98,5.99-194.98,8.91-64.93,2.92-129.96,4.86-194.96,3.01-8.18-.23-16.36-.53-24.53-.89-3.22-.14-3.21,4.86,0,5h0Z"/>
    <path class="cls-26" d="M1835.46,474.63c-4.2,4.62-8.39,9.24-12.59,13.87-2.04,2.25-4.09,4.5-6.13,6.75-1.77,1.95-3.55,4.12-3.63,6.89-.13,5.01,4.91,7.65,9.06,8.86,5.85,1.7,11.79,3.11,17.68,4.66,6.81,1.79,13.61,3.58,20.42,5.38,3.11,.82,4.44-4,1.33-4.82-11.05-2.91-22.1-5.82-33.15-8.73-2.28-.6-4.67-1.05-6.85-1.96-1.31-.54-2.94-1.42-3.39-2.6-.55-1.42,1.19-3.17,2.23-4.32,1.88-2.07,3.75-4.14,5.63-6.2,4.31-4.74,8.61-9.49,12.92-14.23,2.16-2.38-1.37-5.92-3.54-3.54h0Z"/>
  </g>
</svg>