<?xml version="1.0" encoding="UTF-8"?>
<svg id="Frame_12" data-name="Frame 12" xmlns="http://www.w3.org/2000/svg" xmlns:xlink="http://www.w3.org/1999/xlink" viewBox="0 0 1920 1080">
  <defs>
    <style>
      .cls-1 {
        fill: #7237bd;
      }

      .cls-2 {
        fill: url(#Dégradé_sans_nom_2);
      }

      .cls-3 {
        stroke-width: 18px;
      }

      .cls-3, .cls-4, .cls-5, .cls-6, .cls-7 {
        stroke-miterlimit: 10;
      }

      .cls-3, .cls-5, .cls-6, .cls-8 {
        fill: none;
      }

      .cls-3, .cls-6 {
        stroke: #6262c5;
      }

      .cls-9 {
        fill: #6262c5;
      }

      .cls-4 {
        fill: url(#Dégradé_sans_nom_5);
      }

      .cls-4, .cls-7 {
        stroke: #1d1d1b;
      }

      .cls-5, .cls-8 {
        stroke: #fff;
        stroke-width: 2px;
      }

      .cls-6 {
        stroke-width: 8px;
      }

      .cls-10 {
        letter-spacing: 0em;
      }

      .cls-8 {
        stroke-linecap: round;
        stroke-linejoin: round;
      }

      .cls-11 {
        fill: #fd0988;
      }

      .cls-12 {
        fill: #191c26;
      }

      .cls-7 {
        fill: url(#Dégradé_sans_nom_4);
      }

      .cls-13 {
        letter-spacing: -.02em;
      }

      .cls-14 {
        fill: #fff;
        font-family: Montserrat-Black, Montserrat;
        font-size: 24px;
      }

      .cls-15 {
        fill: red;
      }
    </style>
    <linearGradient id="Dégradé_sans_nom_4" data-name="Dégradé sans nom 4" x1="960" y1="1080" x2="960" y2="0" gradientUnits="userSpaceOnUse">
      <stop offset="0" stop-color="#16163c"/>
      <stop offset="1" stop-color="#7237bd"/>
    </linearGradient>
    <linearGradient id="Dégradé_sans_nom_2" data-name="Dégradé sans nom 2" x1="1500.56" y1="113.47" x2="1583.36" y2="131.64" gradientUnits="userSpaceOnUse">
      <stop offset="0" stop-color="#7237bd"/>
      <stop offset="1" stop-color="#fff"/>
    </linearGradient>
    <linearGradient id="Dégradé_sans_nom_5" data-name="Dégradé sans nom 5" x1="1458.08" y1="1018.06" x2="1512.08" y2="961.53" gradientUnits="userSpaceOnUse">
      <stop offset="0" stop-color="#16163c"/>
      <stop offset="1" stop-color="#7237bd"/>
    </linearGradient>
  </defs>
  <rect class="cls-7" y="0" width="1920" height="1080"/>
  <rect class="cls-6" x="-85.54" y="149.4" width="1388.81" height="781.21"/>
  <rect class="cls-6" x="-85.54" y="149.4" width="1388.81" height="390.6"/>
  <rect class="cls-6" x="-7.04" y="612.71" width="584.8" height="243"/>
  <rect class="cls-6" x="639.97" y="612.71" width="584.8" height="243"/>
  <rect class="cls-6" x="-46.17" y="187.46" width="57.96" height="57.96"/>
  <rect class="cls-6" x="2.85" y="105.33" width="19.32" height="19.32"/>
  <rect class="cls-6" x="1033.55" y="187.46" width="231.82" height="57.96"/>
  <rect class="cls-12" x="1379.23" y="0" width="540.77" height="1080"/>
  <circle class="cls-11" cx="1379.23" cy="462.52" r="31.11"/>
  <polygon class="cls-1" points="1459.93 120.39 1486.13 135.52 1486.13 105.26 1459.93 120.39"/>
  <polygon class="cls-1" points="1615.07 120.39 1588.86 105.26 1588.86 135.52 1615.07 120.39"/>
  <g>
    <g>
      <path class="cls-2" d="M1500.26,120.7c0-5.16,3.96-8.78,9.36-8.78,3.29,0,5.88,1.2,7.54,3.36l-3.58,3.19c-.98-1.25-2.16-1.97-3.67-1.97-2.35,0-3.94,1.63-3.94,4.2s1.58,4.2,3.94,4.2c1.51,0,2.69-.72,3.67-1.97l3.58,3.19c-1.66,2.16-4.25,3.36-7.54,3.36-5.4,0-9.36-3.62-9.36-8.79Z"/>
      <path class="cls-2" d="M1517.75,120.7c0-5.09,4.01-8.78,9.48-8.78s9.48,3.7,9.48,8.78-4.01,8.79-9.48,8.79-9.48-3.7-9.48-8.79Zm13.25,0c0-2.62-1.68-4.2-3.77-4.2s-3.77,1.58-3.77,4.2,1.68,4.2,3.77,4.2,3.77-1.58,3.77-4.2Z"/>
      <path class="cls-2" d="M1538.77,112.3h8.28c5.62,0,9.48,3.19,9.48,8.4s-3.86,8.4-9.48,8.4h-8.28v-16.8Zm8.04,12.38c2.38,0,4.01-1.42,4.01-3.98s-1.63-3.98-4.01-3.98h-2.38v7.97h2.38Z"/>
      <path class="cls-2" d="M1572.57,124.83v4.27h-13.97v-16.8h13.66v4.27h-8.09v1.97h7.1v4.08h-7.1v2.21h8.4Z"/>
    </g>
    <text class="cls-14" transform="translate(1499.56 129.1)"><tspan class="cls-13" x="0" y="0">C</tspan><tspan class="cls-10" x="17.5" y="0">ODE</tspan></text>
  </g>
  <circle class="cls-9" cx="1473.03" cy="289.39" r="13.1"/>
  <circle class="cls-4" cx="1485.77" cy="989.07" r="26.2"/>
  <rect class="cls-11" x="1459.93" y="347.35" width="26.2" height="26.2"/>
  <polygon class="cls-1" points="1473.03 422.35 1486.49 418.4 1482.54 431.86 1486.49 445.32 1473.03 441.38 1459.57 445.32 1463.51 431.86 1459.57 418.4 1473.03 422.35"/>
  <line class="cls-5" x1="1507.48" y1="289.39" x2="1695.63" y2="289.39"/>
  <line class="cls-3" x1="1507.48" y1="503.28" x2="1713.91" y2="503.28"/>
  <line class="cls-5" x1="1507.48" y1="360.45" x2="1663.1" y2="360.45"/>
  <line class="cls-5" x1="1507.48" y1="431.86" x2="1732.1" y2="431.86"/>
  <polygon class="cls-9" points="1473.03 490.18 1459.93 512.87 1486.13 512.87 1473.03 490.18"/>
  <g>
    <polyline class="cls-8" points="1473.82 989.07 1497.72 989.07 1488.14 979.48"/>
    <polyline class="cls-8" points="1473.82 989.07 1497.72 989.07 1488.14 998.65"/>
  </g>
  <path class="cls-15" d="M761,1015.38c-2.74,15.33-4.89,30.76-6.44,46.26-.13,1.35,1.25,2.5,2.5,2.5,1.46,0,2.37-1.15,2.5-2.5,1.51-15.05,3.6-30.04,6.26-44.93,.24-1.33-.36-2.69-1.75-3.08-1.21-.33-2.84,.41-3.08,1.75h0Z"/>
  <path class="cls-15" d="M741.17,1058.36c3.52,3.95,7.05,7.9,10.57,11.85,2.73,3.06,5.73,6.45,10.28,5.58,3.1-.6,5.21-3.22,7-5.61s3.33-4.99,5.68-6.39c2.76-1.65,.25-5.98-2.52-4.32-2.64,1.58-4.48,4.06-6.25,6.52-.86,1.19-1.45,2.07-2.41,3.13-.4,.44-.83,.88-1.3,1.25,.33-.25-.41,.24-.49,.28-.14,.08-.27,.15-.42,.21,.21-.09,.23-.1,.06-.04-.11,.03-.88,.18-.35,.12-.1,.01-1.01-.01-.56,.04-.71-.09-1.35-.4-1.91-.83-1.55-1.2-2.8-2.94-4.09-4.39l-9.75-10.93c-2.15-2.41-5.67,1.14-3.54,3.54h0Z"/>
  <path class="cls-15" d="M1873.13,621.26c-26.32-.37-52.65-.25-78.96,.39-26.32,.64-52.62,1.79-78.89,3.45-26.4,1.67-52.77,3.85-79.09,6.54-26.15,2.67-52.24,5.85-78.27,9.52-26.07,3.68-52.06,7.86-77.96,12.54-3.24,.59-6.47,1.18-9.71,1.78s-1.82,5.41,1.33,4.82c51.8-9.62,103.97-17.24,156.36-22.81,52.09-5.54,104.39-9.07,156.75-10.59,29.47-.86,58.96-1.07,88.44-.65,3.22,.05,3.22-4.95,0-5h0Z"/>
  <path class="cls-15" d="M1455.96,604.35c-17.66,4.64-35.07,10.22-52.12,16.74-8.58,3.28-17.07,6.79-25.47,10.53-7.45,3.31-15.46,6.35-21.64,11.83-5.27,4.67-9.03,12.26-4.51,18.8,2.16,3.13,5.4,5.01,8.85,6.43,3.84,1.58,7.89,2.68,11.86,3.88,17.61,5.32,35.51,9.7,53.59,13.12,18.22,3.44,36.63,5.92,55.11,7.42,2.3,.19,4.61,.36,6.91,.51,1.35,.09,2.5-1.21,2.5-2.5,0-1.43-1.15-2.41-2.5-2.5-17.66-1.2-35.25-3.29-52.7-6.31-17.5-3.03-34.85-6.95-51.95-11.76-4.29-1.21-8.57-2.47-12.83-3.79-3.48-1.08-7.13-2.01-10.37-3.73-2.61-1.38-5.02-3.42-5.46-6.51-.37-2.58,.98-5.2,2.72-7.2,4.91-5.68,12.21-8.51,18.87-11.55,7.97-3.63,16.03-7.05,24.18-10.24,16.34-6.41,33.01-11.97,49.92-16.64,2.12-.59,4.25-1.16,6.38-1.72,3.11-.82,1.79-5.64-1.33-4.82h0Z"/>
  <path class="cls-15" d="M858.52,84.59c-25.72-3.42-51.72-1.67-77.35,1.66-25.86,3.36-51.54,7.98-77.39,11.44-51.64,6.92-103.62,11.28-155.69,13.07-29.31,1.01-58.64,1.2-87.96,.59-3.22-.07-3.22,4.93,0,5,52.35,1.09,104.75-.4,156.96-4.48,25.84-2.02,51.63-4.68,77.34-7.96,25.86-3.3,51.55-7.66,77.35-11.37,28.69-4.13,57.87-6.79,86.74-2.95,1.35,.18,2.49-1.28,2.5-2.5,.02-1.5-1.17-2.32-2.5-2.5h0Z"/>
  <path class="cls-15" d="M462.59,76.58c-10.98,8.09-21.95,16.19-32.93,24.28-2.68,1.97-5.35,3.95-8.03,5.92-2.45,1.8-5.42,3.48-7.34,5.87-2.15,2.67-2.01,6.35,1.14,8.18,1.13,.66,2.46,1,3.69,1.41,1.72,.56,3.44,1.12,5.16,1.68,7.2,2.34,14.39,4.68,21.59,7.03,3.07,1,4.38-3.83,1.33-4.82-5.87-1.91-11.73-3.82-17.6-5.73-2.89-.94-5.79-1.88-8.68-2.83-1.02-.33-2.08-.61-3.04-1.07-.67-.32-.09-.16-.11-.11,.18-.5,.63-.89,1-1.24,2.09-1.96,4.68-3.53,6.99-5.23,2.54-1.88,5.09-3.75,7.63-5.63,4.95-3.65,9.9-7.3,14.86-10.96,5.62-4.15,11.24-8.29,16.86-12.44,1.08-.8,1.63-2.17,.9-3.42-.63-1.07-2.33-1.7-3.42-.9h0Z"/>
</svg>