<?xml version="1.0" encoding="UTF-8"?>
<svg id="Frame_13" data-name="Frame 13" xmlns="http://www.w3.org/2000/svg" xmlns:xlink="http://www.w3.org/1999/xlink" viewBox="0 0 1920 1080">
  <defs>
    <style>
      .cls-1 {
        fill: #7237bd;
      }

      .cls-2 {
        fill: url(#Dégradé_sans_nom_2);
      }

      .cls-3 {
        fill: #6262c5;
      }

      .cls-4 {
        fill: url(#Dégradé_sans_nom_5);
      }

      .cls-4, .cls-5, .cls-6, .cls-7 {
        stroke-miterlimit: 10;
      }

      .cls-4, .cls-7 {
        stroke: #1d1d1b;
      }

      .cls-5, .cls-6, .cls-8 {
        fill: none;
      }

      .cls-5, .cls-8 {
        stroke: #fff;
        stroke-width: 2px;
      }

      .cls-6 {
        stroke: #6262c5;
        stroke-width: 8px;
      }

      .cls-9 {
        letter-spacing: 0em;
      }

      .cls-8 {
        stroke-linecap: round;
        stroke-linejoin: round;
      }

      .cls-10 {
        fill: #fd0988;
      }

      .cls-11 {
        fill: #191c26;
      }

      .cls-7 {
        fill: url(#Dégradé_sans_nom_4);
      }

      .cls-12 {
        letter-spacing: -.02em;
      }

      .cls-13 {
        fill: #fff;
        font-family: Montserrat-Black, Montserrat;
        font-size: 24px;
      }

      .cls-14 {
        fill: red;
      }
    </style>
    <linearGradient id="Dégradé_sans_nom_4" data-name="Dégradé sans nom 4" x1="960" y1="1080" x2="960" y2="0" gradientUnits="userSpaceOnUse">
      <stop offset="0" stop-color="#16163c"/>
      <stop offset="1" stop-color="#7237bd"/>
    </linearGradient>
    <linearGradient id="Dégradé_sans_nom_2" data-name="Dégradé sans nom 2" x1="1500.56" y1="113.47" x2="1583.36" y2="131.64" gradientUnits="userSpaceOnUse">
      <stop offset="0" stop-color="#7237bd"/>
      <stop offset="1" stop-color="#fff"/>
    </linearGradient>
    <linearGradient id="Dégradé_sans_nom_5" data-name="Dégradé sans nom 5" x1="1458.08" y1="1018.06" x2="1512.08" y2="961.53" gradientUnits="userSpaceOnUse">
      <stop offset="0" stop-color="#16163c"/>
      <stop offset="1" stop-color="#7237bd"/>
    </linearGradient>
  </defs>
  <rect class="cls-7" y="0" width="1920" height="1080"/>
  <rect class="cls-6" x="-85.54" y="149.4" width="1388.81" height="781.21"/>
  <rect class="cls-6" x="-85.54" y="149.4" width="1388.81" height="390.6"/>
  <rect class="cls-6" x="-7.04" y="612.71" width="584.8" height="243"/>
  <rect class="cls-6" x="639.97" y="612.71" width="584.8" height="243"/>
  <rect class="cls-6" x="-46.17" y="187.46" width="57.96" height="57.96"/>
  <rect class="cls-6" x="2.85" y="105.33" width="19.32" height="19.32"/>
  <rect class="cls-6" x="1033.55" y="187.46" width="231.82" height="57.96"/>
  <rect class="cls-11" x="1379.23" y="0" width="540.77" height="1080"/>
  <circle class="cls-10" cx="1772.98" cy="600.78" r="31.11"/>
  <polygon class="cls-1" points="1459.93 120.39 1486.13 135.52 1486.13 105.26 1459.93 120.39"/>
  <polygon class="cls-1" points="1615.07 120.39 1588.86 105.26 1588.86 135.52 1615.07 120.39"/>
  <g>
    <g>
      <path class="cls-2" d="M1500.25,120.7c0-5.16,3.96-8.78,9.36-8.78,3.29,0,5.88,1.2,7.54,3.36l-3.58,3.19c-.98-1.25-2.16-1.97-3.67-1.97-2.35,0-3.94,1.63-3.94,4.2s1.58,4.2,3.94,4.2c1.51,0,2.69-.72,3.67-1.97l3.58,3.19c-1.66,2.16-4.25,3.36-7.54,3.36-5.4,0-9.36-3.62-9.36-8.79Z"/>
      <path class="cls-2" d="M1517.75,120.7c0-5.09,4.01-8.78,9.48-8.78s9.48,3.7,9.48,8.78-4.01,8.79-9.48,8.79-9.48-3.7-9.48-8.79Zm13.25,0c0-2.62-1.68-4.2-3.77-4.2s-3.77,1.58-3.77,4.2,1.68,4.2,3.77,4.2,3.77-1.58,3.77-4.2Z"/>
      <path class="cls-2" d="M1538.78,112.3h8.28c5.62,0,9.48,3.19,9.48,8.4s-3.86,8.4-9.48,8.4h-8.28v-16.8Zm8.04,12.38c2.38,0,4.01-1.42,4.01-3.98s-1.63-3.98-4.01-3.98h-2.38v7.97h2.38Z"/>
      <path class="cls-2" d="M1572.57,124.83v4.27h-13.97v-16.8h13.66v4.27h-8.09v1.97h7.1v4.08h-7.1v2.21h8.4Z"/>
    </g>
    <text class="cls-13" transform="translate(1499.56 129.1)"><tspan class="cls-12" x="0" y="0">C</tspan><tspan class="cls-9" x="17.5" y="0">ODE</tspan></text>
  </g>
  <circle class="cls-3" cx="1473.03" cy="289.39" r="13.1"/>
  <circle class="cls-4" cx="1485.77" cy="989.07" r="26.2"/>
  <rect class="cls-10" x="1459.93" y="347.35" width="26.2" height="26.2"/>
  <polygon class="cls-1" points="1473.03 422.35 1486.49 418.4 1482.54 431.86 1486.49 445.32 1473.03 441.38 1459.57 445.32 1463.51 431.86 1459.57 418.4 1473.03 422.35"/>
  <line class="cls-5" x1="1507.48" y1="289.39" x2="1695.63" y2="289.39"/>
  <line class="cls-5" x1="1507.48" y1="503.28" x2="1713.91" y2="503.28"/>
  <line class="cls-5" x1="1507.48" y1="360.45" x2="1663.1" y2="360.45"/>
  <line class="cls-5" x1="1507.48" y1="431.86" x2="1732.1" y2="431.86"/>
  <polygon class="cls-3" points="1473.03 490.18 1459.93 512.87 1486.13 512.87 1473.03 490.18"/>
  <path class="cls-14" d="M1491.15,493.86c22.48-1.43,45-2.39,67.52-2.86,22.52-.47,45.06-.45,67.58,.06,11.22,.25,22.43,.62,33.64,1.12,10.17,.45,20.35,.93,30.48,2.07,18.66,2.12,38.31,6.77,53.31,18.68,12.99,10.32,23.23,25.86,23,42.93-.03,1.99-.19,3.97-.51,5.93-.22,1.33,.35,2.69,1.75,3.08,1.2,.33,2.85-.41,3.08-1.75,2.94-17.86-4.88-35.28-17.28-47.9-13.75-13.98-32.52-21-51.52-24.31-10.22-1.78-20.57-2.63-30.92-3.2-11.23-.62-22.47-1.04-33.7-1.37-22.98-.68-45.97-.86-68.96-.53-22.99,.33-45.97,1.17-68.92,2.51-2.85,.17-5.69,.34-8.54,.52-3.2,.2-3.22,5.21,0,5h0Z"/>
  <path class="cls-14" d="M1734.37,555.61c10.75,9.9,24.17,16.77,38.53,19.54,1.01,.19,2.34-.11,2.82-1.15,3.3-7.13,6.6-14.27,9.9-21.4,.57-1.22,.35-2.69-.9-3.42-1.08-.63-2.85-.33-3.42,.9-3.3,7.13-6.6,14.27-9.9,21.4,.94-.38,1.88-.77,2.82-1.15-13.53-2.62-26.18-8.92-36.32-18.26-2.36-2.18-5.91,1.35-3.54,3.54h0Z"/>
  <polyline class="cls-8" points="1473.63 988.88 1481.85 997.1 1497.92 981.04"/>
</svg>