<?xml version="1.0" encoding="UTF-8"?>
<svg id="Frame_15" data-name="Frame 15" xmlns="http://www.w3.org/2000/svg" xmlns:xlink="http://www.w3.org/1999/xlink" viewBox="0 0 1920 1080">
  <defs>
    <style>
      .cls-1 {
        fill: #fff;
      }

      .cls-2 {
        fill: #7237bd;
        opacity: .25;
      }

      .cls-3 {
        fill: none;
        stroke: #fff;
        stroke-width: 2px;
      }

      .cls-3, .cls-4, .cls-5, .cls-6 {
        stroke-miterlimit: 10;
      }

      .cls-4 {
        fill: url(#Dégradé_sans_nom_4-3);
      }

      .cls-4, .cls-5, .cls-6 {
        stroke: #1d1d1b;
      }

      .cls-7 {
        fill: #fd0988;
      }

      .cls-5 {
        fill: url(#Dégradé_sans_nom_4);
      }

      .cls-6 {
        fill: url(#Dégradé_sans_nom_4-2);
      }

      .cls-8 {
        fill: red;
      }
    </style>
    <linearGradient id="Dégradé_sans_nom_4" data-name="Dégradé sans nom 4" x1="960" y1="1080" x2="960" y2="0" gradientUnits="userSpaceOnUse">
      <stop offset="0" stop-color="#16163c"/>
      <stop offset="1" stop-color="#7237bd"/>
    </linearGradient>
    <linearGradient id="Dégradé_sans_nom_4-2" data-name="Dégradé sans nom 4" x1="960" y1="1080" x2="960" y2="0" xlink:href="#Dégradé_sans_nom_4"/>
    <linearGradient id="Dégradé_sans_nom_4-3" data-name="Dégradé sans nom 4" x1="960" y1="1080" x2="960" y2="0" xlink:href="#Dégradé_sans_nom_4"/>
  </defs>
  <rect class="cls-5" y="0" width="1920" height="1080"/>
  <image width="5472" height="3648" transform="translate(265.59 -102.49) scale(.25)" xlink:href="../../sources/rodeo-project-management-software-PYqzYhTNjho-unsplash.jpg"/>
  <path class="cls-6" d="M0,0V1080H1920V0H0ZM1654.41,930.6H265.59V149.4H1654.41V930.6Z"/>
  <image width="5468" height="3076" transform="translate(991.11 579.8) scale(.11)" xlink:href="../../sources/pylyp-sukhenko-y-XZf_TNRms-unsplash.jpg"/>
  <path class="cls-4" d="M0,0V1080H1920V0H0ZM1575.91,855.71H991.11v-243h584.8v243Zm78.5-315.71H265.59V149.4H1654.41v390.6Z"/>
  <rect class="cls-2" x="265.59" y="540" width="1388.81" height="390.6"/>
  <circle class="cls-7" cx="1732.43" cy="664.46" r="31.11"/>
  <rect class="cls-3" x="265.59" y="149.4" width="1388.81" height="781.21"/>
  <rect class="cls-1" x="1384.68" y="187.46" width="231.82" height="57.96"/>
  <circle class="cls-7" cx="324.28" cy="114.99" r="13.1"/>
  <rect class="cls-7" x="271.81" y="101.89" width="26.2" height="26.2"/>
  <polygon class="cls-7" points="363.93 103.64 350.83 126.33 377.04 126.33 363.93 103.64"/>
  <line class="cls-3" x1="344.09" y1="627.33" x2="815.65" y2="627.33"/>
  <line class="cls-3" x1="344.09" y1="645.9" x2="768.12" y2="645.9"/>
  <line class="cls-3" x1="344.09" y1="664.46" x2="716.93" y2="664.46"/>
  <line class="cls-3" x1="344.09" y1="683.02" x2="799.62" y2="683.02"/>
  <line class="cls-3" x1="344.09" y1="701.58" x2="768.12" y2="701.58"/>
  <line class="cls-3" x1="344.09" y1="738.71" x2="659.56" y2="738.71"/>
  <line class="cls-3" x1="344.09" y1="757.27" x2="734.37" y2="757.27"/>
  <line class="cls-3" x1="344.09" y1="775.83" x2="831.12" y2="775.83"/>
  <line class="cls-3" x1="344.09" y1="794.4" x2="783.31" y2="794.4"/>
  <line class="cls-3" x1="344.09" y1="812.96" x2="691.6" y2="812.96"/>
  <line class="cls-3" x1="344.09" y1="831.52" x2="815.65" y2="831.52"/>
  <polygon class="cls-1" points="333.94 195.95 362.92 187.46 354.43 216.44 362.92 245.42 333.94 236.93 304.96 245.42 313.45 216.44 304.96 187.46 333.94 195.95"/>
  <path class="cls-8" d="M1720.29,1037.93c18.98-1.32,38-2.08,57.03-2.26,19.03-.19,38.06,.19,57.06,1.14,10.74,.53,21.47,1.25,32.19,2.15,1.35,.11,2.5-1.23,2.5-2.5,0-1.45-1.15-2.39-2.5-2.5-18.96-1.58-37.97-2.6-56.99-3.06-19.02-.45-38.06-.34-57.07,.34-10.75,.38-21.49,.95-32.22,1.7-1.35,.09-2.5,1.08-2.5,2.5,0,1.28,1.15,2.59,2.5,2.5h0Z"/>
  <path class="cls-8" d="M1842.83,1008.21c11.06,5.11,21.7,11.11,31.77,17.96,2.52,1.71,5,3.48,7.44,5.29,1.81,1.35,4.35,3,5,5.3,.6,2.13-1.95,3.17-3.52,3.85-2.75,1.19-5.59,2.22-8.43,3.15-6.62,2.18-13.44,3.74-20.34,4.69-1.34,.18-2.07,1.9-1.75,3.08,.4,1.44,1.73,1.93,3.08,1.75,6.75-.93,13.42-2.44,19.9-4.55,3.2-1.04,6.34-2.22,9.44-3.53,2.7-1.14,5.33-2.67,6.37-5.59,2.33-6.55-5.63-11.36-9.98-14.49-5.38-3.86-10.93-7.49-16.63-10.85-6.42-3.79-13.04-7.25-19.82-10.37-1.23-.57-2.69-.35-3.42,.9-.63,1.08-.33,2.85,.9,3.42h0Z"/>
  <path class="cls-8" d="M204.55,105.89c-16.36-4.62-32.01-11.43-46.56-20.23-2.76-1.67-5.28,2.65-2.52,4.32,14.89,9.01,31,16,47.75,20.74,3.1,.88,4.43-3.95,1.33-4.82h0Z"/>
  <path class="cls-8" d="M222.96,91.44c-3.99-11.92-7.99-23.84-11.98-35.75-1.02-3.04-5.85-1.73-4.82,1.33,3.99,11.92,7.99,23.84,11.98,35.75,1.02,3.04,5.85,1.73,4.82-1.33h0Z"/>
  <path class="cls-8" d="M183.68,139.4h-31.5c-3.22,0-3.22,5,0,5h31.5c3.22,0,3.22-5,0-5h0Z"/>
  <path class="cls-8" d="M1650.96,120.11c4.42-12.03,8.84-24.06,13.26-36.09,.47-1.27-.52-2.74-1.75-3.08-1.39-.38-2.61,.47-3.08,1.75-4.42,12.03-8.84,24.06-13.26,36.09-.47,1.27,.52,2.74,1.75,3.08,1.39,.38,2.61-.47,3.08-1.75h0Z"/>
  <path class="cls-8" d="M1664.89,126.54c17.93-3.29,35.18-10.18,50.46-20.12,2.69-1.75,.18-6.08-2.52-4.32-14.96,9.73-31.71,16.39-49.27,19.61-1.33,.24-2.08,1.85-1.75,3.08,.38,1.4,1.74,1.99,3.08,1.75h0Z"/>
  <path class="cls-8" d="M1691.71,152.89c6.77-2.2,13.54-4.39,20.3-6.59,1.28-.42,2.12-1.73,1.75-3.08-.35-1.26-1.79-2.16-3.08-1.75-6.77,2.2-13.54,4.39-20.3,6.59-1.28,.42-2.12,1.73-1.75,3.08,.35,1.26,1.79,2.16,3.08,1.75h0Z"/>
  <path class="cls-8" d="M223.46,919.99c-17.19,3.99-34.39,7.98-51.58,11.97-3.13,.73-1.81,5.55,1.33,4.82,17.19-3.99,34.39-7.98,51.58-11.97,3.13-.73,1.81-5.55-1.33-4.82h0Z"/>
  <path class="cls-8" d="M206.22,945.26c-8.11,9.87-16.21,19.74-24.32,29.6-.86,1.04-1.02,2.52,0,3.54,.88,.88,2.67,1.05,3.54,0,8.11-9.87,16.21-19.74,24.32-29.6,.86-1.04,1.02-2.52,0-3.54-.88-.88-2.67-1.05-3.54,0h0Z"/>
  <path class="cls-8" d="M239.68,972.15c0,3.75,0,7.5,0,11.25,0,1.31,1.15,2.56,2.5,2.5s2.5-1.1,2.5-2.5c0-3.75,0-7.5,0-11.25,0-1.31-1.15-2.56-2.5-2.5s-2.5,1.1-2.5,2.5h0Z"/>
  <path class="cls-8" d="M1616.21,966.16c1.49,8.25,2.98,16.5,4.48,24.75,.24,1.33,1.86,2.08,3.08,1.75,1.4-.38,1.99-1.74,1.75-3.08-1.49-8.25-2.98-16.5-4.48-24.75-.24-1.33-1.86-2.08-3.08-1.75-1.4,.38-1.99,1.74-1.75,3.08h0Z"/>
  <path class="cls-8" d="M1657.76,964.24c8.14,11.46,17.18,22.27,27.08,32.25,2.27,2.29,5.8-1.25,3.54-3.54-9.6-9.68-18.4-20.12-26.29-31.24-.78-1.1-2.18-1.62-3.42-.9-1.09,.64-1.68,2.31-.9,3.42h0Z"/>
  <path class="cls-8" d="M1701.39,938.21c9.13-4.84,20-5.62,29.77-2.32,3.06,1.03,4.37-3.8,1.33-4.82-11.03-3.73-23.36-2.62-33.62,2.82-2.84,1.51-.32,5.83,2.52,4.32h0Z"/>
</svg>