<?xml version="1.0" encoding="UTF-8"?>
<svg id="Frame_16" data-name="Frame 16" xmlns="http://www.w3.org/2000/svg" xmlns:xlink="http://www.w3.org/1999/xlink" viewBox="0 0 1920 1080">
  <defs>
    <style>
      .cls-1 {
        fill: #fff;
      }

      .cls-2 {
        fill: url(#Dégradé_sans_nom_4-3);
      }

      .cls-3 {
        fill: #7237bd;
        opacity: .25;
      }

      .cls-4 {
        fill: none;
        stroke: #fff;
        stroke-width: 2px;
      }

      .cls-4, .cls-5 {
        stroke-miterlimit: 10;
      }

      .cls-6 {
        fill: #fd0988;
      }

      .cls-5 {
        fill: url(#Dégradé_sans_nom_4);
        stroke: #1d1d1b;
      }

      .cls-7 {
        fill: url(#Dégradé_sans_nom_4-2);
      }

      .cls-8 {
        fill: red;
      }
    </style>
    <linearGradient id="Dégradé_sans_nom_4" data-name="Dégradé sans nom 4" x1="960" y1="1080" x2="960" y2="0" gradientUnits="userSpaceOnUse">
      <stop offset="0" stop-color="#16163c"/>
      <stop offset="1" stop-color="#7237bd"/>
    </linearGradient>
    <linearGradient id="Dégradé_sans_nom_4-2" data-name="Dégradé sans nom 4" x1="-349.57" y1="1080" x2="-349.57" y2="0" xlink:href="#Dégradé_sans_nom_4"/>
    <linearGradient id="Dégradé_sans_nom_4-3" data-name="Dégradé sans nom 4" x1="-349.57" y1="1080" x2="-349.57" y2="0" xlink:href="#Dégradé_sans_nom_4"/>
  </defs>
  <rect class="cls-5" x="0" width="1920" height="1080"/>
  <image width="5472" height="3648" transform="translate(-1043.97 -102.49) scale(.25)" xlink:href="../../sources/rodeo-project-management-software-PYqzYhTNjho-unsplash.jpg"/>
  <path class="cls-7" d="M-1309.57,0V1080H610.43V0H-1309.57ZM344.84,930.6H-1043.97V149.4H344.84V930.6Z"/>
  <image width="5468" height="3076" transform="translate(-318.46 579.8) scale(.11)" xlink:href="../../sources/pylyp-sukhenko-y-XZf_TNRms-unsplash.jpg"/>
  <path class="cls-2" d="M-1309.57,0V1080H610.43V0H-1309.57ZM266.34,855.71H-318.46v-243H266.34v243Zm78.5-315.71H-1043.97V149.4H344.84v390.6Z"/>
  <rect class="cls-3" x="-1043.97" y="540" width="1388.81" height="390.6"/>
  <circle class="cls-6" cx="422.86" cy="540" r="31.11"/>
  <rect class="cls-4" x="-1043.97" y="149.4" width="1388.81" height="781.21"/>
  <rect class="cls-1" x="75.11" y="187.46" width="231.82" height="57.96"/>
  <path class="cls-8" d="M1479.79,925.43c-137.83,22.95-276.6,40.12-415.87,51.42-138.79,11.26-278.05,16.73-417.29,16.36-78.37-.21-156.73-2.28-235-6.17-3.22-.16-3.21,4.84,0,5,139.78,6.95,279.83,8.04,419.7,3.24,139.86-4.81,279.52-15.49,418.49-32.02,77.35-9.2,154.48-20.22,231.31-33.01,3.17-.53,1.82-5.35-1.33-4.82h0Z"/>
  <path class="cls-8" d="M401.93,956.58c-19.55,2.98-39.09,5.96-58.64,8.95-19.55,2.98-39.09,5.96-58.64,8.95-4.84,.74-9.87,1.16-14.62,2.38-3.98,1.02-7.73,3.12-9.07,7.23-.45,1.38,.54,2.6,1.75,3.08,14.93,5.84,30.06,11.16,45.36,15.92,15.38,4.79,30.93,9.03,46.61,12.71,15.6,3.66,31.34,6.77,47.16,9.32,15.89,2.56,31.87,4.57,47.9,6.01,15.96,1.43,31.98,2.3,48.01,2.59,2.03,.04,4.07,.06,6.1,.08,3.22,.03,3.22-4.97,0-5-15.95-.15-31.89-.86-47.79-2.13-15.91-1.28-31.78-3.12-47.55-5.53s-31.45-5.38-47.01-8.9c-15.63-3.53-31.14-7.62-46.49-12.25-15.27-4.61-30.38-9.76-45.28-15.44-1.9-.72-3.8-1.46-5.69-2.2l1.75,3.08c.82-2.52,4.09-3.43,6.57-3.97,4.32-.94,8.77-1.4,13.14-2.07,9.53-1.45,19.05-2.91,28.58-4.36,18.97-2.89,37.94-5.79,56.91-8.68,10.76-1.64,21.52-3.28,32.28-4.92,1.34-.2,2.07-1.88,1.75-3.08-.39-1.43-1.74-1.95-3.08-1.75h0Z"/>
</svg>