<?xml version="1.0" encoding="UTF-8"?>
<svg id="Frame_17" data-name="Frame 17" xmlns="http://www.w3.org/2000/svg" xmlns:xlink="http://www.w3.org/1999/xlink" viewBox="0 0 1920 1080">
  <defs>
    <style>
      .cls-1 {
        fill: #7237bd;
      }

      .cls-2 {
        fill: #fff;
      }

      .cls-3 {
        fill: url(#Dégradé_sans_nom_9);
        stroke: #1d1d1b;
      }

      .cls-3, .cls-4, .cls-5 {
        stroke-miterlimit: 10;
      }

      .cls-4 {
        stroke: #fff;
        stroke-width: 10px;
      }

      .cls-4, .cls-5 {
        fill: none;
      }

      .cls-5 {
        stroke: #7237bd;
        stroke-width: 16px;
      }

      .cls-6 {
        fill: #fd0988;
      }

      .cls-7 {
        fill: red;
      }
    </style>
    <linearGradient id="Dégradé_sans_nom_9" data-name="Dégradé sans nom 9" x1="1612.21" y1="1076.31" x2="3532.73" y2="5.7" gradientTransform="translate(-1614.27 1080) scale(1 -1)" gradientUnits="userSpaceOnUse">
      <stop offset="0" stop-color="#16163c"/>
      <stop offset=".17" stop-color="#19153d"/>
      <stop offset=".31" stop-color="#231540"/>
      <stop offset=".43" stop-color="#341445"/>
      <stop offset=".55" stop-color="#4b124d"/>
      <stop offset=".66" stop-color="#6a1157"/>
      <stop offset=".77" stop-color="#900f64"/>
      <stop offset=".87" stop-color="#bd0c73"/>
      <stop offset=".98" stop-color="#ef0983"/>
      <stop offset="1" stop-color="#fd0988"/>
    </linearGradient>
  </defs>
  <rect class="cls-3" y="0" width="1920" height="1080" transform="translate(1920 1080) rotate(-180)"/>
  <line class="cls-4" x1="1920" y1="607.24" x2="0" y2="607.24"/>
  <line class="cls-4" x1="1920" y1="472.82" x2="0" y2="472.82"/>
  <circle class="cls-6" cx="1601.76" cy="540" r="62.21"/>
  <polygon class="cls-2" points="608.87 477.42 536.82 602.21 680.92 602.21 608.87 477.42"/>
  <rect class="cls-2" x="792.41" y="477.42" width="124.8" height="124.8"/>
  <polygon class="cls-2" points="342.08 495.69 404.47 477.42 386.2 539.81 404.47 602.21 342.08 583.94 279.68 602.21 297.95 539.81 279.68 477.42 342.08 495.69"/>
  <rect class="cls-2" x="1118.26" y="495.69" width="88.24" height="88.24" transform="translate(-41.25 980.03) rotate(-45)"/>
  <line class="cls-5" x1="121.25" y1="1080" x2="121.25" y2="409.36"/>
  <polygon class="cls-1" points="121.25 434.2 175.13 340.88 67.38 340.88 121.25 434.2"/>
  <path class="cls-7" d="M1827.19,686.74c-26.17,1.8-52.33,3.6-78.5,5.4-26.08,1.79-52.17,3.59-78.25,5.38-14.7,1.01-29.41,2.02-44.11,3.03-1.35,.09-2.5,1.08-2.5,2.5,0,1.28,1.15,2.59,2.5,2.5,26.17-1.8,52.33-3.6,78.5-5.4,26.08-1.79,52.17-3.59,78.25-5.38,14.7-1.01,29.41-2.02,44.11-3.03,1.35-.09,2.5-1.08,2.5-2.5,0-1.28-1.15-2.59-2.5-2.5h0Z"/>
  <path class="cls-7" d="M1644.36,676.82c-8.08,3.82-16.17,7.64-24.25,11.46-4.04,1.91-8.08,3.82-12.13,5.73-1.95,.92-3.89,1.84-5.84,2.76-1.71,.81-3.57,1.52-5.11,2.62-3.1,2.22-4.37,6.09-2.07,9.4,2.14,3.07,5.7,4.44,9.08,5.67,7.87,2.87,15.92,5.24,24.09,7.11,9.38,2.15,18.9,3.62,28.49,4.46,1.35,.12,2.5-1.23,2.5-2.5,0-1.45-1.15-2.38-2.5-2.5-15.54-1.36-30.89-4.56-45.7-9.46-3.26-1.08-6.88-1.99-9.81-3.82-.82-.51-1.89-1.31-2.24-2.12-.39-.92,.21-1.62,1.14-2.24,1.43-.95,3.11-1.58,4.66-2.31,1.95-.92,3.89-1.84,5.84-2.76,3.74-1.77,7.49-3.54,11.23-5.31,8.38-3.96,16.77-7.93,25.15-11.89,1.22-.58,1.54-2.33,.9-3.42-.73-1.25-2.2-1.48-3.42-.9h0Z"/>
  <path class="cls-7" d="M36.53,702.92c10.32-1.7,20.48-4.26,30.38-7.65,1.28-.44,2.12-1.72,1.75-3.08-.34-1.24-1.79-2.18-3.08-1.75-9.9,3.38-20.06,5.94-30.38,7.65-1.33,.22-2.08,1.87-1.75,3.08,.39,1.42,1.74,1.97,3.08,1.75h0Z"/>
  <path class="cls-7" d="M62.67,659.74c13.33,5.62,25.55,13.9,35.8,24.09,2.94,2.92,5.71,6,8.32,9.21,.17-1.31,.34-2.62,.51-3.93-9.51,4.19-19.02,8.38-28.54,12.56-1.24,.54-1.52,2.35-.9,3.42,.75,1.27,2.18,1.44,3.42,.9,9.51-4.19,19.02-8.38,28.54-12.56,1.62-.71,1.4-2.82,.51-3.93-9.52-11.73-21.34-21.61-34.56-28.92-3.82-2.11-7.75-3.97-11.77-5.67-1.24-.52-2.75,.56-3.08,1.75-.4,1.44,.5,2.55,1.75,3.08h0Z"/>
</svg>