<?xml version="1.0" encoding="UTF-8"?>
<svg id="Frame_18" data-name="Frame 18" xmlns="http://www.w3.org/2000/svg" xmlns:xlink="http://www.w3.org/1999/xlink" viewBox="0 0 1920 1080">
  <defs>
    <style>
      .cls-1 {
        letter-spacing: 0em;
      }

      .cls-2, .cls-3 {
        fill: #7237bd;
      }

      .cls-4, .cls-5 {
        fill: #fff;
      }

      .cls-6 {
        fill: url(#Dégradé_sans_nom_2-2);
      }

      .cls-7 {
        fill: url(#Dégradé_sans_nom_2-10);
      }

      .cls-8 {
        fill: url(#Dégradé_sans_nom_2-7);
      }

      .cls-9 {
        fill: url(#Dégradé_sans_nom_2-14);
      }

      .cls-10 {
        fill: url(#Dégradé_sans_nom_2);
      }

      .cls-11 {
        fill: url(#Dégradé_sans_nom_2-11);
      }

      .cls-12 {
        letter-spacing: -.01em;
      }

      .cls-13 {
        stroke-linecap: round;
        stroke-width: 6px;
      }

      .cls-13, .cls-14, .cls-15, .cls-16, .cls-17 {
        stroke-miterlimit: 10;
      }

      .cls-13, .cls-14, .cls-16, .cls-17 {
        fill: none;
      }

      .cls-13, .cls-16 {
        stroke: #fff;
      }

      .cls-18 {
        fill: url(#Dégradé_sans_nom_2-13);
      }

      .cls-19 {
        fill: url(#Dégradé_sans_nom_2-4);
      }

      .cls-3 {
        opacity: .25;
      }

      .cls-14 {
        stroke: red;
      }

      .cls-20 {
        fill: url(#Dégradé_sans_nom_2-9);
      }

      .cls-15 {
        fill: url(#Dégradé_sans_nom_9);
        stroke: #1d1d1b;
      }

      .cls-16 {
        stroke-width: 10px;
      }

      .cls-17 {
        stroke: #7237bd;
        stroke-width: 16px;
      }

      .cls-21 {
        fill: url(#Dégradé_sans_nom_2-3);
      }

      .cls-22 {
        letter-spacing: 0em;
      }

      .cls-23 {
        fill: url(#Dégradé_sans_nom_2-15);
      }

      .cls-5 {
        font-family: Montserrat-Black, Montserrat;
        font-size: 48px;
      }

      .cls-24 {
        fill: #fd0988;
      }

      .cls-25 {
        fill: url(#Dégradé_sans_nom_2-8);
      }

      .cls-26 {
        fill: url(#Dégradé_sans_nom_2-5);
      }

      .cls-27 {
        fill: url(#Dégradé_sans_nom_2-16);
      }

      .cls-28 {
        fill: url(#Dégradé_sans_nom_2-12);
      }

      .cls-29 {
        fill: red;
      }

      .cls-30 {
        fill: url(#Dégradé_sans_nom_2-6);
      }
    </style>
    <linearGradient id="Dégradé_sans_nom_9" data-name="Dégradé sans nom 9" x1="-2801.35" y1="1076.31" x2="-880.82" y2="5.7" gradientTransform="translate(2799.29 1080) scale(1 -1)" gradientUnits="userSpaceOnUse">
      <stop offset="0" stop-color="#16163c"/>
      <stop offset=".17" stop-color="#19153d"/>
      <stop offset=".31" stop-color="#231540"/>
      <stop offset=".43" stop-color="#341445"/>
      <stop offset=".55" stop-color="#4b124d"/>
      <stop offset=".66" stop-color="#6a1157"/>
      <stop offset=".77" stop-color="#900f64"/>
      <stop offset=".87" stop-color="#bd0c73"/>
      <stop offset=".98" stop-color="#ef0983"/>
      <stop offset="1" stop-color="#fd0988"/>
    </linearGradient>
    <linearGradient id="Dégradé_sans_nom_2" data-name="Dégradé sans nom 2" x1="541.79" y1="178.16" x2="1418.2" y2="370.42" gradientUnits="userSpaceOnUse">
      <stop offset="0" stop-color="#7237bd"/>
      <stop offset="1" stop-color="#fff"/>
    </linearGradient>
    <linearGradient id="Dégradé_sans_nom_2-2" data-name="Dégradé sans nom 2" x1="742.57" y1="222.25" x2="1196.58" y2="321.85" xlink:href="#Dégradé_sans_nom_2"/>
    <linearGradient id="Dégradé_sans_nom_2-3" data-name="Dégradé sans nom 2" x1="742.57" y1="222.25" x2="1196.58" y2="321.85" xlink:href="#Dégradé_sans_nom_2"/>
    <linearGradient id="Dégradé_sans_nom_2-4" data-name="Dégradé sans nom 2" x1="742.57" y1="222.25" x2="1196.58" y2="321.85" xlink:href="#Dégradé_sans_nom_2"/>
    <linearGradient id="Dégradé_sans_nom_2-5" data-name="Dégradé sans nom 2" x1="742.57" y1="222.25" x2="1196.58" y2="321.85" xlink:href="#Dégradé_sans_nom_2"/>
    <linearGradient id="Dégradé_sans_nom_2-6" data-name="Dégradé sans nom 2" x1="742.57" y1="222.25" x2="1196.58" y2="321.85" xlink:href="#Dégradé_sans_nom_2"/>
    <linearGradient id="Dégradé_sans_nom_2-7" data-name="Dégradé sans nom 2" x1="742.57" y1="222.25" x2="1196.58" y2="321.85" xlink:href="#Dégradé_sans_nom_2"/>
    <linearGradient id="Dégradé_sans_nom_2-8" data-name="Dégradé sans nom 2" x1="742.57" y1="222.25" x2="1196.58" y2="321.85" xlink:href="#Dégradé_sans_nom_2"/>
    <linearGradient id="Dégradé_sans_nom_2-9" data-name="Dégradé sans nom 2" x1="742.57" y1="222.25" x2="1196.58" y2="321.85" xlink:href="#Dégradé_sans_nom_2"/>
    <linearGradient id="Dégradé_sans_nom_2-10" data-name="Dégradé sans nom 2" x1="742.57" y1="222.25" x2="1196.58" y2="321.85" xlink:href="#Dégradé_sans_nom_2"/>
    <linearGradient id="Dégradé_sans_nom_2-11" data-name="Dégradé sans nom 2" x1="742.57" y1="222.25" x2="1196.58" y2="321.85" xlink:href="#Dégradé_sans_nom_2"/>
    <linearGradient id="Dégradé_sans_nom_2-12" data-name="Dégradé sans nom 2" x1="742.57" y1="222.25" x2="1196.58" y2="321.85" xlink:href="#Dégradé_sans_nom_2"/>
    <linearGradient id="Dégradé_sans_nom_2-13" data-name="Dégradé sans nom 2" x1="742.57" y1="222.25" x2="1196.58" y2="321.85" xlink:href="#Dégradé_sans_nom_2"/>
    <linearGradient id="Dégradé_sans_nom_2-14" data-name="Dégradé sans nom 2" x1="742.57" y1="222.25" x2="1196.58" y2="321.85" xlink:href="#Dégradé_sans_nom_2"/>
    <linearGradient id="Dégradé_sans_nom_2-15" data-name="Dégradé sans nom 2" x1="742.57" y1="222.25" x2="1196.58" y2="321.85" xlink:href="#Dégradé_sans_nom_2"/>
    <linearGradient id="Dégradé_sans_nom_2-16" data-name="Dégradé sans nom 2" x1="742.57" y1="222.25" x2="1196.58" y2="321.85" xlink:href="#Dégradé_sans_nom_2"/>
  </defs>
  <rect class="cls-15" x="0" y="0" width="1920" height="1080" transform="translate(1920 1080) rotate(-180)"/>
  <line class="cls-16" x1="1920" y1="873.17" x2="0" y2="873.17"/>
  <line class="cls-16" x1="1920" y1="738.75" x2="0" y2="738.75"/>
  <circle class="cls-24" cx="1601.76" cy="805.93" r="62.21"/>
  <polygon class="cls-4" points="648.5 743.35 576.45 868.14 720.55 868.14 648.5 743.35"/>
  <rect class="cls-4" x="792.41" y="743.35" width="124.8" height="124.8"/>
  <polygon class="cls-4" points="514.05 761.62 576.45 743.35 558.17 805.74 576.45 868.14 514.05 849.87 451.65 868.14 469.93 805.74 451.65 743.35 514.05 761.62"/>
  <rect class="cls-4" x="1118.26" y="761.62" width="88.24" height="88.24" transform="translate(-229.29 1057.92) rotate(-45)"/>
  <line class="cls-17" x1="443.25" y1="1080" x2="443.25" y2="675.29"/>
  <polygon class="cls-2" points="443.25 700.12 497.13 606.8 389.37 606.8 443.25 700.12"/>
  <path class="cls-3" d="M201.94,0H1718.06V389.81c0,82.79-67.21,150-150,150H351.94c-82.79,0-150-67.21-150-150V0h0Z"/>
  <path class="cls-29" d="M249.67,980.84c81.83-1.03,163.67-1.17,245.51-.42,81.42,.75,162.83,2.39,244.21,4.91,45.91,1.42,91.81,3.13,137.69,5.11,3.22,.14,3.21-4.86,0-5-81.76-3.53-163.56-6.18-245.38-7.93s-162.82-2.6-244.24-2.57c-45.93,.02-91.86,.32-137.78,.89-3.22,.04-3.22,5.04,0,5h0Z"/>
  <path class="cls-29" d="M859.27,958.31c26.11,8.54,50.47,22.42,71.13,40.52,5.82,5.1,11.34,10.52,16.56,16.24,.37-1.39,.74-2.79,1.1-4.18-18.96,4.39-38.45,6.29-57.91,5.65-5.6-.18-11.18-.58-16.75-1.18-1.34-.14-2.5,1.25-2.5,2.5,0,1.47,1.15,2.36,2.5,2.5,19.81,2.12,39.82,1.59,59.5-1.46,5.53-.86,11.03-1.93,16.48-3.19,1.92-.44,2.31-2.85,1.1-4.18-9.5-10.42-20.06-19.84-31.46-28.15-11.27-8.22-23.36-15.32-36.05-21.13-7.29-3.34-14.77-6.27-22.39-8.77-3.07-1-4.38,3.82-1.33,4.82h0Z"/>
  <g>
    <g>
      <path class="cls-10" d="M727.85,266.4c0,7.78-5.95,12.67-15.31,12.67h-4.85v8.26h-11.33v-33.6h16.18c9.36,0,15.31,4.9,15.31,12.67Zm-11.42,0c0-2.45-1.49-3.94-4.61-3.94h-4.13v7.87h4.13c3.12,0,4.61-1.49,4.61-3.94Z"/>
      <path class="cls-10" d="M745.95,278.88h-3.07v8.45h-11.33v-33.6h16.18c9.36,0,15.31,4.9,15.31,12.67,0,4.85-2.3,8.5-6.34,10.56l7.06,10.37h-12.1l-5.71-8.45Zm1.06-16.42h-4.13v7.87h4.13c3.12,0,4.61-1.49,4.61-3.94s-1.49-3.94-4.61-3.94Z"/>
      <path class="cls-10" d="M765.96,270.53c0-10.18,8.02-17.57,18.96-17.57s18.96,7.39,18.96,17.57-8.02,17.57-18.96,17.57-18.96-7.39-18.96-17.57Zm26.5,0c0-5.23-3.36-8.4-7.54-8.4s-7.54,3.17-7.54,8.4,3.36,8.4,7.54,8.4,7.54-3.17,7.54-8.4Z"/>
      <path class="cls-10" d="M808.01,253.73h16.56c11.23,0,18.96,6.38,18.96,16.8s-7.73,16.8-18.96,16.8h-16.56v-33.6Zm16.08,24.77c4.75,0,8.02-2.83,8.02-7.97s-3.26-7.97-8.02-7.97h-4.75v15.94h4.75Z"/>
      <path class="cls-10" d="M847.37,272.21v-18.48h11.33v18.15c0,5.14,1.97,7.06,5.14,7.06s5.14-1.92,5.14-7.06v-18.15h11.14v18.48c0,10.08-6.05,15.89-16.37,15.89s-16.37-5.81-16.37-15.89Z"/>
      <path class="cls-10" d="M883.95,270.53c0-10.32,7.92-17.57,18.72-17.57,6.58,0,11.76,2.4,15.07,6.72l-7.15,6.38c-1.97-2.5-4.32-3.94-7.34-3.94-4.71,0-7.87,3.26-7.87,8.4s3.17,8.4,7.87,8.4c3.02,0,5.38-1.44,7.34-3.94l7.15,6.38c-3.31,4.32-8.5,6.72-15.07,6.72-10.8,0-18.72-7.25-18.72-17.57Z"/>
      <path class="cls-10" d="M928.06,262.51h-9.84v-8.78h31.01v8.78h-9.84v24.82h-11.33v-24.82Z"/>
      <path class="cls-10" d="M952.15,253.73h11.33v33.6h-11.33v-33.6Z"/>
      <path class="cls-10" d="M967.61,270.53c0-10.18,8.02-17.57,18.96-17.57s18.96,7.39,18.96,17.57-8.02,17.57-18.96,17.57-18.96-7.39-18.96-17.57Zm26.5,0c0-5.23-3.36-8.4-7.54-8.4s-7.54,3.17-7.54,8.4,3.36,8.4,7.54,8.4,7.54-3.17,7.54-8.4Z"/>
      <path class="cls-10" d="M1042.78,253.73v33.6h-9.31l-12.77-15.27v15.27h-11.04v-33.6h9.31l12.77,15.27v-15.27h11.04Z"/>
      <path class="cls-10" d="M1098.55,253.73l-14.21,33.6h-11.14l-14.21-33.6h12.19l8.02,19.63,8.21-19.63h11.14Z"/>
      <path class="cls-10" d="M1099.66,253.73h11.33v33.6h-11.33v-33.6Z"/>
      <path class="cls-10" d="M1116.45,253.73h16.56c11.23,0,18.96,6.38,18.96,16.8s-7.73,16.8-18.96,16.8h-16.56v-33.6Zm16.08,24.77c4.75,0,8.02-2.83,8.02-7.97s-3.26-7.97-8.02-7.97h-4.75v15.94h4.75Z"/>
      <path class="cls-10" d="M1184.04,278.79v8.54h-27.94v-33.6h27.31v8.54h-16.18v3.94h14.21v8.16h-14.21v4.42h16.8Zm-12.1-27.79h-7.2l6.34-7.68h10.32l-9.46,7.68Z"/>
      <path class="cls-10" d="M1187.06,270.53c0-10.18,8.02-17.57,18.96-17.57s18.96,7.39,18.96,17.57-8.02,17.57-18.96,17.57-18.96-7.39-18.96-17.57Zm26.5,0c0-5.23-3.36-8.4-7.54-8.4s-7.54,3.17-7.54,8.4,3.36,8.4,7.54,8.4,7.54-3.17,7.54-8.4Z"/>
    </g>
    <text class="cls-5" transform="translate(693.63 287.33)"><tspan class="cls-1" x="0" y="0">P</tspan><tspan x="35.18" y="0">RODU</tspan><tspan class="cls-22" x="188.93" y="0">C</tspan><tspan x="224.4" y="0">TION </tspan><tspan class="cls-12" x="366.28" y="0">V</tspan><tspan x="403.29" y="0">IDÉO</tspan></text>
  </g>
  <line class="cls-13" x1="329" y1="465.77" x2="1579.6" y2="465.77"/>
  <circle class="cls-4" cx="520.24" cy="465.77" r="17.89"/>
  <path class="cls-29" d="M82.14,40.65c.23,75.99,.15,151.98-.22,227.97-.37,75.9-1.04,151.81-2.01,227.71-.54,42.51-1.18,85.02-1.91,127.52-.06,3.22,4.94,3.22,5,0,1.3-75.79,2.31-151.58,3.01-227.37,.71-75.96,1.11-151.92,1.22-227.88,.06-42.65,.03-85.3-.1-127.95,0-3.22-5.01-3.22-5,0h0Z"/>
  <path class="cls-29" d="M60.21,602.21c1.85,15.57,6.47,30.64,13.77,44.52,.73,1.39,2.87,1.66,3.93,.51,9.42-10.29,15.71-23.31,17.71-37.13,.19-1.33-.33-2.69-1.75-3.08-1.17-.32-2.88,.4-3.08,1.75-1.88,12.98-7.56,25.23-16.43,34.92l3.93,.51c-6.86-13.05-11.35-27.36-13.09-42-.16-1.34-1.04-2.5-2.5-2.5-1.23,0-2.66,1.15-2.5,2.5h0Z"/>
  <path class="cls-29" d="M471.62,498.08h33.02c3.22,0,3.22-5,0-5h-33.02c-3.22,0-3.22,5,0,5h0Z"/>
  <path class="cls-29" d="M511.52,488.33c.56,.21,1.19,.49,1.91,.88s1.42,.84,2.09,1.32c.21,.15,.36,.27,.68,.54s.62,.54,.92,.83c.63,.6,1.22,1.25,1.76,1.93,.28,.35-.16-.21,.11,.15,.14,.18,.27,.37,.4,.56,.23,.34,.46,.69,.67,1.04,.42,.71,.81,1.44,1.14,2.2,.18,.41-.1-.26,.06,.16,.08,.21,.16,.43,.24,.64,.14,.39,.26,.78,.37,1.18,.23,.84,.4,1.7,.52,2.56l1.75-3.08c-4.88,1.06-9.77,2.13-14.65,3.19-1.32,.29-2.09,1.82-1.75,3.08,.37,1.36,1.75,2.03,3.08,1.75,4.88-1.06,9.77-2.13,14.65-3.19,1.44-.31,1.92-1.8,1.75-3.08-1.09-7.96-6.92-14.73-14.38-17.5-1.27-.47-2.74,.52-3.08,1.75-.38,1.4,.48,2.6,1.75,3.08h0Z"/>
  <path class="cls-29" d="M745.48,242.27c25.69-4.47,51.91-5.79,77.92-3.99,7.22,.5,14.44,1.23,21.61,2.23,1.34,.18,2.68-.32,3.08-1.75,.32-1.17-.4-2.89-1.75-3.08-26.45-3.66-53.27-4.18-79.83-1.37-7.49,.79-14.94,1.84-22.36,3.13-1.33,.23-2.08,1.86-1.75,3.08,.39,1.41,1.74,1.98,3.08,1.75h0Z"/>
  <path class="cls-29" d="M862.35,244.72c30.63-.38,61.28,.83,91.78,3.63,8.53,.78,17.04,1.69,25.55,2.72,1.34,.16,2.5-1.27,2.5-2.5,0-1.49-1.15-2.34-2.5-2.5-30.41-3.68-61.01-5.79-91.64-6.3-8.56-.14-17.13-.16-25.69-.05-3.22,.04-3.22,5.04,0,5h0Z"/>
  <path class="cls-14" d="M1012.82,239.03c12.69-2.12,25.63-2.81,38.47-2.04"/>
  <path class="cls-29" d="M1079.38,245.67c2.91-4.71,9.93-4.5,14.77-4.49,8.4,.02,16.81,.05,25.21,.07,4.83,.01,9.65,.03,14.48,.04,3.22,0,3.22-4.99,0-5-8.99-.03-17.97-.05-26.96-.08-4.41-.01-8.82-.03-13.23-.04-3.27,0-6.59,.12-9.78,.92-3.6,.91-6.83,2.83-8.81,6.04-1.7,2.75,2.63,5.26,4.32,2.52h0Z"/>
  <path class="cls-29" d="M1150.39,243.43c14.59-1.78,29.29-2.52,43.99-2.22,3.22,.07,3.22-4.93,0-5-14.69-.3-29.4,.44-43.99,2.22-1.34,.16-2.5,1.03-2.5,2.5,0,1.22,1.15,2.66,2.5,2.5h0Z"/>
  <path class="cls-29" d="M804.58,197.66c-1.26,4.88-2.52,9.76-3.78,14.65-.33,1.26,.42,2.77,1.75,3.08,1.3,.3,2.73-.39,3.08-1.75,1.26-4.88,2.52-9.76,3.78-14.65,.33-1.26-.42-2.77-1.75-3.08s-2.73,.39-3.08,1.75h0Z"/>
  <path class="cls-29" d="M789.93,211.14c.92,2.39,2.14,4.54,3.75,6.53s3.62,3.95,5.99,4.86c1.41,.54,3.1,.49,4.42-.29,1.23-.73,2.03-1.88,2.87-3.01,1.6-2.15,3.04-4.4,4.34-6.74,.66-1.18,.29-2.73-.9-3.42s-2.76-.29-3.42,.9c-1.07,1.93-2.24,3.8-3.51,5.6-.57,.8-1.05,1.4-1.6,2.09l-.19,.19c.14-.08,.13-.08,0,.01-.15,.08-.15,.09,.01,.03l-.27,.07s.66,.13-.02-.09c-.29-.1-.15-.05-.32-.14-2.82-1.59-5.22-5.02-6.33-7.91-.48-1.26-1.68-2.13-3.08-1.75-1.2,.33-2.23,1.81-1.75,3.08h0Z"/>
  <path class="cls-29" d="M915.88,205.75c-.39,6.72-.78,13.44-1.17,20.16-.08,1.35,1.21,2.5,2.5,2.5,1.42,0,2.42-1.15,2.5-2.5,.39-6.72,.78-13.44,1.17-20.16,.08-1.35-1.21-2.5-2.5-2.5-1.42,0-2.42,1.15-2.5,2.5h0Z"/>
  <path class="cls-29" d="M905.46,221.51c1.45,2.73,2.89,5.47,4.34,8.2,1.2,2.26,3,4.72,5.86,4.67,2.93-.05,4.96-2.63,6.65-4.71,1.78-2.19,3.36-4.52,4.7-7.01,.64-1.19,.3-2.72-.9-3.42-1.14-.66-2.78-.3-3.42,.9-1.03,1.92-2.25,3.87-3.55,5.54-.62,.8-1.4,1.7-2.14,2.5-.31,.34-.63,.69-.99,.98,.24-.19-.31,.2-.37,.23,.41-.19-.45,.19,.01,0l.2,.05c-.25-.08-.29-.08-.13,0,.37,.16-.52-.35-.23-.13,.22,.18-.23-.24-.27-.28-.45-.43,.13,.27-.22-.26-.59-.89-1.06-1.84-1.56-2.78l-3.69-6.98c-.63-1.19-2.29-1.56-3.42-.9-1.21,.71-1.53,2.22-.9,3.42h0Z"/>
  <path class="cls-29" d="M1032.36,206.67c-.37,4.27-.74,8.55-1.12,12.82-.11,1.31,1.23,2.56,2.5,2.5,1.45-.07,2.38-1.1,2.5-2.5,.37-4.27,.74-8.55,1.12-12.82,.11-1.31-1.23-2.56-2.5-2.5-1.45,.07-2.38,1.1-2.5,2.5h0Z"/>
  <path class="cls-29" d="M1026.65,214.34l4.43,4.85c1.43,1.57,2.93,3.86,5.2,4.17,2.43,.33,4.13-1.76,5.56-3.41,1.4-1.61,2.68-3.34,3.81-5.15,.69-1.11,.28-2.8-.9-3.42s-2.68-.29-3.42,.9c-.45,.72-.92,1.43-1.42,2.12s-.68,.92-1.26,1.61c-.55,.65-1.12,1.28-1.72,1.89-.15,.15-.3,.31-.46,.46-.04,.04-.38,.32-.18,.17,.13-.1,.09-.08-.12,.05l.63-.17c.09,0,.66,.2,.39,.07-.25-.12,.17,.22,0-.01-.1-.14-.26-.26-.38-.39-.31-.33-.6-.66-.91-.99-.64-.7-1.28-1.4-1.91-2.09-1.28-1.4-2.55-2.79-3.83-4.19-.88-.97-2.65-.96-3.54,0-.95,1.04-.94,2.5,0,3.54h0Z"/>
  <path class="cls-29" d="M1107.49,208.95c.08,2.18,.06,4.37-.06,6.55-.06,1.05-.14,2.09-.24,3.13-.05,.52-.11,1.04-.17,1.56-.02,.17-.04,.35-.06,.52-.04,.28-.05,.35-.02,.19,.02-.16,.01-.1-.03,.19-.02,.17-.05,.35-.08,.52-.19,1.29,.32,2.75,1.75,3.08,1.19,.27,2.87-.36,3.08-1.75,.69-4.64,1.01-9.3,.84-13.99-.05-1.31-1.12-2.56-2.5-2.5s-2.55,1.1-2.5,2.5h0Z"/>
  <path class="cls-29" d="M1099.92,219c1.15,1.36,2.39,2.63,3.75,3.79,.79,.68,1.62,1.32,2.46,1.93,.79,.57,1.6,1.15,2.56,1.39,2.36,.59,4.08-1.04,5.43-2.73,1.21-1.52,2.27-3.13,3.11-4.89,.56-1.18,.36-2.75-.9-3.42-1.12-.59-2.82-.36-3.42,.9-.64,1.35-1.41,2.62-2.29,3.82-.26,.36,.06-.06-.11,.14-.1,.12-.2,.24-.3,.36-.24,.29-.49,.58-.75,.84-.05,.05-.1,.1-.15,.14-.13,.12-.1,.1,.12-.06l-.17,.11,.24-.08c-.66-.03,.94,.14,.41,.01-.29-.07,.38,.26-.11-.07-.58-.39-1.16-.79-1.72-1.21,.33,.25-.09-.07-.15-.12-.15-.12-.31-.25-.46-.38-.27-.23-.54-.46-.81-.7-1.15-1.03-2.22-2.14-3.21-3.32-.85-1-2.68-.94-3.54,0-.98,1.07-.9,2.46,0,3.54h0Z"/>
  <path class="cls-29" d="M1169.4,209.41v13.3c0,1.31,1.15,2.56,2.5,2.5,1.35-.06,2.5-1.1,2.5-2.5v-13.3c0-1.31-1.15-2.56-2.5-2.5s-2.5,1.1-2.5,2.5h0Z"/>
  <path class="cls-29" d="M1161.18,218.81c1.2,4.03,3.44,7.76,6.48,10.66,.8,.76,1.66,1.46,2.55,2.11,1.36,.99,3.26,1,4.45-.27,.87-.91,1.24-2.25,1.68-3.4,.42-1.1,.82-2.21,1.18-3.34,.81-2.49,1.46-5.02,1.96-7.59,.25-1.28-.36-2.76-1.75-3.08-1.24-.28-2.8,.37-3.08,1.75-.49,2.48-1.11,4.94-1.89,7.35-.39,1.2-.81,2.4-1.26,3.58-.12,.31-.24,.63-.37,.94-.06,.16-.13,.31-.19,.47,.11-.26,.12-.28,.01-.06-.14,.23-.11,.2,.1-.1,2.04,.15,2.68,.01,1.9-.4-.06-.05-.64-.48-.42-.3s-.36-.29-.41-.34c-.22-.18-.43-.37-.64-.56-.39-.36-.77-.74-1.14-1.13s-.71-.8-1.05-1.21c-.18-.22-.18-.22,0,0-.09-.11-.17-.23-.26-.34-.15-.2-.29-.41-.43-.61-.6-.88-1.14-1.81-1.6-2.77-.11-.22-.21-.45-.31-.68-.11-.26-.11-.26,0,0-.05-.13-.11-.26-.16-.4-.2-.53-.38-1.07-.55-1.62-.37-1.25-1.77-2.17-3.08-1.75s-2.15,1.73-1.75,3.08h0Z"/>
  <g>
    <g>
      <path class="cls-6" d="M727.85,266.4c0,7.78-5.95,12.67-15.31,12.67h-4.85v8.26h-11.33v-33.6h16.18c9.36,0,15.31,4.9,15.31,12.67Zm-11.42,0c0-2.45-1.49-3.94-4.61-3.94h-4.13v7.87h4.13c3.12,0,4.61-1.49,4.61-3.94Z"/>
      <path class="cls-21" d="M745.95,278.88h-3.07v8.45h-11.33v-33.6h16.18c9.36,0,15.31,4.9,15.31,12.67,0,4.85-2.3,8.5-6.34,10.56l7.06,10.37h-12.1l-5.71-8.45Zm1.06-16.42h-4.13v7.87h4.13c3.12,0,4.61-1.49,4.61-3.94s-1.49-3.94-4.61-3.94Z"/>
      <path class="cls-19" d="M765.96,270.53c0-10.18,8.02-17.57,18.96-17.57s18.96,7.39,18.96,17.57-8.02,17.57-18.96,17.57-18.96-7.39-18.96-17.57Zm26.5,0c0-5.23-3.36-8.4-7.54-8.4s-7.54,3.17-7.54,8.4,3.36,8.4,7.54,8.4,7.54-3.17,7.54-8.4Z"/>
      <path class="cls-26" d="M808.01,253.73h16.56c11.23,0,18.96,6.38,18.96,16.8s-7.73,16.8-18.96,16.8h-16.56v-33.6Zm16.08,24.77c4.75,0,8.02-2.83,8.02-7.97s-3.26-7.97-8.02-7.97h-4.75v15.94h4.75Z"/>
      <path class="cls-30" d="M847.37,272.21v-18.48h11.33v18.15c0,5.14,1.97,7.06,5.14,7.06s5.14-1.92,5.14-7.06v-18.15h11.14v18.48c0,10.08-6.05,15.89-16.37,15.89s-16.37-5.81-16.37-15.89Z"/>
      <path class="cls-8" d="M883.95,270.53c0-10.32,7.92-17.57,18.72-17.57,6.58,0,11.76,2.4,15.07,6.72l-7.15,6.38c-1.97-2.5-4.32-3.94-7.34-3.94-4.71,0-7.87,3.26-7.87,8.4s3.17,8.4,7.87,8.4c3.02,0,5.38-1.44,7.34-3.94l7.15,6.38c-3.31,4.32-8.5,6.72-15.07,6.72-10.8,0-18.72-7.25-18.72-17.57Z"/>
      <path class="cls-25" d="M928.06,262.51h-9.84v-8.78h31.01v8.78h-9.84v24.82h-11.33v-24.82Z"/>
      <path class="cls-20" d="M952.15,253.73h11.33v33.6h-11.33v-33.6Z"/>
      <path class="cls-7" d="M967.61,270.53c0-10.18,8.02-17.57,18.96-17.57s18.96,7.39,18.96,17.57-8.02,17.57-18.96,17.57-18.96-7.39-18.96-17.57Zm26.5,0c0-5.23-3.36-8.4-7.54-8.4s-7.54,3.17-7.54,8.4,3.36,8.4,7.54,8.4,7.54-3.17,7.54-8.4Z"/>
      <path class="cls-11" d="M1042.78,253.73v33.6h-9.31l-12.77-15.27v15.27h-11.04v-33.6h9.31l12.77,15.27v-15.27h11.04Z"/>
      <path class="cls-28" d="M1098.55,253.73l-14.21,33.6h-11.14l-14.21-33.6h12.19l8.02,19.63,8.21-19.63h11.14Z"/>
      <path class="cls-18" d="M1099.66,253.73h11.33v33.6h-11.33v-33.6Z"/>
      <path class="cls-9" d="M1116.45,253.73h16.56c11.23,0,18.96,6.38,18.96,16.8s-7.73,16.8-18.96,16.8h-16.56v-33.6Zm16.08,24.77c4.75,0,8.02-2.83,8.02-7.97s-3.26-7.97-8.02-7.97h-4.75v15.94h4.75Z"/>
      <path class="cls-23" d="M1184.04,278.79v8.54h-27.94v-33.6h27.31v8.54h-16.18v3.94h14.21v8.16h-14.21v4.42h16.8Zm-12.1-27.79h-7.2l6.34-7.68h10.32l-9.46,7.68Z"/>
      <path class="cls-27" d="M1187.06,270.53c0-10.18,8.02-17.57,18.96-17.57s18.96,7.39,18.96,17.57-8.02,17.57-18.96,17.57-18.96-7.39-18.96-17.57Zm26.5,0c0-5.23-3.36-8.4-7.54-8.4s-7.54,3.17-7.54,8.4,3.36,8.4,7.54,8.4,7.54-3.17,7.54-8.4Z"/>
    </g>
    <g>
      <path class="cls-4" d="M727.85,266.4c0,7.78-5.95,12.67-15.31,12.67h-4.85v8.26h-11.33v-33.6h16.18c9.36,0,15.31,4.9,15.31,12.67Zm-11.42,0c0-2.45-1.49-3.94-4.61-3.94h-4.13v7.87h4.13c3.12,0,4.61-1.49,4.61-3.94Z"/>
      <path class="cls-4" d="M745.95,278.88h-3.07v8.45h-11.33v-33.6h16.18c9.36,0,15.31,4.9,15.31,12.67,0,4.85-2.3,8.5-6.34,10.56l7.06,10.37h-12.1l-5.71-8.45Zm1.06-16.42h-4.13v7.87h4.13c3.12,0,4.61-1.49,4.61-3.94s-1.49-3.94-4.61-3.94Z"/>
      <path class="cls-4" d="M765.96,270.53c0-10.18,8.02-17.57,18.96-17.57s18.96,7.39,18.96,17.57-8.02,17.57-18.96,17.57-18.96-7.39-18.96-17.57Zm26.5,0c0-5.23-3.36-8.4-7.54-8.4s-7.54,3.17-7.54,8.4,3.36,8.4,7.54,8.4,7.54-3.17,7.54-8.4Z"/>
      <path class="cls-4" d="M808.01,253.73h16.56c11.23,0,18.96,6.38,18.96,16.8s-7.73,16.8-18.96,16.8h-16.56v-33.6Zm16.08,24.77c4.75,0,8.02-2.83,8.02-7.97s-3.26-7.97-8.02-7.97h-4.75v15.94h4.75Z"/>
      <path class="cls-4" d="M847.37,272.21v-18.48h11.33v18.15c0,5.14,1.97,7.06,5.14,7.06s5.14-1.92,5.14-7.06v-18.15h11.14v18.48c0,10.08-6.05,15.89-16.37,15.89s-16.37-5.81-16.37-15.89Z"/>
      <path class="cls-4" d="M883.95,270.53c0-10.32,7.92-17.57,18.72-17.57,6.58,0,11.76,2.4,15.07,6.72l-7.15,6.38c-1.97-2.5-4.32-3.94-7.34-3.94-4.71,0-7.87,3.26-7.87,8.4s3.17,8.4,7.87,8.4c3.02,0,5.38-1.44,7.34-3.94l7.15,6.38c-3.31,4.32-8.5,6.72-15.07,6.72-10.8,0-18.72-7.25-18.72-17.57Z"/>
      <path class="cls-4" d="M928.06,262.51h-9.84v-8.78h31.01v8.78h-9.84v24.82h-11.33v-24.82Z"/>
      <path class="cls-4" d="M952.15,253.73h11.33v33.6h-11.33v-33.6Z"/>
      <path class="cls-4" d="M967.61,270.53c0-10.18,8.02-17.57,18.96-17.57s18.96,7.39,18.96,17.57-8.02,17.57-18.96,17.57-18.96-7.39-18.96-17.57Zm26.5,0c0-5.23-3.36-8.4-7.54-8.4s-7.54,3.17-7.54,8.4,3.36,8.4,7.54,8.4,7.54-3.17,7.54-8.4Z"/>
      <path class="cls-4" d="M1042.78,253.73v33.6h-9.31l-12.77-15.27v15.27h-11.04v-33.6h9.31l12.77,15.27v-15.27h11.04Z"/>
      <path class="cls-4" d="M1098.55,253.73l-14.21,33.6h-11.14l-14.21-33.6h12.19l8.02,19.63,8.21-19.63h11.14Z"/>
      <path class="cls-4" d="M1099.66,253.73h11.33v33.6h-11.33v-33.6Z"/>
      <path class="cls-4" d="M1116.45,253.73h16.56c11.23,0,18.96,6.38,18.96,16.8s-7.73,16.8-18.96,16.8h-16.56v-33.6Zm16.08,24.77c4.75,0,8.02-2.83,8.02-7.97s-3.26-7.97-8.02-7.97h-4.75v15.94h4.75Z"/>
      <path class="cls-4" d="M1184.04,278.79v8.54h-27.94v-33.6h27.31v8.54h-16.18v3.94h14.21v8.16h-14.21v4.42h16.8Zm-12.1-27.79h-7.2l6.34-7.68h10.32l-9.46,7.68Z"/>
      <path class="cls-4" d="M1187.06,270.53c0-10.18,8.02-17.57,18.96-17.57s18.96,7.39,18.96,17.57-8.02,17.57-18.96,17.57-18.96-7.39-18.96-17.57Zm26.5,0c0-5.23-3.36-8.4-7.54-8.4s-7.54,3.17-7.54,8.4,3.36,8.4,7.54,8.4,7.54-3.17,7.54-8.4Z"/>
    </g>
  </g>
</svg>