<?xml version="1.0" encoding="UTF-8"?>
<svg id="Frame_20" data-name="Frame 20" xmlns="http://www.w3.org/2000/svg" xmlns:xlink="http://www.w3.org/1999/xlink" viewBox="0 0 1920 1080">
  <defs>
    <style>
      .cls-1 {
        fill: #fff;
      }

      .cls-2 {
        stroke-width: 11px;
      }

      .cls-2, .cls-3, .cls-4 {
        stroke-miterlimit: 10;
      }

      .cls-2, .cls-4 {
        fill: none;
        stroke: #fff;
      }

      .cls-3 {
        fill: url(#Dégradé_sans_nom_9);
        stroke: #1d1d1b;
      }

      .cls-4 {
        stroke-width: 12px;
      }

      .cls-5 {
        fill: #fd0988;
      }

      .cls-6 {
        fill: red;
      }
    </style>
    <linearGradient id="Dégradé_sans_nom_9" data-name="Dégradé sans nom 9" x1="-11936.88" y1="1076.12" x2="-10016.36" y2="5.51" gradientTransform="translate(11935.07 1079.63) scale(1 -1)" gradientUnits="userSpaceOnUse">
      <stop offset="0" stop-color="#16163c"/>
      <stop offset=".17" stop-color="#19153d"/>
      <stop offset=".31" stop-color="#231540"/>
      <stop offset=".43" stop-color="#341445"/>
      <stop offset=".55" stop-color="#4b124d"/>
      <stop offset=".66" stop-color="#6a1157"/>
      <stop offset=".77" stop-color="#900f64"/>
      <stop offset=".87" stop-color="#bd0c73"/>
      <stop offset=".98" stop-color="#ef0983"/>
      <stop offset="1" stop-color="#fd0988"/>
    </linearGradient>
  </defs>
  <rect class="cls-3" x=".25" y="-.19" width="1920" height="1080" transform="translate(1920.5 1079.63) rotate(-180)"/>
  <line class="cls-2" x1="1920.25" y1="872.96" x2=".25" y2="872.96"/>
  <circle class="cls-5" cx="960.25" cy="642.46" r="46.66"/>
  <polygon class="cls-1" points="702.77 595.8 648.89 689.12 756.65 689.12 702.77 595.8"/>
  <rect class="cls-1" x="1171.07" y="595.8" width="93.32" height="93.32"/>
  <polygon class="cls-1" points="444.6 609.47 491.26 595.8 477.59 642.46 491.26 689.12 444.6 675.46 397.94 689.12 411.61 642.46 397.94 595.8 444.6 609.47"/>
  <rect class="cls-1" x="1440.2" y="609.47" width="65.99" height="65.99" transform="translate(-22.8 1229.88) rotate(-45)"/>
  <rect class="cls-4" x="320.58" y="524.93" width="1279.35" height="235.08"/>
  <line class="cls-4" x1="568.63" y1="524.93" x2="568.63" y2="760"/>
  <line class="cls-4" x1="836.92" y1="524.93" x2="836.92" y2="760"/>
  <line class="cls-4" x1="1088.99" y1="524.93" x2="1088.99" y2="760"/>
  <line class="cls-4" x1="1346.47" y1="524.93" x2="1346.47" y2="760"/>
  <rect class="cls-4" x="320.58" y="421.29" width="1279.35" height="442.35" rx="70" ry="70"/>
  <path class="cls-6" d="M301.95,405.56c-8.84-13.07-17.67-26.14-26.51-39.21-1.79-2.65-6.13-.15-4.32,2.52,8.84,13.07,17.67,26.14,26.51,39.21,1.79,2.65,6.13,.15,4.32-2.52h0Z"/>
  <path class="cls-6" d="M337.91,388.91c-7.21-13.65-9.99-29.62-7.68-44.89,.2-1.33-.34-2.69-1.75-3.08-1.18-.32-2.87,.4-3.08,1.75-2.52,16.68,.3,33.81,8.19,48.75,1.5,2.85,5.82,.32,4.32-2.52h0Z"/>
  <path class="cls-6" d="M270.31,454.46c-8.9-2.45-16.9-7.35-23.16-14.12-2.19-2.37-5.72,1.17-3.54,3.54,6.82,7.38,15.68,12.74,25.37,15.41,3.11,.86,4.43-3.97,1.33-4.82h0Z"/>
  <path class="cls-6" d="M1559.59,384.89c4.39-7.61,10.58-14.06,18.03-18.72,2.72-1.7,.22-6.03-2.52-4.32-8.16,5.1-15.01,12.17-19.82,20.51-1.61,2.79,2.71,5.31,4.32,2.52h0Z"/>
  <path class="cls-6" d="M1586,414.38c14.7-5.14,28.15-13.63,39.06-24.75,3.15-3.21,6.05-6.65,8.76-10.24,.81-1.08,.17-2.79-.9-3.42-1.28-.75-2.61-.19-3.42,.9-8.8,11.69-20.39,21.24-33.43,27.85-3.69,1.87-7.49,3.48-11.4,4.85-1.27,.45-2.12,1.71-1.75,3.08,.34,1.24,1.79,2.19,3.08,1.75h0Z"/>
  <path class="cls-6" d="M1621.43,455.53c13.49-5.41,25.97-12.9,37.06-22.29,1.03-.87,.9-2.64,0-3.54-1.02-1.02-2.5-.88-3.54,0-10.39,8.8-22.22,15.94-34.85,21.01-1.25,.5-2.13,1.67-1.75,3.08,.33,1.19,1.81,2.25,3.08,1.75h0Z"/>
</svg>