<?xml version="1.0" encoding="UTF-8"?>
<svg id="Frame_2" data-name="Frame 2" xmlns="http://www.w3.org/2000/svg" viewBox="0 0 1920 1080">
  <defs>
    <style>
      .cls-1 {
        fill: #fff;
      }

      .cls-2 {
        fill: #0013ff;
      }

      .cls-3 {
        fill: #111;
        stroke: #1d1d1b;
        stroke-miterlimit: 10;
      }

      .cls-4 {
        fill: #fd0988;
      }

      .cls-5 {
        fill: #d900ff;
      }

      .cls-6 {
        fill: red;
      }
    </style>
  </defs>
  <rect class="cls-3" width="1920" height="1080"/>
  <circle class="cls-4" cx="1760.33" cy="540" r="23.33"/>
  <path class="cls-2" d="M248.52,126.14c52.93,46.26,104.8,93.73,155.54,142.38,50.57,48.48,100.01,98.13,148.3,148.89,48.45,50.93,95.73,102.98,141.78,156.08,45.9,52.93,90.58,106.91,133.99,161.88,43.58,55.19,85.88,111.39,126.85,168.54,5.03,7.02,10.04,14.05,15.04,21.1,1.85,2.6,6.18,.11,4.32-2.52-40.63-57.33-82.57-113.73-125.78-169.14-43.09-55.24-87.44-109.48-133.02-162.68-45.89-53.56-93.02-106.07-141.34-157.45-48.15-51.21-97.48-101.31-147.95-150.25-50.46-48.94-102.05-96.71-154.72-143.26-6.47-5.72-12.96-11.42-19.46-17.1-2.41-2.11-5.96,1.41-3.54,3.54h0Z"/>
  <path class="cls-5" d="M1008.49,135.85c-59.37,40.15-118.26,81.02-176.64,122.59-58.16,41.42-115.82,83.53-172.97,126.34-57.1,42.77-113.68,86.23-169.73,130.36-56.1,44.17-111.67,89.01-166.69,134.51-55.23,45.68-109.91,92.03-164.02,139.03-6.61,5.74-13.21,11.49-19.8,17.25-2.43,2.12,1.12,5.65,3.54,3.54,53.77-46.98,108.09-93.32,162.97-138.99,54.88-45.67,110.31-90.68,166.28-135.02,56.01-44.37,112.56-88.07,169.63-131.08,57.02-42.97,114.56-85.25,172.6-126.84,58.04-41.58,116.58-82.47,175.61-122.64,7.24-4.93,14.48-9.84,21.73-14.74,2.65-1.79,.15-6.13-2.52-4.32h0Z"/>
  <path class="cls-6" d="M689.91,971.93c-21.42-1.52-42.88-2.63-64.34-3.33-21.47-.7-42.95-.98-64.42-.86-12.11,.07-24.21,.28-36.32,.61-3.21,.09-3.22,5.09,0,5,21.47-.59,42.95-.77,64.43-.54,21.48,.23,42.95,.88,64.4,1.94,12.09,.6,24.18,1.33,36.26,2.18,1.35,.1,2.5-1.22,2.5-2.5,0-1.43-1.15-2.4-2.5-2.5h0Z"/>
  <path class="cls-6" d="M491.83,921.15c-12.94,13.4-24.05,28.59-32.84,45.01-2.49,4.65-4.79,9.4-6.9,14.23-.57,1.3-.33,2.59,.9,3.42,16.93,11.42,33.86,22.84,50.79,34.26,2.67,1.8,5.18-2.53,2.52-4.32-16.93-11.42-33.86-22.84-50.79-34.26,.3,1.14,.6,2.28,.9,3.42,7.33-16.74,16.92-32.51,28.56-46.6,3.31-4.01,6.78-7.89,10.39-11.63,2.24-2.32-1.3-5.86-3.54-3.54h0Z"/>
  <path class="cls-1" d="M1039.24,495.09v33.6h-9.31l-12.77-15.27v15.27h-11.04v-33.6h9.31l12.77,15.27v-15.27h11.04Z"/>
  <path class="cls-1" d="M1043.36,511.89c0-10.18,8.02-17.57,18.96-17.57s18.96,7.39,18.96,17.57-8.02,17.57-18.96,17.57-18.96-7.39-18.96-17.57Zm26.5,0c0-5.23-3.36-8.4-7.54-8.4s-7.54,3.17-7.54,8.4,3.36,8.4,7.54,8.4,7.54-3.17,7.54-8.4Z"/>
  <path class="cls-1" d="M1085.12,513.57v-18.48h11.33v18.15c0,5.14,1.97,7.06,5.14,7.06s5.14-1.92,5.14-7.06v-18.15h11.14v18.48c0,10.08-6.05,15.89-16.37,15.89s-16.37-5.81-16.37-15.89Z"/>
  <path class="cls-1" d="M1120.93,526l3.65-8.26c3.17,1.87,7.39,3.07,11.09,3.07,3.22,0,4.37-.67,4.37-1.82,0-4.22-18.58-.82-18.58-13.35,0-6.24,5.23-11.33,15.65-11.33,4.51,0,9.17,.96,12.67,2.93l-3.41,8.21c-3.31-1.68-6.43-2.5-9.36-2.5-3.31,0-4.37,.96-4.37,2.11,0,4.03,18.58,.67,18.58,13.06,0,6.14-5.23,11.33-15.65,11.33-5.62,0-11.28-1.39-14.64-3.46Z"/>
  <path class="cls-1" d="M1204.88,495.09l-14.21,33.6h-11.14l-14.21-33.6h12.19l8.02,19.63,8.21-19.63h11.14Z"/>
  <path class="cls-1" d="M1204.16,511.89c0-10.18,8.02-17.57,18.96-17.57s18.96,7.39,18.96,17.57-8.02,17.57-18.96,17.57-18.96-7.39-18.96-17.57Zm26.5,0c0-5.23-3.36-8.4-7.54-8.4s-7.54,3.17-7.54,8.4,3.36,8.4,7.54,8.4,7.54-3.17,7.54-8.4Z"/>
  <path class="cls-1" d="M1245.92,513.57v-18.48h11.33v18.15c0,5.14,1.97,7.06,5.14,7.06s5.14-1.92,5.14-7.06v-18.15h11.14v18.48c0,10.08-6.05,15.89-16.37,15.89s-16.37-5.81-16.37-15.89Z"/>
  <path class="cls-1" d="M1281.73,526l3.65-8.26c3.17,1.87,7.39,3.07,11.09,3.07,3.22,0,4.37-.67,4.37-1.82,0-4.22-18.58-.82-18.58-13.35,0-6.24,5.23-11.33,15.65-11.33,4.51,0,9.17,.96,12.67,2.93l-3.41,8.21c-3.31-1.68-6.43-2.5-9.36-2.5-3.31,0-4.37,.96-4.37,2.11,0,4.03,18.58,.67,18.58,13.06,0,6.14-5.23,11.33-15.65,11.33-5.62,0-11.28-1.39-14.64-3.46Z"/>
  <path class="cls-1" d="M1352.67,522.83h-12.77l-2.26,5.86h-11.52l14.69-33.6h11.14l14.69,33.6h-11.71l-2.26-5.86Zm-3.12-8.16l-3.26-8.45-3.26,8.45h6.53Z"/>
  <path class="cls-1" d="M1368.46,495.09h11.33v33.6h-11.33v-33.6Z"/>
  <path class="cls-1" d="M1385.26,495.09h16.56c11.23,0,18.96,6.38,18.96,16.8s-7.73,16.8-18.96,16.8h-16.56v-33.6Zm16.08,24.77c4.75,0,8.02-2.83,8.02-7.97s-3.26-7.97-8.02-7.97h-4.75v15.94h4.75Z"/>
  <path class="cls-1" d="M1423.57,511.89c0-10.18,8.02-17.57,18.96-17.57s18.96,7.39,18.96,17.57-8.02,17.57-18.96,17.57-18.96-7.39-18.96-17.57Zm26.5,0c0-5.23-3.36-8.4-7.54-8.4s-7.54,3.17-7.54,8.4,3.36,8.4,7.54,8.4,7.54-3.17,7.54-8.4Z"/>
  <path class="cls-1" d="M1498.74,495.09v33.6h-9.31l-12.77-15.27v15.27h-11.04v-33.6h9.31l12.77,15.27v-15.27h11.04Z"/>
  <path class="cls-1" d="M1502.09,526l3.65-8.26c3.17,1.87,7.39,3.07,11.09,3.07,3.22,0,4.37-.67,4.37-1.82,0-4.22-18.58-.82-18.58-13.35,0-6.24,5.23-11.33,15.65-11.33,4.51,0,9.17,.96,12.67,2.93l-3.41,8.21c-3.31-1.68-6.43-2.5-9.36-2.5-3.31,0-4.37,.96-4.37,2.11,0,4.03,18.58,.67,18.58,13.06,0,6.14-5.23,11.33-15.65,11.33-5.62,0-11.28-1.39-14.64-3.46Z"/>
  <path class="cls-1" d="M1550.14,495.09h16.56c11.23,0,18.96,6.38,18.96,16.8s-7.73,16.8-18.96,16.8h-16.56v-33.6Zm16.08,24.77c4.75,0,8.02-2.83,8.02-7.97s-3.26-7.97-8.02-7.97h-4.75v15.94h4.75Z"/>
  <path class="cls-1" d="M1612.21,522.83h-12.77l-2.26,5.86h-11.52l14.69-33.6h11.14l14.69,33.6h-11.71l-2.26-5.86Zm-3.12-8.16l-3.26-8.45-3.26,8.45h6.53Z"/>
  <path class="cls-1" d="M1661.12,495.09v33.6h-9.31l-12.77-15.27v15.27h-11.04v-33.6h9.31l12.77,15.27v-15.27h11.04Z"/>
  <path class="cls-1" d="M1664.47,526l3.65-8.26c3.17,1.87,7.39,3.07,11.09,3.07,3.22,0,4.37-.67,4.37-1.82,0-4.22-18.58-.82-18.58-13.35,0-6.24,5.23-11.33,15.65-11.33,4.51,0,9.17,.96,12.67,2.93l-3.41,8.21c-3.31-1.68-6.43-2.5-9.36-2.5-3.31,0-4.37,.96-4.37,2.11,0,4.03,18.58,.67,18.58,13.06,0,6.14-5.23,11.33-15.65,11.33-5.62,0-11.28-1.39-14.64-3.46Z"/>
  <path class="cls-1" d="M1066.57,552.69l-14.21,33.6h-11.14l-14.21-33.6h12.19l8.02,19.63,8.21-19.63h11.14Z"/>
  <path class="cls-1" d="M1065.85,569.49c0-10.18,8.02-17.57,18.96-17.57s18.96,7.39,18.96,17.57-8.02,17.57-18.96,17.57-18.96-7.39-18.96-17.57Zm26.5,0c0-5.23-3.36-8.4-7.54-8.4s-7.54,3.17-7.54,8.4,3.36,8.4,7.54,8.4,7.54-3.17,7.54-8.4Z"/>
  <path class="cls-1" d="M1114.71,561.47h-9.84v-8.78h31.01v8.78h-9.84v24.82h-11.33v-24.82Z"/>
  <path class="cls-1" d="M1153.21,577.84h-3.07v8.45h-11.33v-33.6h16.18c9.36,0,15.31,4.9,15.31,12.67,0,4.85-2.3,8.5-6.34,10.56l7.06,10.37h-12.1l-5.71-8.45Zm1.06-16.42h-4.13v7.87h4.13c3.12,0,4.61-1.49,4.61-3.94s-1.49-3.94-4.61-3.94Z"/>
  <path class="cls-1" d="M1202.51,577.75v8.54h-27.94v-33.6h27.31v8.54h-16.18v3.94h14.21v8.16h-14.21v4.42h16.8Z"/>
  <path class="cls-1" d="M1252.76,565.36c0,7.78-5.95,12.67-15.31,12.67h-4.85v8.26h-11.33v-33.6h16.18c9.36,0,15.31,4.9,15.31,12.67Zm-11.42,0c0-2.45-1.49-3.94-4.61-3.94h-4.13v7.87h4.13c3.12,0,4.61-1.49,4.61-3.94Z"/>
  <path class="cls-1" d="M1270.86,577.84h-3.07v8.45h-11.33v-33.6h16.18c9.36,0,15.31,4.9,15.31,12.67,0,4.85-2.3,8.5-6.34,10.56l7.06,10.37h-12.1l-5.71-8.45Zm1.06-16.42h-4.13v7.87h4.13c3.12,0,4.61-1.49,4.61-3.94s-1.49-3.94-4.61-3.94Z"/>
  <path class="cls-1" d="M1290.87,569.49c0-10.18,8.02-17.57,18.96-17.57s18.96,7.39,18.96,17.57-8.02,17.57-18.96,17.57-18.96-7.39-18.96-17.57Zm26.5,0c0-5.23-3.36-8.4-7.54-8.4s-7.54,3.17-7.54,8.4,3.36,8.4,7.54,8.4,7.54-3.17,7.54-8.4Z"/>
  <path class="cls-1" d="M1366.04,577.03c0,5.86-4.94,9.26-14.21,9.26h-18.91v-33.6h17.95c9.26,0,13.58,3.7,13.58,8.78,0,3.12-1.58,5.71-4.66,7.25,3.94,1.44,6.24,4.32,6.24,8.3Zm-21.99-16.42v4.99h5.28c2.54,0,3.7-.86,3.7-2.5s-1.15-2.5-3.7-2.5h-5.28Zm10.56,15.12c0-1.73-1.25-2.64-3.74-2.64h-6.82v5.28h6.82c2.5,0,3.74-.91,3.74-2.64Z"/>
  <path class="cls-1" d="M1370.02,552.69h11.33v24.82h15.17v8.78h-26.5v-33.6Z"/>
  <path class="cls-1" d="M1427.58,577.75v8.54h-27.94v-33.6h27.31v8.54h-16.18v3.94h14.21v8.16h-14.21v4.42h16.8Zm-12.1-27.79h-7.2l6.34-7.68h10.32l-9.46,7.68Z"/>
  <path class="cls-1" d="M1461.94,586.29l-.1-15.31-7.3,12.29h-4.99l-7.3-11.76v14.79h-10.32v-33.6h9.31l10.94,17.91,10.66-17.91h9.31l.1,33.6h-10.32Z"/>
  <path class="cls-1" d="M1500.63,580.43h-12.77l-2.26,5.86h-11.52l14.69-33.6h11.14l14.69,33.6h-11.71l-2.26-5.86Zm-3.12-8.16l-3.26-8.45-3.26,8.45h6.53Z"/>
  <path class="cls-1" d="M1522.04,561.47h-9.84v-8.78h31.01v8.78h-9.84v24.82h-11.33v-24.82Z"/>
  <path class="cls-1" d="M1546.13,552.69h11.33v33.6h-11.33v-33.6Z"/>
  <path class="cls-1" d="M1601.34,590.51c-2.35,2.79-5.76,4.27-9.79,4.27-5.95,0-9.65-1.87-15.7-8.21-8.45-1.78-14.26-8.45-14.26-17.09,0-10.18,8.02-17.57,18.96-17.57s18.96,7.39,18.96,17.57c0,7.44-4.27,13.39-10.85,16.03,1.01,1.06,1.92,1.39,3.12,1.39,1.63,0,3.26-.77,4.66-2.16l4.9,5.76Zm-28.32-21.03c0,5.23,3.36,8.4,7.54,8.4s7.54-3.17,7.54-8.4-3.36-8.4-7.54-8.4-7.54,3.17-7.54,8.4Z"/>
  <path class="cls-1" d="M1603.35,571.17v-18.48h11.33v18.14c0,5.14,1.97,7.06,5.14,7.06s5.14-1.92,5.14-7.06v-18.14h11.14v18.48c0,10.08-6.05,15.89-16.37,15.89s-16.37-5.81-16.37-15.89Z"/>
  <path class="cls-1" d="M1669.21,577.75v8.54h-27.94v-33.6h27.31v8.54h-16.18v3.94h14.21v8.16h-14.21v4.42h16.8Z"/>
</svg>