<?xml version="1.0" encoding="UTF-8"?>
<svg id="Frame_21" data-name="Frame 21" xmlns="http://www.w3.org/2000/svg" xmlns:xlink="http://www.w3.org/1999/xlink" viewBox="0 0 1920 1080">
  <defs>
    <style>
      .cls-1 {
        fill: #7237bd;
      }

      .cls-2 {
        fill: #fff;
      }

      .cls-3 {
        fill: #6262c5;
      }

      .cls-4 {
        fill: url(#Dégradé_sans_nom_9);
        stroke: #1d1d1b;
      }

      .cls-4, .cls-5 {
        stroke-miterlimit: 10;
      }

      .cls-5 {
        fill: none;
        stroke: #fff;
        stroke-width: 12px;
      }

      .cls-6 {
        fill: #fd0988;
      }

      .cls-7 {
        fill: red;
      }
    </style>
    <linearGradient id="Dégradé_sans_nom_9" data-name="Dégradé sans nom 9" x1="-16016.58" y1="1076.12" x2="-14096.05" y2="5.51" gradientTransform="translate(16014.77 1079.63) scale(1 -1)" gradientUnits="userSpaceOnUse">
      <stop offset="0" stop-color="#16163c"/>
      <stop offset=".17" stop-color="#19153d"/>
      <stop offset=".31" stop-color="#231540"/>
      <stop offset=".43" stop-color="#341445"/>
      <stop offset=".55" stop-color="#4b124d"/>
      <stop offset=".66" stop-color="#6a1157"/>
      <stop offset=".77" stop-color="#900f64"/>
      <stop offset=".87" stop-color="#bd0c73"/>
      <stop offset=".98" stop-color="#ef0983"/>
      <stop offset="1" stop-color="#fd0988"/>
    </linearGradient>
  </defs>
  <rect class="cls-4" x=".25" y="-.19" width="1920" height="1080" transform="translate(1920.5 1079.63) rotate(-180)"/>
  <circle class="cls-6" cx="640" cy="719.35" r="31.11"/>
  <polygon class="cls-2" points="468.35 688.25 432.43 750.46 504.27 750.46 468.35 688.25"/>
  <rect class="cls-2" x="780.55" y="688.25" width="62.21" height="62.21"/>
  <polygon class="cls-2" points="296.23 697.36 327.34 688.25 318.23 719.35 327.34 750.46 296.23 741.35 265.13 750.46 274.24 719.35 265.13 688.25 296.23 697.36"/>
  <rect class="cls-2" x="959.97" y="697.36" width="43.99" height="43.99" transform="translate(-221.05 905.05) rotate(-45)"/>
  <path class="cls-2" d="M1070.45,801.71H209.55v-164.72h860.9v164.72Zm-852.9-8h844.9v-148.72H217.55v148.72Z"/>
  <line class="cls-5" x1="378.92" y1="640.99" x2="378.92" y2="797.71"/>
  <rect class="cls-2" x="553.78" y="640.99" width="8" height="156.72"/>
  <rect class="cls-2" x="721.83" y="640.99" width="8" height="156.72"/>
  <rect class="cls-2" x="893.48" y="640.99" width="8" height="156.72"/>
  <path class="cls-2" d="M1019.78,870.8H260.22c-27.94,0-50.67-22.73-50.67-50.67v-201.56c0-27.94,22.73-50.67,50.67-50.67H1019.78c27.94,0,50.67,22.73,50.67,50.67v201.56c0,27.94-22.73,50.67-50.67,50.67ZM260.22,575.9c-23.53,0-42.67,19.14-42.67,42.67v201.56c0,23.53,19.14,42.67,42.67,42.67H1019.78c23.53,0,42.67-19.14,42.67-42.67v-201.56c0-23.53-19.14-42.67-42.67-42.67H260.22Z"/>
  <circle class="cls-3" cx="1707.66" cy="719.35" r="31.11"/>
  <polygon class="cls-2" points="1536.01 688.25 1500.09 750.46 1571.93 750.46 1536.01 688.25"/>
  <rect class="cls-2" x="1848.21" y="688.25" width="62.21" height="62.21"/>
  <polygon class="cls-2" points="1363.9 697.36 1395 688.25 1385.89 719.35 1395 750.46 1363.9 741.35 1332.79 750.46 1341.9 719.35 1332.79 688.25 1363.9 697.36"/>
  <path class="cls-2" d="M2138.11,801.71h-860.9v-164.72h860.9v164.72Zm-852.9-8h844.9v-148.72h-844.9v148.72Z"/>
  <line class="cls-5" x1="1446.58" y1="640.99" x2="1446.58" y2="797.71"/>
  <rect class="cls-2" x="1621.44" y="640.99" width="8" height="156.72"/>
  <rect class="cls-2" x="1789.49" y="640.99" width="8" height="156.72"/>
  <path class="cls-2" d="M2087.45,870.8h-759.57c-27.94,0-50.67-22.73-50.67-50.67v-201.56c0-27.94,22.73-50.67,50.67-50.67h759.57c27.94,0,50.67,22.73,50.67,50.67v201.56c0,27.94-22.73,50.67-50.67,50.67Zm-759.57-294.9c-23.53,0-42.67,19.14-42.67,42.67v201.56c0,23.53,19.14,42.67,42.67,42.67h759.57c23.53,0,42.67-19.14,42.67-42.67v-201.56c0-23.53-19.14-42.67-42.67-42.67h-759.57Z"/>
  <circle class="cls-1" cx="1564.49" cy="411.97" r="31.11"/>
  <polygon class="cls-2" points="1392.84 380.86 1356.92 443.07 1428.75 443.07 1392.84 380.86"/>
  <rect class="cls-2" x="1705.03" y="380.86" width="62.21" height="62.21"/>
  <polygon class="cls-2" points="1220.72 389.97 1251.83 380.86 1242.72 411.97 1251.83 443.07 1220.72 433.96 1189.61 443.07 1198.73 411.97 1189.61 380.86 1220.72 389.97"/>
  <rect class="cls-2" x="1884.46" y="389.97" width="43.99" height="43.99" transform="translate(267.08 1468.73) rotate(-45)"/>
  <path class="cls-2" d="M1994.94,494.33h-860.9v-164.72h860.9v164.72Zm-852.9-8h844.9v-148.72h-844.9v148.72Z"/>
  <line class="cls-5" x1="1303.4" y1="333.61" x2="1303.4" y2="490.33"/>
  <rect class="cls-2" x="1478.27" y="333.61" width="8" height="156.72"/>
  <rect class="cls-2" x="1646.31" y="333.61" width="8" height="156.72"/>
  <rect class="cls-2" x="1817.97" y="333.61" width="8" height="156.72"/>
  <path class="cls-2" d="M1944.27,563.42h-759.57c-27.94,0-50.67-22.73-50.67-50.67v-201.56c0-27.94,22.73-50.67,50.67-50.67h759.57c27.94,0,50.67,22.73,50.67,50.67v201.56c0,27.94-22.73,50.67-50.67,50.67Zm-759.57-294.9c-23.53,0-42.67,19.14-42.67,42.67v201.56c0,23.53,19.14,42.67,42.67,42.67h759.57c23.53,0,42.67-19.14,42.67-42.67v-201.56c0-23.53-19.14-42.67-42.67-42.67h-759.57Z"/>
  <path class="cls-7" d="M1812.75,1011.06c14.68,3.48,28.48,9.89,40.63,18.83,1.09,.8,2.79,.18,3.42-.9,.74-1.27,.19-2.62-.9-3.42-12.46-9.16-26.77-15.76-41.82-19.33-3.13-.74-4.46,4.08-1.33,4.82h0Z"/>
  <path class="cls-7" d="M1849.54,1055.6c5.94-1.67,12.15-.77,18.18-.14,5.25,.55,10.56,.82,15.74-.44,4.58-1.11,9.25-3.61,11.76-7.74,2.08-3.41,2.48-7.84,1.39-11.65-1.29-4.48-4.68-7.84-9.42-8.25-1.35-.12-2.5,1.23-2.5,2.5,0,1.45,1.15,2.38,2.5,2.5,1.06,.09,2.06,.59,2.94,1.51,.74,.78,1.36,1.97,1.69,3.2,.74,2.69,.46,5.71-1.22,8.13-.88,1.27-2.69,2.64-4.3,3.49-1.75,.91-3.69,1.45-5.62,1.8-4.51,.82-9.15,.36-13.67-.12-6.28-.67-12.63-1.34-18.8,.39-3.09,.87-1.78,5.7,1.33,4.82h0Z"/>
  <path class="cls-7" d="M1784.42,102.3c11.01-7.33,22.02-14.66,33.03-22,2.67-1.78,.16-6.11-2.52-4.32-11.01,7.33-22.02,14.66-33.03,22-2.67,1.78-.16,6.11,2.52,4.32h0Z"/>
  <path class="cls-7" d="M1811.61,68.45c3.58-1.16,7.22-2.36,10.97-2.85,3.15-.41,6.77-.4,9.68,1.04,4.04,2,8.02,7.12,5.83,11.58-.6,1.21-.33,2.7,.9,3.42,1.1,.64,2.82,.32,3.42-.9,3.32-6.75-.65-14.34-6.72-17.93-7.78-4.6-17.46-1.76-25.4,.82-3.05,.99-1.74,5.82,1.33,4.82h0Z"/>
  <rect class="cls-2" y="869.35" width="1920" height="7.33"/>
  <path class="cls-7" d="M80.63,1004.76c-15.61,13.28-31.22,26.55-46.83,39.83-1.03,.88-.9,2.64,0,3.54,1.02,1.02,2.5,.88,3.54,0,15.61-13.28,31.22-26.55,46.83-39.83,1.03-.88,.9-2.64,0-3.54-1.02-1.02-2.5-.88-3.54,0h0Z"/>
  <path class="cls-7" d="M39.31,1005.65c-4.01,6.22-7.19,12.98-9.45,20.03-1.11,3.46-1.98,6.99-2.62,10.56-.33,1.86-.6,3.74-.81,5.62s-.42,3.72-.05,5.58c.69,3.47,3.74,5.34,7.04,5.72s6.65-.57,9.85-1.3c7.7-1.76,15.33-3.8,22.88-6.12,8.61-2.64,17.1-5.65,25.46-9,1.25-.5,2.13-1.67,1.75-3.08-.33-1.19-1.81-2.25-3.08-1.75-13.79,5.52-27.94,10.11-42.35,13.7-3.42,.85-6.87,1.73-10.33,2.38-1.11,.21-2.24,.3-3.36,.25-.97-.05-2.02-.28-2.57-.97-.74-.92-.51-2.5-.41-3.67,.15-1.66,.36-3.31,.63-4.95,.54-3.3,1.29-6.56,2.23-9.76,2.16-7.34,5.38-14.29,9.52-20.71,1.75-2.71-2.58-5.22-4.32-2.52h0Z"/>
  <path class="cls-7" d="M62.74,61.66c9.49,3.15,17.81,9.53,23.3,17.89,1.76,2.68,6.09,.18,4.32-2.52-6.23-9.49-15.52-16.62-26.29-20.19-3.06-1.01-4.37,3.81-1.33,4.82h0Z"/>
  <path class="cls-7" d="M54.51,62.45c-10.01-10.23-20.01-20.47-30.02-30.7-.37,1.39-.74,2.79-1.1,4.18,12.96-3.22,26.59-2.94,39.41,.77,3.1,.9,4.42-3.93,1.33-4.82-13.67-3.95-28.26-4.21-42.07-.77-1.85,.46-2.39,2.86-1.1,4.18,10.01,10.23,20.01,20.47,30.02,30.7,2.25,2.3,5.79-1.23,3.54-3.54h0Z"/>
</svg>