<?xml version="1.0" encoding="UTF-8"?>
<svg xmlns="http://www.w3.org/2000/svg" xmlns:xlink="http://www.w3.org/1999/xlink" viewBox="0 0 1920 1080">
  <defs>
    <style>
      .cls-1, .cls-2 {
        fill: #7237bd;
      }

      .cls-3 {
        fill: #fff;
      }

      .cls-4 {
        fill: #6262c5;
      }

      .cls-5 {
        stroke-width: 5px;
      }

      .cls-5, .cls-6, .cls-7, .cls-8 {
        stroke-miterlimit: 10;
      }

      .cls-5, .cls-7, .cls-8 {
        fill: none;
        stroke: #fff;
      }

      .cls-6 {
        fill: url(#Dégradé_sans_nom_6);
        stroke: #1d1d1b;
      }

      .cls-9 {
        fill: url(#Dégradé_sans_nom_60);
      }

      .cls-10 {
        fill: #111;
      }

      .cls-7, .cls-8 {
        stroke-width: 2px;
      }

      .cls-11 {
        fill: #16163c;
      }

      .cls-12 {
        clip-path: url(#clippath);
      }

      .cls-2 {
        opacity: .5;
      }

      .cls-13 {
        fill: #fd0988;
      }

      .cls-14 {
        fill: #191c26;
      }

      .cls-8 {
        stroke-linecap: round;
      }

      .cls-15 {
        fill: red;
      }
    </style>
    <linearGradient id="Dégradé_sans_nom_6" data-name="Dégradé sans nom 6" x1="271.63" y1="1172.74" x2="1718.38" y2="-157.01" gradientUnits="userSpaceOnUse">
      <stop offset="0" stop-color="#16163c"/>
      <stop offset=".21" stop-color="#17173f"/>
      <stop offset=".38" stop-color="#1d1d49"/>
      <stop offset=".53" stop-color="#26265a"/>
      <stop offset=".68" stop-color="#333371"/>
      <stop offset=".82" stop-color="#444490"/>
      <stop offset=".95" stop-color="#5959b5"/>
      <stop offset="1" stop-color="#6262c5"/>
    </linearGradient>
    <clipPath id="clippath">
      <circle class="cls-13" cx="565.73" cy="195.29" r="9.08"/>
    </clipPath>
    <radialGradient id="Dégradé_sans_nom_60" data-name="Dégradé sans nom 60" cx="1618.98" cy="330.58" fx="1618.98" fy="330.58" r="66.42" gradientUnits="userSpaceOnUse">
      <stop offset="0" stop-color="#fff"/>
      <stop offset=".04" stop-color="#e7ddf3"/>
      <stop offset=".09" stop-color="#c8b1e5"/>
      <stop offset=".15" stop-color="#ad8bd8"/>
      <stop offset=".21" stop-color="#986cce"/>
      <stop offset=".28" stop-color="#8755c6"/>
      <stop offset=".34" stop-color="#7b44c1"/>
      <stop offset=".42" stop-color="#743abe"/>
      <stop offset=".51" stop-color="#7237bd"/>
      <stop offset="1" stop-color="#fd0988"/>
    </radialGradient>
  </defs>
  <g id="Frame_23" data-name="Frame 23">
    <rect class="cls-6" x=".25" y="-.19" width="1920" height="1080"/>
    <line class="cls-5" x1=".25" y1="847.82" x2="1920" y2="847.82"/>
    <path class="cls-8" d="M290.37,847.82c-1.67-30.02-8.02-50.96-13.72-64.12"/>
    <path class="cls-8" d="M243.39,783.75c-1.65,16.18-5.84,39.54-16.26,64.07"/>
    <path class="cls-8" d="M296.46,729.98s35.44,5.06,45-37.41"/>
    <circle class="cls-13" cx="258.75" cy="745.22" r="46.66"/>
    <path class="cls-8" d="M218.38,745.22s-22.25,3.18-13.82,22.38"/>
    <rect class="cls-11" x="534.62" y="106.39" width="61.04" height="517.61" rx="15" ry="15"/>
    <g>
      <polygon class="cls-13" points="556.66 148.93 556.66 138.73 565.83 143.83 575 138.73 575 148.93 565.83 154.02 556.66 148.93"/>
      <polygon class="cls-1" points="556.66 138.73 565.83 133.64 575 138.73 565.83 143.83 556.66 138.73"/>
    </g>
    <g>
      <circle class="cls-13" cx="565.73" cy="195.29" r="9.08"/>
      <g class="cls-12">
        <path class="cls-1" d="M573.63,190.81s-5.56-3.36-10.24-.58c-2.29,1.36-4.96,3.93-5.53,9.58l-7.85-9.34,13-8.14,9.89,3.87,.72,4.6Z"/>
      </g>
    </g>
    <g>
      <polygon class="cls-1" points="556.66 251.84 565.83 256.93 565.83 236.55 556.66 251.84"/>
      <polyline class="cls-13" points="565.83 236.55 565.83 256.93 575 251.84"/>
    </g>
    <rect class="cls-4" x="1504.22" y="106.39" width="183.13" height="375.76" rx="15" ry="15"/>
    <rect class="cls-2" x="1065.45" y="336.2" width="91.57" height="688.36" rx="15" ry="15" transform="translate(430.84 1791.61) rotate(-90)"/>
    <circle class="cls-10" cx="816.3" cy="680.38" r="18.35"/>
    <circle class="cls-14" cx="871.05" cy="680.38" r="18.35"/>
    <circle class="cls-11" cx="925.8" cy="680.38" r="18.35"/>
    <circle class="cls-13" cx="980.55" cy="680.38" r="18.35"/>
    <circle class="cls-1" cx="1035.3" cy="680.38" r="18.35"/>
    <circle class="cls-4" cx="1090.05" cy="680.38" r="18.35"/>
    <circle class="cls-9" cx="1595.79" cy="356.8" r="31.11"/>
    <rect class="cls-11" x="1591.97" y="81.68" width="7.63" height="129.4" rx="3.82" ry="3.82" transform="translate(1449.41 1742.17) rotate(-90)"/>
    <rect class="cls-1" x="1591.97" y="118.49" width="7.63" height="129.4" rx="3.82" ry="3.82" transform="translate(1412.6 1778.98) rotate(-90)"/>
    <rect class="cls-13" x="1591.97" y="155.3" width="7.63" height="129.4" rx="3.82" ry="3.82" transform="translate(1375.78 1815.79) rotate(-90)"/>
    <line class="cls-7" x1="873.24" y1="106.39" x2="1349.21" y2="106.39"/>
    <path class="cls-3" d="M1096.66,371.21c0,14.65-11.72,29.3-39.07,29.3-11.72,0-24.54-2.56-33.7-7.69l9.77-21.24c7.32,4.27,15.75,6.23,22.95,6.23,6.47,0,11.11-2.2,11.11-6.59,0-3.66-2.81-5.86-10.13-5.86h-11.35v-17.7l12.58-12.82h-30.52v-21.73h63.73v17.7l-15.87,16.12c13.43,3.3,20.51,12.45,20.51,24.3Z"/>
    <path class="cls-3" d="M1106.54,313.09h42.12c28.57,0,48.23,16.24,48.23,42.73s-19.66,42.73-48.23,42.73h-42.12v-85.47Zm40.9,63c12.09,0,20.39-7.2,20.39-20.27s-8.3-20.27-20.39-20.27h-12.09v40.54h12.09Z"/>
    <path class="cls-15" d="M66.12,976.83c14.44-10.27,27.64-22.25,39.16-35.73,3.3-3.86,6.46-7.84,9.49-11.92,.81-1.08,.18-2.79-.9-3.42-1.27-.75-2.61-.19-3.42,.9-10.23,13.75-22.18,26.23-35.42,37.12-3.71,3.05-7.52,5.95-11.43,8.74-1.1,.78-1.62,2.18-.9,3.42,.64,1.09,2.31,1.68,3.42,.9h0Z"/>
    <path class="cls-15" d="M102.92,918.39c7.38-2.25,15.48-4.83,23.25-3.13,5.44,1.19,10.26,5.07,11.91,10.49,.82,2.71,.68,5.3-.84,7.76-1.7,2.74,2.62,5.25,4.32,2.52,3.8-6.12,1.71-13.58-2.66-18.78-5.39-6.4-13.82-8.16-21.84-7.26-5.29,.59-10.39,2.04-15.46,3.59-3.07,.94-1.76,5.76,1.33,4.82h0Z"/>
    <path class="cls-15" d="M57.78,51.6c14.98,2.25,28.85,9.58,39.08,20.77,2.18,2.38,5.7-1.16,3.54-3.54-10.74-11.75-25.54-19.69-41.28-22.06-1.33-.2-2.69,.33-3.08,1.75-.32,1.18,.4,2.87,1.75,3.08h0Z"/>
    <path class="cls-15" d="M91.52,102.59c9.82,1.9,19.64,3.81,29.47,5.71,1.39,.27,2.61-.38,3.08-1.75,3.27-9.62-2.16-20.51-11.39-24.32-1.25-.52-2.75,.56-3.08,1.75-.39,1.44,.49,2.56,1.75,3.08,6.83,2.82,10.2,11.39,7.89,18.17,1.03-.58,2.05-1.16,3.08-1.75-9.82-1.9-19.64-3.81-29.47-5.71-1.32-.26-2.7,.37-3.08,1.75-.34,1.23,.41,2.82,1.75,3.08h0Z"/>
    <path class="cls-15" d="M1864.62,42.72c-3.19,14.25-11.27,27.02-22.73,36.06-1.06,.84-.88,2.66,0,3.54,1.05,1.05,2.47,.84,3.54,0,12.06-9.52,20.66-23.28,24.01-38.27,.7-3.13-4.12-4.47-4.82-1.33h0Z"/>
    <path class="cls-15" d="M1832.69,80c-6.88,5.33-7.69,16.17-3.2,23.27,2.5,3.95,6.48,6.53,11.12,7.1,4.33,.53,8.92-.81,12.45-3.33,4.32-3.08,7.28-7.67,7.52-13.05,.14-3.22-4.86-3.21-5,0-.3,6.59-7.2,11.73-13.63,11.49s-10.49-6.69-10.24-12.93c.14-3.48,1.6-6.76,4.52-9.02,1.07-.83,.87-2.67,0-3.54-1.05-1.05-2.46-.83-3.54,0h0Z"/>
    <path class="cls-15" d="M1811.9,936.93c19.41,8.57,36.61,21.75,49.97,38.23,3.71,4.58,7.08,9.43,10.14,14.48,1.67,2.75,5.99,.24,4.32-2.52-11.31-18.67-27.11-34.54-45.69-45.99-5.2-3.21-10.62-6.05-16.21-8.52-1.23-.54-2.69-.36-3.42,.9-.62,1.06-.34,2.87,.9,3.42h0Z"/>
    <path class="cls-15" d="M1825.07,966.21c-7.81-9.71-17.05-21.75-12.45-34.92,1.72-4.93,5.66-9.02,10.98-9.76,5.99-.84,12.1,2.31,16.13,6.57,5.43,5.74,8.08,13.49,10.52,20.84,1.01,3.04,5.84,1.74,4.82-1.33-2.53-7.59-5.3-15.25-10.45-21.5-4.64-5.63-11.76-9.71-19.18-9.69-6.96,.02-13.07,4.07-16.22,10.2-3.14,6.09-3.6,13.29-1.74,19.84,2.52,8.87,8.37,16.22,14.05,23.28,.85,1.05,2.65,.88,3.54,0,1.04-1.04,.85-2.48,0-3.54h0Z"/>
    <path class="cls-15" d="M527.48,68.9c30.9,2.34,61.9,3.38,92.88,3.08,8.78-.08,17.56-.28,26.34-.57,3.21-.11,3.22-5.11,0-5-30.97,1.04-61.98,.77-92.93-.83-8.77-.45-17.54-1.01-26.29-1.68-1.35-.1-2.5,1.22-2.5,2.5,0,1.44,1.15,2.4,2.5,2.5h0Z"/>
    <path class="cls-15" d="M641.33,62.43c1.18,.25,2.33,.57,3.46,1,.09,.03,.94,.38,.45,.17,.21,.09,.41,.18,.62,.28,.54,.25,1.08,.53,1.6,.82s1.04,.61,1.54,.94c.19,.13,.37,.25,.56,.38,.07,.05,.8,.6,.4,.28,.95,.74,1.83,1.56,2.65,2.44v-3.54c-.45,.43-.9,.85-1.37,1.25-.18,.15-.36,.3-.54,.45-.12,.1-.24,.19-.36,.29,.2-.15,.18-.14-.05,.03-.91,.66-1.84,1.29-2.81,1.85-.97,.56-1.98,1.07-3.01,1.51,.47-.2-.4,.15-.48,.18-.22,.08-.43,.16-.65,.24-.58,.21-1.18,.39-1.77,.56-1.26,.36-2.16,1.78-1.75,3.08,.41,1.28,1.73,2.13,3.08,1.75,4.97-1.42,9.53-4.05,13.25-7.65,.99-.96,.91-2.56,0-3.54-3.57-3.82-8.36-6.53-13.48-7.6-1.28-.27-2.76,.37-3.08,1.75-.29,1.25,.38,2.79,1.75,3.08h0Z"/>
    <path class="cls-15" d="M1726.47,283.07c1.04,17.23,1.47,34.5,1.27,51.76-.06,4.87-.16,9.74-.32,14.62-.1,3.22,4.9,3.21,5,0,.55-17.25,.48-34.52-.21-51.77-.2-4.87-.44-9.74-.74-14.6-.19-3.2-5.19-3.22-5,0h0Z"/>
    <path class="cls-15" d="M1723.26,340.94c-.92,6.27-.09,12.44,2.49,18.24,.51,1.14,2.42,1.64,3.42,.9,6.89-5.12,12.44-11.88,15.84-19.78,.53-1.24,.37-2.68-.9-3.42-1.05-.62-2.88-.35-3.42,.9-3.06,7.1-7.88,13.41-14.05,17.99l3.42,.9c-1.98-4.44-2.69-9.58-1.99-14.38,.2-1.33-.33-2.69-1.75-3.08-1.18-.32-2.88,.4-3.08,1.75h0Z"/>
    <path class="cls-15" d="M650.05,762.07c-18.75,0-37.5,0-56.25,0-3.22,0-3.22,5,0,5,18.75,0,37.5,0,56.25,0,3.22,0,3.22-5,0-5h0Z"/>
    <path class="cls-15" d="M586.13,768.8c-1.03-.48-1.98-1.06-2.93-1.69-.64-.43,.3,.28-.28-.21-.25-.21-.5-.42-.73-.64-.34-.32-.67-.66-.96-1.03,.32,.4-.2-.32-.25-.4-.11-.18-.21-.37-.3-.56,.24,.53-.01-.14-.05-.26-.03-.1-.05-.19-.06-.29,.04,.34,.05,.37,.03,.08,.03-.29,.1-.51-.01-.12,.03-.13,.06-.27,.11-.39-.13,.27-.13,.27,0,0,.05-.08,.42-.61,.15-.29,.18-.22,.4-.42,.62-.6,.13-.11,.13-.11,0,.01,.14-.1,.28-.19,.42-.28,.22-.14,.45-.27,.67-.4,.57-.33,1.17-.62,1.76-.91,.39-.18,.07-.05,.44-.19,.35-.14,.71-.27,1.06-.39,.58-.2,1.17-.37,1.76-.52,2.41-.61,4.69-.76,7.34-.49,1.31,.13,2.56-1.25,2.5-2.5-.07-1.47-1.1-2.36-2.5-2.5-4.95-.51-10.03,.56-14.41,2.91-2.14,1.15-4.28,2.79-4.78,5.31s.48,4.58,2.01,6.42c1.53,1.84,3.68,3.26,5.84,4.27,1.22,.57,2.69,.34,3.42-.9,.63-1.08,.33-2.85-.9-3.42h0Z"/>
    <path class="cls-15" d="M1011.27,268.55c-6,.59-11.31,3.73-15.32,8.17-4.28,4.75-6.99,10.56-9.6,16.33-.56,1.23-.35,2.69,.9,3.42,1.07,.63,2.86,.34,3.42-.9,2.32-5.12,4.65-10.47,8.34-14.77,3.12-3.63,7.37-6.77,12.27-7.25,1.34-.13,2.5-1.05,2.5-2.5,0-1.25-1.15-2.63-2.5-2.5h0Z"/>
    <path class="cls-15" d="M1238.78,325.83c6.06,12.2,8.16,26.33,5.85,39.76-.23,1.33,.35,2.69,1.75,3.08,1.2,.33,2.85-.41,3.08-1.75,2.55-14.84,.34-30.12-6.36-43.62-1.43-2.88-5.75-.35-4.32,2.52h0Z"/>
    <path class="cls-15" d="M1038.78,447.97c19.3,4.34,39.38,4.43,58.73,.29,3.14-.67,1.81-5.49-1.33-4.82-18.44,3.94-37.67,3.84-56.07-.29-3.13-.7-4.47,4.12-1.33,4.82h0Z"/>
  </g>
  <g id="Frame_27" data-name="Frame 27">
    <rect class="cls-7" x="506.26" y="79" width="1209.94" height="680.59"/>
  </g>
</svg>