<?xml version="1.0" encoding="UTF-8"?>
<svg id="Frame_22" data-name="Frame 22" xmlns="http://www.w3.org/2000/svg" xmlns:xlink="http://www.w3.org/1999/xlink" viewBox="0 0 1920 1080">
  <defs>
    <style>
      .cls-1 {
        fill: #fff;
      }

      .cls-2 {
        fill: url(#Dégradé_sans_nom_6);
        stroke: #1d1d1b;
      }

      .cls-2, .cls-3 {
        stroke-miterlimit: 10;
      }

      .cls-3 {
        fill: none;
        stroke: #fff;
        stroke-width: 10px;
      }

      .cls-4 {
        fill: #fd0988;
      }

      .cls-5 {
        fill: red;
      }
    </style>
    <linearGradient id="Dégradé_sans_nom_6" data-name="Dégradé sans nom 6" x1="7461.51" y1="-3.18" x2="7464.88" y2="1076.82" gradientTransform="translate(8423.46 1079.63) rotate(-180)" gradientUnits="userSpaceOnUse">
      <stop offset="0" stop-color="#16163c"/>
      <stop offset=".21" stop-color="#17173f"/>
      <stop offset=".38" stop-color="#1d1d49"/>
      <stop offset=".53" stop-color="#26265a"/>
      <stop offset=".68" stop-color="#333371"/>
      <stop offset=".82" stop-color="#444490"/>
      <stop offset=".95" stop-color="#5959b5"/>
      <stop offset="1" stop-color="#6262c5"/>
    </linearGradient>
  </defs>
  <rect class="cls-2" x=".25" y="-.19" width="1920" height="1080"/>
  <path class="cls-1" d="M601.78,449.35l-.19-30.62-14.59,24.57h-9.98l-14.59-23.52v29.57h-20.64v-67.2h18.62l21.89,35.81,21.31-35.81h18.62l.19,67.2h-20.64Z"/>
  <path class="cls-1" d="M630.68,415.75c0-20.35,16.03-35.13,37.92-35.13s37.92,14.78,37.92,35.13-16.03,35.13-37.92,35.13-37.92-14.78-37.92-35.13Zm52.99,0c0-10.46-6.72-16.8-15.07-16.8s-15.07,6.34-15.07,16.8,6.72,16.8,15.07,16.8,15.07-6.33,15.07-16.8Z"/>
  <path class="cls-1" d="M728.4,399.72h-19.68v-17.57h62.01v17.57h-19.68v49.63h-22.65v-49.63Z"/>
  <path class="cls-1" d="M776.6,382.33h22.65v67.02h-22.65v-67.02Z"/>
  <path class="cls-1" d="M807.51,415.75c0-20.35,16.03-35.13,37.92-35.13s37.92,14.78,37.92,35.13-16.03,35.13-37.92,35.13-37.92-14.78-37.92-35.13Zm52.99,0c0-10.46-6.72-16.8-15.07-16.8s-15.07,6.34-15.07,16.8,6.72,16.8,15.07,16.8,15.07-6.33,15.07-16.8Z"/>
  <path class="cls-1" d="M957.84,382.15v67.2h-18.62l-25.53-30.53v30.53h-22.08v-67.2h18.62l25.53,30.53v-30.53h22.08Z"/>
  <path class="cls-1" d="M997.58,382.15h33.12c22.46,0,37.92,12.77,37.92,33.6s-15.45,33.6-37.92,33.6h-33.12v-67.2Zm32.16,49.53c9.5,0,16.03-5.66,16.03-15.94s-6.53-15.93-16.03-15.93h-9.5v31.87h9.5Z"/>
  <path class="cls-1" d="M1132.75,432.26v17.09h-55.87v-67.2h54.62v17.09h-32.35v7.87h28.41v16.32h-28.41v8.83h33.6Z"/>
  <path class="cls-1" d="M1137.26,443.97l7.3-16.51c6.34,3.74,14.78,6.14,22.17,6.14,6.43,0,8.74-1.34,8.74-3.65,0-8.45-37.15-1.63-37.15-26.69,0-12.48,10.46-22.65,31.29-22.65,9.02,0,18.33,1.92,25.34,5.86l-6.82,16.42c-6.62-3.36-12.86-4.99-18.72-4.99-6.62,0-8.74,1.92-8.74,4.22,0,8.06,37.15,1.34,37.15,26.11,0,12.29-10.46,22.65-31.29,22.65-11.23,0-22.56-2.78-29.28-6.91Z"/>
  <path class="cls-1" d="M1204.56,382.15h22.65v67.2h-22.65v-67.2Z"/>
  <path class="cls-1" d="M1282.6,413.93h19.68v28.41c-8.16,5.57-19.39,8.54-29.28,8.54-21.69,0-37.53-14.5-37.53-35.13s15.84-35.13,38.01-35.13c13.25,0,23.9,4.61,30.72,12.96l-14.5,12.77c-4.22-4.9-9.12-7.39-15.07-7.39-9.98,0-16.32,6.43-16.32,16.8s6.34,16.8,16.03,16.8c2.78,0,5.47-.48,8.26-1.63v-16.99Z"/>
  <path class="cls-1" d="M1378.21,382.15v67.2h-18.62l-25.53-30.53v30.53h-22.08v-67.2h18.62l25.53,30.53v-30.53h22.08Z"/>
  <circle class="cls-4" cx="787.92" cy="393.48" r="11.33"/>
  <path class="cls-5" d="M515.06,107.15c.58,22.85,1.17,45.71,2.51,68.54,1.34,22.83,3.43,45.64,6.97,68.24,1.99,12.68,4.45,25.29,7.49,37.77,.76,3.12,5.58,1.8,4.82-1.33-5.34-21.93-8.88-44.26-11.24-66.7-2.38-22.65-3.61-45.39-4.43-68.15-.46-12.79-.79-25.58-1.12-38.37-.08-3.21-5.08-3.22-5,0h0Z"/>
  <path class="cls-5" d="M500.96,262.04c10.3,12.94,20.6,25.89,30.89,38.83,.83,1.04,2.68,.89,3.54,0,9.69-10.1,15.06-24.04,14.54-38.05-.12-3.21-5.12-3.22-5,0,.48,12.71-4.26,25.32-13.07,34.51h3.54c-10.3-12.94-20.6-25.89-30.89-38.83-.84-1.06-2.66-.88-3.54,0-1.04,1.04-.84,2.48,0,3.54h0Z"/>
  <path class="cls-5" d="M775.38,375.04c-.5-6.6,.61-13.3,3.49-19.28,.26-.54,1.08-2.8,1.9-2.75s1.59,1.43,1.94,2.01c1.65,2.74,2.67,5.87,2.94,9.06,.12,1.35,1.07,2.5,2.5,2.5,1.26,0,2.62-1.15,2.5-2.5-.36-4.22-1.57-8.53-3.93-12.08-1.16-1.74-2.77-3.4-4.89-3.84-2.24-.46-4.28,.57-5.64,2.32-1.27,1.64-2.08,3.65-2.86,5.56s-1.44,3.96-1.92,6.02c-1,4.25-1.36,8.65-1.03,13,.1,1.35,1.08,2.5,2.5,2.5,1.27,0,2.6-1.15,2.5-2.5h0Z"/>
  <path class="cls-5" d="M782.1,369.22c1.65,1.64,3.29,3.29,4.94,4.93l2.47,2.46c.92,.92,1.91,1.85,3.2,2.2,1.64,.44,3.39-.22,4.27-1.69,.59-.99,.76-2.17,.93-3.29,.36-2.4,.48-4.8,.25-7.23-.12-1.3-1.06-2.56-2.5-2.5-1.25,.06-2.63,1.11-2.5,2.5,.19,1.93,.16,3.86-.06,5.79-.08,.73,.09-.51-.03,.22-.04,.22-.07,.44-.11,.66-.08,.47-.19,.92-.3,1.38l-.06,.16c.04-.21,.15-.38,.31-.52,.23-.21,.58-.33,.88-.33,.39,.07,.45,.08,.17,0l.27,.12c-.07,.01-.67-.44-.38-.21s-.19-.19-.24-.24c-.19-.18-.37-.37-.56-.56l-.99-.99-2.14-2.14-4.28-4.27c-.93-.93-2.62-1-3.54,0-.92,1-.99,2.55,0,3.54h0Z"/>
  <line class="cls-3" x1=".37" y1="847.82" x2="1920.12" y2="847.82"/>
</svg>