<?xml version="1.0" encoding="UTF-8"?>
<svg id="Frame_23" data-name="Frame 23" xmlns="http://www.w3.org/2000/svg" xmlns:xlink="http://www.w3.org/1999/xlink" viewBox="0 0 1920 1080">
  <defs>
    <style>
      .cls-1 {
        stroke-linecap: round;
        stroke-width: 6px;
      }

      .cls-1, .cls-2, .cls-3 {
        stroke-miterlimit: 10;
      }

      .cls-1, .cls-3 {
        fill: none;
        stroke: #fff;
      }

      .cls-2 {
        fill: url(#Dégradé_sans_nom_6);
        stroke: #1d1d1b;
      }

      .cls-3 {
        stroke-width: 15px;
      }

      .cls-4 {
        fill: #fd0988;
      }

      .cls-5 {
        fill: red;
      }
    </style>
    <linearGradient id="Dégradé_sans_nom_6" data-name="Dégradé sans nom 6" x1="-16871.77" y1="-3.18" x2="-16868.39" y2="1076.82" gradientTransform="translate(-15909.82 1079.63) rotate(-180)" gradientUnits="userSpaceOnUse">
      <stop offset="0" stop-color="#16163c"/>
      <stop offset=".21" stop-color="#17173f"/>
      <stop offset=".38" stop-color="#1d1d49"/>
      <stop offset=".53" stop-color="#26265a"/>
      <stop offset=".68" stop-color="#333371"/>
      <stop offset=".82" stop-color="#444490"/>
      <stop offset=".95" stop-color="#5959b5"/>
      <stop offset="1" stop-color="#6262c5"/>
    </linearGradient>
  </defs>
  <rect class="cls-2" x=".25" y="-.19" width="1920" height="1080"/>
  <line class="cls-3" x1=".25" y1="847.82" x2="1920" y2="847.82"/>
  <path class="cls-1" d="M1054.87,847.82c-5-90.05-24.07-152.87-41.17-192.37"/>
  <path class="cls-1" d="M913.92,655.61c-4.95,48.53-17.51,118.61-48.78,192.21"/>
  <path class="cls-1" d="M1073.14,494.29s106.31,15.19,135-112.22"/>
  <circle class="cls-4" cx="960" cy="540" r="139.98"/>
  <path class="cls-1" d="M838.9,540s-66.74,9.54-41.45,67.13"/>
  <path class="cls-5" d="M824.54,799.96c-3.85-15.48-7.99-30.88-12.8-46.09-4.82-15.24-10.32-30.26-16.8-44.87-6-13.54-12.88-26.69-20.85-39.18s-16.18-23.25-25.77-33.63c-9.55-10.34-20.16-19.73-31.72-27.77-1.45-1.01-2.92-2-4.41-2.97-2.7-1.76-5.21,2.56-2.52,4.32,11.56,7.55,22.15,16.48,31.75,26.39,9.59,9.91,18.15,20.75,25.78,32.23,8,12.04,14.95,24.75,21.04,37.86,6.61,14.24,12.17,28.95,17.06,43.87,4.91,15.01,9.14,30.24,13.02,45.55,.48,1.87,.95,3.75,1.41,5.63,.78,3.12,5.6,1.8,4.82-1.33h0Z"/>
  <path class="cls-5" d="M692.2,623.22c-5.74-9.8-11.53-19.57-17.21-29.4-.46-.79-1.25-1.87-1.11-2.85,.09-.65,.7-1.13,1.22-1.49,1.77-1.25,4.04-1.96,6.09-2.58,4.47-1.34,9.12-1.8,13.76-1.45,5.16,.39,10.24,1.91,14.77,4.4,2.82,1.55,5.35-2.77,2.52-4.32-9.5-5.22-20.93-6.57-31.4-3.74-4.41,1.19-11.39,3.3-11.92,8.74-.31,3.16,1.85,5.99,3.37,8.57,1.58,2.7,3.16,5.4,4.74,8.09,3.62,6.18,7.23,12.35,10.85,18.53,1.62,2.78,5.95,.26,4.32-2.52h0Z"/>
  <path class="cls-5" d="M1141.99,517.52c20.09-6.04,38.7-16.66,54.17-30.82,4.35-3.98,8.43-8.24,12.22-12.75,.87-1.03,1.01-2.52,0-3.54-.89-.89-2.66-1.04-3.54,0-13.11,15.57-29.67,28.03-48.24,36.37-5.18,2.33-10.52,4.28-15.95,5.92-3.07,.92-1.76,5.75,1.33,4.82h0Z"/>
  <path class="cls-5" d="M1202.04,463.76c8.13-1,16.25-1.99,24.38-2.99-.83-.83-1.67-1.67-2.5-2.5,.18,4.6,.36,9.19,.54,13.79,.12,3.21,5.13,3.22,5,0-.18-4.6-.36-9.19-.54-13.79-.05-1.22-1.11-2.67-2.5-2.5-8.13,1-16.25,1.99-24.38,2.99-1.34,.16-2.5,1.03-2.5,2.5,0,1.22,1.15,2.67,2.5,2.5h0Z"/>
  <path class="cls-5" d="M1050.41,693.41c2.3,8.99,4.61,17.97,6.91,26.96,.8,3.11,5.62,1.79,4.82-1.33-2.3-8.99-4.61-17.97-6.91-26.96-.8-3.11-5.62-1.79-4.82,1.33h0Z"/>
  <path class="cls-5" d="M1051.35,731.45c.86,4.9,3.4,9.49,7.02,12.89,1.22,1.15,3.02,.86,3.93-.51,3.08-4.63,6.16-9.27,9.24-13.9,.73-1.09,.25-2.81-.9-3.42-1.26-.66-2.65-.27-3.42,.9-3.08,4.63-6.16,9.27-9.24,13.9l3.93-.51c-.43-.4-.85-.82-1.24-1.26-.17-.19-.34-.38-.5-.57,0,0-.49-.6-.24-.28-.67-.86-1.26-1.8-1.78-2.76-.24-.45-.46-.9-.67-1.36-.12-.28-.14-.31-.05-.1-.05-.12-.09-.23-.14-.35-.11-.27-.21-.55-.3-.83-.35-1.04-.62-2.1-.81-3.18-.23-1.29-1.87-2.13-3.08-1.75-1.39,.45-1.99,1.69-1.75,3.08h0Z"/>
  <path class="cls-5" d="M929.35,697.07c-.22,8.92-2.21,17.78-5.92,25.9-.56,1.23-.35,2.69,.9,3.42,1.07,.63,2.86,.34,3.42-.9,4.09-8.96,6.36-18.58,6.6-28.43,.08-3.22-4.92-3.22-5,0h0Z"/>
  <path class="cls-5" d="M913.97,718.93c-1.05,6.6-.6,13.33,1.55,19.67,.43,1.28,1.71,2.13,3.08,1.75,4.54-1.26,8.46-4.29,10.82-8.37,.68-1.17,.27-2.74-.9-3.42s-2.74-.28-3.42,.9c-1.74,3.01-4.52,5.16-7.83,6.08,1.03,.58,2.05,1.16,3.08,1.75-1.85-5.45-2.46-11.31-1.55-17.01,.21-1.33-.34-2.69-1.75-3.08-1.19-.33-2.86,.4-3.08,1.75h0Z"/>
  <path class="cls-5" d="M1208,346.31c10.43,2.76,15.72,13.25,20.19,22.12,.61,1.21,2.31,1.55,3.42,.9,1.23-.72,1.51-2.21,.9-3.42-5.11-10.13-11.37-21.29-23.18-24.42-3.11-.82-4.44,4-1.33,4.82h0Z"/>
  <path class="cls-5" d="M1222.37,373.53c5.18,3.02,11.72,3.22,17.56,2.7,2.13-.19,3.83-1.41,4-3.66,.12-1.59-.33-3.32-.6-4.88-.57-3.34-1.34-6.64-2.31-9.88-.39-1.29-1.75-2.11-3.08-1.75s-2.13,1.78-1.75,3.08c.82,2.75,1.51,5.54,2.04,8.36,.25,1.35,.5,2.71,.66,4.08,.02,.17,.03,.34,.05,.51,0,.31,0,.33,.02,.05l.92-.94c-.3,.07-.33,.08-.09,.04h-.26c-.35,.02-.7,.04-1.04,.06-4.76,.19-9.56,.26-13.61-2.09-1.17-.68-2.74-.27-3.42,.9s-.27,2.74,.9,3.42h0Z"/>
  <path class="cls-5" d="M1209.56,336.09c-2.61,.41-5.09,1.18-7.51,2.23-1.1,.48-2.18,1.01-3.22,1.62-1.07,.63-2.19,1.31-3,2.26-1.05,1.24-1.61,2.85-1.04,4.44,.5,1.38,1.68,2.29,2.78,3.18,2.05,1.66,4.2,3.16,6.5,4.44,1.14,.64,2.78,.31,3.42-.9s.32-2.74-.9-3.42c-.91-.51-1.81-1.05-2.69-1.63-.47-.31-.94-.63-1.39-.96-.2-.14-.39-.28-.58-.43,0,0-.61-.47-.26-.2-.21-.16-2.34-2-2.34-2,.1-.08,.2,.58,.21,.65,0-.29,0-.25-.02,.11-.13,.27-.15,.32-.06,.15,.38-.48-.21,.09,.18-.23,.09-.07,.57-.49,.14-.17,.8-.61,1.72-1.11,2.61-1.58,.42-.23,.85-.44,1.29-.64,.25-.12,.51-.23,.77-.34,.16-.07,.15-.06-.04,.02,.15-.06,.3-.12,.45-.18,1.94-.76,3.96-1.29,6.02-1.61,1.3-.2,2.13-1.89,1.75-3.08-.46-1.41-1.69-1.96-3.08-1.75h0Z"/>
</svg>