<?xml version="1.0" encoding="UTF-8"?>
<svg id="Frame_22" data-name="Frame 22" xmlns="http://www.w3.org/2000/svg" xmlns:xlink="http://www.w3.org/1999/xlink" viewBox="0 0 1920 1080">
  <defs>
    <style>
      .cls-1 {
        fill: url(#Dégradé_sans_nom_6);
        stroke: #1d1d1b;
      }

      .cls-1, .cls-2 {
        stroke-miterlimit: 10;
      }

      .cls-2 {
        fill: none;
        stroke: #fff;
        stroke-width: 10px;
      }

      .cls-3 {
        fill: #fd0988;
      }

      .cls-4 {
        fill: red;
      }
    </style>
    <linearGradient id="Dégradé_sans_nom_6" data-name="Dégradé sans nom 6" x1="958.55" y1="-3.18" x2="961.93" y2="1076.82" gradientTransform="translate(1920.5 1079.63) rotate(-180)" gradientUnits="userSpaceOnUse">
      <stop offset="0" stop-color="#16163c"/>
      <stop offset=".21" stop-color="#17173f"/>
      <stop offset=".38" stop-color="#1d1d49"/>
      <stop offset=".53" stop-color="#26265a"/>
      <stop offset=".68" stop-color="#333371"/>
      <stop offset=".82" stop-color="#444490"/>
      <stop offset=".95" stop-color="#5959b5"/>
      <stop offset="1" stop-color="#6262c5"/>
    </linearGradient>
  </defs>
  <rect class="cls-1" x=".25" y="-.19" width="1920" height="1080"/>
  <line class="cls-2" x1=".25" y1="847.82" x2="1920" y2="847.82"/>
  <circle class="cls-3" cx="960" cy="686.95" r="62.21"/>
  <path class="cls-4" d="M855.42,645.23c-3.37,11.15-5.15,22.76-5.31,34.4-.04,3.22,4.96,3.22,5,0,.16-11.22,1.89-22.33,5.14-33.07,.93-3.09-3.89-4.41-4.82-1.33h0Z"/>
  <path class="cls-4" d="M835.33,681.8c8.49,2.96,15.89,8.65,21,16.04,1.3,1.88,2.67,3.85,4.81,4.84s4.67,.87,6.78-.33c4.06-2.31,5.87-7.07,7.25-11.26,1.94-5.9,3.15-12.01,3.73-18.2,.13-1.35-1.24-2.5-2.5-2.5-1.46,0-2.37,1.15-2.5,2.5-.46,4.88-1.4,9.71-2.79,14.42-1.03,3.5-2.13,8.2-5.31,10.46-1.14,.81-2.17,.87-3.31-.14-1.48-1.31-2.46-3.23-3.66-4.79-2.67-3.45-5.78-6.44-9.26-9.06-3.92-2.94-8.3-5.19-12.92-6.8-1.27-.44-2.73,.51-3.08,1.75-.38,1.38,.47,2.63,1.75,3.08h0Z"/>
</svg>