<?xml version="1.0" encoding="UTF-8"?>
<svg id="Frame_22" data-name="Frame 22" xmlns="http://www.w3.org/2000/svg" xmlns:xlink="http://www.w3.org/1999/xlink" viewBox="0 0 1920 1080">
  <defs>
    <style>
      .cls-1 {
        fill: url(#Dégradé_sans_nom_6);
        stroke: #1d1d1b;
      }

      .cls-1, .cls-2 {
        stroke-miterlimit: 10;
      }

      .cls-2 {
        fill: none;
        stroke: #fff;
        stroke-width: 10px;
      }

      .cls-3 {
        fill: #fd0988;
      }

      .cls-4 {
        fill: red;
      }
    </style>
    <linearGradient id="Dégradé_sans_nom_6" data-name="Dégradé sans nom 6" x1="-3322.92" y1="-3.18" x2="-3319.55" y2="1076.82" gradientTransform="translate(-2360.98 1079.63) rotate(-180)" gradientUnits="userSpaceOnUse">
      <stop offset="0" stop-color="#16163c"/>
      <stop offset=".21" stop-color="#17173f"/>
      <stop offset=".38" stop-color="#1d1d49"/>
      <stop offset=".53" stop-color="#26265a"/>
      <stop offset=".68" stop-color="#333371"/>
      <stop offset=".82" stop-color="#444490"/>
      <stop offset=".95" stop-color="#5959b5"/>
      <stop offset="1" stop-color="#6262c5"/>
    </linearGradient>
  </defs>
  <rect class="cls-1" x=".25" y="-.19" width="1920" height="1080"/>
  <line class="cls-2" x1=".25" y1="847.82" x2="1920" y2="847.82"/>
  <circle class="cls-3" cx="960" cy="686.95" r="62.21"/>
  <path class="cls-4" d="M1039.54,786.06c.33-31.15,.65-62.29,.98-93.44,.16-15.18,.12-30.37,.58-45.54,.44-14.48,1.68-29.04,5.95-42.95,3.39-11.03,8.92-21.59,16.77-30.1,3.82-4.14,8.15-7.76,13.02-10.6,2.61-1.53,5.46-3.08,8.4-3.83,2.64-.67,4.63,.42,6.1,2.59,1.66,2.45,2.67,5.29,3.77,8.02,1.33,3.3,2.62,6.61,3.87,9.94,2.55,6.81,4.92,13.68,7.1,20.61,4.33,13.72,7.94,27.66,10.83,41.75,5.76,28.12,8.58,56.82,8.39,85.53-.02,3.56-.09,7.11-.21,10.67-.1,3.22,4.9,3.21,5,0,.95-29.6-1.31-59.28-6.6-88.41-5.28-29.06-13.63-57.58-24.97-84.85-1.17-2.82-2.42-5.66-4.55-7.91-2.42-2.55-5.7-3.57-9.15-2.95-3.21,.58-6.37,2.24-9.21,3.79-2.69,1.47-5.23,3.19-7.65,5.07-9.49,7.37-16.7,17.49-21.59,28.4-5.81,12.96-8.36,27.03-9.51,41.11-1.25,15.34-1.03,30.8-1.2,46.17-.33,31.81-.67,63.62-1,95.44l-.12,11.49c-.03,3.22,4.97,3.22,5,0h0Z"/>
  <path class="cls-4" d="M1111.99,737.66c1.13,6.95,2.47,13.86,4.05,20.72,.71,3.09,1.36,6.25,2.34,9.27,.8,2.47,1.94,5.08,3.93,6.84s4.6,2.57,7.23,2.05c2.46-.49,4.39-2.25,5.83-4.22,3.32-4.57,4.02-10.57,5.19-15.94,1.71-7.89,3.42-15.79,5.14-23.68,.68-3.14-4.14-4.48-4.82-1.33-1.38,6.36-2.76,12.73-4.14,19.09-.68,3.14-1.36,6.28-2.04,9.43-.5,2.3-.95,4.64-1.88,6.81-.69,1.63-1.78,3.49-3.05,4.37-.66,.46-1.18,.63-1.72,.64-.79,.02-1.52-.19-2.22-.76-1.41-1.14-2.19-3.23-2.73-4.96-.86-2.77-1.47-5.64-2.12-8.47-1.63-7.02-3.01-14.09-4.16-21.19-.22-1.33-1.87-2.08-3.08-1.75-1.42,.39-1.96,1.74-1.75,3.08h0Z"/>
</svg>