<?xml version="1.0" encoding="UTF-8"?>
<svg xmlns="http://www.w3.org/2000/svg" xmlns:xlink="http://www.w3.org/1999/xlink" viewBox="0 0 1920 1080">
  <defs>
    <style>
      .cls-1 {
        fill: url(#Dégradé_sans_nom_19);
        stroke: #1d1d1b;
        stroke-miterlimit: 10;
      }

      .cls-2 {
        fill: #fd0988;
      }

      .cls-3 {
        fill: red;
      }
    </style>
    <linearGradient id="Dégradé_sans_nom_19" data-name="Dégradé sans nom 19" x1="3.17" y1="539.81" x2="1917.15" y2="539.81" gradientUnits="userSpaceOnUse">
      <stop offset="0" stop-color="#7237bd"/>
      <stop offset="1" stop-color="#6262c5"/>
    </linearGradient>
  </defs>
  <g id="Frame_22" data-name="Frame 22">
    <rect class="cls-1" x=".25" y="-.19" width="1920" height="1080"/>
    <circle class="cls-2" cx="960" cy="540" r="31.11"/>
    <path class="cls-3" d="M879.01,539.84c-83.4-1.34-166.79-2.67-250.19-4.01-82.97-1.33-165.94-2.66-248.91-3.99-46.8-.75-93.61-1.5-140.41-2.25-3.22-.05-3.22,4.95,0,5,83.4,1.34,166.79,2.67,250.19,4.01,82.97,1.33,165.94,2.66,248.91,3.99,46.8,.75,93.61,1.5,140.41,2.25,3.22,.05,3.22-4.95,0-5h0Z"/>
    <path class="cls-2" d="M875.69,529.55c3.48,.29,6.82,1.51,9.73,3.42,1.46,.96,2.77,2.11,3.95,3.41,.73,.81,2.2,2.35,1.45,3.48-.65,.98-2.2,1.43-3.28,1.8-2.15,.73-4.32,1.43-6.48,2.15-4.32,1.43-8.64,2.87-12.95,4.3-3.04,1.01-1.74,5.84,1.33,4.82,4.01-1.33,8.02-2.66,12.03-3.99,2-.67,4.01-1.33,6.01-2,1.64-.54,3.34-1.05,4.84-1.93,3.46-2.03,4.62-5.83,2.67-9.39-1.7-3.12-4.87-5.69-7.88-7.48-3.49-2.08-7.39-3.25-11.43-3.58-1.35-.11-2.5,1.23-2.5,2.5,0,1.44,1.15,2.39,2.5,2.5h0Z"/>
    <path class="cls-3" d="M600.59,388.06c9.56,0,19.12,0,28.69,0,3.22,0,3.22-5,0-5-9.56,0-19.12,0-28.69,0-3.22,0-3.22,5,0,5h0Z"/>
    <path class="cls-3" d="M637.82,373.36c2.46,.26,5.59,1.1,7.69,2.78,.71,.57,1.19,1.2,1.35,1.92,.07,.3,.09,.56-.09,1.1s-.45,.91-.87,1.29c-.96,.88-2.25,1.37-3.47,1.77-1.89,.62-3.83,1.1-5.74,1.63-4.44,1.24-8.87,2.48-13.31,3.71-3.09,.86-1.78,5.69,1.33,4.82,4.04-1.13,8.08-2.25,12.12-3.38,3.45-.96,7.2-1.66,10.36-3.4,2.7-1.49,4.85-4.22,4.68-7.44-.15-2.96-2.07-5.22-4.47-6.77-2.85-1.83-6.27-2.68-9.6-3.03-1.34-.14-2.5,1.25-2.5,2.5,0,1.47,1.15,2.36,2.5,2.5h0Z"/>
    <path class="cls-3" d="M850.33,231.31c7.31,.62,14.62,1.24,21.92,1.85,1.35,.11,2.5-1.23,2.5-2.5,0-1.45-1.15-2.39-2.5-2.5-7.31-.62-14.62-1.24-21.92-1.85-1.35-.11-2.5,1.23-2.5,2.5,0,1.45,1.15,2.39,2.5,2.5h0Z"/>
    <path class="cls-3" d="M884.08,224.34c3.62-.14,7.15,.43,10.54,1.73,1.47,.56,3.05,1.28,4.29,2.27,.39,.31,.81,.74,1.06,1.15,.19,.32,.19,.29,.25,.58,.03,.12,0,.58,.05,.35-.22,.91-.86,1.62-1.85,2.29-1.4,.94-2.95,1.63-4.45,2.37-3.63,1.8-7.26,3.6-10.89,5.4-1.21,.6-1.55,2.31-.9,3.42,.72,1.23,2.21,1.5,3.42,.9,3.33-1.65,6.65-3.3,9.98-4.95,2.66-1.32,5.7-2.51,7.71-4.78,2.21-2.49,2.62-5.97,.57-8.7-1.99-2.66-5.22-4.13-8.27-5.25-3.66-1.35-7.63-1.93-11.52-1.78-1.35,.05-2.5,1.11-2.5,2.5,0,1.31,1.14,2.55,2.5,2.5h0Z"/>
    <path class="cls-3" d="M1154.09,384.68h15.19c1.31,0,2.56-1.15,2.5-2.5s-1.1-2.5-2.5-2.5h-15.19c-1.31,0-2.56,1.15-2.5,2.5s1.1,2.5,2.5,2.5h0Z"/>
    <path class="cls-3" d="M1170.47,372.13c5.85,1.41,11,4.37,15.15,8.73v-3.54c-4.32,3.8-9.6,6.34-15.32,7.48-1.33,.26-2.09,1.84-1.75,3.08,.38,1.38,1.75,2.01,3.08,1.75,6.51-1.29,12.56-4.38,17.53-8.76,1.03-.91,.89-2.61,0-3.54-4.67-4.91-10.77-8.43-17.36-10.02-1.31-.32-2.71,.41-3.08,1.75s.43,2.76,1.75,3.08h0Z"/>
    <path class="cls-3" d="M1142.28,723.87c4.5,0,9,0,13.5,0,1.31,0,2.56-1.15,2.5-2.5s-1.1-2.5-2.5-2.5c-4.5,0-9,0-13.5,0-1.31,0-2.56,1.15-2.5,2.5s1.1,2.5,2.5,2.5h0Z"/>
    <path class="cls-3" d="M1159.04,707.98c2.5,2.33,4.93,4.72,7.29,7.19,.57,.59,1.15,1.18,1.7,1.8,.24,.27,.75,.75,.75,1.15,0-.27-.21,.19-.34,.32-.43,.41-.97,.68-1.49,.95-5.81,3.02-12.16,5.06-18.57,6.33-1.33,.26-2.09,1.84-1.75,3.08,.38,1.38,1.75,2.01,3.08,1.75,3.77-.75,7.48-1.77,11.09-3.08,1.88-.68,3.73-1.44,5.56-2.26,1.67-.75,3.42-1.49,4.88-2.61,1.48-1.14,2.54-2.71,2.52-4.64-.03-1.98-1.27-3.54-2.56-4.91-2.77-2.96-5.65-5.82-8.61-8.59-2.35-2.19-5.89,1.33-3.54,3.54h0Z"/>
    <path class="cls-3" d="M867.9,850.44c5.77-.8,11.7-.25,17.28,1.41,1.29,.38,2.72-.46,3.08-1.75s-.45-2.69-1.75-3.08c-6.49-1.92-13.24-2.33-19.93-1.41-1.34,.18-2.07,1.9-1.75,3.08,.4,1.44,1.73,1.93,3.08,1.75h0Z"/>
    <path class="cls-3" d="M887.43,840.5c6.23-.2,14.4-.39,18.07,5.74,3.23,5.39-1.76,10.33-6.94,11.41-4.39,.92-9-.25-13.27-1.24-3.13-.72-4.47,4.09-1.33,4.82,4.86,1.12,9.8,2.17,14.79,1.43,3.85-.57,7.63-2.49,10.09-5.56,2.5-3.12,3.48-7.25,2.06-11.08-1.39-3.77-4.44-6.87-8.1-8.49-4.85-2.15-10.15-2.2-15.37-2.04-3.21,.1-3.22,5.1,0,5h0Z"/>
    <path class="cls-3" d="M610.74,711.74c10.68,.72,21.35,1.44,32.03,2.17,1.35,.09,2.5-1.21,2.5-2.5,0-1.43-1.15-2.41-2.5-2.5-10.68-.72-21.35-1.44-32.03-2.17-1.35-.09-2.5,1.21-2.5,2.5,0,1.43,1.15,2.41,2.5,2.5h0Z"/>
    <path class="cls-3" d="M640.36,695.46c4.34,1.16,8.46,2.87,12.32,5.17,3.03,1.81,6.79,4.15,8.01,7.68,1.14,3.29-.97,6.59-3.68,8.37-3.64,2.39-8.22,2.66-12.44,2.96-1.35,.1-2.5,1.08-2.5,2.5,0,1.28,1.15,2.6,2.5,2.5,4.33-.31,8.67-.69,12.7-2.44,3.51-1.53,6.47-4.33,7.93-7.9,3.31-8.11-3.92-14.4-10.18-18.1-4.15-2.45-8.67-4.32-13.32-5.56-3.11-.83-4.44,3.99-1.33,4.82h0Z"/>
  </g>
  <g id="Frame_27" data-name="Frame 27">
    <polygon class="cls-2" points="730.76 385.36 676.89 354.25 676.89 416.47 730.76 385.36"/>
    <polygon class="cls-2" points="1248.49 722.57 1194.61 691.46 1194.61 753.67 1248.49 722.57"/>
    <polygon class="cls-2" points="739.74 710.19 685.87 679.09 685.87 741.3 739.74 710.19"/>
    <polygon class="cls-2" points="1260.87 385.36 1206.99 354.25 1206.99 416.47 1260.87 385.36"/>
    <polygon class="cls-2" points="987.19 233.96 933.31 202.86 933.31 265.07 987.19 233.96"/>
    <polygon class="cls-2" points="986.74 846.04 932.86 814.93 932.86 877.14 986.74 846.04"/>
  </g>
</svg>