<?xml version="1.0" encoding="UTF-8"?>
<svg id="Frame_3" data-name="Frame 3" xmlns="http://www.w3.org/2000/svg" xmlns:xlink="http://www.w3.org/1999/xlink" viewBox="0 0 1920 1080">
  <defs>
    <style>
      .cls-1 {
        fill: url(#Dégradé_sans_nom_2);
      }

      .cls-2 {
        fill: #0013ff;
      }

      .cls-3 {
        fill: #111;
        stroke: #1d1d1b;
        stroke-miterlimit: 10;
      }

      .cls-4 {
        fill: #fff;
        font-family: Montserrat-Black, Montserrat;
        font-size: 48px;
      }

      .cls-5 {
        fill: #fd0988;
      }

      .cls-6 {
        fill: #d900ff;
      }

      .cls-7 {
        fill: red;
      }
    </style>
    <linearGradient id="Dégradé_sans_nom_2" data-name="Dégradé sans nom 2" x1="690.04" y1="482.7" x2="1254.93" y2="606.62" gradientUnits="userSpaceOnUse">
      <stop offset="0" stop-color="#7237bd"/>
      <stop offset="1" stop-color="#fff"/>
    </linearGradient>
  </defs>
  <rect class="cls-3" width="1920" height="1080"/>
  <circle class="cls-5" cx="1347.65" cy="540" r="23.33"/>
  <path class="cls-2" d="M-13.54,710.13c11.93,12.5,23.58,25.27,34.92,38.3,11.44,13.14,22.58,26.54,33.41,40.19,10.88,13.71,21.45,27.66,31.71,41.84,10.33,14.28,20.35,28.8,30.05,43.52s19.31,30.01,28.47,45.32c1.14,1.91,2.28,3.81,3.41,5.73,1.64,2.77,5.96,.25,4.32-2.52-9.13-15.44-18.59-30.68-28.38-45.71-9.67-14.85-19.67-29.49-29.98-43.9-10.31-14.41-20.95-28.59-31.89-42.53-10.77-13.72-21.84-27.2-33.21-40.42-11.33-13.17-22.96-26.08-34.89-38.71-1.46-1.55-2.93-3.1-4.41-4.64-2.23-2.33-5.76,1.21-3.54,3.54h0Z"/>
  <path class="cls-6" d="M186.91,135.85c-14.05,8.6-28,17.36-41.85,26.28-13.75,8.86-27.4,17.88-40.93,27.05-13.57,9.2-27.04,18.56-40.39,28.08-13.26,9.45-26.41,19.05-39.44,28.81-13.11,9.82-26.11,19.79-38.99,29.91-1.6,1.26-3.2,2.52-4.8,3.78-1.06,.84-.88,2.66,0,3.54,1.05,1.05,2.47,.84,3.54,0,12.7-10.04,25.51-19.92,38.44-29.66,13.01-9.79,26.13-19.43,39.36-28.91,13.26-9.5,26.64-18.85,40.12-28.04,13.45-9.17,27-18.18,40.65-27.03,13.75-8.91,27.6-17.67,41.56-26.26,1.75-1.08,3.51-2.16,5.27-3.23,2.74-1.68,.23-6-2.52-4.32h0Z"/>
  <path class="cls-7" d="M268.42,993.36c-21.42-1.52-42.88-2.63-64.34-3.33-21.47-.7-42.95-.98-64.42-.86-12.11,.07-24.21,.28-36.32,.61-3.21,.09-3.22,5.09,0,5,21.47-.59,42.95-.77,64.43-.54,21.48,.23,42.95,.88,64.4,1.94,12.09,.6,24.18,1.33,36.26,2.18,1.35,.1,2.5-1.22,2.5-2.5,0-1.43-1.15-2.4-2.5-2.5h0Z"/>
  <path class="cls-7" d="M70.34,942.59c-12.94,13.4-24.05,28.59-32.84,45.01-2.49,4.65-4.79,9.4-6.9,14.23-.57,1.3-.33,2.59,.9,3.42,16.93,11.42,33.86,22.84,50.79,34.26,2.67,1.8,5.18-2.53,2.52-4.32-16.93-11.42-33.86-22.84-50.79-34.26l.9,3.42c7.33-16.74,16.92-32.51,28.56-46.6,3.31-4.01,6.78-7.89,10.39-11.63,2.24-2.32-1.3-5.86-3.54-3.54h0Z"/>
  <path class="cls-7" d="M1376.34,952.15c-28.47-2.02-57.01-2.95-85.55-2.79-8.13,.05-16.26,.18-24.39,.41-3.21,.09-3.22,5.09,0,5,28.53-.78,57.09-.48,85.59,.92,8.12,.4,16.24,.89,24.35,1.46,1.35,.1,2.5-1.22,2.5-2.5,0-1.43-1.15-2.4-2.5-2.5h0Z"/>
  <path class="cls-7" d="M1243.83,918.58c-11.11,11.52-20.17,24.97-26.59,39.62-.57,1.3-.33,2.59,.9,3.42,11.28,7.61,22.55,15.21,33.83,22.82,2.67,1.8,5.18-2.53,2.52-4.32-11.28-7.61-22.55-15.21-33.83-22.82,.3,1.14,.6,2.28,.9,3.42,6.26-14.28,14.98-27.38,25.81-38.61,2.23-2.32-1.3-5.86-3.54-3.54h0Z"/>
  <g>
    <g>
      <path class="cls-1" d="M672.53,540.62c0-10.18,8.02-17.57,18.96-17.57s18.96,7.39,18.96,17.57-8.02,17.57-18.96,17.57-18.96-7.39-18.96-17.57Zm26.5,0c0-5.23-3.36-8.4-7.54-8.4s-7.54,3.17-7.54,8.4,3.36,8.4,7.54,8.4,7.54-3.17,7.54-8.4Z"/>
      <path class="cls-1" d="M714.29,542.3v-18.48h11.33v18.15c0,5.14,1.97,7.06,5.14,7.06s5.14-1.92,5.14-7.06v-18.15h11.14v18.48c0,10.08-6.05,15.89-16.37,15.89s-16.37-5.81-16.37-15.89Z"/>
      <path class="cls-1" d="M799.73,548.16c0,5.86-4.94,9.26-14.21,9.26h-18.91v-33.6h17.95c9.26,0,13.58,3.7,13.58,8.78,0,3.12-1.58,5.71-4.66,7.25,3.94,1.44,6.24,4.32,6.24,8.3Zm-21.99-16.42v4.99h5.28c2.54,0,3.7-.86,3.7-2.5s-1.15-2.5-3.7-2.5h-5.28Zm10.56,15.12c0-1.73-1.25-2.64-3.74-2.64h-6.82v5.28h6.82c2.5,0,3.74-.91,3.74-2.64Z"/>
      <path class="cls-1" d="M803.72,523.82h11.33v33.6h-11.33v-33.6Z"/>
      <path class="cls-1" d="M848.45,548.88v8.54h-27.94v-33.6h27.31v8.54h-16.18v3.94h14.21v8.16h-14.21v4.42h16.8Z"/>
      <path class="cls-1" d="M885.94,523.82v33.6h-9.31l-12.77-15.27v15.27h-11.04v-33.6h9.31l12.77,15.27v-15.27h11.04Z"/>
      <path class="cls-1" d="M905.81,523.82h16.56c11.23,0,18.96,6.38,18.96,16.8s-7.73,16.8-18.96,16.8h-16.56v-33.6Zm16.08,24.77c4.75,0,8.02-2.83,8.02-7.97s-3.26-7.97-8.02-7.97h-4.75v15.94h4.75Z"/>
      <path class="cls-1" d="M973.4,548.88v8.54h-27.94v-33.6h27.31v8.54h-16.18v3.94h14.21v8.16h-14.21v4.42h16.8Z"/>
      <path class="cls-1" d="M990.82,540.62c0-10.32,7.92-17.57,18.72-17.57,6.58,0,11.76,2.4,15.07,6.72l-7.15,6.38c-1.97-2.5-4.32-3.94-7.35-3.94-4.7,0-7.87,3.26-7.87,8.4s3.17,8.4,7.87,8.4c3.03,0,5.38-1.44,7.35-3.94l7.15,6.38c-3.31,4.32-8.5,6.72-15.07,6.72-10.8,0-18.72-7.25-18.72-17.57Z"/>
      <path class="cls-1" d="M1027.87,523.82h11.33v24.82h15.17v8.78h-26.5v-33.6Z"/>
      <path class="cls-1" d="M1057.49,523.82h11.33v33.6h-11.33v-33.6Z"/>
      <path class="cls-1" d="M1102.22,548.88v8.54h-27.94v-33.6h27.31v8.54h-16.18v3.94h14.21v8.16h-14.21v4.42h16.8Z"/>
      <path class="cls-1" d="M1139.71,523.82v33.6h-9.31l-12.77-15.27v15.27h-11.04v-33.6h9.31l12.77,15.27v-15.27h11.04Z"/>
      <path class="cls-1" d="M1152.48,532.6h-9.84v-8.78h31.01v8.78h-9.84v24.82h-11.33v-24.82Z"/>
      <path class="cls-1" d="M1174.46,554.73l3.65-8.26c3.17,1.87,7.39,3.07,11.09,3.07,3.22,0,4.37-.67,4.37-1.82,0-4.22-18.58-.82-18.58-13.35,0-6.24,5.23-11.33,15.65-11.33,4.51,0,9.17,.96,12.67,2.93l-3.41,8.21c-3.31-1.68-6.43-2.5-9.36-2.5-3.31,0-4.37,.96-4.37,2.11,0,4.03,18.58,.67,18.58,13.06,0,6.14-5.23,11.33-15.65,11.33-5.62,0-11.28-1.39-14.64-3.46Z"/>
      <path class="cls-1" d="M1235.9,534.09c0-1.49-1.44-2.26-3.22-2.26-2.06,0-3.98,1.25-4.99,3.26l-8.54-4.27c2.45-4.61,7.3-7.78,14.98-7.78s13.15,3.17,13.15,9.17c0,7.34-7.68,8.64-7.68,12.34h-9.89c0-5.81,6.19-7.54,6.19-10.46Zm-7.58,18.05c0-3.22,2.59-5.66,6.34-5.66s6.34,2.45,6.34,5.66-2.59,5.76-6.34,5.76-6.34-2.59-6.34-5.76Z"/>
    </g>
    <text class="cls-4" transform="translate(671.14 557.42)"><tspan x="0" y="0">OU BIEN DE CLIENTS ?</tspan></text>
  </g>
  <path class="cls-7" d="M1320.74,592.12c-28.09,43.73-73.74,72.29-121.01,91.58-53.98,22.03-111.88,34.79-169.78,40.71-59.22,6.05-119.06,4.87-178.19-1.58-29.57-3.23-59.1-7.59-88.23-13.64-27.94-5.8-55.71-13.52-81.6-25.68-45.77-21.5-87.12-59.54-99.07-110.32-1.41-6.01-2.34-12.1-2.81-18.25l-2.5,2.5c25.51-.06,51.02-.13,76.53-.19,3.22,0,3.22-5.01,0-5-25.51,.06-51.02,.13-76.53,.19-1.27,0-2.6,1.15-2.5,2.5,3.95,51.12,38.8,94.55,81.4,120.57,50.28,30.71,110.53,41.14,168.04,48.96,60.79,8.26,122.41,11.27,183.65,6.84,60.21-4.36,120.22-15.86,176.99-36.63,48.5-17.74,96.59-43.61,129.09-84.83,3.86-4.9,7.48-9.96,10.85-15.21,1.74-2.72-2.58-5.23-4.32-2.52h0Z"/>
  <path class="cls-7" d="M1263.28,561.44c.87-.3,1.74-.51,2.64-.68,.29-.04,.26-.04-.09,0,.13-.02,.26-.03,.39-.04,.19-.02,.39-.03,.58-.04,.45-.03,.91-.03,1.37-.01s.92,.02,1.36,.11c-.65-.13,0,0,.11,.03,.26,.05,.51,.1,.76,.16,.44,.1,.88,.22,1.31,.37,.19,.06,.37,.13,.55,.19,.12,.05,.24,.09,.36,.14-.3-.13-.32-.13-.06-.02,1.19,.53,2.74,.39,3.42-.9,.58-1.09,.38-2.85-.9-3.42-4.14-1.85-8.84-2.23-13.15-.71-1.23,.43-2.18,1.73-1.75,3.08,.39,1.22,1.75,2.21,3.08,1.75h0Z"/>
  <path class="cls-7" d="M1275.06,543.74c3.97,.1,7.85,.89,11.55,2.32,3.05,1.18,7.03,2.99,8.45,6.17s-2.8,5.09-4.81,6.45c-3.45,2.34-7.09,4.4-10.85,6.19-1.22,.58-1.54,2.33-.9,3.42,.73,1.25,2.2,1.48,3.42,.9,3.43-1.62,6.74-3.47,9.91-5.55,2.8-1.84,6.43-3.88,7.86-7.06,3.49-7.75-6.11-13.2-11.95-15.42-4.04-1.54-8.35-2.31-12.67-2.42-3.22-.08-3.22,4.92,0,5h0Z"/>
</svg>