<?xml version="1.0" encoding="UTF-8"?>
<svg xmlns="http://www.w3.org/2000/svg" xmlns:xlink="http://www.w3.org/1999/xlink" viewBox="0 0 1920 1080">
  <defs>
    <style>
      .cls-1 {
        fill: url(#Dégradé_sans_nom_19);
        stroke: #1d1d1b;
        stroke-miterlimit: 10;
      }

      .cls-2 {
        fill: #fd0988;
      }

      .cls-3 {
        fill: red;
      }
    </style>
    <linearGradient id="Dégradé_sans_nom_19" data-name="Dégradé sans nom 19" x1="3.17" y1="539.81" x2="1917.15" y2="539.81" gradientUnits="userSpaceOnUse">
      <stop offset="0" stop-color="#7237bd"/>
      <stop offset="1" stop-color="#6262c5"/>
    </linearGradient>
  </defs>
  <g id="Frame_22" data-name="Frame 22">
    <rect class="cls-1" x=".25" y="-.19" width="1920" height="1080"/>
    <circle class="cls-2" cx="960" cy="540" r="93.32"/>
    <path class="cls-3" d="M1028.48,805.13c13.54-7.12,27.13-14.29,39.69-23.07,12.1-8.46,22.97-18.4,31.67-30.36,8.03-11.04,14.1-23.46,18.29-36.43,4.26-13.17,6.55-26.99,7.04-40.82,.24-6.82,.02-13.66-.64-20.46-.34-3.5-.78-7-1.37-10.46-.51-3.02-1.45-6.13-3.54-8.46-1.04-1.16-2.42-1.97-3.91-2.4-3.09-.91-4.42,3.92-1.33,4.82,2.15,.63,3.04,3.25,3.56,5.42,.72,2.98,1.05,6.1,1.39,9.14,.73,6.59,1.04,13.23,.91,19.86-.24,13.16-2.2,26.26-5.95,38.88-3.72,12.5-9.22,24.44-16.55,35.24-7.75,11.42-17.64,21.15-28.74,29.31-11.94,8.77-24.96,15.92-38.03,22.83-1.67,.88-3.34,1.76-5,2.64-2.85,1.5-.32,5.82,2.52,4.32h0Z"/>
    <path class="cls-3" d="M1110.27,650.94c-3.31-3.4-5.61-7.86-6.23-12.59l-1.84,2.41c8.43-2.27,17.51-1.14,25.13,3.13,2.81,1.58,5.33-2.74,2.52-4.32-8.77-4.92-19.27-6.25-28.98-3.64-.94,.25-1.98,1.35-1.84,2.41,.81,6.11,3.38,11.69,7.7,16.13,2.25,2.31,5.78-1.23,3.54-3.54h0Z"/>
    <path class="cls-3" d="M1197.83,404.28c-6.34-10.5-16.01-18.34-26.95-23.69-11.34-5.54-23.67-8.74-36.04-11.04-6.46-1.21-12.97-2.15-19.47-3.07-8.56-1.21-17.12-2.38-25.72-3.26-16.97-1.74-34.11-2.25-51.01,.4-15.43,2.42-30.44,7.59-44.13,15.09-1.7,.93-3.37,1.9-5.03,2.9-2.75,1.66-.24,5.99,2.52,4.32,12.96-7.83,27.19-13.39,42.03-16.42,16.12-3.28,32.7-3.25,49.03-1.9,15.14,1.25,30.29,3.33,45.27,5.84,12.12,2.03,24.31,4.69,35.68,9.47,10.41,4.38,20.3,10.84,27,20.09,.89,1.23,1.72,2.49,2.5,3.79,1.66,2.75,5.99,.24,4.32-2.52h0Z"/>
    <path class="cls-3" d="M986.99,371.65c-5.69,.36-10.17,5.39-10.36,11.02-.19,5.76,4.68,9.88,10.1,10.42,2.94,.29,5.85-.66,8.05-2.6,.98-.87,.95-2.66,0-3.54-1.05-.96-2.49-.93-3.54,0-.02,.02-.21,.22-.26,.23,.02,0,.49-.34,.09-.08-.19,.12-.38,.25-.58,.36-.17,.1-.36,.17-.53,.27-.29,.17,.45-.15,.13-.05-.13,.04-.27,.1-.4,.14-.41,.13-.83,.19-1.24,.3-.33,.09,.5-.03,.16-.02-.11,0-.23,.02-.34,.03-.26,.02-.52,.02-.77,.02-.2,0-.4-.02-.6-.03-.64-.04,.43,.1-.19-.02-.48-.1-.96-.21-1.42-.37-.1-.03-.69-.29-.35-.12s-.24-.12-.32-.17c-.2-.1-.4-.22-.6-.34-.1-.06-.19-.12-.29-.19-.07-.05-.49-.32-.16-.1,.31,.2-.26-.23-.33-.3-.15-.13-.29-.27-.42-.42-.08-.08-.15-.17-.23-.25-.32-.35,.06,.1,.07,.11-.15-.06-.34-.5-.42-.64-.1-.17-.19-.35-.28-.53-.2-.38,.02,.04,.04,.11-.04-.12-.08-.23-.12-.35-.08-.23-.14-.47-.19-.71-.02-.08-.09-.3-.07-.36-.03,.11,.04,.49,.02,.12-.01-.29-.18-1.22,.01-1.45-.02,.02-.11,.62-.02,.12,.02-.12,.04-.24,.07-.36,.05-.24,.11-.48,.18-.71s.16-.46,.24-.7c-.18,.52,.03-.05,.12-.24,.22-.44,.49-.85,.77-1.26,.08-.11,.3-.33-.05,.06,.1-.11,.2-.24,.3-.35,.18-.21,.38-.4,.58-.59,.18-.17,.37-.32,.56-.48-.5,.41,.24-.14,.39-.23,.21-.13,.42-.23,.64-.35,.39-.21-.02,0-.1,.03,.14-.05,.28-.11,.43-.16,.26-.09,.52-.16,.79-.21,.06-.01,.28-.08,.36-.07l-.3,.04c.12-.01,.25-.02,.37-.03,1.3-.08,2.56-1.09,2.5-2.5-.06-1.28-1.1-2.59-2.5-2.5h0Z"/>
    <path class="cls-3" d="M747.38,389.87c-14.31,8.52-25.38,21.78-32.4,36.79-8.08,17.27-10.8,36.53-9.86,55.47,.97,19.67,5.47,39.26,12.54,57.61,3.46,8.97,7.5,17.79,12.3,26.12,4.54,7.87,10.02,15.33,17.25,20.93,13.85,10.74,31.71,13.53,48.69,15.17,2.15,.21,4.29,.4,6.44,.58,1.35,.12,2.5-1.23,2.5-2.5,0-1.45-1.15-2.38-2.5-2.5-16.09-1.38-33.21-2.92-47.35-11.44-7.32-4.42-13.07-10.73-17.71-17.85-4.96-7.62-9.01-15.9-12.55-24.27-7.33-17.32-12.28-35.89-14.08-54.62-1.78-18.48-.38-37.48,6.38-54.89,5.63-14.5,15.12-27.95,27.86-37.03,1.62-1.16,3.3-2.24,5.01-3.26,2.76-1.64,.25-5.97-2.52-4.32h0Z"/>
    <path class="cls-3" d="M794.55,593.71c.1-.02,1.03-.18,.51-.12,.27-.03,.55-.04,.83-.04s.55,.02,.82,.04c.3,.03,.31,.03,.04,0,.16,.03,.31,.06,.46,.09,.23,.05,.46,.11,.69,.18,.09,.03,.95,.35,.51,.17,.51,.22,1,.5,1.46,.8,.13,.09,.26,.18,.39,.27-.16-.13-.17-.13-.03-.03,.22,.18,.42,.36,.62,.55,.23,.22,.44,.46,.65,.69,.34,.37-.11-.21,.19,.24s.59,.93,.82,1.43c-.2-.44,.13,.42,.16,.51,.08,.27,.14,.54,.19,.81,.03,.18,.03,.16,0-.07,.02,.17,.03,.34,.04,.51,.01,.34,0,.67-.03,1.01-.04,.51,.09-.21-.06,.33-.09,.32-.16,.65-.26,.97,0,0-.29,.72-.12,.34-.14,.31-.3,.61-.47,.9-.37,.63-.46,.73-.81,1.13-1.53,1.7-3.28,2.52-5.38,2.45-1.35-.04-2.5,1.18-2.5,2.5,0,1.39,1.15,2.46,2.5,2.5,5.37,.18,10.36-3.84,11.75-8.96,1.39-5.13-1.34-10.43-5.93-12.88-2.57-1.37-5.51-1.83-8.35-1.13-1.31,.32-2.1,1.8-1.75,3.08,.37,1.34,1.76,2.07,3.08,1.75h0Z"/>
    <path class="cls-3" d="M876.58,602.77c-2.77,2.03-5.54,4.06-8.31,6.09-.54,.4-.96,.82-1.15,1.49-.16,.6-.09,1.4,.25,1.93,.67,1.04,2.29,1.72,3.42,.9,2.77-2.03,5.54-4.06,8.31-6.09,.54-.4,.96-.82,1.15-1.49,.16-.6,.09-1.4-.25-1.93-.67-1.04-2.29-1.72-3.42-.9h0Z"/>
    <path class="cls-3" d="M864.43,604.96c-.91,2.07-1.74,4.08-2.02,6.34-.23,1.9,.13,3.88,1.11,5.53s2.58,3.01,4.47,3.33c2,.34,3.83-.18,5.58-1.17,.74-.42,1.43-.9,2.15-1.35,.37-.23,.75-.46,1.14-.66,.08-.04,.15-.08,.23-.12,.33-.16,.2-.04-.05,0,.21-.03,.44-.16,.64-.23,1.25-.39,2.17-1.76,1.75-3.08-.41-1.26-1.74-2.16-3.08-1.75-1.86,.57-3.37,1.69-5.01,2.67-.34,.2-.69,.38-1.04,.57-.25,.11-.2,.09,.14-.05-.1,.04-.2,.08-.3,.11-.15,.05-.31,.1-.46,.14-.1,.03-.21,.05-.31,.07,.4-.05,.47-.06,.19-.03-.05,0-.65-.01-.65,0,.36,.06,.44,.06,.25,.03-.08-.02-.16-.03-.24-.06-.1-.03-.21-.06-.31-.1,.35,.15,.4,.17,.16,.06-.09-.05-.19-.1-.28-.16-.22-.15-.18-.11,.12,.11-.02,.01-.34-.31-.36-.32-.08-.08-.15-.16-.22-.24-.17-.21-.14-.17,.09,.12-.07,0-.32-.49-.35-.56-.05-.1-.25-.36-.22-.45,.14,.34,.16,.38,.07,.13-.04-.11-.07-.21-.1-.32-.06-.22-.11-.43-.15-.65-.11-.49,0,.54,0,0,0-.27-.02-.54,0-.82,0-.12,.14-1.01,.03-.41,.09-.5,.2-.99,.35-1.48s.32-.97,.51-1.45c.03-.09,.39-.94,.17-.42,.12-.27,.23-.54,.35-.8,.52-1.19,.39-2.74-.9-3.42-1.08-.57-2.86-.38-3.42,.9h0Z"/>
    <path class="cls-3" d="M877.5,468.45c-4.25-1.91-8.49-3.82-12.74-5.73-1.19-.54-2.74-.38-3.42,.9-.58,1.09-.38,2.85,.9,3.42,4.25,1.91,8.49,3.82,12.74,5.73,1.19,.54,2.74,.38,3.42-.9,.58-1.09,.38-2.85-.9-3.42h0Z"/>
    <path class="cls-3" d="M863.43,470.61c-1.06-2.92-2.13-5.85-3.19-8.77-.52-1.43-1.04-2.86-1.56-4.28-.49-1.35-1.26-2.82-1.46-4.25v1.33l-.06,.11-.9,.9,.21-.1-1.26,.34c.79-.07,1.66,.13,2.44,.22,.94,.11,1.88,.21,2.82,.32,1.81,.21,3.62,.41,5.43,.62,3.69,.42,7.38,.84,11.07,1.26,1.34,.15,2.5-1.26,2.5-2.5,0-1.48-1.15-2.35-2.5-2.5-3.76-.43-7.52-.86-11.29-1.28-1.88-.21-3.76-.43-5.64-.64-.94-.11-1.88-.21-2.82-.32-.87-.1-1.8-.32-2.67-.08-.99,.27-1.82,1.08-2.11,2.07-.31,1.05,.03,2.02,.39,3l1.93,5.3c1.29,3.54,2.57,7.07,3.86,10.61,.46,1.27,1.7,2.12,3.08,1.75,1.22-.34,2.21-1.8,1.75-3.08h0Z"/>
    <path class="cls-3" d="M1033.66,473.51c1.3-1.7,2.6-3.4,3.9-5.09,.37-.48,.4-1.38,.25-1.93-.16-.58-.61-1.21-1.15-1.49-.58-.31-1.28-.46-1.93-.25l-.6,.25c-.38,.22-.67,.52-.9,.9-1.3,1.7-2.6,3.4-3.9,5.09-.37,.48-.4,1.38-.25,1.93,.16,.58,.61,1.21,1.15,1.49,.58,.31,1.28,.46,1.93,.25l.6-.25c.38-.22,.67-.52,.9-.9h0Z"/>
    <path class="cls-3" d="M1034.26,465.75c.7-.45,1.43-.85,2.2-1.17l-.6,.25c.93-.39,1.9-.69,2.89-.88l-3.08-1.75c.02,.09,.03,.18,.04,.27l-.09-.66c.1,.72,.1,1.45,0,2.17l.09-.66c-.1,.69-.27,1.36-.54,2.01-.23,.56-.04,1.43,.25,1.93s.9,1.01,1.49,1.15c.64,.15,1.36,.11,1.93-.25l.51-.39c.31-.31,.52-.68,.64-1.1,.75-1.84,.81-3.85,.49-5.78-.09-.56-.66-1.24-1.15-1.49-.62-.33-1.24-.38-1.93-.25-2,.39-3.98,1.19-5.69,2.3-.54,.35-.97,.86-1.15,1.49-.16,.6-.09,1.4,.25,1.93s.86,1,1.49,1.15,1.36,.12,1.93-.25h0Z"/>
    <path class="cls-3" d="M1039,604.02c1.53,.77,2.98,1.68,4.33,2.72l-.51-.39c1.18,.91,2.28,1.92,3.29,3.01,.89,.96,2.65,.97,3.54,0,.94-1.03,.95-2.51,0-3.54-2.31-2.49-5.1-4.6-8.13-6.13-1.17-.59-2.76-.35-3.42,.9-.6,1.14-.35,2.79,.9,3.42h0Z"/>
    <path class="cls-3" d="M1047.32,615.99c3.16-.9,6.3-1.9,9.4-2.99,1.24-.43,2.18-1.71,1.75-3.08-.9-2.83-1.8-5.65-2.69-8.48-.4-1.24-1.76-2.17-3.08-1.75-1.25,.4-2.17,1.74-1.75,3.08,.9,2.83,1.8,5.65,2.69,8.48,.58-1.03,1.16-2.05,1.75-3.08-3.1,1.09-6.24,2.09-9.4,2.99-1.26,.36-2.16,1.78-1.75,3.08s1.73,2.13,3.08,1.75h0Z"/>
  </g>
  <g id="Frame_27" data-name="Frame 27">
    <polygon class="cls-2" points="840.81 529.94 786.93 498.83 786.93 561.04 840.81 529.94"/>
    <polygon class="cls-2" points="1132.53 577.07 1078.66 545.96 1078.66 608.18 1132.53 577.07"/>
    <polygon class="cls-2" points="893.62 664.43 839.74 633.32 839.74 695.53 893.62 664.43"/>
    <polygon class="cls-2" points="1101.32 439.2 1047.44 408.09 1047.44 470.31 1101.32 439.2"/>
    <polygon class="cls-2" points="947.5 408.09 893.62 376.99 893.62 439.2 947.5 408.09"/>
    <polygon class="cls-2" points="1053.32 676.46 999.44 645.36 999.44 707.57 1053.32 676.46"/>
  </g>
</svg>