<?xml version="1.0" encoding="UTF-8"?>
<svg id="Frame_22" data-name="Frame 22" xmlns="http://www.w3.org/2000/svg" xmlns:xlink="http://www.w3.org/1999/xlink" viewBox="0 0 1920 1080">
  <defs>
    <style>
      .cls-1 {
        fill: url(#Dégradé_sans_nom_12);
      }

      .cls-2 {
        fill: url(#Dégradé_sans_nom_19);
        stroke: #1d1d1b;
        stroke-miterlimit: 10;
      }

      .cls-3 {
        fill: #fd0988;
      }

      .cls-4 {
        fill: red;
      }
    </style>
    <linearGradient id="Dégradé_sans_nom_19" data-name="Dégradé sans nom 19" x1="3.17" y1="539.81" x2="1917.15" y2="539.81" gradientUnits="userSpaceOnUse">
      <stop offset="0" stop-color="#7237bd"/>
      <stop offset="1" stop-color="#6262c5"/>
    </linearGradient>
    <linearGradient id="Dégradé_sans_nom_12" data-name="Dégradé sans nom 12" x1="960.11" y1="744.65" x2="960.11" y2="-149.89" gradientUnits="userSpaceOnUse">
      <stop offset="0" stop-color="#fd0988"/>
      <stop offset="1" stop-color="#7237bd"/>
    </linearGradient>
  </defs>
  <rect class="cls-2" x=".25" y="-.19" width="1920" height="1080"/>
  <path class="cls-4" d="M826.49,517.61c-3.64-61.02-7.28-122.05-10.92-183.07-3.62-60.71-7.24-121.42-10.87-182.13-2.04-34.25-4.09-68.49-6.13-102.74-.19-3.2-5.19-3.22-5,0,3.64,61.02,7.28,122.05,10.92,183.07,3.62,60.71,7.24,121.42,10.87,182.13,2.04,34.25,4.09,68.49,6.13,102.74,.19,3.2,5.19,3.22,5,0h0Z"/>
  <path class="cls-4" d="M766.27,76.19c6.02-10.92,11.92-21.92,18.07-32.77,1.73-3.04,4.37-7.59,8.37-7.6,4.38,0,7.27,5.26,9.26,8.46,3.4,5.45,6.32,11.21,8.67,17.2,.49,1.26,1.67,2.13,3.08,1.75,1.2-.33,2.24-1.81,1.75-3.08-2.32-5.9-5.08-11.61-8.35-17.04-2.77-4.6-6.02-10.14-11.47-11.85-5.48-1.72-10.18,1.79-13.28,5.98-1.69,2.29-2.99,4.83-4.36,7.31-1.6,2.9-3.19,5.79-4.79,8.69-3.75,6.81-7.51,13.61-11.26,20.42-1.55,2.82,2.76,5.35,4.32,2.52h0Z"/>
  <polygon class="cls-3" points="866.68 .07 960 -150.5 1053.32 .07 1053.32 543.51 866.68 543.51 866.68 .07"/>
  <rect class="cls-1" x="823.99" y="-153.1" width="272.25" height="897.75"/>
</svg>