<?xml version="1.0" encoding="UTF-8"?>
<svg id="Frame_22" data-name="Frame 22" xmlns="http://www.w3.org/2000/svg" xmlns:xlink="http://www.w3.org/1999/xlink" viewBox="0 0 1920 1080">
  <defs>
    <style>
      .cls-1 {
        stroke-dasharray: 0 0 51.48 51.48;
      }

      .cls-1, .cls-2, .cls-3, .cls-4, .cls-5, .cls-6, .cls-7, .cls-8 {
        stroke-miterlimit: 10;
      }

      .cls-1, .cls-2, .cls-4, .cls-5, .cls-6, .cls-7, .cls-8 {
        fill: none;
      }

      .cls-1, .cls-2, .cls-4, .cls-6, .cls-7, .cls-8 {
        stroke: #fff;
        stroke-width: 2px;
      }

      .cls-2 {
        stroke-dasharray: 0 0 51.71 51.71;
      }

      .cls-9 {
        fill: url(#Dégradé_sans_nom_12);
      }

      .cls-3 {
        fill: url(#Dégradé_sans_nom_19);
        stroke: #1d1d1b;
      }

      .cls-4 {
        stroke-dasharray: 0 0 51.7 51.7;
      }

      .cls-5 {
        stroke: red;
      }

      .cls-10 {
        fill: #fd0988;
      }

      .cls-7 {
        stroke-dasharray: 0 0 48.82 48.82;
      }

      .cls-11 {
        fill: red;
      }

      .cls-8 {
        stroke-dasharray: 0 0 46.64 46.64;
      }
    </style>
    <linearGradient id="Dégradé_sans_nom_19" data-name="Dégradé sans nom 19" x1="3.17" y1="539.81" x2="1917.15" y2="539.81" gradientUnits="userSpaceOnUse">
      <stop offset="0" stop-color="#7237bd"/>
      <stop offset="1" stop-color="#6262c5"/>
    </linearGradient>
    <linearGradient id="Dégradé_sans_nom_12" data-name="Dégradé sans nom 12" x1="960" y1="1081.26" x2="960" y2="-151.65" gradientUnits="userSpaceOnUse">
      <stop offset="0" stop-color="#fd0988"/>
      <stop offset="1" stop-color="#7237bd"/>
    </linearGradient>
  </defs>
  <rect class="cls-3" x=".25" y="-.19" width="1920" height="1080"/>
  <g>
    <line class="cls-6" x1="604.91" y1="927.25" x2="600.12" y2="902.71"/>
    <polyline class="cls-2" points="590.19 851.96 529.2 540 623.42 171.58"/>
    <polyline class="cls-6" points="629.83 146.53 636.02 122.31 612.22 129.96"/>
    <line class="cls-7" x1="565.74" y1="144.89" x2="310.12" y2="227.01"/>
    <line class="cls-6" x1="286.89" y1="234.48" x2="263.08" y2="242.12"/>
  </g>
  <polyline class="cls-6" points="200.87 788.87 529.2 540 263.08 242.12"/>
  <line class="cls-6" x1="529.2" y1="540" x2="866.68" y2="539.81"/>
  <polyline class="cls-6" points="1606.33 950.87 1360.26 715.41 1717.71 554.31"/>
  <g>
    <line class="cls-6" x1="1559.08" y1="112.18" x2="1567.53" y2="135.72"/>
    <line class="cls-8" x1="1583.28" y1="179.61" x2="1701.39" y2="508.83"/>
    <polyline class="cls-6" points="1709.27 530.78 1717.71 554.31 1695.35 543.13"/>
    <polyline class="cls-1" points="1649.29 520.12 1252.18 321.66 1104.06 321.66"/>
    <line class="cls-6" x1="1078.32" y1="321.66" x2="1053.32" y2="321.66"/>
  </g>
  <line class="cls-6" x1="1252.18" y1="321.66" x2="1559.08" y2="112.18"/>
  <g>
    <line class="cls-6" x1="1717.71" y1="554.31" x2="1710.95" y2="578.38"/>
    <line class="cls-4" x1="1696.97" y1="628.15" x2="1620.08" y2="901.92"/>
    <line class="cls-6" x1="1613.09" y1="926.8" x2="1606.33" y2="950.87"/>
  </g>
  <line class="cls-6" x1="1360.26" y1="715.41" x2="1053.32" y2="715.41"/>
  <rect class="cls-10" x="866.68" y="-.19" width="186.64" height="1080"/>
  <circle class="cls-10" cx="263.08" cy="242.12" r="31.11"/>
  <circle class="cls-10" cx="636.02" cy="122.31" r="31.11"/>
  <circle class="cls-10" cx="529.2" cy="540" r="31.11"/>
  <circle class="cls-10" cx="200.87" cy="788.87" r="31.11"/>
  <circle class="cls-10" cx="604.91" cy="927.25" r="31.11"/>
  <circle class="cls-10" cx="1360.26" cy="715.41" r="31.11"/>
  <circle class="cls-10" cx="1252.18" cy="321.66" r="31.11"/>
  <circle class="cls-10" cx="1559.08" cy="112.18" r="31.11"/>
  <circle class="cls-10" cx="1717.71" cy="554.31" r="31.11"/>
  <circle class="cls-10" cx="1606.33" cy="950.87" r="31.11"/>
  <path class="cls-11" d="M842.6,882.25c-3.81-97.98-7.33-195.97-10.57-293.97-3.22-97.5-6.15-195.01-8.8-292.53-1.49-55.01-2.9-110.02-4.21-165.04-.08-3.21-5.08-3.22-5,0,2.34,98.03,4.97,196.04,7.88,294.05,2.9,97.51,6.09,195.01,9.55,292.5,1.96,54.99,4.01,109.99,6.14,164.97,.12,3.21,5.13,3.22,5,0h0Z"/>
  <path class="cls-11" d="M790.16,133.57c9.38-6.11,16.58-14.89,20.85-25.22-1.52,.2-3.05,.4-4.57,.6,5.66,12.36,11.33,24.71,16.99,37.07,.56,1.23,2.34,1.53,3.42,.9,1.26-.74,1.46-2.19,.9-3.42-5.66-12.36-11.33-24.71-16.99-37.07-.41-.88-1.6-1.33-2.49-1.19-1.07,.16-1.68,.83-2.08,1.79-3.74,9.05-10.35,16.9-18.55,22.24-2.69,1.75-.18,6.08,2.52,4.32h0Z"/>
  <path class="cls-11" d="M320.59,210.66c15.59-10.4,32.59-18.43,50.03-25.19s35.61-12.47,53.52-18.39c10.12-3.35,20.22-6.79,30.19-10.57,1.26-.48,2.13-1.69,1.75-3.08-.33-1.21-1.81-2.23-3.08-1.75-17.79,6.75-35.97,12.4-54.02,18.41-18.02,6-35.96,12.4-53.11,20.58-9.61,4.59-18.94,9.75-27.8,15.67-2.66,1.78-.16,6.11,2.52,4.32h0Z"/>
  <path class="cls-11" d="M456.6,144.58c4.43-.08,8.87-.18,13.3-.23,.69,0,1.56-.11,2.21,.22,.24,.12,.23,.35,.22,.64-.03,1.01-.78,2.34-1.48,3.26-2.34,3.07-5.37,5.8-8.31,8.28-2.96,2.49-6.15,4.7-9.48,6.66-2.77,1.63-.26,5.95,2.52,4.32,6.28-3.68,12.04-8.28,16.97-13.64,2.25-2.44,4.63-5.23,4.77-8.72,.06-1.61-.52-3.26-1.73-4.36-1.48-1.34-3.39-1.66-5.33-1.66-4.55,0-9.11,.16-13.66,.24-3.21,.06-3.22,5.06,0,5h0Z"/>
  <path class="cls-11" d="M581.6,226.4c-1.89,23.38-5.03,46.66-9.45,69.7-1.26,6.58-2.63,13.13-4.09,19.67-.7,3.13,4.12,4.47,4.82,1.33,5.22-23.33,9.15-46.94,11.8-70.7,.74-6.65,1.38-13.32,1.92-19.99,.11-1.35-1.23-2.5-2.5-2.5-1.44,0-2.39,1.15-2.5,2.5h0Z"/>
  <path class="cls-11" d="M554.1,326.88c1.07,3.42,2.14,6.84,3.22,10.25,.94,2.99,1.88,7.28,5.87,7.2,3.2-.06,5.46-2.8,6.98-5.31,1.84-3.02,3.67-6.04,5.51-9.06,.7-1.15,.25-2.75-.9-3.42s-2.72-.26-3.42,.9c-1.55,2.55-3.1,5.1-4.65,7.65-.4,.66-.8,1.33-1.2,1.98-.13,.2-.26,.4-.4,.6-.17,.24-.19,.27-.06,.09-.08,.1-.16,.2-.25,.29-.2,.22-.4,.44-.61,.64-.02,.02-.61,.48-.25,.23-.22,.16-.45,.3-.69,.42-.16,.08-.13,.07,.09-.05-.29,.07-.27,.08,.06,.04-.29,0-.27,.02,.06,.06l-.2-.05c.27,.13,.28,.13,.02-.01,.19,.16,.18,.13-.03-.07l.11,.11c-.09-.14-.16-.28-.23-.43,.18,.4-.07-.25-.1-.33-.48-1.46-.92-2.93-1.38-4.4-.9-2.88-1.81-5.77-2.71-8.65-.4-1.29-1.74-2.11-3.08-1.75s-2.15,1.78-1.75,3.08h0Z"/>
  <path class="cls-11" d="M576.8,527.64c19.43,1.17,38.83-.97,58.07-3.53,19.16-2.55,38.32-5.56,57.67-6.14,10.78-.32,21.6,.12,32.25,1.86,1.33,.22,2.69-.35,3.08-1.75,.33-1.19-.41-2.86-1.75-3.08-19.26-3.16-38.77-2.34-58.09-.21-19.45,2.15-38.75,5.5-58.25,7.17-10.97,.94-21.99,1.33-32.98,.67-3.21-.19-3.2,4.81,0,5h0Z"/>
  <path class="cls-11" d="M729.51,515.64c-.19,.02-.13,.01,.19-.02,.19-.02,.38-.04,.57-.05,.38-.03,.76-.04,1.14-.04,.76,0,1.52,.03,2.27,.13-.19-.03-.13-.02,.18,.03,.19,.03,.37,.07,.56,.1,.37,.07,.74,.16,1.11,.25,.74,.19,1.46,.42,2.17,.7,2.48,.97,4.89,2.72,6.75,4.91,.15,.17,2.19,2.97,1.98,3.12,.02-.2,.09-.38,.21-.54,.18-.15,.14-.14-.12,.02,.31-.03-.53,.12-.64,.15-.99,.24-1.99,.44-2.98,.62-3.9,.74-7.85,1.14-11.82,1.26-3.21,.1-3.22,5.1,0,5,3.91-.12,7.8-.51,11.65-1.17,3.19-.54,8.72-.96,8.71-5.34,0-1.72-1.06-3.42-2.01-4.79-.88-1.27-1.88-2.46-3.01-3.51-2.29-2.12-4.98-3.71-7.91-4.75-3.33-1.18-6.85-1.42-10.32-.91-1.34,.2-2.07,1.89-1.75,3.08,.39,1.43,1.73,1.94,3.08,1.75h0Z"/>
  <path class="cls-11" d="M560.46,773.98c-2.23-2.05-3.52-4.72-4.46-7.56-1.06-3.22-1.83-6.56-2.65-9.85-1.83-7.39-3.48-14.82-4.94-22.29s-2.71-14.82-3.79-22.27c-.85-5.84-1.38-11.8-3.12-17.46s-5.03-11.47-10.7-14.28c-2.87-1.42-5.41,2.89-2.52,4.32,4.53,2.24,6.96,6.61,8.4,11.29,1.72,5.59,2.25,11.46,3.09,17.22,2.16,14.91,5.04,29.71,8.65,44.33,1.7,6.9,3.02,15.05,8.51,20.09,2.37,2.17,5.91-1.35,3.54-3.54h0Z"/>
  <path class="cls-11" d="M523.5,698.13c-1.83-9.32-.21-19.16,4.4-27.45l-3.93,.51c4.8,5.42,8.84,11.44,12.1,17.9,1.45,2.87,5.77,.34,4.32-2.52-3.45-6.84-7.8-13.18-12.88-18.91-1.06-1.2-3.18-.84-3.93,.51-5.29,9.51-6.99,20.63-4.9,31.3,.26,1.33,1.84,2.08,3.08,1.75,1.38-.38,2.01-1.75,1.75-3.08h0Z"/>
  <path class="cls-11" d="M263.38,729.7c15.41-12.76,31.36-24.86,47.81-36.26,16.55-11.48,33.59-22.26,51.06-32.29,9.82-5.64,19.78-11.05,29.86-16.22,2.86-1.47,.34-5.78-2.52-4.32-17.99,9.23-35.59,19.21-52.74,29.94-17.14,10.72-33.83,22.17-50,34.32-9.17,6.88-18.17,13.98-27,21.29-1.04,.86-.89,2.64,0,3.54,1.03,1.03,2.49,.86,3.54,0h0Z"/>
  <path class="cls-11" d="M384.58,633.87c4.2,0,8.41,0,12.61-.01,1.19,0,3.12-.38,3.82,.85s.68,2.96,.83,4.29c.92,8.36,.89,16.8-.04,25.15-.15,1.34,1.26,2.5,2.5,2.5,1.48,0,2.35-1.15,2.5-2.5,1.04-9.35,.99-18.85-.33-28.17-.26-1.83-.78-3.75-2.11-5.11-1.54-1.58-3.66-1.96-5.78-2-4.66-.08-9.33,0-13.99,.01-3.22,0-3.22,5,0,5h0Z"/>
  <path class="cls-11" d="M1219.34,695.8c-21.6,.22-43.21,.44-64.81,.66-6.15,.06-12.3,.13-18.45,.19-3.22,.03-3.22,5.03,0,5,21.6-.22,43.21-.44,64.81-.66,6.15-.06,12.3-.13,18.45-.19,3.22-.03,3.22-5.03,0-5h0Z"/>
  <path class="cls-11" d="M1133.34,682.66c-2.1,3.2-5.71,4.98-8.81,7.04-3.5,2.33-6.8,5.36-8.12,9.48-2.6,8.12,5.58,14.53,13.14,13.8,5.15-.49,9.58-3.14,13.84-5.89,2.69-1.74,.19-6.07-2.52-4.32-4.94,3.2-12.11,7.87-17.79,3.53-2.05-1.56-2.67-4.03-1.6-6.42,1.39-3.08,4.32-5.07,7.07-6.83,3.43-2.19,6.84-4.4,9.12-7.87,1.77-2.7-2.56-5.21-4.32-2.52h0Z"/>
  <path class="cls-11" d="M1140.59,291.78c-18.1,.49-36.21,.97-54.31,1.46-5.15,.14-10.3,.28-15.45,.41-3.21,.09-3.22,5.09,0,5,18.1-.49,36.21-.97,54.31-1.46,5.15-.14,10.3-.28,15.45-.41,3.21-.09,3.22-5.09,0-5h0Z"/>
  <path class="cls-11" d="M1072.85,284.8c-6.75,3.02-12.48,7.83-16.84,13.77-.93,1.27,.03,3.36,1.49,3.67,11.1,2.37,22.14,5.01,33.11,7.94,3.11,.83,4.44-3.99,1.33-4.82-10.97-2.92-22.01-5.57-33.11-7.94l1.49,3.67c3.86-5.25,9.12-9.32,15.05-11.98,1.23-.55,1.53-2.34,.9-3.42-.74-1.27-2.18-1.45-3.42-.9h0Z"/>
  <path class="cls-11" d="M1488.52,136.92c-22.87,8.27-44,20.99-62,37.36-5,4.55-9.74,9.37-14.2,14.45-.89,1.01-1,2.54,0,3.54,.91,.91,2.64,1.02,3.54,0,15.6-17.72,34.6-32.28,55.76-42.75,5.93-2.93,12.01-5.52,18.23-7.77,1.27-.46,2.12-1.7,1.75-3.08-.34-1.23-1.8-2.21-3.08-1.75h0Z"/>
  <path class="cls-11" d="M1407.23,167.28c-3.28,8.56-5.3,17.51-6.15,26.63-.17,1.77,1.72,2.65,3.16,2.41,6.33-1.04,12.4-3.57,17.59-7.34,1.09-.79,1.63-2.17,.9-3.42-.63-1.08-2.32-1.69-3.42-.9-4.89,3.56-10.43,5.86-16.4,6.84,1.05,.8,2.11,1.61,3.16,2.41,.81-8.66,2.86-17.17,5.97-25.3,.48-1.26-.53-2.74-1.75-3.08-1.41-.39-2.59,.48-3.08,1.75h0Z"/>
  <path class="cls-11" d="M1570.76,236.97c5.72,16.1,12.61,31.79,20.63,46.88,8.02,15.1,17.16,29.6,27.33,43.34,5.49,7.42,11.83,14.66,15.08,23.43,.47,1.27,1.69,2.13,3.08,1.75,1.22-.33,2.22-1.8,1.75-3.08-2.96-7.99-8.09-14.7-13.19-21.43-5.11-6.75-9.98-13.68-14.58-20.79-9.3-14.35-17.52-29.39-24.59-44.96-3.94-8.67-7.49-17.51-10.68-26.48-.45-1.27-1.71-2.12-3.08-1.75-1.23,.34-2.2,1.8-1.75,3.08h0Z"/>
  <path class="cls-11" d="M1627.05,355.27c2.6,2.03,5.2,4.06,7.8,6.08,1.25,.98,2.5,1.95,3.76,2.93s2.48,1.98,4.1,2.25c3.17,.53,5.88-1.76,6.86-4.65,1.06-3.11-.36-6.36-1.69-9.13-.58-1.22-2.32-1.54-3.42-.9-1.25,.73-1.48,2.2-.9,3.42,.45,.94,.88,1.87,1.15,2.89,.25,.91,.34,1.58,.03,2.39,.13-.33-.5,.75-.28,.49,0,0-.55,.54-.25,.3-.04,.03-.57,.37-.36,.24,.15-.06,.09-.04-.16,.04h.18c-.08,0-.17,0-.25,0,.21,.05,.21,.06,0,0-.37-.09-.82-.4-1.2-.68-4-2.95-7.91-6.16-11.85-9.23-1.06-.83-2.5-1.04-3.54,0-.86,.86-1.07,2.7,0,3.54h0Z"/>
  <path class="cls-11" d="M1597.6,898.69c4.83-18.85,10.54-37.48,17.15-55.78,1.86-5.14,3.78-10.26,5.77-15.35,.49-1.26-.54-2.74-1.75-3.08-1.42-.39-2.58,.48-3.08,1.75-7.09,18.12-13.32,36.58-18.64,55.3-1.5,5.26-2.92,10.54-4.28,15.84-.8,3.12,4.02,4.45,4.82,1.33h0Z"/>
  <path class="cls-11" d="M1611.83,824.66c1.98-2.51,3.96-5.02,5.94-7.53,1.02-1.3,2.04-2.59,3.07-3.89,.45-.57,.89-1.14,1.34-1.7,.2-.25,.4-.51,.63-.74,.25-.25,.51-.43,.05-.15,.31-.08,.3-.08-.03-.01-.37-.07-.43-.07-.16,0-.34-.16-.39-.17-.16-.04-.28-.23-.32-.25-.13-.06-.2-.28-.23-.31-.07-.08,.05,.08,.1,.16,.14,.24,.05,.08,.09,.17,.13,.25-.12-.3-.14-.32-.04-.05,.06,.26,.15,.51,.21,.77,.03,.13,.05,.26,.07,.39-.04-.34-.05-.37-.02-.08,.02,.77,.09,1.55,.12,2.32,.13,3.14,.13,6.29,.02,9.44-.05,1.31,1.18,2.56,2.5,2.5,1.4-.06,2.45-1.1,2.5-2.5,.1-2.79,.11-5.58,.02-8.37-.08-2.43,.03-5.19-1.28-7.35-.65-1.07-1.62-1.92-2.84-2.24-1.61-.42-3.21,.24-4.39,1.33-.96,.89-1.72,2.07-2.53,3.09l-2.59,3.28c-2.01,2.55-4.02,5.1-6.03,7.65-.81,1.02-1.07,2.55,0,3.54,.9,.83,2.67,1.1,3.54,0h0Z"/>
  <path class="cls-11" d="M1556.31,637.67c-19.35,5.23-39.17,10.67-56.33,21.39-4.79,3-9.33,6.41-13.5,10.23-2.38,2.18,1.17,5.71,3.54,3.54,14.41-13.2,33.01-20.32,51.46-25.81,5.36-1.6,10.76-3.07,16.16-4.53,3.1-.84,1.79-5.66-1.33-4.82h0Z"/>
  <path class="cls-5" d="M1488.12,667.2c-8.45,3.99-15.3,11.26-18.77,19.94,7.03-.26,14.06-.53,21.1-.79"/>
  <polygon class="cls-9" points="866.68 -2.53 960 -153.1 1053.32 -2.53 1053.32 1079.81 866.68 1079.81 866.68 -2.53"/>
</svg>