<?xml version="1.0" encoding="UTF-8"?>
<svg id="Frame_22" data-name="Frame 22" xmlns="http://www.w3.org/2000/svg" xmlns:xlink="http://www.w3.org/1999/xlink" viewBox="0 0 1920 1080">
  <defs>
    <style>
      .cls-1 {
        fill: #fff;
      }

      .cls-2 {
        fill: url(#Dégradé_sans_nom_2);
      }

      .cls-3 {
        fill: url(#Dégradé_sans_nom_19);
        stroke: #1d1d1b;
      }

      .cls-3, .cls-4 {
        stroke-miterlimit: 10;
      }

      .cls-4 {
        fill: none;
        stroke: #fff;
        stroke-width: 2px;
      }

      .cls-5 {
        fill: url(#Dégradé_sans_nom_7);
      }

      .cls-6 {
        fill: #fd0988;
      }

      .cls-7 {
        fill: red;
      }
    </style>
    <linearGradient id="Dégradé_sans_nom_19" data-name="Dégradé sans nom 19" x1="3.17" y1="539.81" x2="1917.15" y2="539.81" gradientUnits="userSpaceOnUse">
      <stop offset="0" stop-color="#7237bd"/>
      <stop offset="1" stop-color="#6262c5"/>
    </linearGradient>
    <linearGradient id="Dégradé_sans_nom_7" data-name="Dégradé sans nom 7" x1="960" y1="1226.18" x2="960" y2="559.18" gradientUnits="userSpaceOnUse">
      <stop offset="0" stop-color="#fd0988"/>
      <stop offset="1" stop-color="#7237bd"/>
    </linearGradient>
    <linearGradient id="Dégradé_sans_nom_2" data-name="Dégradé sans nom 2" x1="669.11" y1="238.75" x2="1278.36" y2="372.4" gradientUnits="userSpaceOnUse">
      <stop offset="0" stop-color="#7237bd"/>
      <stop offset="1" stop-color="#fff"/>
    </linearGradient>
  </defs>
  <rect class="cls-3" x=".25" y="-.19" width="1920" height="1080"/>
  <polygon class="cls-5" points="721.65 944.66 960 560.06 1198.35 944.66 1198.35 1079.81 721.65 1079.81 721.65 944.66"/>
  <circle class="cls-6" cx="960" cy="528.96" r="31.11"/>
  <polygon class="cls-4" points="256.46 913.55 380.21 698.63 503.96 913.55 256.46 913.55"/>
  <polygon class="cls-4" points="1421.4 698.63 1545.15 913.55 1668.9 698.63 1421.4 698.63"/>
  <circle class="cls-6" cx="1421.4" cy="698.63" r="31.11"/>
  <circle class="cls-6" cx="1668.9" cy="698.63" r="31.11"/>
  <circle class="cls-6" cx="1545.15" cy="913.55" r="31.11"/>
  <circle class="cls-6" cx="503.96" cy="913.55" r="31.11"/>
  <circle class="cls-6" cx="256.46" cy="913.55" r="31.11"/>
  <circle class="cls-6" cx="380.21" cy="698.63" r="31.11"/>
  <path class="cls-7" d="M669.45,1063.37c-3.65-23.83-4.28-48.04-3.24-72.1,1.06-24.46,3.83-48.8,6.97-73.06,3.14-24.23,6.68-48.4,9.36-72.69,2.64-23.99,4.46-48.13,4.03-72.28s-3.06-47.57-9.02-70.62c-.75-2.91-1.56-5.81-2.42-8.69-.91-3.08-5.74-1.77-4.82,1.33,6.78,22.86,10.14,46.54,11.04,70.34,.92,24.09-.55,48.21-2.99,72.17-2.47,24.28-5.95,48.45-9.16,72.64-3.22,24.28-6.2,48.62-7.61,73.09-1.39,24.06-1.24,48.28,1.77,72.22,.38,3,.79,5.99,1.25,8.98,.21,1.34,1.88,2.06,3.08,1.75,1.43-.38,1.95-1.75,1.75-3.08h0Z"/>
  <path class="cls-7" d="M641.82,697.52c6.8-.81,11.73-5.5,15.04-11.23,3.34-5.78,4.68-12.36,7.49-18.37,1.56-3.34,3.54-6.34,6.48-8.63-1.31-.17-2.62-.34-3.93-.51,4.74,8.08,7.92,16.91,9.49,26.15,.23,1.33,1.87,2.08,3.08,1.75,1.41-.39,1.97-1.74,1.75-3.08-1.64-9.63-5.05-18.92-9.99-27.34-.89-1.52-2.68-1.48-3.93-.51-10.4,8.1-9.32,23.1-17.91,32.41-2,2.17-4.57,4-7.57,4.35-1.34,.16-2.5,1.03-2.5,2.5,0,1.23,1.15,2.66,2.5,2.5h0Z"/>
  <path class="cls-7" d="M551.52,288.25v16.88c0,1.35,1.15,2.5,2.5,2.5s2.5-1.14,2.5-2.5v-16.88c0-1.35-1.15-2.5-2.5-2.5s-2.5,1.14-2.5,2.5h0Z"/>
  <path class="cls-7" d="M540.12,319.15c2.78,.9,5.56,1.81,8.35,2.71,1.39,.45,2.78,.9,4.17,1.35,1.48,.48,2.98,.97,4.55,.62,2.83-.62,4.1-3.56,4.97-6.02,.93-2.6,1.28-5.44,1.1-8.19-.09-1.35-1.08-2.5-2.5-2.5-1.28,0-2.59,1.15-2.5,2.5,.15,2.12-.06,4.16-.69,6.19-.29,.94-.66,1.84-1.16,2.7-.1,.17-.28,.51-.45,.55,.3-.08-.34-.15-.42-.18-2.32-.59-4.6-1.47-6.88-2.21l-7.21-2.34c-1.28-.42-2.73,.49-3.08,1.75-.37,1.35,.46,2.66,1.75,3.08h0Z"/>
  <path class="cls-7" d="M195.51,987.99c-2.4-30.81-6.09-61.53-11.06-92.03-1.4-8.58-2.9-17.15-4.51-25.7-.25-1.33-1.85-2.08-3.08-1.75-1.39,.38-2,1.74-1.75,3.08,5.61,29.94,9.98,60.11,13.06,90.41,.88,8.65,1.65,17.31,2.33,25.98,.1,1.35,1.07,2.5,2.5,2.5,1.27,0,2.61-1.15,2.5-2.5h0Z"/>
  <path class="cls-7" d="M160.83,864.34c4.37-6.47,8.57-13.09,13.13-19.42,.77-1.07,1.65-2.17,2.71-2.95,.38-.28,.83-.53,1.26-.69,.14-.05,.54-.18,.68-.2,.04,0,.8,.03,.42-.03,.75,.12,1.29,.59,1.69,1.28,.1,.17,.38,.65,.22,.78,0,.19,0,.16,0-.08,.11-.19,.12-.21,.03-.06-.09,.14-.08,.14,.03-.01-.12,.13-.25,.24-.4,.34-1.06,.84-.87,2.66,0,3.54,1.05,1.05,2.47,.84,3.54,0,3.01-2.36,1.79-6.82-.75-9-3.3-2.83-7.47-1.8-10.54,.82-1.43,1.22-2.57,2.79-3.64,4.33-1.43,2.07-2.82,4.18-4.23,6.26-2.83,4.19-5.66,8.38-8.48,12.57-.76,1.12-.21,2.77,.9,3.42,1.23,.72,2.66,.23,3.42-.9h0Z"/>
  <path class="cls-7" d="M1686.94,969.99c.87-28.04,.83-56.11-.14-84.16-.27-7.96-.62-15.93-1.05-23.88-.17-3.2-5.17-3.22-5,0,1.48,28.02,2.06,56.08,1.71,84.14-.1,7.97-.28,15.94-.52,23.9-.1,3.22,4.9,3.22,5,0h0Z"/>
  <path class="cls-7" d="M1668.06,865.67c12.31-14,26.13-26.66,41.22-37.62-1.25-.72-2.51-1.44-3.76-2.16,1.36,15.81,6.23,31.24,14.32,44.9,2.32,3.92,4.91,7.64,7.7,11.23,.83,1.07,2.66,.87,3.54,0,1.05-1.05,.83-2.47,0-3.54-9.15-11.77-15.52-25.66-18.69-40.22-.89-4.09-1.51-8.22-1.87-12.38-.14-1.69-2.09-3.38-3.76-2.16-15.44,11.22-29.63,24.07-42.23,38.4-.89,1.01-1,2.54,0,3.54,.91,.91,2.64,1.02,3.54,0h0Z"/>
  <g>
    <g>
      <path class="cls-2" d="M602.5,304.09c0-10.32,7.92-17.57,18.72-17.57,6.58,0,11.76,2.4,15.07,6.72l-7.15,6.38c-1.97-2.5-4.32-3.94-7.34-3.94-4.7,0-7.87,3.26-7.87,8.4s3.17,8.4,7.87,8.4c3.02,0,5.38-1.44,7.34-3.94l7.15,6.38c-3.31,4.32-8.5,6.72-15.07,6.72-10.8,0-18.72-7.25-18.72-17.57Z"/>
      <path class="cls-2" d="M637.49,304.09c0-10.18,8.02-17.57,18.96-17.57s18.96,7.39,18.96,17.57-8.02,17.57-18.96,17.57-18.96-7.39-18.96-17.57Zm26.5,0c0-5.23-3.36-8.4-7.54-8.4s-7.54,3.17-7.54,8.4,3.36,8.4,7.54,8.4,7.54-3.17,7.54-8.4Z"/>
      <path class="cls-2" d="M709.54,320.89l-.1-15.31-7.3,12.29h-4.99l-7.3-11.76v14.79h-10.32v-33.6h9.31l10.95,17.91,10.66-17.91h9.31l.1,33.6h-10.32Z"/>
      <path class="cls-2" d="M755.33,320.89l-.1-15.31-7.3,12.29h-4.99l-7.3-11.76v14.79h-10.32v-33.6h9.31l10.94,17.91,10.66-17.91h9.31l.1,33.6h-10.32Z"/>
      <path class="cls-2" d="M770.83,305.77v-18.48h11.33v18.15c0,5.14,1.97,7.06,5.14,7.06s5.14-1.92,5.14-7.06v-18.15h11.14v18.48c0,10.08-6.05,15.89-16.37,15.89s-16.37-5.81-16.37-15.89Z"/>
      <path class="cls-2" d="M841.88,287.29v33.6h-9.31l-12.77-15.27v15.27h-11.04v-33.6h9.31l12.77,15.27v-15.27h11.04Z"/>
      <path class="cls-2" d="M847.35,287.29h11.33v33.6h-11.33v-33.6Z"/>
      <path class="cls-2" d="M871.44,296.07h-9.84v-8.79h31.01v8.79h-9.84v24.82h-11.33v-24.82Z"/>
      <path class="cls-2" d="M914.55,308.7v12.19h-11.33v-12.34l-12.67-21.27h11.95l6.86,11.62,6.91-11.62h10.94l-12.67,21.41Z"/>
      <path class="cls-2" d="M973.06,320.89l-.1-15.31-7.3,12.29h-4.99l-7.3-11.76v14.79h-10.32v-33.6h9.31l10.94,17.91,10.66-17.91h9.31l.1,33.6h-10.32Z"/>
      <path class="cls-2" d="M1011.75,315.03h-12.77l-2.26,5.86h-11.52l14.69-33.6h11.14l14.69,33.6h-11.71l-2.26-5.86Zm-3.12-8.16l-3.26-8.45-3.26,8.45h6.53Z"/>
      <path class="cls-2" d="M1060.66,287.29v33.6h-9.31l-12.77-15.27v15.27h-11.04v-33.6h9.31l12.77,15.27v-15.27h11.04Z"/>
      <path class="cls-2" d="M1089.03,315.03h-12.77l-2.26,5.86h-11.52l14.69-33.6h11.14l14.69,33.6h-11.71l-2.26-5.86Zm-3.12-8.16l-3.26-8.45-3.26,8.45h6.53Z"/>
      <path class="cls-2" d="M1126.56,303.18h9.84v14.21c-4.08,2.78-9.7,4.27-14.64,4.27-10.85,0-18.77-7.25-18.77-17.57s7.92-17.57,19.01-17.57c6.62,0,11.95,2.3,15.36,6.48l-7.25,6.38c-2.11-2.45-4.56-3.7-7.54-3.7-4.99,0-8.16,3.22-8.16,8.4s3.17,8.4,8.02,8.4c1.39,0,2.74-.24,4.13-.82v-8.5Z"/>
      <path class="cls-2" d="M1169.19,312.35v8.54h-27.94v-33.6h27.31v8.54h-16.18v3.94h14.21v8.16h-14.21v4.42h16.8Z"/>
      <path class="cls-2" d="M1203.55,320.89l-.1-15.31-7.3,12.29h-4.99l-7.3-11.76v14.79h-10.32v-33.6h9.31l10.95,17.91,10.66-17.91h9.31l.1,33.6h-10.32Z"/>
      <path class="cls-2" d="M1247.28,312.35v8.54h-27.94v-33.6h27.31v8.54h-16.18v3.94h14.21v8.16h-14.21v4.42h16.8Z"/>
      <path class="cls-2" d="M1284.77,287.29v33.6h-9.31l-12.77-15.27v15.27h-11.04v-33.6h9.31l12.77,15.27v-15.27h11.04Z"/>
      <path class="cls-2" d="M1297.53,296.07h-9.84v-8.79h31.01v8.79h-9.84v24.82h-11.33v-24.82Z"/>
    </g>
    <g>
      <path class="cls-1" d="M602.5,304.09c0-10.32,7.92-17.57,18.72-17.57,6.58,0,11.76,2.4,15.07,6.72l-7.15,6.38c-1.97-2.5-4.32-3.94-7.34-3.94-4.7,0-7.87,3.26-7.87,8.4s3.17,8.4,7.87,8.4c3.02,0,5.38-1.44,7.34-3.94l7.15,6.38c-3.31,4.32-8.5,6.72-15.07,6.72-10.8,0-18.72-7.25-18.72-17.57Z"/>
      <path class="cls-1" d="M637.49,304.09c0-10.18,8.02-17.57,18.96-17.57s18.96,7.39,18.96,17.57-8.02,17.57-18.96,17.57-18.96-7.39-18.96-17.57Zm26.5,0c0-5.23-3.36-8.4-7.54-8.4s-7.54,3.17-7.54,8.4,3.36,8.4,7.54,8.4,7.54-3.17,7.54-8.4Z"/>
      <path class="cls-1" d="M709.54,320.89l-.1-15.31-7.3,12.29h-4.99l-7.3-11.76v14.79h-10.32v-33.6h9.31l10.95,17.91,10.66-17.91h9.31l.1,33.6h-10.32Z"/>
      <path class="cls-1" d="M755.33,320.89l-.1-15.31-7.3,12.29h-4.99l-7.3-11.76v14.79h-10.32v-33.6h9.31l10.94,17.91,10.66-17.91h9.31l.1,33.6h-10.32Z"/>
      <path class="cls-1" d="M770.83,305.77v-18.48h11.33v18.15c0,5.14,1.97,7.06,5.14,7.06s5.14-1.92,5.14-7.06v-18.15h11.14v18.48c0,10.08-6.05,15.89-16.37,15.89s-16.37-5.81-16.37-15.89Z"/>
      <path class="cls-1" d="M841.88,287.29v33.6h-9.31l-12.77-15.27v15.27h-11.04v-33.6h9.31l12.77,15.27v-15.27h11.04Z"/>
      <path class="cls-1" d="M847.35,287.29h11.33v33.6h-11.33v-33.6Z"/>
      <path class="cls-1" d="M871.44,296.07h-9.84v-8.79h31.01v8.79h-9.84v24.82h-11.33v-24.82Z"/>
      <path class="cls-1" d="M914.55,308.7v12.19h-11.33v-12.34l-12.67-21.27h11.95l6.86,11.62,6.91-11.62h10.94l-12.67,21.41Z"/>
      <path class="cls-1" d="M973.06,320.89l-.1-15.31-7.3,12.29h-4.99l-7.3-11.76v14.79h-10.32v-33.6h9.31l10.94,17.91,10.66-17.91h9.31l.1,33.6h-10.32Z"/>
      <path class="cls-1" d="M1011.75,315.03h-12.77l-2.26,5.86h-11.52l14.69-33.6h11.14l14.69,33.6h-11.71l-2.26-5.86Zm-3.12-8.16l-3.26-8.45-3.26,8.45h6.53Z"/>
      <path class="cls-1" d="M1060.66,287.29v33.6h-9.31l-12.77-15.27v15.27h-11.04v-33.6h9.31l12.77,15.27v-15.27h11.04Z"/>
      <path class="cls-1" d="M1089.03,315.03h-12.77l-2.26,5.86h-11.52l14.69-33.6h11.14l14.69,33.6h-11.71l-2.26-5.86Zm-3.12-8.16l-3.26-8.45-3.26,8.45h6.53Z"/>
      <path class="cls-1" d="M1126.56,303.18h9.84v14.21c-4.08,2.78-9.7,4.27-14.64,4.27-10.85,0-18.77-7.25-18.77-17.57s7.92-17.57,19.01-17.57c6.62,0,11.95,2.3,15.36,6.48l-7.25,6.38c-2.11-2.45-4.56-3.7-7.54-3.7-4.99,0-8.16,3.22-8.16,8.4s3.17,8.4,8.02,8.4c1.39,0,2.74-.24,4.13-.82v-8.5Z"/>
      <path class="cls-1" d="M1169.19,312.35v8.54h-27.94v-33.6h27.31v8.54h-16.18v3.94h14.21v8.16h-14.21v4.42h16.8Z"/>
      <path class="cls-1" d="M1203.55,320.89l-.1-15.31-7.3,12.29h-4.99l-7.3-11.76v14.79h-10.32v-33.6h9.31l10.95,17.91,10.66-17.91h9.31l.1,33.6h-10.32Z"/>
      <path class="cls-1" d="M1247.28,312.35v8.54h-27.94v-33.6h27.31v8.54h-16.18v3.94h14.21v8.16h-14.21v4.42h16.8Z"/>
      <path class="cls-1" d="M1284.77,287.29v33.6h-9.31l-12.77-15.27v15.27h-11.04v-33.6h9.31l12.77,15.27v-15.27h11.04Z"/>
      <path class="cls-1" d="M1297.53,296.07h-9.84v-8.79h31.01v8.79h-9.84v24.82h-11.33v-24.82Z"/>
    </g>
  </g>
</svg>