<?xml version="1.0" encoding="UTF-8"?>
<svg id="Frame_22" data-name="Frame 22" xmlns="http://www.w3.org/2000/svg" xmlns:xlink="http://www.w3.org/1999/xlink" viewBox="0 0 1920 1080">
  <defs>
    <style>
      .cls-1 {
        fill: #fd0988;
      }

      .cls-2 {
        fill: red;
      }

      .cls-3 {
        fill: url(#Dégradé_sans_nom_16);
        stroke: #1d1d1b;
        stroke-miterlimit: 10;
      }
    </style>
    <linearGradient id="Dégradé_sans_nom_16" data-name="Dégradé sans nom 16" x1="960.25" y1="1079.81" x2="960.25" y2="270.6" gradientUnits="userSpaceOnUse">
      <stop offset="0" stop-color="#16163c"/>
      <stop offset="1" stop-color="#7237bd"/>
    </linearGradient>
  </defs>
  <rect class="cls-3" x=".25" y="0" width="1920" height="1079.81"/>
  <circle class="cls-1" cx="960" cy="668.37" r="31.11"/>
  <path class="cls-2" d="M841.61,879.45c-1.53-20.07-1.78-40.24-.73-60.34,1.05-20.04,3.39-40.01,7.02-59.75,2.05-11.16,4.51-22.24,7.37-33.21,.81-3.12-4.01-4.45-4.82-1.33-5.12,19.71-8.94,39.73-11.49,59.92-2.53,20.05-3.77,40.26-3.71,60.47,.04,11.42,.5,22.84,1.37,34.23,.1,1.35,1.08,2.5,2.5,2.5,1.27,0,2.6-1.15,2.5-2.5h0Z"/>
  <path class="cls-2" d="M814.82,733.51c6.29-1.82,10.18-7.09,13.8-12.17,3.48-4.87,7.2-10.12,13.55-11.09,7.3-1.11,14.67,3.45,20.16,7.73,3.37,2.63,6.48,5.61,9.56,8.57,3.25,3.11,6.42,6.3,9.51,9.57,6.88,7.26,13.37,14.89,19.42,22.86,.81,1.07,2.16,1.64,3.42,.9,1.06-.62,1.72-2.34,.9-3.42-5.66-7.46-11.65-14.66-18.01-21.54-6.15-6.64-12.56-13.22-19.5-19.05-6.28-5.27-13.82-10.21-22.24-10.72-3.84-.23-7.78,.73-11.04,2.79-2.8,1.78-5.04,4.2-7.05,6.81-2.14,2.76-4.05,5.78-6.26,8.41-2.14,2.54-4.47,4.64-7.55,5.53-3.09,.89-1.77,5.72,1.33,4.82h0Z"/>
</svg>