<?xml version="1.0" encoding="UTF-8"?>
<svg id="Frame_22" data-name="Frame 22" xmlns="http://www.w3.org/2000/svg" xmlns:xlink="http://www.w3.org/1999/xlink" viewBox="0 0 1920 1080">
  <defs>
    <style>
      .cls-1 {
        fill: #6262c5;
      }

      .cls-2 {
        fill: #16163c;
      }

      .cls-3 {
        fill: #fd0988;
      }

      .cls-4 {
        fill: red;
      }

      .cls-5 {
        fill: url(#Dégradé_sans_nom_16);
        stroke: #1d1d1b;
        stroke-miterlimit: 10;
      }
    </style>
    <linearGradient id="Dégradé_sans_nom_16" data-name="Dégradé sans nom 16" x1="960.25" y1="1079.81" x2="960.25" y2="270.6" gradientUnits="userSpaceOnUse">
      <stop offset="0" stop-color="#16163c"/>
      <stop offset="1" stop-color="#7237bd"/>
    </linearGradient>
  </defs>
  <rect class="cls-5" x=".25" y="0" width="1920" height="1079.81"/>
  <circle class="cls-3" cx="960" cy="668.37" r="31.11"/>
  <rect class="cls-1" x=".25" y="-.19" width="127.98" height="348.61"/>
  <rect class="cls-3" x="128.23" y="-.19" width="127.98" height="348.61"/>
  <rect class="cls-1" x="256.22" y="-.19" width="127.98" height="348.61"/>
  <rect class="cls-3" x="384.2" y="-.19" width="127.98" height="348.61"/>
  <rect class="cls-1" x="512.18" y="-.19" width="127.98" height="348.61"/>
  <rect class="cls-3" x="640.17" y="-.19" width="127.98" height="348.61"/>
  <rect class="cls-1" x="768.15" y="-.19" width="127.98" height="348.61"/>
  <rect class="cls-3" x="896.13" y="-.19" width="127.98" height="348.61"/>
  <rect class="cls-1" x="1024.12" y="-.19" width="127.98" height="348.61"/>
  <rect class="cls-3" x="1152.1" y="-.19" width="127.98" height="348.61"/>
  <rect class="cls-1" x="1280.08" y="-.19" width="127.98" height="348.61"/>
  <rect class="cls-2" x="1408.07" y="-.19" width="127.98" height="348.61"/>
  <rect class="cls-1" x="1536.05" y="-.19" width="127.98" height="348.61"/>
  <rect class="cls-3" x="1664.03" y="-.19" width="127.98" height="348.61"/>
  <rect class="cls-1" x="1792.02" y="-.19" width="127.98" height="348.61"/>
  <path class="cls-4" d="M262.6,386.21c-5.5,19.26-11,38.52-16.51,57.78-.89,3.1,3.94,4.42,4.82,1.33,5.5-19.26,11-38.52,16.51-57.78,.89-3.1-3.94-4.42-4.82-1.33h0Z"/>
  <path class="cls-4" d="M228.71,442.59c2.69,6.28,5.38,12.56,8.07,18.84,1.38,3.22,2.75,6.43,4.13,9.65,1.02,2.38,1.97,4.86,3.8,6.75,2.02,2.09,4.98,2.88,7.75,1.91,2.76-.97,5.06-3.05,7.23-4.95,4.2-3.68,7.9-7.91,11.07-12.5,3.56-5.15,6.34-10.81,8.35-16.74,1.03-3.05-3.79-4.37-4.82-1.33-3.18,9.4-8.64,17.96-15.76,24.85-1.77,1.71-3.62,3.43-5.65,4.83-1.53,1.05-3.17,1.89-4.63,.39-1.58-1.63-2.34-4.16-3.21-6.2-1.25-2.91-2.49-5.82-3.74-8.73-2.75-6.43-5.51-12.87-8.26-19.3-.53-1.24-2.36-1.52-3.42-.9-1.28,.75-1.43,2.17-.9,3.42h0Z"/>
  <path class="cls-4" d="M857.13,378.69c-1.01,13.28,.77,26.75,5.18,39.32,.45,1.27,1.71,2.12,3.08,1.75,1.24-.34,2.19-1.8,1.75-3.08-4.28-12.2-5.97-25.1-5-37.99,.1-1.35-1.22-2.5-2.5-2.5-1.44,0-2.4,1.15-2.5,2.5h0Z"/>
  <path class="cls-4" d="M836.47,423.41c2.27,8.11,5.56,17.92,13.92,21.61,9.96,4.39,20.47-2.01,25.77-10.46,3.22-5.14,5.03-11.04,6.77-16.81,.93-3.09-3.89-4.41-4.82-1.33-2.52,8.36-5.35,18-13.35,22.76-3.34,1.98-7.35,2.97-11.14,1.77-3.38-1.07-5.86-3.76-7.63-6.73-2.23-3.75-3.53-7.95-4.69-12.13-.86-3.09-5.69-1.78-4.82,1.33h0Z"/>
  <path class="cls-4" d="M1431.79,379.48c2.71,10.53,3.76,21.37,3.19,32.23-.17,3.22,4.83,3.21,5,0,.6-11.28-.56-22.62-3.37-33.56-.8-3.11-5.62-1.79-4.82,1.33h0Z"/>
  <path class="cls-4" d="M1415.6,419.96c.75,12.21,4.69,24.91,12.06,34.79,1.68,2.25,3.81,4.39,6.7,4.85,3.12,.5,5.78-1.08,7.6-3.51,1.66-2.21,2.55-4.92,3.37-7.53,.97-3.09,1.72-6.25,2.25-9.45,1.24-7.49,1.31-15.02,.29-22.54-.18-1.34-1.9-2.07-3.08-1.75-1.44,.4-1.93,1.73-1.75,3.08,.77,5.65,.76,11.44,.11,17.11-.32,2.76-.85,5.51-1.52,8.21-.64,2.56-1.32,5.23-2.4,7.65-.64,1.44-1.75,3.68-3.5,3.86-1.63,.17-3.1-1.61-3.98-2.8-3.19-4.29-5.66-9.32-7.48-14.34-2.05-5.67-3.31-11.6-3.68-17.63-.2-3.2-5.2-3.22-5,0h0Z"/>
</svg>