<?xml version="1.0" encoding="UTF-8"?>
<svg id="Frame_22" data-name="Frame 22" xmlns="http://www.w3.org/2000/svg" xmlns:xlink="http://www.w3.org/1999/xlink" viewBox="0 0 1920 1080">
  <defs>
    <style>
      .cls-1 {
        fill: #6262c5;
      }

      .cls-2 {
        fill: #fd0988;
      }

      .cls-3 {
        fill: url(#Dégradé_sans_nom_18);
      }

      .cls-3, .cls-4 {
        stroke: #1d1d1b;
        stroke-miterlimit: 10;
      }

      .cls-5 {
        fill: red;
      }

      .cls-4 {
        fill: url(#Dégradé_sans_nom_16);
      }
    </style>
    <linearGradient id="Dégradé_sans_nom_16" data-name="Dégradé sans nom 16" x1="960.25" y1="1079.81" x2="960.25" y2="270.6" gradientUnits="userSpaceOnUse">
      <stop offset="0" stop-color="#16163c"/>
      <stop offset="1" stop-color="#7237bd"/>
    </linearGradient>
    <linearGradient id="Dégradé_sans_nom_18" data-name="Dégradé sans nom 18" x1="1472.06" y1="347.51" x2="1472.06" y2=".57" gradientUnits="userSpaceOnUse">
      <stop offset="0" stop-color="#16163c"/>
      <stop offset="1" stop-color="#fd0988"/>
    </linearGradient>
  </defs>
  <rect class="cls-4" x=".25" y="0" width="1920" height="1079.81"/>
  <circle class="cls-2" cx="1465.38" cy="379.53" r="31.11"/>
  <rect class="cls-1" x=".25" y="-.19" width="127.98" height="348.61"/>
  <rect class="cls-2" x="128.23" y="-.19" width="127.98" height="348.61"/>
  <rect class="cls-1" x="256.22" y="-.19" width="127.98" height="348.61"/>
  <rect class="cls-2" x="384.2" y="-.19" width="127.98" height="348.61"/>
  <rect class="cls-1" x="512.18" y="-.19" width="127.98" height="348.61"/>
  <rect class="cls-2" x="640.17" y="-.19" width="127.98" height="348.61"/>
  <rect class="cls-1" x="768.15" y="-.19" width="127.98" height="348.61"/>
  <rect class="cls-2" x="896.13" y="-.19" width="127.98" height="348.61"/>
  <rect class="cls-1" x="1024.12" y="-.19" width="127.98" height="348.61"/>
  <rect class="cls-2" x="1152.1" y="-.19" width="127.98" height="348.61"/>
  <rect class="cls-1" x="1280.08" y="-.19" width="127.98" height="348.61"/>
  <rect class="cls-3" x="1408.07" y="-.19" width="127.98" height="348.61" transform="translate(2944.12 348.24) rotate(180)"/>
  <rect class="cls-1" x="1536.05" y="-.19" width="127.98" height="348.61"/>
  <rect class="cls-2" x="1664.03" y="-.19" width="127.98" height="348.61"/>
  <rect class="cls-1" x="1792.02" y="-.19" width="127.98" height="348.61"/>
  <path class="cls-5" d="M848.58,728.65c48.69,.99,97.44-1.62,145.74-7.86,48.35-6.24,96.22-16.01,143.12-29.34,43.45-12.35,87.33-26.91,125.71-51.26,35.07-22.24,63.1-53.1,85.07-88.13,21.8-34.77,37.83-72.85,51.85-111.31,1.73-4.74,3.42-9.49,5.09-14.24,1.07-3.04-3.76-4.35-4.82-1.33-13.5,38.4-28.55,76.49-48.91,111.84-20.12,34.94-45.78,67.06-78.72,90.71-36.47,26.18-79.21,41.73-121.86,54.59-45.95,13.85-92.92,24.28-140.4,31.25-47.6,6.98-95.75,10.41-143.86,10.29-6-.01-12-.09-17.99-.21-3.22-.07-3.22,4.93,0,5h0Z"/>
  <path class="cls-5" d="M1370.84,433.1c3.93-4.54,7.85-9.09,11.78-13.63l5.81-6.72c1.63-1.88,3.21-3.97,5.22-5.47,1.44-1.07,3.3-1.79,4.84-.95,1.22,.67,2.02,2.13,2.51,3.6,.65,1.91,.93,3.85,1.14,5.81,.32,2.94,.64,5.89,.96,8.83,.73,6.7,1.45,13.41,2.18,20.11,.15,1.34,1.04,2.5,2.5,2.5,1.24,0,2.65-1.15,2.5-2.5-.71-6.54-1.42-13.08-2.12-19.62-.35-3.27-.71-6.54-1.06-9.81-.26-2.35-.57-4.72-1.37-6.95-1.68-4.66-5.59-8.37-10.89-7.09-2.68,.65-4.96,2.55-6.83,4.49-2.16,2.25-4.13,4.71-6.17,7.07-4.84,5.6-9.68,11.21-14.52,16.81-.88,1.02-1,2.53,0,3.54,.9,.9,2.65,1.03,3.54,0h0Z"/>
  <path class="cls-5" d="M1553.73,293.3c-2.5-27.07-3.08-54.31-1.7-81.47,.39-7.73,.95-15.46,1.65-23.17,.12-1.35-1.24-2.5-2.5-2.5-1.45,0-2.38,1.15-2.5,2.5-2.48,27.07-3.03,54.32-1.63,81.47,.4,7.73,.96,15.46,1.67,23.17,.12,1.34,1.06,2.5,2.5,2.5,1.26,0,2.63-1.15,2.5-2.5h0Z"/>
  <path class="cls-5" d="M1576.41,193.54c-6.56-11.03-13.12-22.06-19.68-33.08-1.14-1.92-3.89-1.41-4.57,.6-2.15,6.35-4.29,12.69-6.44,19.04-1.03,3.05,3.79,4.37,4.82,1.33,2.15-6.35,4.29-12.69,6.44-19.04-1.52,.2-3.05,.4-4.57,.6,6.56,11.03,13.12,22.06,19.68,33.08,1.64,2.76,5.97,.25,4.32-2.52h0Z"/>
</svg>