<?xml version="1.0" encoding="UTF-8"?>
<svg id="Frame_22" data-name="Frame 22" xmlns="http://www.w3.org/2000/svg" xmlns:xlink="http://www.w3.org/1999/xlink" viewBox="0 0 1920 1080">
  <defs>
    <style>
      .cls-1 {
        fill: #6262c5;
      }

      .cls-2 {
        fill: url(#Dégradé_sans_nom_18);
      }

      .cls-3 {
        fill: #fd0988;
      }

      .cls-4 {
        fill: red;
      }

      .cls-5 {
        fill: url(#Dégradé_sans_nom_16);
        stroke: #1d1d1b;
        stroke-miterlimit: 10;
      }
    </style>
    <linearGradient id="Dégradé_sans_nom_16" data-name="Dégradé sans nom 16" x1="960.25" y1="1079.81" x2="960.25" y2="270.6" gradientUnits="userSpaceOnUse">
      <stop offset="0" stop-color="#16163c"/>
      <stop offset="1" stop-color="#7237bd"/>
    </linearGradient>
    <linearGradient id="Dégradé_sans_nom_18" data-name="Dégradé sans nom 18" x1="1025.11" y1="475.91" x2="1025.11" y2="2.41" gradientUnits="userSpaceOnUse">
      <stop offset="0" stop-color="#16163c"/>
      <stop offset="1" stop-color="#fd0988"/>
    </linearGradient>
  </defs>
  <rect class="cls-5" x=".25" y="0" width="1920" height="1079.81"/>
  <circle class="cls-3" cx="1025.11" cy="599.28" r="62.14"/>
  <rect class="cls-3" x="2.37" y="-.19" width="127.84" height="475.18"/>
  <rect class="cls-1" x="130.21" y="-.19" width="255.68" height="475.18"/>
  <rect class="cls-3" x="385.9" y="-.19" width="255.68" height="475.18"/>
  <rect class="cls-1" x="641.58" y="-.19" width="255.68" height="475.18"/>
  <rect class="cls-2" x="897.26" y="-.19" width="255.68" height="475.18" transform="translate(2050.21 474.81) rotate(180)"/>
  <rect class="cls-1" x="1152.95" y="-.19" width="255.68" height="475.18"/>
  <rect class="cls-3" x="1408.63" y="-.19" width="255.68" height="475.18"/>
  <rect class="cls-1" x="1664.32" y="-.19" width="255.68" height="475.18"/>
  <path class="cls-4" d="M899.39,535.07c-2.98,13.86-.13,28.78,7.7,40.6,2.22,3.36,4.82,6.47,7.76,9.22,2.35,2.2,5.89-1.33,3.54-3.54-9.36-8.76-14.85-21.27-15.18-34.07-.09-3.66,.23-7.3,1-10.89,.68-3.14-4.14-4.48-4.82-1.33h0Z"/>
  <path class="cls-4" d="M906.37,623.4c13.88,1.49,25.66-12.09,25.86-25.28,.06-3.81-.92-7.59-2.86-10.87-1.64-2.77-5.96-.26-4.32,2.52,2.81,4.75,2.7,10.2,.73,15.37-1.89,4.96-5.79,9.4-10.63,11.78-2.71,1.33-5.67,1.81-8.79,1.47-1.34-.14-2.5,1.25-2.5,2.5,0,1.47,1.15,2.36,2.5,2.5h0Z"/>
  <path class="cls-4" d="M148.4,965.33c-23.59,15.05-47.19,30.1-70.78,45.15-6.65,4.24-13.3,8.49-19.95,12.73-2.7,1.73-.2,6.05,2.52,4.32,23.59-15.05,47.19-30.1,70.78-45.15,6.65-4.24,13.3-8.49,19.95-12.73,2.7-1.73,.2-6.05-2.52-4.32h0Z"/>
  <path class="cls-4" d="M131.4,962.64c6.53-2.51,13.06-5.03,19.59-7.54,3.26-1.26,6.53-2.51,9.79-3.77,1.55-.6,3.11-1.2,4.66-1.8,1.37-.53,2.79-1.13,4.26-1.33,.95-.13,2.13,.06,2.71,.54s.81,1.12,.89,1.62c.3,1.94-.35,3.99-1.19,5.78-1.15,2.48-2.83,4.75-4.4,6.98-1.72,2.46-3.54,4.86-5.44,7.18-4.36,5.32-9.14,10.28-14.28,14.84-2.41,2.14,1.14,5.67,3.54,3.54,5.03-4.47,9.72-9.31,14-14.5,2.18-2.65,4.27-5.37,6.25-8.18,1.72-2.44,3.55-4.91,4.79-7.64,2.07-4.56,3.19-11.31-2.08-14.22-3.01-1.66-6.47-.89-9.51,.24-3.56,1.33-7.1,2.73-10.65,4.1-8.08,3.11-16.17,6.23-24.25,9.34-1.26,.48-2.13,1.68-1.75,3.08,.33,1.2,1.81,2.23,3.08,1.75h0Z"/>
  <path class="cls-4" d="M32.25,32.6c15.51,7.89,31.39,15.05,47.57,21.45,16.12,6.39,32.54,12.01,49.19,16.85,9.37,2.72,18.8,5.19,28.3,7.41,3.13,.73,4.47-4.09,1.33-4.82-16.73-3.92-33.28-8.61-49.57-14.07-16.31-5.46-32.37-11.68-48.08-18.67-8.84-3.93-17.58-8.09-26.2-12.48-2.86-1.46-5.4,2.86-2.52,4.32h0Z"/>
  <path class="cls-4" d="M135.93,92.38c17.84-.13,35.67-.25,53.51-.38,1.79-.01,2.63-1.58,2.41-3.16-1.23-8.96-4.59-17.61-9.7-25.07-.76-1.11-2.2-1.61-3.42-.9-1.1,.64-1.66,2.3-.9,3.42,4.9,7.16,8.02,15.28,9.19,23.88l2.41-3.16c-17.84,.13-35.67,.25-53.51,.38-3.22,.02-3.22,5.02,0,5h0Z"/>
  <path class="cls-4" d="M1889.15,28.42c-23.72,17.34-47.89,34.08-72.48,50.18-6.89,4.51-13.81,8.97-20.76,13.38-2.71,1.72-.2,6.05,2.52,4.32,24.81-15.75,49.22-32.12,73.19-49.13,6.72-4.76,13.4-9.58,20.05-14.44,1.09-.8,1.63-2.17,.9-3.42-.63-1.07-2.32-1.7-3.42-.9h0Z"/>
  <path class="cls-4" d="M1797.32,69.96c-6.25,2.78-9.96,10.13-9.16,16.82,.88,7.4,6.86,12.58,14.1,13.48,3.76,.47,7.73-.35,10.86-2.54,1.1-.78,1.62-2.19,.9-3.42-.64-1.09-2.31-1.68-3.42-.9-4.11,2.88-9.74,2.61-13.77-.48-3.88-2.98-4.67-8.38-2.79-12.72,1.19-2.73,3.1-4.73,5.8-5.93,1.23-.55,1.52-2.35,.9-3.42-.74-1.27-2.18-1.45-3.42-.9h0Z"/>
  <path class="cls-4" d="M1861.09,1019.55c-14.33-5.05-28.37-10.87-42.06-17.45-13.68-6.58-27-13.9-39.89-21.91-7.34-4.56-14.53-9.36-21.57-14.36-1.1-.78-2.78-.2-3.42,.9-.73,1.25-.21,2.64,.9,3.42,12.5,8.88,25.47,17.08,38.86,24.55,13.48,7.52,27.38,14.29,41.6,20.29,7.99,3.37,16.08,6.51,24.26,9.39,1.27,.45,2.74-.51,3.08-1.75,.38-1.38-.47-2.62-1.75-3.08h0Z"/>
  <path class="cls-4" d="M1744.84,973.82c-8.46-9.58-14.86-20.91-18.73-33.09l-3.08,3.08c16.35,5.63,32.49,11.85,48.36,18.69,1.24,.53,2.68,.37,3.42-.9,.62-1.05,.35-2.88-.9-3.42-16.28-7.01-32.8-13.43-49.56-19.2-1.79-.61-3.63,1.32-3.08,3.08,4.14,13.03,10.97,25.05,20.01,35.3,.89,1.01,2.62,.91,3.54,0,1.01-1.01,.9-2.52,0-3.54h0Z"/>
</svg>