<?xml version="1.0" encoding="UTF-8"?>
<svg id="Frame_22" data-name="Frame 22" xmlns="http://www.w3.org/2000/svg" xmlns:xlink="http://www.w3.org/1999/xlink" viewBox="0 0 1920 1080">
  <defs>
    <style>
      .cls-1 {
        fill: #7237bd;
      }

      .cls-2 {
        fill: #fff;
      }

      .cls-3 {
        fill: #6262c5;
      }

      .cls-4 {
        fill: #16163c;
      }

      .cls-5 {
        stroke-width: .5px;
      }

      .cls-5, .cls-6 {
        fill: none;
        stroke: #fff;
      }

      .cls-5, .cls-6, .cls-7 {
        stroke-miterlimit: 10;
      }

      .cls-6 {
        stroke-width: 10px;
      }

      .cls-7 {
        fill: url(#Dégradé_sans_nom_24);
        stroke: #1d1d1b;
      }

      .cls-8 {
        fill: red;
      }
    </style>
    <linearGradient id="Dégradé_sans_nom_24" data-name="Dégradé sans nom 24" x1="-1079.6" y1="1068.81" x2="-1079.6" y2="27.87" gradientTransform="translate(2039.85)" gradientUnits="userSpaceOnUse">
      <stop offset="0" stop-color="#16163c"/>
      <stop offset="1" stop-color="#fd0988"/>
    </linearGradient>
  </defs>
  <rect class="cls-7" x=".25" y="0" width="1920" height="1079.81" transform="translate(1920.5 1079.81) rotate(-180)"/>
  <rect class="cls-6" x="599.63" y="208.09" width="720.74" height="720.74" rx="175" ry="175"/>
  <rect class="cls-6" x="712.36" y="320.82" width="495.29" height="495.29" rx="60" ry="60"/>
  <rect class="cls-6" x="1452.99" y="114.63" width="720.74" height="720.74" rx="175" ry="175"/>
  <rect class="cls-6" x="1565.72" y="227.35" width="495.29" height="495.29" rx="60" ry="60"/>
  <rect class="cls-6" x="-253.73" y="114.63" width="720.74" height="720.74" rx="175" ry="175"/>
  <rect class="cls-6" x="-141" y="227.35" width="495.29" height="495.29" rx="60" ry="60"/>
  <circle class="cls-3" cx="1099.66" cy="872.33" r="51.41"/>
  <circle class="cls-1" cx="996.85" cy="872.33" r="51.41"/>
  <circle class="cls-4" cx="894.03" cy="872.33" r="51.41"/>
  <circle class="cls-3" cx="791.22" cy="872.33" r="51.41"/>
  <circle class="cls-1" cx="693.07" cy="841.42" r="51.41"/>
  <circle class="cls-3" cx="372.06" cy="744.43" r="51.41"/>
  <circle class="cls-1" cx="83.14" cy="779.28" r="51.41"/>
  <circle class="cls-4" cx="409.66" cy="397.73" r="51.41"/>
  <circle class="cls-1" cx="185.95" cy="170.95" r="51.41"/>
  <circle class="cls-1" cx="1789.88" cy="779.28" r="51.41"/>
  <circle class="cls-3" cx="1892.69" cy="170.95" r="51.41"/>
  <circle class="cls-4" cx="1602.4" cy="170.95" r="51.41"/>
  <circle class="cls-1" cx="1510.33" cy="359.43" r="51.41"/>
  <circle class="cls-3" cx="1514.33" cy="697.25" r="51.41"/>
  <circle class="cls-4" cx="655.24" cy="744.43" r="51.41"/>
  <circle class="cls-3" cx="655.24" cy="568.46" r="51.41"/>
  <polygon class="cls-2" points="960.25 521.8 906.37 615.12 1014.13 615.12 960.25 521.8"/>
  <rect class="cls-2" x="51.15" y="428.34" width="93.32" height="93.32"/>
  <polygon class="cls-2" points="1183.64 820.57 1230.43 790.01 1230.92 845.9 1261.48 892.69 1205.59 893.18 1158.8 923.74 1158.31 867.85 1127.76 821.06 1183.64 820.57"/>
  <rect class="cls-2" x="1780.37" y="442" width="65.99" height="65.99" transform="translate(195.25 1421.36) rotate(-45)"/>
  <rect class="cls-5" x="656.13" y="264.6" width="607.73" height="607.73" rx="117.5" ry="117.5"/>
  <rect class="cls-5" x="-197.23" y="171.13" width="607.73" height="607.73" rx="117.5" ry="117.5"/>
  <rect class="cls-5" x="1508.76" y="170.4" width="607.73" height="607.73" rx="117.5" ry="117.5"/>
  <path class="cls-8" d="M1882.92,1051.32c-7.24-5.63-14.47-11.27-21.71-16.9-1.06-.83-2.5-1.04-3.54,0-.86,.86-1.07,2.7,0,3.54,7.24,5.63,14.47,11.27,21.71,16.9,1.06,.83,2.5,1.04,3.54,0,.86-.86,1.07-2.7,0-3.54h0Z"/>
  <path class="cls-8" d="M1846.18,1050.36c-.96-.27-1.33-.49-2.08-1.4,.33,.4-.2-.32-.25-.41-.15-.26-.29-.53-.41-.81,.2,.47-.12-.4-.14-.49-.07-.23-.12-.45-.17-.68-.03-.15-.06-.31-.09-.47,.03,.27,.03,.25,0-.05-.03-.32-.05-.64-.05-.97s0-.65,.03-.98c0-.1,.1-.75,.03-.31,.1-.65,.27-1.29,.48-1.91,.17-.48,.23-.63,.62-1.29,.15-.24,.3-.48,.47-.71-.26,.35,.4-.43,.44-.48,.47-.5,1-.98,1.54-1.37,1.2-.87,2.55-1.56,3.93-2.07,3.14-1.15,6.46-1.68,9.75-2.16,1.34-.2,2.07-1.89,1.75-3.08-.39-1.43-1.73-1.94-3.08-1.75-6,.89-12.41,2.09-16.97,6.43-3.65,3.48-5.07,9.31-3.19,14.05,1.1,2.77,3.16,4.89,6.08,5.72,3.1,.88,4.43-3.94,1.33-4.82h0Z"/>
  <path class="cls-8" d="M43.23,1076.41c13.9-9.17,27.84-18.28,41.81-27.34,3.96-2.57,7.93-5.13,11.9-7.69,2.7-1.74,.19-6.07-2.52-4.32-14,9.02-27.95,18.1-41.87,27.24-3.95,2.59-7.89,5.19-11.83,7.79-2.67,1.76-.17,6.1,2.52,4.32h0Z"/>
  <path class="cls-8" d="M73.4,1031.62c1.4-1.71,3.08-2.51,5.08-2.58,2.22-.08,4.38,.55,6.38,1.72,5.25,3.07,6.72,9.13,6.56,15.03-.12,4.08-.93,8.09-1.78,12.07-.67,3.14,4.15,4.48,4.82,1.33,1.76-8.29,3.39-17.2-.2-25.24-2.58-5.79-8.88-9.83-15.21-9.9-3.48-.04-6.95,1.32-9.18,4.06-.85,1.05-1.02,2.51,0,3.54,.88,.88,2.68,1.05,3.54,0h0Z"/>
  <path class="cls-8" d="M70.21,34c9.25,1.53,17.56,6.34,23.48,13.61,.85,1.05,2.65,.89,3.54,0,1.04-1.04,.86-2.49,0-3.54-6.39-7.84-15.71-13.25-25.68-14.9-1.33-.22-2.69,.35-3.08,1.75-.33,1.2,.41,2.85,1.75,3.08h0Z"/>
  <path class="cls-8" d="M94.92,71.17c9.4,2.89,19.81,5.86,29.53,2.66,6.89-2.27,12.68-8.56,13.93-15.79,.73-4.25-.19-8.23-2.84-11.64-.83-1.07-2.66-.87-3.54,0-1.05,1.05-.83,2.47,0,3.54,1.51,1.94,1.9,4.56,1.55,6.77-.43,2.76-1.71,5.36-3.53,7.47-1.86,2.17-4.2,3.93-6.9,4.82-4.03,1.33-8.31,1.43-12.49,.89-4.9-.63-9.67-2.1-14.38-3.54-3.08-.95-4.4,3.88-1.33,4.82h0Z"/>
  <path class="cls-8" d="M1891.28,24.72c-15.64,7.24-31.27,14.48-46.91,21.73-1.23,.57-1.53,2.33-.9,3.42,.74,1.26,2.19,1.47,3.42,.9,15.64-7.24,31.27-14.48,46.91-21.73,1.23-.57,1.53-2.33,.9-3.42-.74-1.26-2.19-1.47-3.42-.9h0Z"/>
  <path class="cls-8" d="M1816.55,28.82c-1.2,4.67-2.4,9.35-3.6,14.02-1.06,4.12-2.59,8.39-2.8,12.67-.2,4.04,1.7,7.77,5.75,8.96,1.97,.58,4.09,.48,6.12,.46,2.4-.03,4.8-.05,7.19-.08,5.46-.06,10.91-.12,16.37-.19,3.22-.04,3.22-5.04,0-5-8.58,.1-17.19,.38-25.77,.28-1.27-.01-2.9-.02-3.84-1.02-.85-.89-.87-2.25-.82-3.42,.08-1.56,.5-3.07,.89-4.57,.54-2.09,1.08-4.19,1.61-6.28,1.24-4.83,2.48-9.67,3.72-14.5,.8-3.12-4.02-4.45-4.82-1.33h0Z"/>
  <path class="cls-8" d="M1518.33,488.75c-.36,17.18,.23,34.39,1.8,51.5,.44,4.83,.97,9.66,1.56,14.47,.17,1.34,1.03,2.5,2.5,2.5,1.22,0,2.67-1.15,2.5-2.5-2.1-17.06-3.26-34.23-3.44-51.42-.05-4.85-.02-9.7,.08-14.55,.07-3.22-4.93-3.22-5,0h0Z"/>
  <path class="cls-8" d="M1513.08,557.44c-.99,7.67,5.99,13.5,12.88,14.92,3.93,.81,7.77,.42,11.43-1.21,3.96-1.77,7.33-4.77,10.06-8.1,3.2-3.92,5.72-8.3,8.14-12.73,1.54-2.83-2.78-5.35-4.32-2.52-3.5,6.41-7.3,13.52-13.64,17.55-2.84,1.81-5.63,2.67-8.89,2.41-2.48-.2-5.41-1.28-7.35-2.79-1.32-1.03-2.14-1.99-2.84-3.47-.53-1.11-.67-2.49-.47-4.05,.17-1.34-1.27-2.5-2.5-2.5-1.5,0-2.33,1.15-2.5,2.5h0Z"/>
  <path class="cls-8" d="M1813.37,185.98c-14.55-4.47-29.62-7.18-44.81-8.12-3.21-.2-3.2,4.8,0,5,14.76,.92,29.35,3.6,43.48,7.94,3.08,.95,4.4-3.88,1.33-4.82h0Z"/>
  <path class="cls-8" d="M1786.89,160.64c-15.62,3.48-30.45,10.39-43.14,20.16-1.28,.98-1.94,3.49,0,4.32,14.82,6.28,30.79,9.59,46.9,9.51,4.55-.02,9.1-.33,13.61-.89,1.34-.17,2.5-1.03,2.5-2.5,0-1.22-1.15-2.67-2.5-2.5-15.32,1.9-30.91,.7-45.73-3.61-4.16-1.21-8.26-2.64-12.25-4.33v4.32c12.38-9.53,26.69-16.25,41.94-19.65,3.14-.7,1.81-5.52-1.33-4.82h0Z"/>
  <path class="cls-8" d="M1647.48,799.58c13.74-1.12,27.48-2.23,41.23-3.35,1.35-.11,2.5-1.07,2.5-2.5,0-1.27-1.15-2.61-2.5-2.5-13.74,1.12-27.48,2.23-41.23,3.35-1.35,.11-2.5,1.07-2.5,2.5,0,1.27,1.15,2.61,2.5,2.5h0Z"/>
  <path class="cls-8" d="M1685.34,772.47c3.62,1.08,7.25,2.72,10.22,5.11,1.38,1.11,2.62,2.35,3.45,3.88,.61,1.12,.89,2.45,.65,3.58-.75,3.53-4.2,4.98-7.41,5.75-4.74,1.13-9.73,1.38-14.56,1.95-6.38,.75-12.76,1.51-19.14,2.26-1.34,.16-2.5,1.04-2.5,2.5,0,1.23,1.15,2.66,2.5,2.5,6.38-.75,12.76-1.51,19.14-2.26,3.11-.37,6.22-.73,9.33-1.1,2.48-.29,4.98-.58,7.4-1.24,4.47-1.23,8.65-3.89,9.96-8.59,1.21-4.34-.83-8.53-3.9-11.54-3.76-3.68-8.79-6.11-13.79-7.61-3.09-.92-4.41,3.9-1.33,4.82h0Z"/>
  <path class="cls-8" d="M417.26,532.78c0-11.92,0-23.85,0-35.77,0-3.22-5-3.22-5,0,0,11.92,0,23.85,0,35.77,0,3.22,5,3.22,5,0h0Z"/>
  <path class="cls-8" d="M409.6,492.42c1.2-3.24,4.15-6.01,7.47-7.4,1.65-.69,3.58-1.1,5.25-1.14,1-.02,1.95,.05,2.63,.18,.87,.17,2.02,.52,2.57,.76,1.23,.55,2.69,.36,3.42-.9,.62-1.07,.34-2.87-.9-3.42-9.64-4.31-21.6,.65-25.27,10.58-.47,1.27,.52,2.74,1.75,3.08,1.4,.38,2.61-.47,3.08-1.75h0Z"/>
  <path class="cls-8" d="M57.15,160.02c-18.37,1.54-36.74,3.08-55.11,4.62-1.35,.11-2.5,1.07-2.5,2.5,0,1.27,1.15,2.61,2.5,2.5,18.37-1.54,36.74-3.08,55.11-4.62,1.35-.11,2.5-1.07,2.5-2.5,0-1.27-1.15-2.61-2.5-2.5h0Z"/>
  <path class="cls-8" d="M23.39,153.54c-11.22,3.68-20.1,13.41-22.47,25.02-.35,1.72,.73,2.98,2.41,3.16,15.09,1.65,30.3,2.04,45.45,1.15,3.2-.19,3.22-5.19,0-5-15.16,.89-30.36,.5-45.45-1.15,.8,1.05,1.61,2.11,2.41,3.16,2.02-9.89,9.35-18.37,18.98-21.52,3.04-1,1.74-5.83-1.33-4.82h0Z"/>
  <path class="cls-8" d="M175.41,821.99c12.83-1.01,25.67-2.03,38.5-3.04,1.35-.11,2.5-1.07,2.5-2.5,0-1.27-1.15-2.61-2.5-2.5-12.83,1.01-25.67,2.03-38.5,3.04-1.35,.11-2.5,1.07-2.5,2.5,0,1.27,1.15,2.61,2.5,2.5h0Z"/>
  <path class="cls-8" d="M207.9,803.96c11.25,2.11,22.05,6.06,31.97,11.77v-4.32c-4.29,2.57-9.38,3.36-14.24,2.15-3.12-.78-4.45,4.04-1.33,4.82,6.13,1.53,12.66,.6,18.09-2.65,1.6-.96,1.64-3.37,0-4.32-10.28-5.9-21.52-10.08-33.17-12.27-1.33-.25-2.7,.37-3.08,1.75-.33,1.22,.41,2.82,1.75,3.08h0Z"/>
  <path class="cls-8" d="M1206.55,951.02c0,3.06,0,6.11,0,9.17,0,1.31,1.15,2.56,2.5,2.5,1.35-.06,2.5-1.1,2.5-2.5,0-3.06,0-6.11,0-9.17,0-1.31-1.15-2.56-2.5-2.5-1.35,.06-2.5,1.1-2.5,2.5h0Z"/>
  <path class="cls-8" d="M1223.62,941.18c2.39,5.53,4.78,11.05,7.17,16.58,.54,1.24,2.36,1.52,3.42,.9,1.28-.75,1.44-2.18,.9-3.42-2.39-5.53-4.78-11.05-7.17-16.58-.54-1.24-2.36-1.52-3.42-.9-1.28,.75-1.44,2.18-.9,3.42h0Z"/>
  <path class="cls-8" d="M1240.24,935.21c.41-.03,.82-.03,1.24-.02,.19,0,.39,.02,.58,.04,.09,0,.45,.05,.03,0s-.06,0,.03,0c.81,.13,1.62,.35,2.38,.65,.08,.03,.41,.17,.04,.01s-.04-.01,.03,.02c.18,.08,.35,.17,.52,.26,.37,.19,.72,.4,1.06,.63,.16,.11,.31,.24,.48,.34-.08-.05-.42-.34-.16-.12,.07,.06,.15,.12,.22,.19,.33,.28,.65,.59,.95,.91,.9,.96,2.64,.97,3.54,0,.94-1.02,.96-2.52,0-3.54-2.76-2.94-6.91-4.62-10.94-4.36-1.3,.08-2.56,1.09-2.5,2.5,.06,1.28,1.1,2.59,2.5,2.5h0Z"/>
</svg>