<?xml version="1.0" encoding="UTF-8"?>
<svg id="Frame_22" data-name="Frame 22" xmlns="http://www.w3.org/2000/svg" xmlns:xlink="http://www.w3.org/1999/xlink" viewBox="0 0 1920 1080">
  <defs>
    <style>
      .cls-1 {
        fill: #7237bd;
      }

      .cls-2 {
        fill: #fff;
      }

      .cls-3 {
        fill: #6262c5;
      }

      .cls-4 {
        fill: #16163c;
      }

      .cls-5 {
        fill: none;
        stroke: #fff;
        stroke-width: 10px;
      }

      .cls-5, .cls-6 {
        stroke-miterlimit: 10;
      }

      .cls-6 {
        fill: url(#Dégradé_sans_nom_24);
        stroke: #1d1d1b;
      }

      .cls-7 {
        fill: red;
      }
    </style>
    <linearGradient id="Dégradé_sans_nom_24" data-name="Dégradé sans nom 24" x1="-6714.86" y1="1391.66" x2="-6714.86" y2="42.47" gradientTransform="translate(7675.11)" gradientUnits="userSpaceOnUse">
      <stop offset="0" stop-color="#16163c"/>
      <stop offset="1" stop-color="#fd0988"/>
    </linearGradient>
  </defs>
  <rect class="cls-6" x=".25" y="0" width="1920" height="1079.81" transform="translate(1920.5 1079.81) rotate(-180)"/>
  <rect class="cls-5" x="599.63" y="208.09" width="720.74" height="720.74" rx="175" ry="175"/>
  <rect class="cls-5" x="712.36" y="320.82" width="495.29" height="495.29" rx="60" ry="60"/>
  <rect class="cls-5" x="1452.99" y="114.63" width="720.74" height="720.74" rx="175" ry="175"/>
  <rect class="cls-5" x="1565.72" y="227.35" width="495.29" height="495.29" rx="60" ry="60"/>
  <rect class="cls-5" x="-253.73" y="114.63" width="720.74" height="720.74" rx="175" ry="175"/>
  <rect class="cls-5" x="-141" y="227.35" width="495.29" height="495.29" rx="60" ry="60"/>
  <circle class="cls-3" cx="1099.66" cy="872.33" r="51.41"/>
  <circle class="cls-2" cx="960.25" cy="1102.36" r="77.11"/>
  <circle class="cls-1" cx="996.85" cy="872.33" r="51.41"/>
  <circle class="cls-4" cx="894.03" cy="872.33" r="51.41"/>
  <circle class="cls-3" cx="791.22" cy="872.33" r="51.41"/>
  <circle class="cls-1" cx="693.07" cy="841.42" r="51.41"/>
  <circle class="cls-3" cx="372.06" cy="744.43" r="51.41"/>
  <circle class="cls-1" cx="83.14" cy="779.28" r="51.41"/>
  <circle class="cls-4" cx="409.66" cy="397.73" r="51.41"/>
  <circle class="cls-1" cx="185.95" cy="170.95" r="51.41"/>
  <circle class="cls-1" cx="1789.88" cy="779.28" r="51.41"/>
  <circle class="cls-3" cx="1892.69" cy="170.95" r="51.41"/>
  <circle class="cls-4" cx="1602.4" cy="170.95" r="51.41"/>
  <circle class="cls-1" cx="1510.33" cy="359.43" r="51.41"/>
  <circle class="cls-3" cx="1514.33" cy="697.25" r="51.41"/>
  <circle class="cls-4" cx="655.24" cy="744.43" r="51.41"/>
  <circle class="cls-3" cx="655.24" cy="568.46" r="51.41"/>
  <polygon class="cls-2" points="960.25 521.8 906.37 615.12 1014.13 615.12 960.25 521.8"/>
  <rect class="cls-2" x="51.15" y="428.34" width="93.32" height="93.32"/>
  <polygon class="cls-2" points="1183.64 820.57 1230.43 790.01 1230.92 845.9 1261.48 892.69 1205.59 893.18 1158.8 923.74 1158.31 867.85 1127.76 821.06 1183.64 820.57"/>
  <rect class="cls-2" x="1780.37" y="442" width="65.99" height="65.99" transform="translate(195.25 1421.36) rotate(-45)"/>
  <path class="cls-7" d="M851.48,1049.28c12.28-13.49,24.56-26.98,36.83-40.48,3.46-3.8,6.92-7.6,10.38-11.41,2.16-2.38-1.36-5.92-3.54-3.54-12.28,13.49-24.56,26.98-36.83,40.48-3.46,3.8-6.92,7.6-10.38,11.41-2.16,2.38,1.36,5.92,3.54,3.54h0Z"/>
  <path class="cls-7" d="M885.67,993.21c4.05-11.38,13.25-20.88,24.53-25.24-1.05-.8-2.11-1.61-3.16-2.41,.23,7.99,.46,15.98,.69,23.98,.09,3.21,5.09,3.22,5,0-.23-7.99-.46-15.98-.69-23.98-.04-1.48-1.59-3.02-3.16-2.41-13.02,5.04-23.33,15.57-28.02,28.74-.45,1.27,.51,2.74,1.75,3.08,1.38,.38,2.62-.47,3.08-1.75h0Z"/>
</svg>