<?xml version="1.0" encoding="UTF-8"?>
<svg id="Frame_4" data-name="Frame 4" xmlns="http://www.w3.org/2000/svg" xmlns:xlink="http://www.w3.org/1999/xlink" viewBox="0 0 1920 1080">
  <defs>
    <style>
      .cls-1 {
        letter-spacing: 0em;
      }

      .cls-2 {
        fill: url(#Dégradé_sans_nom_2);
      }

      .cls-3 {
        fill: #111;
        stroke: #1d1d1b;
        stroke-miterlimit: 10;
      }

      .cls-4 {
        letter-spacing: -.02em;
      }

      .cls-5 {
        letter-spacing: -.03em;
      }

      .cls-6 {
        fill: #fff;
        font-family: Montserrat-Black, Montserrat;
        font-size: 48px;
      }

      .cls-7 {
        fill: #fd0988;
      }

      .cls-8 {
        fill: red;
      }
    </style>
    <linearGradient id="Dégradé_sans_nom_2" data-name="Dégradé sans nom 2" x1="643.36" y1="471.34" x2="1306.57" y2="616.83" gradientUnits="userSpaceOnUse">
      <stop offset="0" stop-color="#7237bd"/>
      <stop offset="1" stop-color="#fff"/>
    </linearGradient>
  </defs>
  <rect class="cls-3" width="1920" height="1080"/>
  <circle class="cls-7" cx="1394.31" cy="540" r="23.33"/>
  <g>
    <g>
      <path class="cls-2" d="M649.86,493.9v33.6h-9.31l-12.77-15.27v15.27h-11.04v-33.6h9.31l12.77,15.27v-15.27h11.04Z"/>
      <path class="cls-2" d="M653.98,510.7c0-10.18,8.02-17.57,18.96-17.57s18.96,7.39,18.96,17.57-8.02,17.57-18.96,17.57-18.96-7.39-18.96-17.57Zm26.5,0c0-5.23-3.36-8.4-7.54-8.4s-7.54,3.17-7.54,8.4,3.36,8.4,7.54,8.4,7.54-3.17,7.54-8.4Z"/>
      <path class="cls-2" d="M695.74,512.38v-18.48h11.33v18.15c0,5.14,1.97,7.06,5.14,7.06s5.14-1.92,5.14-7.06v-18.15h11.14v18.48c0,10.08-6.05,15.89-16.37,15.89s-16.37-5.81-16.37-15.89Z"/>
      <path class="cls-2" d="M731.55,524.82l3.65-8.26c3.17,1.87,7.39,3.07,11.09,3.07,3.22,0,4.37-.67,4.37-1.82,0-4.22-18.58-.82-18.58-13.35,0-6.24,5.23-11.33,15.65-11.33,4.51,0,9.17,.96,12.67,2.93l-3.41,8.21c-3.31-1.68-6.43-2.5-9.36-2.5-3.31,0-4.37,.96-4.37,2.11,0,4.03,18.58,.67,18.58,13.06,0,6.14-5.23,11.33-15.65,11.33-5.62,0-11.28-1.39-14.64-3.46Z"/>
      <path class="cls-2" d="M815.5,493.9l-14.21,33.6h-11.14l-14.21-33.6h12.19l8.02,19.63,8.21-19.63h11.14Z"/>
      <path class="cls-2" d="M814.78,510.7c0-10.18,8.02-17.57,18.96-17.57s18.96,7.39,18.96,17.57-8.02,17.57-18.96,17.57-18.96-7.39-18.96-17.57Zm26.5,0c0-5.23-3.36-8.4-7.54-8.4s-7.54,3.17-7.54,8.4,3.36,8.4,7.54,8.4,7.54-3.17,7.54-8.4Z"/>
      <path class="cls-2" d="M856.54,512.38v-18.48h11.33v18.15c0,5.14,1.97,7.06,5.14,7.06s5.14-1.92,5.14-7.06v-18.15h11.14v18.48c0,10.08-6.05,15.89-16.37,15.89s-16.37-5.81-16.37-15.89Z"/>
      <path class="cls-2" d="M892.35,524.82l3.65-8.26c3.17,1.87,7.39,3.07,11.09,3.07,3.22,0,4.37-.67,4.37-1.82,0-4.22-18.58-.82-18.58-13.35,0-6.24,5.23-11.33,15.65-11.33,4.51,0,9.17,.96,12.67,2.93l-3.41,8.21c-3.31-1.68-6.43-2.5-9.36-2.5-3.31,0-4.37,.96-4.37,2.11,0,4.03,18.58,.67,18.58,13.06,0,6.14-5.23,11.33-15.65,11.33-5.62,0-11.28-1.39-14.64-3.46Z"/>
      <path class="cls-2" d="M963.29,521.65h-12.77l-2.26,5.86h-11.52l14.69-33.6h11.14l14.69,33.6h-11.71l-2.26-5.86Zm-3.12-8.16l-3.26-8.45-3.26,8.45h6.53Z"/>
      <path class="cls-2" d="M979.08,493.9h11.33v33.6h-11.33v-33.6Z"/>
      <path class="cls-2" d="M995.88,493.9h16.56c11.23,0,18.96,6.38,18.96,16.8s-7.73,16.8-18.96,16.8h-16.56v-33.6Zm16.08,24.77c4.75,0,8.02-2.83,8.02-7.97s-3.26-7.97-8.02-7.97h-4.75v15.94h4.75Z"/>
      <path class="cls-2" d="M1034.19,510.7c0-10.18,8.02-17.57,18.96-17.57s18.96,7.39,18.96,17.57-8.02,17.57-18.96,17.57-18.96-7.39-18.96-17.57Zm26.5,0c0-5.23-3.36-8.4-7.54-8.4s-7.54,3.17-7.54,8.4,3.36,8.4,7.54,8.4,7.54-3.17,7.54-8.4Z"/>
      <path class="cls-2" d="M1109.36,493.9v33.6h-9.31l-12.77-15.27v15.27h-11.04v-33.6h9.31l12.77,15.27v-15.27h11.04Z"/>
      <path class="cls-2" d="M1112.71,524.82l3.65-8.26c3.17,1.87,7.39,3.07,11.09,3.07,3.22,0,4.37-.67,4.37-1.82,0-4.22-18.58-.82-18.58-13.35,0-6.24,5.23-11.33,15.65-11.33,4.51,0,9.17,.96,12.67,2.93l-3.41,8.21c-3.31-1.68-6.43-2.5-9.36-2.5-3.31,0-4.37,.96-4.37,2.11,0,4.03,18.58,.67,18.58,13.06,0,6.14-5.23,11.33-15.65,11.33-5.62,0-11.28-1.39-14.64-3.46Z"/>
      <path class="cls-2" d="M1160.76,493.9h16.56c11.23,0,18.96,6.38,18.96,16.8s-7.73,16.8-18.96,16.8h-16.56v-33.6Zm16.08,24.77c4.75,0,8.02-2.83,8.02-7.97s-3.26-7.97-8.02-7.97h-4.75v15.94h4.75Z"/>
      <path class="cls-2" d="M1222.83,521.65h-12.77l-2.26,5.86h-11.52l14.69-33.6h11.14l14.69,33.6h-11.71l-2.26-5.86Zm-3.12-8.16l-3.26-8.45-3.26,8.45h6.53Z"/>
      <path class="cls-2" d="M1271.74,493.9v33.6h-9.31l-12.77-15.27v15.27h-11.04v-33.6h9.31l12.77,15.27v-15.27h11.04Z"/>
      <path class="cls-2" d="M1275.09,524.82l3.65-8.26c3.17,1.87,7.39,3.07,11.09,3.07,3.22,0,4.37-.67,4.37-1.82,0-4.22-18.58-.82-18.58-13.35,0-6.24,5.23-11.33,15.65-11.33,4.51,0,9.17,.96,12.67,2.93l-3.41,8.21c-3.31-1.68-6.43-2.5-9.36-2.5-3.31,0-4.37,.96-4.37,2.11,0,4.03,18.58,.67,18.58,13.06,0,6.14-5.23,11.33-15.65,11.33-5.62,0-11.28-1.39-14.64-3.46Z"/>
      <path class="cls-2" d="M677.19,551.5l-14.21,33.6h-11.14l-14.21-33.6h12.19l8.02,19.63,8.21-19.63h11.14Z"/>
      <path class="cls-2" d="M676.47,568.3c0-10.18,8.02-17.57,18.96-17.57s18.96,7.39,18.96,17.57-8.02,17.57-18.96,17.57-18.96-7.39-18.96-17.57Zm26.5,0c0-5.23-3.36-8.4-7.54-8.4s-7.54,3.17-7.54,8.4,3.36,8.4,7.54,8.4,7.54-3.17,7.54-8.4Z"/>
      <path class="cls-2" d="M725.33,560.29h-9.84v-8.78h31.01v8.78h-9.84v24.82h-11.33v-24.82Z"/>
      <path class="cls-2" d="M763.83,576.66h-3.07v8.45h-11.33v-33.6h16.18c9.36,0,15.31,4.9,15.31,12.67,0,4.85-2.3,8.5-6.34,10.56l7.06,10.37h-12.1l-5.71-8.45Zm1.06-16.42h-4.13v7.87h4.13c3.12,0,4.61-1.49,4.61-3.94s-1.49-3.94-4.61-3.94Z"/>
      <path class="cls-2" d="M813.13,576.56v8.54h-27.94v-33.6h27.31v8.54h-16.18v3.94h14.21v8.16h-14.21v4.42h16.8Z"/>
      <path class="cls-2" d="M863.38,564.18c0,7.78-5.95,12.67-15.31,12.67h-4.85v8.26h-11.33v-33.6h16.18c9.36,0,15.31,4.9,15.31,12.67Zm-11.42,0c0-2.45-1.49-3.94-4.61-3.94h-4.13v7.87h4.13c3.12,0,4.61-1.49,4.61-3.94Z"/>
      <path class="cls-2" d="M881.48,576.66h-3.07v8.45h-11.33v-33.6h16.18c9.36,0,15.31,4.9,15.31,12.67,0,4.85-2.3,8.5-6.34,10.56l7.06,10.37h-12.1l-5.71-8.45Zm1.06-16.42h-4.13v7.87h4.13c3.12,0,4.61-1.49,4.61-3.94s-1.49-3.94-4.61-3.94Z"/>
      <path class="cls-2" d="M901.49,568.3c0-10.18,8.02-17.57,18.96-17.57s18.96,7.39,18.96,17.57-8.02,17.57-18.96,17.57-18.96-7.39-18.96-17.57Zm26.5,0c0-5.23-3.36-8.4-7.54-8.4s-7.54,3.17-7.54,8.4,3.36,8.4,7.54,8.4,7.54-3.17,7.54-8.4Z"/>
      <path class="cls-2" d="M976.66,575.84c0,5.86-4.94,9.26-14.21,9.26h-18.91v-33.6h17.95c9.26,0,13.58,3.7,13.58,8.78,0,3.12-1.58,5.71-4.66,7.25,3.94,1.44,6.24,4.32,6.24,8.3Zm-21.99-16.42v4.99h5.28c2.54,0,3.7-.86,3.7-2.5s-1.15-2.5-3.7-2.5h-5.28Zm10.56,15.12c0-1.73-1.25-2.64-3.74-2.64h-6.82v5.28h6.82c2.5,0,3.74-.91,3.74-2.64Z"/>
      <path class="cls-2" d="M980.64,551.5h11.33v24.82h15.17v8.78h-26.5v-33.6Z"/>
      <path class="cls-2" d="M1038.2,576.56v8.54h-27.94v-33.6h27.31v8.54h-16.18v3.94h14.21v8.16h-14.21v4.42h16.8Zm-12.1-27.79h-7.2l6.34-7.68h10.32l-9.46,7.68Z"/>
      <path class="cls-2" d="M1072.56,585.1l-.1-15.31-7.3,12.29h-4.99l-7.3-11.76v14.79h-10.32v-33.6h9.31l10.94,17.91,10.66-17.91h9.31l.1,33.6h-10.32Z"/>
      <path class="cls-2" d="M1111.25,579.25h-12.77l-2.26,5.86h-11.52l14.69-33.6h11.14l14.69,33.6h-11.71l-2.26-5.86Zm-3.12-8.16l-3.26-8.45-3.26,8.45h6.53Z"/>
      <path class="cls-2" d="M1132.66,560.29h-9.84v-8.78h31.01v8.78h-9.84v24.82h-11.33v-24.82Z"/>
      <path class="cls-2" d="M1156.75,551.5h11.33v33.6h-11.33v-33.6Z"/>
      <path class="cls-2" d="M1211.96,589.33c-2.35,2.78-5.76,4.27-9.79,4.27-5.95,0-9.65-1.87-15.7-8.21-8.45-1.78-14.26-8.45-14.26-17.09,0-10.18,8.02-17.57,18.96-17.57s18.96,7.39,18.96,17.57c0,7.44-4.27,13.39-10.85,16.03,1.01,1.06,1.92,1.39,3.12,1.39,1.63,0,3.26-.77,4.66-2.16l4.9,5.76Zm-28.32-21.03c0,5.23,3.36,8.4,7.54,8.4s7.54-3.17,7.54-8.4-3.36-8.4-7.54-8.4-7.54,3.17-7.54,8.4Z"/>
      <path class="cls-2" d="M1213.97,569.98v-18.48h11.33v18.15c0,5.14,1.97,7.06,5.14,7.06s5.14-1.92,5.14-7.06v-18.15h11.14v18.48c0,10.08-6.05,15.89-16.37,15.89s-16.37-5.81-16.37-15.89Z"/>
      <path class="cls-2" d="M1279.83,576.56v8.54h-27.94v-33.6h27.31v8.54h-16.18v3.94h14.21v8.16h-14.21v4.42h16.8Z"/>
    </g>
    <text class="cls-6" transform="translate(614 527.5)"><tspan x="0" y="0">NOUS </tspan><tspan class="cls-4" x="162.86" y="0">V</tspan><tspan x="199.39" y="0">OUS AIDONS </tspan><tspan class="cls-1" x="544.03" y="0">D</tspan><tspan x="583.19" y="0">ANS </tspan><tspan class="cls-4" x="24.55" y="57.6">V</tspan><tspan class="cls-1" x="61.08" y="57.6">O</tspan><tspan x="101.3" y="57.6">TRE </tspan><tspan class="cls-1" x="215.16" y="57.6">P</tspan><tspan x="250.34" y="57.6">ROBLÉM</tspan><tspan class="cls-5" x="471.62" y="57.6">A</tspan><tspan x="508.63" y="57.6">TIQUE</tspan></text>
  </g>
  <path class="cls-8" d="M1371.55,578.99c-32.3,41.19-79.16,66.69-127.99,83.27-24.9,8.46-50.46,14.82-76.19,20.17-31.34,6.52-62.93,11.92-94.62,16.39-33,4.66-66.16,8.21-99.39,10.7-32.71,2.45-65.73,4.26-98.29-.76-30.41-4.69-60.03-14.03-88.73-24.96-26.39-10.05-52.08-21.94-76.87-35.49-49.57-27.09-95.48-60.82-136.03-100.15-5.07-4.91-10.04-9.92-14.94-15-.17,1.31-.34,2.62-.51,3.93,6.78-4.6,14.34-7.34,22.53-7.98,3.19-.25,3.21-5.25,0-5-9.05,.7-17.52,3.56-25.05,8.66-1.34,.91-1.68,2.71-.51,3.93,39.68,41.12,84.94,76.81,134.17,105.82,50.3,29.64,105.67,53.93,162.74,66.88,32.21,7.31,64.7,8.5,97.59,6.71,33.49-1.83,66.93-5.04,100.2-9.21,32.72-4.1,65.31-9.23,97.7-15.41,27.1-5.17,54.1-11.05,80.54-18.99,49.49-14.86,98.54-37.33,134.6-75.36,4.43-4.67,8.61-9.56,12.58-14.62,1.96-2.5-1.55-6.07-3.54-3.54h0Z"/>
  <path class="cls-8" d="M1294.33,561.23c11.24-.68,22.49-1.37,33.73-2.05,3.2-.19,3.22-5.2,0-5-11.24,.68-22.49,1.37-33.73,2.05-3.2,.19-3.22,5.2,0,5h0Z"/>
  <path class="cls-8" d="M1345.48,547.19c3.38,2.23,6.47,4.82,9.25,7.75,.71,.74,1.39,1.51,2.05,2.29,.38,.44,1.05,1.1,1.05,1.72,0-.03-.27,.35-.55,.55-.59,.43-1.3,.69-1.99,.92-8.78,2.96-17.66,5.66-26.48,8.49-3.05,.98-1.75,5.81,1.33,4.82,7.99-2.56,15.99-5.12,23.98-7.69,3.07-.99,6.98-1.91,8.32-5.24,1.55-3.85-2.06-7.21-4.48-9.72-2.99-3.11-6.36-5.85-9.96-8.22-2.69-1.78-5.2,2.55-2.52,4.32h0Z"/>
</svg>