<?xml version="1.0" encoding="UTF-8"?>
<svg id="Frame_22" data-name="Frame 22" xmlns="http://www.w3.org/2000/svg" xmlns:xlink="http://www.w3.org/1999/xlink" viewBox="0 0 1920 1080">
  <defs>
    <style>
      .cls-1 {
        fill: #7237bd;
      }

      .cls-2 {
        fill: #fff;
      }

      .cls-3 {
        fill: #6262c5;
      }

      .cls-4 {
        fill: #16163c;
      }

      .cls-5 {
        fill: none;
        stroke: #fff;
        stroke-width: 10px;
      }

      .cls-5, .cls-6 {
        stroke-miterlimit: 10;
      }

      .cls-6 {
        fill: url(#Dégradé_sans_nom_24);
        stroke: #1d1d1b;
      }

      .cls-7 {
        fill: red;
      }
    </style>
    <linearGradient id="Dégradé_sans_nom_24" data-name="Dégradé sans nom 24" x1="18407.65" y1="-1763.5" x2="18407.65" y2="-3112.69" gradientTransform="translate(-17447.4 3155.16)" gradientUnits="userSpaceOnUse">
      <stop offset="0" stop-color="#16163c"/>
      <stop offset="1" stop-color="#fd0988"/>
    </linearGradient>
  </defs>
  <rect class="cls-6" x=".25" y="0" width="1920" height="1079.81" transform="translate(1920.5 1079.81) rotate(-180)"/>
  <rect class="cls-5" x="599.63" y="208.09" width="720.74" height="720.74" rx="175" ry="175"/>
  <rect class="cls-5" x="712.36" y="320.82" width="495.29" height="495.29" rx="60" ry="60"/>
  <rect class="cls-5" x="1452.99" y="114.63" width="720.74" height="720.74" rx="175" ry="175"/>
  <rect class="cls-5" x="1565.72" y="227.35" width="495.29" height="495.29" rx="60" ry="60"/>
  <rect class="cls-5" x="-253.73" y="114.63" width="720.74" height="720.74" rx="175" ry="175"/>
  <rect class="cls-5" x="-141" y="227.35" width="495.29" height="495.29" rx="60" ry="60"/>
  <circle class="cls-3" cx="1263.05" cy="645.84" r="51.41"/>
  <circle class="cls-2" cx="960.25" cy="1102.36" r="77.11"/>
  <circle class="cls-1" cx="1218.64" cy="847.24" r="51.41"/>
  <circle class="cls-4" cx="1037.36" cy="872.33" r="51.41"/>
  <circle class="cls-3" cx="894.03" cy="872.33" r="51.41"/>
  <circle class="cls-1" cx="744.48" cy="868.33" r="51.41"/>
  <circle class="cls-3" cx="372.06" cy="744.43" r="51.41"/>
  <circle class="cls-1" cx="83.14" cy="779.28" r="51.41"/>
  <circle class="cls-4" cx="409.66" cy="397.73" r="51.41"/>
  <circle class="cls-1" cx="185.95" cy="170.95" r="51.41"/>
  <circle class="cls-1" cx="1789.88" cy="779.28" r="51.41"/>
  <circle class="cls-3" cx="1892.69" cy="170.95" r="51.41"/>
  <circle class="cls-4" cx="1602.4" cy="170.95" r="51.41"/>
  <circle class="cls-1" cx="1510.33" cy="359.43" r="51.41"/>
  <circle class="cls-3" cx="1514.33" cy="697.25" r="51.41"/>
  <circle class="cls-4" cx="655.24" cy="744.43" r="51.41"/>
  <circle class="cls-3" cx="655.24" cy="568.46" r="51.41"/>
  <polygon class="cls-2" points="960.25 521.8 906.37 615.12 1014.13 615.12 960.25 521.8"/>
  <rect class="cls-2" x="51.15" y="428.34" width="93.32" height="93.32"/>
  <rect class="cls-2" x="1780.37" y="442" width="65.99" height="65.99" transform="translate(195.25 1421.36) rotate(-45)"/>
  <path class="cls-7" d="M1075.1,1018.94c.85,11.01,1.69,22.02,2.54,33.04,.1,1.35,1.07,2.5,2.5,2.5,1.27,0,2.6-1.15,2.5-2.5-.85-11.01-1.69-22.02-2.54-33.04-.1-1.35-1.07-2.5-2.5-2.5-1.27,0-2.6,1.15-2.5,2.5h0Z"/>
  <path class="cls-7" d="M1057.25,1043.59c8.45,5.88,16.9,11.76,25.35,17.65,.67,.47,1.85,.47,2.52,0,8.18-5.74,12.01-16.78,8.62-26.29-.45-1.27-1.7-2.12-3.08-1.75-1.23,.34-2.2,1.8-1.75,3.08,2.6,7.29,.1,16.14-6.32,20.65h2.52c-8.45-5.88-16.9-11.76-25.35-17.65-1.11-.77-2.78-.2-3.42,.9-.73,1.24-.21,2.65,.9,3.42h0Z"/>
  <path class="cls-7" d="M1229.49,949.29c18.97,2.45,38.95,1.97,56.8-5.59,16.24-6.88,28.67-19.63,38.19-34.2,4.74-7.25,8.81-14.91,12.58-22.7,4.06-8.38,7.96-16.88,11.5-25.49,2.01-4.89,3.8-9.89,4.98-15.06,1.22-5.33,1.74-10.81,1.96-16.26,.44-11.04,.18-22.12,.21-33.17,.05-22.3,.09-44.59,.14-66.89,0-2.75,.01-5.49,.02-8.24,0-3.22-4.99-3.22-5,0-.05,21.96-.09,43.93-.14,65.89-.02,10.97-.04,21.94-.07,32.91-.02,5.27-.07,10.55-.57,15.8s-1.58,10.21-3.18,15.14c-2.93,9.05-7.11,17.72-11.1,26.34-3.56,7.7-7.32,15.32-11.61,22.64-8.33,14.22-18.96,27.5-33.57,35.62-16.44,9.14-35.92,10.62-54.33,8.99-2.28-.2-4.55-.46-6.82-.75-1.34-.17-2.5,1.27-2.5,2.5,0,1.49,1.15,2.33,2.5,2.5h0Z"/>
  <path class="cls-7" d="M1344.44,736.74c4.81-7.08,9.63-14.17,14.44-21.25h-4.32c8.49,12.42,13.5,27.03,14.24,42.06,.16,3.2,5.16,3.22,5,0-.78-15.89-5.94-31.45-14.92-44.59-1.1-1.6-3.22-1.61-4.32,0-4.81,7.08-9.63,14.17-14.44,21.25-1.81,2.67,2.52,5.17,4.32,2.52h0Z"/>
</svg>