<svg xmlns="http://www.w3.org/2000/svg" xmlns:xlink="http://www.w3.org/1999/xlink" preserveAspectRatio="xMidYMid meet" width="500" height="300" viewBox="0 0 500 300" style="width:100%;height:100%"><defs><animateMotion repeatCount="indefinite" dur="4s" begin="0s" xlink:href="#_R_G_L_3_G" fill="freeze" keyTimes="0;0.125;0.25;0.375;1" path="M252.94 214.2 C252.94,214.2 252.94,150 252.94,150 C252.94,150 252.94,214.2 252.94,214.2 C252.94,214.2 252.94,160.7 252.94,150 C252.94,150 252.94,150 252.94,150 " keyPoints="0;0.33;0.67;1;1" keySplines="0.333 0 0.141 1;0.852 0 0.667 1;0.333 0 0.141 1;0 0 0 0" calcMode="spline"/><animateTransform repeatCount="indefinite" dur="4s" begin="0s" xlink:href="#_R_G_L_3_G" fill="freeze" attributeName="transform" from="360" to="360" type="rotate" additive="sum" keyTimes="0;1" values="360;360" keySplines="0 0 1 1" calcMode="spline"/><animateTransform repeatCount="indefinite" dur="4s" begin="0s" xlink:href="#_R_G_L_3_G" fill="freeze" attributeName="transform" from="1.2 0.65" to="0.8 1.2" type="scale" additive="sum" keyTimes="0;0.0166667;0.125;0.2333333;0.25;0.2666667;1" values="1.2 0.65;0.8 1.2;1 1;0.8 1.2;1.2 0.65;0.8 1.2;0.8 1.2" keySplines="0.333 0 0.667 1;0.333 0 0 1;1 0 0.667 1;0.333 0 0.667 1;0.333 0 0.667 1;0 0 0 0" calcMode="spline"/><animateTransform repeatCount="indefinite" dur="4s" begin="0s" xlink:href="#_R_G_L_3_G" fill="freeze" attributeName="transform" from="0 -46.847" to="0 -46.847" type="translate" additive="sum" keyTimes="0;1" values="0 -46.847;0 -46.847" keySplines="0 0 1 1" calcMode="spline"/><animate repeatCount="indefinite" dur="4s" begin="0s" xlink:href="#_R_G_L_3_G_M" fill="freeze" attributeName="opacity" from="1" to="0" keyTimes="0;0.25;0.25;1" values="1;1;0;0" keySplines="0 0 0 0;0 0 0 0;0 0 0 0" calcMode="spline"/><animateTransform repeatCount="indefinite" dur="4s" begin="0s" xlink:href="#_R_G_L_2_G_D_0_P_0_G_0_T_0" fill="freeze" attributeName="transform" from="0" to="90" type="rotate" additive="sum" keyTimes="0;0.25;0.375;0.5;1" values="0;0;45;90;90" keySplines="0.02 0.664 0.659 0.878;0.02 0.664 0.659 0.878;0.361 0.122 0.98 0.336;0 0 0 0" calcMode="spline"/><animateMotion repeatCount="indefinite" dur="4s" begin="0s" xlink:href="#_R_G_L_2_G" fill="freeze" keyTimes="0;0.125;0.25;0.375;0.5;0.625;1" path="M252.94 150 C252.94,150 252.94,150 252.94,150 C252.94,160.7 252.94,214.2 252.94,214.2 C252.94,214.2 252.94,150 252.94,150 C252.94,150 252.94,214.2 252.94,214.2 C252.94,214.2 252.94,160.7 252.94,150 C252.94,150 252.94,150 252.94,150 " keyPoints="0;0;0.25;0.5;0.75;1;1" keySplines="0.852 0 0.667 1;0.852 0 0.667 1;0.333 0 0.141 1;0.852 0 0.667 1;0.333 0 0.141 1;0 0 0 0" calcMode="spline"/><animateTransform repeatCount="indefinite" dur="4s" begin="0s" xlink:href="#_R_G_L_2_G" fill="freeze" attributeName="transform" from="0.8 1.2" to="0.8 1.2" type="scale" additive="sum" keyTimes="0;0.2333333;0.25;0.2666667;0.375;0.4833333;0.5;0.5166667;1" values="0.8 1.2;0.8 1.2;1.2 0.65;0.8 1.2;1 1;0.8 1.2;1.2 0.65;0.8 1.2;0.8 1.2" keySplines="0.333 0 0.667 1;0.333 0 0.667 1;0.333 0 0.667 1;0.333 0 0 1;1 0 0.667 1;0.333 0 0.667 1;0.333 0 0.667 1;0 0 0 0" calcMode="spline"/><animateTransform repeatCount="indefinite" dur="4s" begin="0s" xlink:href="#_R_G_L_2_G" fill="freeze" attributeName="transform" from="0 -46.847" to="0 -46.847" type="translate" additive="sum" keyTimes="0;1" values="0 -46.847;0 -46.847" keySplines="0 0 1 1" calcMode="spline"/><animate repeatCount="indefinite" dur="4s" begin="0s" xlink:href="#_R_G_L_2_G_M" fill="freeze" attributeName="opacity" from="0" to="0" keyTimes="0;0.25;0.2500004;0.5;0.5;1" values="0;0;1;1;0;0" keySplines="0 0 0 0;0 0 0 0;0 0 0 0;0 0 0 0;0 0 0 0" calcMode="spline"/><animateTransform repeatCount="indefinite" dur="4s" begin="0s" xlink:href="#_R_G_L_1_G_D_0_P_0_G_0_T_0" fill="freeze" attributeName="transform" from="0" to="90" type="rotate" additive="sum" keyTimes="0;0.5;0.625;0.75;1" values="0;0;45;90;90" keySplines="0.02 0.664 0.659 0.878;0.02 0.664 0.659 0.878;0.361 0.122 0.98 0.336;0 0 0 0" calcMode="spline"/><animateMotion repeatCount="indefinite" dur="4s" begin="0s" xlink:href="#_R_G_L_1_G" fill="freeze" keyTimes="0;0.375;0.5;0.625;0.75;0.875;1" path="M252.94 150 C252.94,150 252.94,150 252.94,150 C252.94,160.7 252.94,214.2 252.94,214.2 C252.94,214.2 252.94,150 252.94,150 C252.94,150 252.94,214.2 252.94,214.2 C252.94,214.2 252.94,160.7 252.94,150 C252.94,150 252.94,150 252.94,150 " keyPoints="0;0;0.25;0.5;0.75;1;1" keySplines="0.852 0 0.667 1;0.852 0 0.667 1;0.333 0 0.141 1;0.852 0 0.667 1;0.333 0 0.141 1;0 0 0 0" calcMode="spline"/><animateTransform repeatCount="indefinite" dur="4s" begin="0s" xlink:href="#_R_G_L_1_G" fill="freeze" attributeName="transform" from="0.8 1.2" to="0.8 1.2" type="scale" additive="sum" keyTimes="0;0.4833333;0.5;0.5166667;0.625;0.7333333;0.75;0.7666667;1" values="0.8 1.2;0.8 1.2;1.2 0.65;0.8 1.2;1 1;0.8 1.2;1.2 0.65;0.8 1.2;0.8 1.2" keySplines="0.333 0 0.667 1;0.333 0 0.667 1;0.333 0 0.667 1;0.333 0 0 1;1 0 0.667 1;0.333 0 0.667 1;0.333 0 0.667 1;0 0 0 0" calcMode="spline"/><animateTransform repeatCount="indefinite" dur="4s" begin="0s" xlink:href="#_R_G_L_1_G" fill="freeze" attributeName="transform" from="0 -46.847" to="0 -46.847" type="translate" additive="sum" keyTimes="0;1" values="0 -46.847;0 -46.847" keySplines="0 0 1 1" calcMode="spline"/><animate repeatCount="indefinite" dur="4s" begin="0s" xlink:href="#_R_G_L_1_G_M" fill="freeze" attributeName="opacity" from="0" to="0" keyTimes="0;0.5;0.5000004;0.75;0.75;1" values="0;0;1;1;0;0" keySplines="0 0 0 0;0 0 0 0;0 0 0 0;0 0 0 0;0 0 0 0" calcMode="spline"/><animateMotion repeatCount="indefinite" dur="4s" begin="0s" xlink:href="#_R_G_L_0_G_D_0_P_0_G_0_T_0" fill="freeze" keyTimes="0;0.75;0.875;1" path="M0 0 C0,0 0,0 0,0 C1.17,0 4.08,0 7,0 C9.92,0 12.83,0 14,0 " keyPoints="0;0;0.5;1" keySplines="0.02 0.664 0.659 0.878;0.02 0.664 0.659 0.878;0.361 0.122 0.98 0.336" calcMode="spline"/><animateTransform repeatCount="indefinite" dur="4s" begin="0s" xlink:href="#_R_G_L_0_G_D_0_P_0_G_0_T_0" fill="freeze" attributeName="transform" from="0" to="120" type="rotate" additive="sum" keyTimes="0;0.75;0.875;1" values="0;0;45;120" keySplines="0.02 0.664 0.659 0.878;0.02 0.664 0.659 0.878;0.361 0.122 0.98 0.336" calcMode="spline"/><animateMotion repeatCount="indefinite" dur="4s" begin="0s" xlink:href="#_R_G_L_0_G" fill="freeze" keyTimes="0;0.625;0.75;0.875;1" path="M252.94 150 C252.94,150 252.94,150 252.94,150 C252.94,160.7 252.94,214.2 252.94,214.2 C252.94,214.2 252.94,150 252.94,150 C252.94,150 252.94,214.2 252.94,214.2 " keyPoints="0;0;0.33;0.67;1" keySplines="0.852 0 0.667 1;0.852 0 0.667 1;0.333 0 0.141 1;0.852 0 0.667 1" calcMode="spline"/><animateTransform repeatCount="indefinite" dur="4s" begin="0s" xlink:href="#_R_G_L_0_G" fill="freeze" attributeName="transform" from="0.8 1.2" to="1.2 0.65" type="scale" additive="sum" keyTimes="0;0.7333333;0.75;0.7666667;0.875;0.9833333;1" values="0.8 1.2;0.8 1.2;1.2 0.65;0.8 1.2;1 1;0.8 1.2;1.2 0.65" keySplines="0.333 0 0.667 1;0.333 0 0.667 1;0.333 0 0.667 1;0.333 0 0 1;1 0 0.667 1;0.333 0 0.667 1" calcMode="spline"/><animateTransform repeatCount="indefinite" dur="4s" begin="0s" xlink:href="#_R_G_L_0_G" fill="freeze" attributeName="transform" from="0 -46.617" to="0 -46.617" type="translate" additive="sum" keyTimes="0;1" values="0 -46.617;0 -46.617" keySplines="0 0 1 1" calcMode="spline"/><animate repeatCount="indefinite" dur="4s" begin="0s" xlink:href="#_R_G_L_0_G_M" fill="freeze" attributeName="opacity" from="0" to="1" keyTimes="0;0.75;0.7500004;1" values="0;0;1;1" keySplines="0 0 0 0;0 0 0 0;0 0 0 0" calcMode="spline"/><animate attributeType="XML" attributeName="opacity" dur="4s" from="0" to="1" xlink:href="#time_group"/></defs><g id="_R_G"><g id="_R_G_L_5_G" transform=" translate(250, 150) translate(0, 0)"><path id="_R_G_L_5_G_D_0_P_0" fill="#38383f" fill-opacity="1" fill-rule="nonzero" d=" M-167.02 13.4 C-167.02,13.4 -126.42,13.4 -126.42,13.4 C-126.42,13.4 -126.42,-48.2 -126.42,-48.2 C-126.42,-48.2 -167.02,13.4 -167.02,13.4z  M-126.42 34 C-126.42,34 -190.02,34 -190.02,34 C-190.02,34 -190.02,15.2 -190.02,15.2 C-190.02,15.2 -135.22,-69.2 -135.22,-69.2 C-135.22,-69.2 -103.02,-69.2 -103.02,-69.2 C-103.02,-69.2 -103.02,13.4 -103.02,13.4 C-103.02,13.4 -85.22,13.4 -85.22,13.4 C-85.22,13.4 -85.22,34 -85.22,34 C-85.22,34 -103.02,34 -103.02,34 C-103.02,34 -103.02,64.2 -103.02,64.2 C-103.02,64.2 -126.42,64.2 -126.42,64.2 C-126.42,64.2 -126.42,34 -126.42,34z "/></g><g id="_R_G_L_4_G" transform=" translate(250, 150) translate(0, 0)"><path id="_R_G_L_4_G_D_0_P_0" fill="#38383f" fill-opacity="1" fill-rule="nonzero" d=" M108.22 13.4 C108.22,13.4 148.82,13.4 148.82,13.4 C148.82,13.4 148.82,-48.2 148.82,-48.2 C148.82,-48.2 108.22,13.4 108.22,13.4z  M148.82 34 C148.82,34 85.22,34 85.22,34 C85.22,34 85.22,15.2 85.22,15.2 C85.22,15.2 140.02,-69.2 140.02,-69.2 C140.02,-69.2 172.22,-69.2 172.22,-69.2 C172.22,-69.2 172.22,13.4 172.22,13.4 C172.22,13.4 190.02,13.4 190.02,13.4 C190.02,13.4 190.02,34 190.02,34 C190.02,34 172.22,34 172.22,34 C172.22,34 172.22,64.2 172.22,64.2 C172.22,64.2 148.82,64.2 148.82,64.2 C148.82,64.2 148.82,34 148.82,34z "/></g><g id="_R_G_L_3_G_M"><g id="_R_G_L_3_G"><path id="_R_G_L_3_G_D_0_P_0" fill="#fde74c" fill-opacity="1" fill-rule="nonzero" d=" M66.7 0 C66.7,36.84 36.84,66.7 0,66.7 C-36.84,66.7 -66.7,36.84 -66.7,0 C-66.7,-36.84 -36.84,-66.7 0,-66.7 C36.84,-66.7 66.7,-36.84 66.7,0z "/></g></g><g id="_R_G_L_2_G_M"><g id="_R_G_L_2_G"><g id="_R_G_L_2_G_D_0_P_0_G_0_T_0" transform=" translate(0, 0)"><path id="_R_G_L_2_G_D_0_P_0" fill="#3185fc" fill-opacity="1" fill-rule="nonzero" d=" M46.85 46.85 C46.85,46.85 -46.85,46.85 -46.85,46.85 C-46.85,46.85 -46.85,-46.85 -46.85,-46.85 C-46.85,-46.85 46.85,-46.85 46.85,-46.85 C46.85,-46.85 46.85,46.85 46.85,46.85z "/></g></g></g><g id="_R_G_L_1_G_M"><g id="_R_G_L_1_G"><g id="_R_G_L_1_G_D_0_P_0_G_0_T_0" transform=" translate(0, 0)"><path id="_R_G_L_1_G_D_0_P_0" fill="#06a77d" fill-opacity="1" fill-rule="nonzero" d=" M0 -32.96 C0,-32.96 46.62,-46.62 46.62,-46.62 C46.62,-46.62 32.96,0 32.96,0 C32.96,0 46.62,46.62 46.62,46.62 C46.62,46.62 0,32.96 0,32.96 C0,32.96 -46.62,46.62 -46.62,46.62 C-46.62,46.62 -32.96,0 -32.96,0 C-32.96,0 -46.62,-46.62 -46.62,-46.62 C-46.62,-46.62 0,-32.96 0,-32.96z "/></g></g></g><g id="_R_G_L_0_G_M"><g id="_R_G_L_0_G"><g id="_R_G_L_0_G_D_0_P_0_G_0_T_0"><path id="_R_G_L_0_G_D_0_P_0" fill="#e84855" fill-opacity="1" fill-rule="nonzero" d=" M0 -46.62 C0,-46.62 -53.83,46.62 -53.83,46.62 C-53.83,46.62 53.83,46.62 53.83,46.62 C53.83,46.62 0,-46.62 0,-46.62z "/></g></g></g></g><g id="time_group"/></svg>