<?xml version="1.0" encoding="UTF-8"?>
<svg id="Frame_22" data-name="Frame 22" xmlns="http://www.w3.org/2000/svg" xmlns:xlink="http://www.w3.org/1999/xlink" viewBox="0 0 1920 1080">
  <defs>
    <style>
      .cls-1, .cls-2 {
        fill: #fff;
      }

      .cls-3 {
        fill: url(#Dégradé_sans_nom_2-2);
      }

      .cls-4 {
        fill: url(#Dégradé_sans_nom_2);
      }

      .cls-5 {
        fill: #6262c5;
      }

      .cls-6 {
        letter-spacing: -.01em;
      }

      .cls-7 {
        fill: url(#Dégradé_sans_nom_18);
      }

      .cls-8 {
        fill: url(#Dégradé_sans_nom_2-4);
      }

      .cls-9 {
        fill: url(#Dégradé_sans_nom_2-3);
      }

      .cls-2 {
        font-family: Montserrat-Black, Montserrat;
        font-size: 48px;
      }

      .cls-10 {
        fill: #fd0988;
      }

      .cls-11 {
        fill: url(#Dégradé_sans_nom_2-5);
      }

      .cls-12 {
        fill: red;
      }

      .cls-13 {
        fill: url(#Dégradé_sans_nom_2-6);
      }

      .cls-14 {
        fill: url(#Dégradé_sans_nom_16);
        stroke: #1d1d1b;
        stroke-miterlimit: 10;
      }
    </style>
    <linearGradient id="Dégradé_sans_nom_16" data-name="Dégradé sans nom 16" x1="960.25" y1="1079.81" x2="960.25" y2="411.8" gradientUnits="userSpaceOnUse">
      <stop offset="0" stop-color="#16163c"/>
      <stop offset="1" stop-color="#7237bd"/>
    </linearGradient>
    <linearGradient id="Dégradé_sans_nom_18" data-name="Dégradé sans nom 18" x1="8963.31" y1="-2022.53" x2="8963.31" y2="-3046.81" gradientTransform="translate(-8003.19 3155.16)" gradientUnits="userSpaceOnUse">
      <stop offset="0" stop-color="#16163c"/>
      <stop offset="1" stop-color="#fd0988"/>
    </linearGradient>
    <linearGradient id="Dégradé_sans_nom_2" data-name="Dégradé sans nom 2" x1="690.44" y1="610.3" x2="1255.34" y2="734.22" gradientUnits="userSpaceOnUse">
      <stop offset="0" stop-color="#7237bd"/>
      <stop offset="1" stop-color="#fff"/>
    </linearGradient>
    <linearGradient id="Dégradé_sans_nom_2-2" data-name="Dégradé sans nom 2" x1="895.83" y1="656.1" x2="1031.09" y2="685.77" xlink:href="#Dégradé_sans_nom_2"/>
    <linearGradient id="Dégradé_sans_nom_2-3" data-name="Dégradé sans nom 2" x1="895.83" y1="656.1" x2="1031.09" y2="685.77" xlink:href="#Dégradé_sans_nom_2"/>
    <linearGradient id="Dégradé_sans_nom_2-4" data-name="Dégradé sans nom 2" x1="895.83" y1="656.1" x2="1031.09" y2="685.77" xlink:href="#Dégradé_sans_nom_2"/>
    <linearGradient id="Dégradé_sans_nom_2-5" data-name="Dégradé sans nom 2" x1="895.83" y1="656.1" x2="1031.09" y2="685.77" xlink:href="#Dégradé_sans_nom_2"/>
    <linearGradient id="Dégradé_sans_nom_2-6" data-name="Dégradé sans nom 2" x1="895.83" y1="656.1" x2="1031.09" y2="685.77" xlink:href="#Dégradé_sans_nom_2"/>
  </defs>
  <rect class="cls-14" x=".25" y="0" width="1920" height="1079.81"/>
  <rect class="cls-5" x=".25" y="-.19" width="274.25" height="475.18"/>
  <rect class="cls-10" x="274.5" y="-.19" width="274.25" height="475.18"/>
  <rect class="cls-5" x="548.75" y="-.19" width="274.25" height="475.18"/>
  <rect class="cls-7" x="823" y="-.19" width="274.25" height="475.18" transform="translate(1920.25 474.81) rotate(180)"/>
  <rect class="cls-5" x="1097.25" y="-.19" width="274.25" height="475.18"/>
  <rect class="cls-10" x="1371.5" y="-.19" width="274.25" height="475.18"/>
  <rect class="cls-5" x="1645.75" y="-.19" width="274.25" height="475.18"/>
  <g>
    <g>
      <path class="cls-4" d="M903.92,681h-12.77l-2.26,5.86h-11.52l14.69-33.6h11.14l14.69,33.6h-11.71l-2.26-5.86Zm-3.12-8.16l-3.26-8.45-3.26,8.45h6.53Z"/>
      <path class="cls-4" d="M918.7,671.74v-18.48h11.33v18.15c0,5.14,1.97,7.06,5.14,7.06s5.14-1.92,5.14-7.06v-18.15h11.14v18.48c0,10.08-6.05,15.89-16.37,15.89s-16.37-5.81-16.37-15.89Z"/>
      <path class="cls-4" d="M956.62,653.25h16.56c11.23,0,18.96,6.38,18.96,16.8s-7.73,16.8-18.96,16.8h-16.56v-33.6Zm16.08,24.77c4.75,0,8.02-2.83,8.02-7.97s-3.26-7.97-8.02-7.97h-4.75v15.94h4.75Z"/>
      <path class="cls-4" d="M996.27,653.25h11.33v33.6h-11.33v-33.6Z"/>
      <path class="cls-4" d="M1020.36,662.04h-9.84v-8.79h31.01v8.79h-9.84v24.82h-11.33v-24.82Z"/>
    </g>
    <text class="cls-2" transform="translate(878.28 686.86)"><tspan class="cls-6" x="0" y="0">A</tspan><tspan x="37.97" y="0">UDIT</tspan></text>
  </g>
  <circle class="cls-10" cx="736.7" cy="630.61" r="62.14"/>
  <path class="cls-12" d="M52.35,386.05c4.45,15.99,8.26,32.16,11.4,48.46,3.13,16.24,5.6,32.6,7.4,49.03,1.81,16.58,2.95,33.23,3.42,49.9,.46,16.59,.26,33.2-.61,49.78-.87,16.51-2.39,32.99-4.61,49.37-.28,2.07-.57,4.13-.87,6.19-.19,1.33,.33,2.69,1.75,3.08,1.18,.32,2.88-.4,3.08-1.75,2.43-16.65,4.21-33.38,5.28-50.17,1.07-16.72,1.45-33.49,1.15-50.25s-1.27-33.34-2.92-49.94c-1.66-16.74-3.99-33.41-6.99-49.96-2.99-16.49-6.66-32.86-10.99-49.04-.54-2.01-1.09-4.02-1.65-6.03-.86-3.1-5.69-1.78-4.82,1.33h0Z"/>
  <path class="cls-12" d="M48.33,626.06c3.17,8.6,6.98,18.66,15.67,23.11,7.55,3.86,17.77,3.07,22.24-4.93,1.17-2.09,1.91-4.38,2.8-6.59,.7-1.74,1.59-3.69,3.15-4.83,1.09-.79,1.63-2.17,.9-3.42-.63-1.08-2.32-1.7-3.42-.9-3.4,2.47-4.8,6.11-6.26,9.9-1.17,3.04-2.67,6-5.77,7.28-3.17,1.31-6.86,.93-10.03-.33-3.5-1.4-6.24-4.21-8.29-7.31-2.72-4.1-4.47-8.72-6.17-13.31-.47-1.27-1.69-2.13-3.08-1.75-1.22,.33-2.22,1.8-1.75,3.08h0Z"/>
  <path class="cls-12" d="M1058.29,591.46c1.45,18.51,2.06,37.09,1.81,55.65-.07,5.3-.22,10.61-.43,15.91-.13,3.22,4.87,3.21,5,0,.73-18.55,.63-37.14-.34-55.68-.28-5.3-.63-10.59-1.04-15.88-.11-1.35-1.07-2.5-2.5-2.5-1.27,0-2.61,1.15-2.5,2.5h0Z"/>
  <path class="cls-12" d="M1047.2,669.14c3.77,10.68,12.76,19.1,23.74,21.98,1.4,.37,2.59-.47,3.08-1.75,3.37-8.95,4.62-18.67,3.62-28.18-.14-1.34-1.05-2.5-2.5-2.5-1.24,0-2.64,1.15-2.5,2.5,.96,9.13-.21,18.26-3.44,26.85l3.08-1.75c-9.23-2.42-17.06-9.45-20.25-18.49-.45-1.27-1.71-2.12-3.08-1.75-1.23,.34-2.2,1.8-1.75,3.08h0Z"/>
  <path class="cls-12" d="M661.22,693.51c-15.87,9.74-29.89,23.51-38.98,39.86-4.12,7.41-7.32,16.88-3.62,25.09,3.56,7.92,12.26,10.69,20.16,12.09,22.24,3.92,44.68,6.95,67.06,10,22.67,3.09,45.38,5.92,68.13,8.46,45.42,5.07,90.96,9.03,136.57,11.86,45.8,2.84,91.68,4.56,137.56,5.14,45.89,.58,91.79,.02,137.65-1.67,5.71-.21,11.42-.44,17.12-.68,3.21-.14,3.22-5.14,0-5-44.33,1.9-88.7,2.76-133.07,2.54-44.37-.21-88.73-1.49-133.04-3.82-44.31-2.33-88.56-5.72-132.7-10.17s-88.5-9.98-132.53-16.57c-10.62-1.59-21.28-3.06-31.85-4.98-8.27-1.5-17.51-4.75-17.7-14.66-.18-9.19,5.79-17.87,10.99-24.97,5.49-7.49,12.02-14.25,19.23-20.09,3.65-2.96,7.53-5.63,11.53-8.09,2.74-1.68,.23-6.01-2.52-4.32h0Z"/>
  <path class="cls-12" d="M1163.78,774.73c26.27,5.44,52.53,10.87,78.8,16.31,3.26,.68,6.53,1.35,9.79,2.03,2.99,.62,6.04,1.1,8.98,1.91,1.42,.39,3.62,1.12,3.9,2.56,.14,.71-.13,1.24-.62,1.85-.66,.82-1.56,1.41-2.45,1.93-2.39,1.39-5.1,2.23-7.66,3.22-3.02,1.17-6.05,2.32-9.08,3.46-6.14,2.31-12.3,4.57-18.49,6.76-13.82,4.91-27.73,9.54-41.74,13.89-3.06,.95-1.76,5.78,1.33,4.82,13.08-4.06,26.08-8.36,38.99-12.91,6.49-2.29,12.97-4.64,19.42-7.05,3.19-1.19,6.37-2.4,9.54-3.62,2.99-1.15,6.08-2.18,8.97-3.58,2.26-1.1,4.57-2.68,5.85-4.9,1.34-2.32,1.28-5.25-.31-7.44s-4.12-3.25-6.64-3.9c-3.17-.82-6.43-1.36-9.63-2.02-13.7-2.84-27.41-5.67-41.11-8.51-15.5-3.21-31-6.42-46.49-9.63-1.32-.27-2.7,.39-3.08,1.75-.34,1.24,.42,2.8,1.75,3.08h0Z"/>
  <g>
    <g>
      <path class="cls-3" d="M903.92,681h-12.77l-2.26,5.86h-11.52l14.69-33.6h11.14l14.69,33.6h-11.71l-2.26-5.86Zm-3.12-8.16l-3.26-8.45-3.26,8.45h6.53Z"/>
      <path class="cls-9" d="M918.7,671.74v-18.48h11.33v18.15c0,5.14,1.97,7.06,5.14,7.06s5.14-1.92,5.14-7.06v-18.15h11.14v18.48c0,10.08-6.05,15.89-16.37,15.89s-16.37-5.81-16.37-15.89Z"/>
      <path class="cls-8" d="M956.62,653.25h16.56c11.23,0,18.96,6.38,18.96,16.8s-7.73,16.8-18.96,16.8h-16.56v-33.6Zm16.08,24.77c4.75,0,8.02-2.83,8.02-7.97s-3.26-7.97-8.02-7.97h-4.75v15.94h4.75Z"/>
      <path class="cls-11" d="M996.27,653.25h11.33v33.6h-11.33v-33.6Z"/>
      <path class="cls-13" d="M1020.36,662.04h-9.84v-8.79h31.01v8.79h-9.84v24.82h-11.33v-24.82Z"/>
    </g>
    <g>
      <path class="cls-1" d="M903.92,681h-12.77l-2.26,5.86h-11.52l14.69-33.6h11.14l14.69,33.6h-11.71l-2.26-5.86Zm-3.12-8.16l-3.26-8.45-3.26,8.45h6.53Z"/>
      <path class="cls-1" d="M918.7,671.74v-18.48h11.33v18.15c0,5.14,1.97,7.06,5.14,7.06s5.14-1.92,5.14-7.06v-18.15h11.14v18.48c0,10.08-6.05,15.89-16.37,15.89s-16.37-5.81-16.37-15.89Z"/>
      <path class="cls-1" d="M956.62,653.25h16.56c11.23,0,18.96,6.38,18.96,16.8s-7.73,16.8-18.96,16.8h-16.56v-33.6Zm16.08,24.77c4.75,0,8.02-2.83,8.02-7.97s-3.26-7.97-8.02-7.97h-4.75v15.94h4.75Z"/>
      <path class="cls-1" d="M996.27,653.25h11.33v33.6h-11.33v-33.6Z"/>
      <path class="cls-1" d="M1020.36,662.04h-9.84v-8.79h31.01v8.79h-9.84v24.82h-11.33v-24.82Z"/>
    </g>
  </g>
</svg>