<?xml version="1.0" encoding="UTF-8"?>
<svg id="Frame_22" data-name="Frame 22" xmlns="http://www.w3.org/2000/svg" xmlns:xlink="http://www.w3.org/1999/xlink" viewBox="0 0 1920 1080">
  <defs>
    <style>
      .cls-1 {
        fill: #fff;
      }

      .cls-2 {
        fill: url(#Dégradé_sans_nom_18);
      }
    </style>
    <linearGradient id="Dégradé_sans_nom_18" data-name="Dégradé sans nom 18" x1="1.94" y1="1.34" x2="1922.24" y2="1080.82" gradientUnits="userSpaceOnUse">
      <stop offset="0" stop-color="#16163c"/>
      <stop offset="1" stop-color="#fd0988"/>
    </linearGradient>
  </defs>
  <rect class="cls-2" y="-.09" width="1920" height="1080"/>
  <g>
    <path class="cls-1" d="M801.27,495.66c-1.19,14.66-16.09,22.17-33.43,22.17s-31.28-7.68-32.58-22.17h-27.16c1.25,34.26,31.18,45.96,59.73,45.96,11.38,0,27.1-5.38,33.51-15.31v20.89c0,15.72-16.55,24.61-32.89,24.41-15.51,0-32.47-6.41-32.47-19.24h-27.3c0,30.41,28.75,42.82,60.19,42.82,29.79,0,59.57-15.1,59.57-47.37v-52.16h-27.17Z"/>
    <path class="cls-1" d="M1211.9,490.06c0,3.04-2,5.61-5.56,5.61s-5.55-2.57-5.55-5.61,2-5.61,5.55-5.61,5.56,2.57,5.56,5.61Zm-5.56,4.15c2.5,0,3.92-1.83,3.92-4.15s-1.41-4.15-3.92-4.15-3.9,1.83-3.92,4.15c.02,2.32,1.43,4.15,3.92,4.15Zm1.34-3.38c2.04-.46,1.63-3.59-.86-3.59h-2.69v5.64h1.49v-1.75h.52l1.34,1.75h1.6v-.32l-1.4-1.72h0Zm-.86-2.27c.88,0,.88,1.29,0,1.29h-1.2v-1.29h1.2Z"/>
    <path class="cls-1" d="M943.49,495.66h18.9v99.75h-11.74v.14l-52.7-67.3v67.16h-18.9v-99.6h15.32l49.12,61.75v-61.9Z"/>
    <path class="cls-1" d="M979.84,595.41v-99.6h18.76v99.6h-18.76Z"/>
    <path class="cls-1" d="M1082.24,495.66h18.9v99.75h-11.74v.14l-52.7-67.3v67.16h-18.9v-99.6h15.32l49.12,61.75v-61.9Z"/>
    <path class="cls-1" d="M1193.21,595.41h-75.04v-99.6h75.04v18.21h-56.28v22.91h54.27v17.5h-54.27v22.48h56.28v18.5Z"/>
    <rect class="cls-1" x="850.16" y="495.66" width="3.11" height="99.53"/>
  </g>
</svg>