<?xml version="1.0" encoding="UTF-8"?>
<svg id="Frame_22" data-name="Frame 22" xmlns="http://www.w3.org/2000/svg" xmlns:xlink="http://www.w3.org/1999/xlink" viewBox="0 0 1920 1080">
  <defs>
    <style>
      .cls-1 {
        fill: #fff;
      }

      .cls-2 {
        fill: url(#Dégradé_sans_nom_18);
      }

      .cls-3 {
        fill: #fd0988;
      }
    </style>
    <linearGradient id="Dégradé_sans_nom_18" data-name="Dégradé sans nom 18" x1="0" y1="539.91" x2="1920" y2="539.91" gradientUnits="userSpaceOnUse">
      <stop offset="0" stop-color="#16163c"/>
      <stop offset="1" stop-color="#fd0988"/>
    </linearGradient>
  </defs>
  <rect class="cls-2" x="0" y="-.09" width="1920" height="1080"/>
  <circle class="cls-3" cx="398.15" cy="540" r="27.62"/>
  <path class="cls-1" d="M636.44,495.02h16.56c11.23,0,18.96,6.38,18.96,16.8s-7.73,16.8-18.96,16.8h-16.56v-33.6Zm16.08,24.77c4.75,0,8.02-2.83,8.02-7.97s-3.26-7.97-8.02-7.97h-4.75v15.94h4.75Z"/>
  <path class="cls-1" d="M704.02,520.08v8.54h-27.94v-33.6h27.31v8.54h-16.18v3.94h14.21v8.16h-14.21v4.42h16.8Z"/>
  <path class="cls-1" d="M743.82,495.02l-14.21,33.6h-11.14l-14.21-33.6h12.19l8.02,19.63,8.21-19.63h11.14Z"/>
  <path class="cls-1" d="M772.85,520.08v8.54h-27.94v-33.6h27.31v8.54h-16.18v3.94h14.21v8.16h-14.21v4.42h16.8Z"/>
  <path class="cls-1" d="M810.34,495.02v33.6h-9.31l-12.77-15.27v15.27h-11.04v-33.6h9.31l12.77,15.27v-15.27h11.04Z"/>
  <path class="cls-1" d="M843.75,520.08v8.54h-27.94v-33.6h27.31v8.54h-16.18v3.94h14.21v8.16h-14.21v4.42h16.8Z"/>
  <path class="cls-1" d="M877.78,519.84v8.79h-30.87v-6.96l15.36-17.86h-14.88v-8.79h29.62v6.96l-15.36,17.86h16.13Z"/>
  <path class="cls-1" d="M894.15,511.82c0-10.32,7.92-17.57,18.72-17.57,6.58,0,11.76,2.4,15.07,6.72l-7.15,6.38c-1.97-2.5-4.32-3.94-7.34-3.94-4.7,0-7.87,3.26-7.87,8.4s3.17,8.4,7.87,8.4c3.02,0,5.38-1.44,7.34-3.94l7.15,6.38c-3.31,4.32-8.5,6.72-15.07,6.72-10.8,0-18.72-7.25-18.72-17.57Z"/>
  <path class="cls-1" d="M959.14,520.08v8.54h-27.94v-33.6h27.31v8.54h-16.18v3.94h14.21v8.16h-14.21v4.42h16.8Z"/>
  <path class="cls-1" d="M977.9,495.02h16.56c11.23,0,18.96,6.38,18.96,16.8s-7.73,16.8-18.96,16.8h-16.56v-33.6Zm16.08,24.77c4.75,0,8.02-2.83,8.02-7.97s-3.26-7.97-8.02-7.97h-4.75v15.94h4.75Z"/>
  <path class="cls-1" d="M1016.21,511.82c0-10.18,8.02-17.57,18.96-17.57s18.96,7.39,18.96,17.57-8.02,17.57-18.96,17.57-18.96-7.39-18.96-17.57Zm26.5,0c0-5.23-3.36-8.4-7.54-8.4s-7.54,3.17-7.54,8.4,3.36,8.4,7.54,8.4,7.54-3.17,7.54-8.4Z"/>
  <path class="cls-1" d="M1091.38,495.02v33.6h-9.31l-12.77-15.27v15.27h-11.04v-33.6h9.31l12.77,15.27v-15.27h11.04Z"/>
  <path class="cls-1" d="M1104.14,503.81h-9.84v-8.79h31.01v8.79h-9.84v24.82h-11.33v-24.82Z"/>
  <path class="cls-1" d="M1178.54,495.02l-14.21,33.6h-11.14l-14.21-33.6h12.19l8.02,19.63,8.21-19.63h11.14Z"/>
  <path class="cls-1" d="M1177.82,511.82c0-10.18,8.02-17.57,18.96-17.57s18.96,7.39,18.96,17.57-8.02,17.57-18.96,17.57-18.96-7.39-18.96-17.57Zm26.5,0c0-5.23-3.36-8.4-7.54-8.4s-7.54,3.17-7.54,8.4,3.36,8.4,7.54,8.4,7.54-3.17,7.54-8.4Z"/>
  <path class="cls-1" d="M1219.58,513.5v-18.48h11.33v18.15c0,5.14,1.97,7.06,5.14,7.06s5.14-1.92,5.14-7.06v-18.15h11.14v18.48c0,10.08-6.05,15.89-16.37,15.89s-16.37-5.81-16.37-15.89Z"/>
  <path class="cls-1" d="M1255.39,525.94l3.65-8.26c3.17,1.87,7.39,3.07,11.09,3.07,3.22,0,4.37-.67,4.37-1.82,0-4.22-18.58-.82-18.58-13.34,0-6.24,5.23-11.33,15.65-11.33,4.51,0,9.17,.96,12.67,2.93l-3.41,8.21c-3.31-1.68-6.43-2.5-9.36-2.5-3.31,0-4.37,.96-4.37,2.11,0,4.03,18.58,.67,18.58,13.06,0,6.14-5.23,11.33-15.65,11.33-5.62,0-11.28-1.39-14.64-3.46Z"/>
  <path class="cls-1" d="M592.21,580.37h-12.77l-2.26,5.86h-11.52l14.69-33.6h11.14l14.69,33.6h-11.71l-2.26-5.86Zm-3.12-8.16l-3.26-8.45-3.26,8.45h6.53Z"/>
  <path class="cls-1" d="M641.98,552.62l-14.21,33.6h-11.14l-14.21-33.6h12.19l8.02,19.63,8.21-19.63h11.14Z"/>
  <path class="cls-1" d="M671.02,577.68v8.54h-27.94v-33.6h27.31v8.54h-16.18v3.94h14.21v8.16h-14.21v4.42h16.8Z"/>
  <path class="cls-1" d="M705.05,577.44v8.78h-30.87v-6.96l15.36-17.86h-14.88v-8.78h29.62v6.96l-15.36,17.86h16.13Z"/>
  <path class="cls-1" d="M730.06,561.41h-9.84v-8.78h31.01v8.78h-9.84v24.82h-11.33v-24.82Z"/>
  <path class="cls-1" d="M752.33,569.42c0-10.18,8.02-17.57,18.96-17.57s18.96,7.39,18.96,17.57-8.02,17.57-18.96,17.57-18.96-7.39-18.96-17.57Zm26.5,0c0-5.23-3.36-8.4-7.54-8.4s-7.54,3.17-7.54,8.4,3.36,8.4,7.54,8.4,7.54-3.17,7.54-8.4Z"/>
  <path class="cls-1" d="M794.09,571.1v-18.48h11.33v18.15c0,5.14,1.97,7.06,5.14,7.06s5.14-1.92,5.14-7.06v-18.15h11.14v18.48c0,10.08-6.05,15.89-16.37,15.89s-16.37-5.81-16.37-15.89Z"/>
  <path class="cls-1" d="M828.12,582l6.1-7.2c1.78,2.21,3.46,3.31,5.33,3.31,2.35,0,3.65-1.44,3.65-4.18v-12.77h-11.43v-8.54h22.61v20.64c0,9.22-4.85,13.73-13.87,13.73-5.23,0-9.6-1.73-12.38-4.99Z"/>
  <path class="cls-1" d="M858.22,569.42c0-10.18,8.02-17.57,18.96-17.57s18.96,7.39,18.96,17.57-8.02,17.57-18.96,17.57-18.96-7.39-18.96-17.57Zm26.5,0c0-5.23-3.36-8.4-7.54-8.4s-7.54,3.17-7.54,8.4,3.36,8.4,7.54,8.4,7.54-3.17,7.54-8.4Z"/>
  <path class="cls-1" d="M899.98,571.1v-18.48h11.33v18.15c0,5.14,1.97,7.06,5.14,7.06s5.14-1.92,5.14-7.06v-18.15h11.14v18.48c0,10.08-6.05,15.89-16.37,15.89s-16.37-5.81-16.37-15.89Z"/>
  <path class="cls-1" d="M952.3,577.78h-3.07v8.45h-11.33v-33.6h16.18c9.36,0,15.31,4.9,15.31,12.67,0,4.85-2.3,8.5-6.34,10.56l7.06,10.37h-12.1l-5.71-8.45Zm1.06-16.42h-4.13v7.87h4.13c3.12,0,4.61-1.49,4.61-3.94s-1.49-3.94-4.61-3.94Z"/>
  <path class="cls-1" d="M971.55,583.54l3.65-8.26c3.17,1.87,7.39,3.07,11.09,3.07,3.22,0,4.37-.67,4.37-1.82,0-4.22-18.58-.82-18.58-13.34,0-6.24,5.23-11.33,15.65-11.33,4.51,0,9.17,.96,12.67,2.93l-3.41,8.21c-3.31-1.68-6.43-2.5-9.36-2.5-3.31,0-4.37,.96-4.37,2.11,0,4.03,18.58,.67,18.58,13.06,0,6.14-5.23,11.33-15.65,11.33-5.62,0-11.28-1.39-14.64-3.46Z"/>
  <path class="cls-1" d="M1033.99,577.78h-3.07v8.45h-11.33v-33.6h16.18c9.36,0,15.31,4.9,15.31,12.67,0,4.85-2.3,8.5-6.34,10.56l7.06,10.37h-12.1l-5.71-8.45Zm1.06-16.42h-4.13v7.87h4.13c3.12,0,4.61-1.49,4.61-3.94s-1.49-3.94-4.61-3.94Z"/>
  <path class="cls-1" d="M1083.29,577.68v8.54h-27.94v-33.6h27.31v8.54h-16.18v3.94h14.21v8.16h-14.21v4.42h16.8Zm-18.29-27.79h-6.72l6.14-7.68h9.22l6.14,7.68h-6.72l-4.03-3.7-4.03,3.7Z"/>
  <path class="cls-1" d="M1123.08,552.62l-14.21,33.6h-11.14l-14.21-33.6h12.19l8.02,19.63,8.21-19.63h11.14Z"/>
  <path class="cls-1" d="M1152.12,577.68v8.54h-27.94v-33.6h27.31v8.54h-16.18v3.94h14.21v8.16h-14.21v4.42h16.8Zm-12.1-27.79h-7.2l6.34-7.68h10.32l-9.46,7.68Z"/>
  <path class="cls-1" d="M1170.89,552.62h16.56c11.23,0,18.96,6.38,18.96,16.8s-7.73,16.8-18.96,16.8h-16.56v-33.6Zm16.08,24.77c4.75,0,8.02-2.83,8.02-7.97s-3.26-7.97-8.02-7.97h-4.75v15.94h4.75Z"/>
  <path class="cls-1" d="M1220.71,556.27c0,1.54-.19,2.69-1.87,6.29l-3.36,7.15h-6.72l2.4-8.11c-1.92-.91-3.12-2.79-3.12-5.33,0-3.74,2.69-6.14,6.34-6.14s6.34,2.4,6.34,6.14Z"/>
  <path class="cls-1" d="M1252.34,577.68v8.54h-27.94v-33.6h27.31v8.54h-16.18v3.94h14.21v8.16h-14.21v4.42h16.8Zm-18.29-27.79h-6.72l6.14-7.68h9.22l6.14,7.68h-6.72l-4.03-3.7-4.03,3.7Z"/>
  <path class="cls-1" d="M1264.01,561.41h-9.84v-8.78h31.01v8.78h-9.84v24.82h-11.33v-24.82Z"/>
  <path class="cls-1" d="M1302.5,577.78h-3.07v8.45h-11.33v-33.6h16.18c9.36,0,15.31,4.9,15.31,12.67,0,4.85-2.3,8.5-6.34,10.56l7.06,10.37h-12.1l-5.71-8.45Zm1.06-16.42h-4.13v7.87h4.13c3.12,0,4.61-1.49,4.61-3.94s-1.49-3.94-4.61-3.94Z"/>
  <path class="cls-1" d="M1351.8,577.68v8.54h-27.94v-33.6h27.31v8.54h-16.18v3.94h14.21v8.16h-14.21v4.42h16.8Z"/>
</svg>