<?xml version="1.0" encoding="UTF-8"?>
<svg id="Frame_5" data-name="Frame 5" xmlns="http://www.w3.org/2000/svg" xmlns:xlink="http://www.w3.org/1999/xlink" viewBox="0 0 1920 1080">
  <defs>
    <style>
      .cls-1, .cls-2 {
        fill: #fff;
      }

      .cls-2 {
        font-family: MyriadPro-Regular, 'Myriad Pro';
        font-size: 14.41px;
      }

      .cls-3 {
        fill: #111;
        stroke: #1d1d1b;
        stroke-miterlimit: 10;
      }

      .cls-4 {
        clip-path: url(#clippath-1);
      }

      .cls-5 {
        clip-path: url(#clippath);
      }

      .cls-6 {
        fill: none;
      }

      .cls-7 {
        fill: #fd0988;
      }

      .cls-8 {
        fill: red;
      }
    </style>
    <clipPath id="clippath">
      <rect class="cls-6" x="708.1" y="484.45" width="503.79" height="111.1"/>
    </clipPath>
    <clipPath id="clippath-1">
      <rect class="cls-6" x="708.1" y="484.45" width="503.79" height="111.1"/>
    </clipPath>
  </defs>
  <rect class="cls-3" width="1920" height="1080"/>
  <circle class="cls-7" cx="1330.12" cy="495.55" r="23.33"/>
  <g class="cls-5">
    <g class="cls-4">
      <path class="cls-1" d="M801.27,495.66c-1.19,14.66-16.09,22.17-33.43,22.17s-31.28-7.68-32.58-22.17h-27.16c1.25,34.26,31.18,45.96,59.73,45.96,11.38,0,27.1-5.38,33.51-15.31v20.89c0,15.72-16.55,24.61-32.89,24.41-15.51,0-32.47-6.41-32.47-19.24h-27.3c0,30.41,28.75,42.82,60.19,42.82,29.79,0,59.57-15.1,59.57-47.37v-52.16h-27.17Z"/>
      <path class="cls-1" d="M1211.89,490.06c0,3.04-2,5.61-5.56,5.61s-5.55-2.57-5.55-5.61,2-5.61,5.55-5.61,5.56,2.57,5.56,5.61m-5.56,4.15c2.5,0,3.92-1.83,3.92-4.15s-1.41-4.15-3.92-4.15-3.9,1.83-3.92,4.15c.02,2.32,1.43,4.15,3.92,4.15m1.34-3.38c2.04-.46,1.63-3.59-.86-3.59h-2.69v5.64h1.49v-1.75h.52l1.34,1.75h1.6v-.32l-1.4-1.72h0Zm-.86-2.27c.88,0,.88,1.29,0,1.29h-1.2v-1.29h1.2Z"/>
      <polygon class="cls-1" points="943.49 495.66 962.38 495.66 962.38 595.41 950.64 595.41 950.64 595.55 897.94 528.25 897.94 595.41 879.04 595.41 879.04 495.81 894.36 495.81 943.49 557.56 943.49 495.66"/>
      <rect class="cls-1" x="979.84" y="495.81" width="18.76" height="99.6"/>
      <polygon class="cls-1" points="1082.24 495.66 1101.13 495.66 1101.13 595.41 1089.39 595.41 1089.39 595.55 1036.69 528.25 1036.69 595.41 1017.79 595.41 1017.79 495.81 1033.11 495.81 1082.24 557.56 1082.24 495.66"/>
      <polygon class="cls-1" points="1193.21 595.41 1118.16 595.41 1118.16 495.81 1193.21 495.81 1193.21 514.02 1136.93 514.02 1136.93 536.93 1191.19 536.93 1191.19 554.43 1136.93 554.43 1136.93 576.91 1193.21 576.91 1193.21 595.41"/>
      <rect class="cls-1" x="850.16" y="495.66" width="3.11" height="99.53"/>
    </g>
  </g>
  <path class="cls-8" d="M1297.54,456.02c-13.87-36.73-49.17-58.42-83.07-74.38-43.11-20.29-88.3-37.15-135.5-44.66s-98.88-7.14-148.35-5.82c-45.07,1.2-92.56,3.61-133.46,24.65-32.89,16.92-62.04,47.77-68.12,85.33-.74,4.56-1.14,9.15-1.21,13.77-.04,3.22,4.96,3.22,5,0,.51-37.83,26.2-70.31,57.34-89.42,37.8-23.2,83.86-27.35,127.18-28.92,47.65-1.72,95.81-2.75,143.25,2.87,23.65,2.8,47,7.59,69.79,14.52,22.84,6.95,45.08,15.74,66.91,25.36,33.46,14.74,70.54,32.56,89.52,65.56,2.3,3.99,4.27,8.15,5.89,12.46,1.13,2.98,5.96,1.69,4.82-1.33h0Z"/>
  <path class="cls-8" d="M710.78,451.68c1.6,7.33,9.08,11.35,16.14,11.43,8.32,.09,15.04-5.49,18.79-12.57,2.25-4.24,3.59-8.91,4.31-13.64,.2-1.33-.34-2.69-1.75-3.08-1.18-.32-2.87,.4-3.08,1.75-1.05,6.91-3.39,14.14-8.77,18.92-4.34,3.85-10.56,4.75-15.57,2.24-2.76-1.38-4.61-3.41-5.26-6.37-.69-3.14-5.51-1.81-4.82,1.33h0Z"/>
  <path class="cls-8" d="M919.67,631.3c-.74-5.15-.94-10.56-.68-15.83,.06-1.31-1.2-2.56-2.5-2.5-1.41,.06-2.43,1.1-2.5,2.5-.28,5.74,.05,11.47,.86,17.16,.19,1.34,1.89,2.07,3.08,1.75,1.44-.39,1.94-1.73,1.75-3.08h0Z"/>
  <path class="cls-8" d="M908.19,621.63c1.42-1.54,2.84-3.08,4.27-4.62,.67-.72,1.31-1.51,2.09-2.11-.18,.14,.13-.09,.16-.1,.19-.12,.38-.24,.58-.33,.16-.08,.16-.08,0,0l.24-.07c-.44-.05,.24,.11-.03,0-.25-.1-.11-.09-.1-.02,.02,.1,.06-.01,.21,.2-.17-.24,.14,.19,.18,.26,.14,.21,.27,.41,.4,.62,.56,.88,1.12,1.76,1.68,2.65,1.15,1.81,2.29,3.62,3.44,5.43,.72,1.14,2.23,1.6,3.42,.9s1.62-2.28,.9-3.42c-1.35-2.14-2.71-4.27-4.06-6.41s-2.62-4.75-5.41-5.14c-2.52-.35-4.71,1.28-6.34,3.02-1.74,1.85-3.44,3.73-5.16,5.6-.92,.99-.98,2.55,0,3.54,.93,.93,2.62,1,3.54,0h0Z"/>
  <path class="cls-8" d="M992.55,631.3c-.74-5.15-.94-10.56-.68-15.83,.06-1.31-1.2-2.56-2.5-2.5-1.41,.06-2.43,1.1-2.5,2.5-.28,5.74,.05,11.47,.86,17.16,.19,1.34,1.89,2.07,3.08,1.75,1.44-.39,1.94-1.73,1.75-3.08h0Z"/>
  <path class="cls-8" d="M981.07,621.63c1.42-1.54,2.84-3.08,4.27-4.62,.67-.72,1.31-1.51,2.09-2.11-.18,.14,.13-.09,.16-.1,.19-.12,.38-.24,.58-.33,.16-.08,.16-.08,0,0l.24-.07c-.44-.05,.24,.11-.03,0-.25-.1-.11-.09-.1-.02,.02,.1,.06-.01,.21,.2-.17-.24,.14,.19,.18,.26,.14,.21,.27,.41,.4,.62,.56,.88,1.12,1.76,1.68,2.65,1.15,1.81,2.29,3.62,3.44,5.43,.72,1.14,2.23,1.6,3.42,.9s1.62-2.28,.9-3.42c-1.35-2.14-2.71-4.27-4.06-6.41-1.36-2.14-2.62-4.75-5.41-5.14-2.52-.35-4.71,1.28-6.34,3.02-1.74,1.85-3.44,3.73-5.16,5.6-.92,.99-.98,2.55,0,3.54,.93,.93,2.62,1,3.54,0h0Z"/>
  <path class="cls-8" d="M1067.52,631.3c-.74-5.15-.94-10.56-.68-15.83,.06-1.31-1.2-2.56-2.5-2.5-1.41,.06-2.43,1.1-2.5,2.5-.28,5.74,.05,11.47,.86,17.16,.19,1.34,1.89,2.07,3.08,1.75,1.44-.39,1.94-1.73,1.75-3.08h0Z"/>
  <path class="cls-8" d="M1056.04,621.63c1.42-1.54,2.84-3.08,4.27-4.62,.67-.72,1.31-1.51,2.09-2.11-.18,.14,.13-.09,.16-.1,.19-.12,.38-.24,.58-.33,.16-.08,.16-.08,0,0l.24-.07c-.44-.05,.24,.11-.03,0-.25-.1-.11-.09-.1-.02,.02,.1,.06-.01,.21,.2-.17-.24,.14,.19,.18,.26,.14,.21,.27,.41,.4,.62,.56,.88,1.12,1.76,1.68,2.65,1.15,1.81,2.29,3.62,3.44,5.43,.72,1.14,2.23,1.6,3.42,.9s1.62-2.28,.9-3.42c-1.35-2.14-2.71-4.27-4.06-6.41s-2.62-4.75-5.41-5.14c-2.52-.35-4.71,1.28-6.34,3.02-1.74,1.85-3.44,3.73-5.16,5.6-.92,.99-.98,2.55,0,3.54,.93,.93,2.62,1,3.54,0h0Z"/>
  <path class="cls-8" d="M1155.57,631.3c-.74-5.15-.94-10.56-.68-15.83,.06-1.31-1.2-2.56-2.5-2.5-1.41,.06-2.43,1.1-2.5,2.5-.28,5.74,.05,11.47,.86,17.16,.19,1.34,1.89,2.07,3.08,1.75,1.44-.39,1.94-1.73,1.75-3.08h0Z"/>
  <path class="cls-8" d="M1144.09,621.63c1.42-1.54,2.84-3.08,4.27-4.62,.67-.72,1.31-1.51,2.09-2.11-.18,.14,.13-.09,.16-.1,.19-.12,.38-.24,.58-.33,.16-.08,.16-.08,0,0l.24-.07c-.44-.05,.24,.11-.03,0-.25-.1-.11-.09-.1-.02,.02,.1,.06-.01,.21,.2-.17-.24,.14,.19,.18,.26,.14,.21,.27,.41,.4,.62,.56,.88,1.12,1.76,1.68,2.65,1.15,1.81,2.29,3.62,3.44,5.43,.72,1.14,2.23,1.6,3.42,.9s1.62-2.28,.9-3.42c-1.35-2.14-2.71-4.27-4.06-6.41-1.36-2.14-2.62-4.75-5.41-5.14-2.52-.35-4.71,1.28-6.34,3.02-1.74,1.85-3.44,3.73-5.16,5.6-.92,.99-.98,2.55,0,3.54,.93,.93,2.62,1,3.54,0h0Z"/>
  <path class="cls-8" d="M720.22,506.06c8.43,11.36,20.5,19.94,34.23,23.6,13.64,3.64,28.28,1.91,40.71-4.77,6.99-3.75,13.03-9.05,17.67-15.48-1.52-.2-3.05-.4-4.57-.6,5.33,17.89,3.71,37.76-4.67,54.48-2.06,4.11-4.43,8.19-7.7,11.46s-7.46,5.14-11.9,6.39c-4.94,1.39-10.03,2.42-15.08,3.35-5.27,.97-10.63,1.58-15.99,1.21-8.96-.62-18.33-4.8-22.41-13.22-.59-1.21-2.32-1.54-3.42-.9-1.24,.73-1.49,2.2-.9,3.42,4.01,8.27,12.71,13.36,21.51,15.03,11.21,2.13,22.73-.56,33.65-3.08,4.96-1.14,10.04-2.6,14.27-5.53,4.16-2.88,7.31-6.89,9.88-11.21,5.17-8.7,8.55-18.54,9.97-28.55,1.63-11.43,.91-23.11-2.39-34.2-.65-2.19-3.34-2.3-4.57-.6-7.42,10.31-19.21,16.93-31.63,19.04-12.61,2.14-25.62-1.05-36.39-7.75-6.15-3.83-11.63-8.82-15.95-14.64-.8-1.08-2.16-1.63-3.42-.9-1.07,.62-1.71,2.33-.9,3.42h0Z"/>
  <path class="cls-8" d="M723.72,577.06c1.05-1.45,1.82-3.16,2.23-4.9,.23-.97,.37-1.97,.41-2.97,.01-.37,.01-.74,0-1.11-.01-.2-.03-.39-.04-.59s.08-.67-.06-.07l.04-.17c-.1,.41-.33,.69-.7,.84-.23,.13-.91,.25-.31,.21,.29-.02-.43-.11,.02,.01,.24,.06,.48,.11,.72,.16,.88,.21,1.76,.45,2.63,.71s1.72,.56,2.57,.88c.23,.09,.46,.18,.69,.27,0,0,.72,.3,.32,.13,.45,.2,.9,.4,1.35,.61,1.18,.56,2.75,.37,3.42-.9,.59-1.11,.37-2.83-.9-3.42-2.02-.95-4.11-1.78-6.24-2.44-.99-.3-1.98-.57-2.99-.79-1.3-.29-2.67-.43-3.86,.31-2.28,1.42-1.5,4.01-1.74,6.21,.06-.56-.02,.09-.04,.21-.05,.25-.11,.51-.17,.76-.12,.47-.27,.92-.44,1.37-.25,.67,.22-.42-.1,.22-.1,.2-.2,.4-.3,.59-.25,.46-.53,.89-.83,1.31-.77,1.06-.22,2.83,.9,3.42,1.29,.68,2.6,.24,3.42-.9h0Z"/>
  <text class="cls-2" transform="translate(691.6 510.36) scale(.97 1)"><tspan x="0" y="0">1</tspan></text>
  <text class="cls-2" transform="translate(923.47 647.43) scale(.97 1)"><tspan x="0" y="0">2</tspan></text>
  <text class="cls-2" transform="translate(995.16 647.43) scale(.97 1)"><tspan x="0" y="0">3</tspan></text>
  <text class="cls-2" transform="translate(1069.91 647.43) scale(.97 1)"><tspan x="0" y="0">4</tspan></text>
  <text class="cls-2" transform="translate(1156.46 647.43) scale(.97 1)"><tspan x="0" y="0">5</tspan></text>
  <path class="cls-1" d="M801.27,495.66c-1.19,14.66-16.09,22.17-33.43,22.17s-31.28-7.68-32.58-22.17h-27.16c1.25,34.26,31.18,45.96,59.73,45.96,11.38,0,27.1-5.38,33.51-15.31v20.89c0,15.72-16.55,24.61-32.89,24.41-15.51,0-32.47-6.41-32.47-19.24h-27.3c0,30.41,28.75,42.82,60.19,42.82,29.79,0,59.57-15.1,59.57-47.37v-52.16h-27.17Z"/>
  <path class="cls-1" d="M1211.9,490.06c0,3.04-2,5.61-5.56,5.61s-5.55-2.57-5.55-5.61,2-5.61,5.55-5.61,5.56,2.57,5.56,5.61Zm-5.56,4.15c2.5,0,3.92-1.83,3.92-4.15s-1.41-4.15-3.92-4.15-3.9,1.83-3.92,4.15c.02,2.32,1.43,4.15,3.92,4.15Zm1.34-3.38c2.04-.46,1.63-3.59-.86-3.59h-2.69v5.64h1.49v-1.75h.52l1.34,1.75h1.6v-.32l-1.4-1.72h0Zm-.86-2.27c.88,0,.88,1.29,0,1.29h-1.2v-1.29h1.2Z"/>
  <path class="cls-1" d="M943.49,495.66h18.9v99.75h-11.74v.14l-52.7-67.3v67.16h-18.9v-99.6h15.32l49.12,61.75v-61.9Z"/>
  <path class="cls-1" d="M979.84,595.41v-99.6h18.76v99.6h-18.76Z"/>
  <path class="cls-1" d="M1082.24,495.66h18.9v99.75h-11.74v.14l-52.7-67.3v67.16h-18.9v-99.6h15.32l49.12,61.75v-61.9Z"/>
  <path class="cls-1" d="M1193.21,595.41h-75.04v-99.6h75.04v18.21h-56.28v22.91h54.27v17.5h-54.27v22.48h56.28v18.5Z"/>
  <rect class="cls-1" x="850.16" y="495.66" width="3.11" height="99.53"/>
</svg>