<?xml version="1.0" encoding="UTF-8"?>
<svg id="Frame_6" data-name="Frame 6" xmlns="http://www.w3.org/2000/svg" xmlns:xlink="http://www.w3.org/1999/xlink" viewBox="0 0 1920 1080">
  <defs>
    <style>
      .cls-1, .cls-2 {
        fill: #7237bd;
      }

      .cls-3 {
        fill: #6262c5;
      }

      .cls-3, .cls-2, .cls-4 {
        opacity: .25;
      }

      .cls-5 {
        fill: #111;
      }

      .cls-6 {
        stroke: #fff;
        stroke-width: 2px;
      }

      .cls-6, .cls-7, .cls-4 {
        stroke-miterlimit: 10;
      }

      .cls-6, .cls-4 {
        fill: none;
      }

      .cls-8 {
        fill: #16163c;
      }

      .cls-7 {
        fill: url(#Dégradé_sans_nom_3);
        stroke: #1d1d1b;
      }

      .cls-9 {
        fill: #fd0988;
      }

      .cls-4 {
        stroke: #6262c5;
        stroke-width: 4px;
      }

      .cls-10 {
        fill: #191c26;
      }

      .cls-11 {
        fill: red;
      }
    </style>
    <linearGradient id="Dégradé_sans_nom_3" data-name="Dégradé sans nom 3" x1="-2.06" y1="1076.31" x2="1918.46" y2="5.7" gradientUnits="userSpaceOnUse">
      <stop offset="0" stop-color="#191c26"/>
      <stop offset="1" stop-color="#16163c"/>
    </linearGradient>
  </defs>
  <rect class="cls-7" x="0" width="1920" height="1080"/>
  <path class="cls-1" d="M1213.72,161.48v11.55h25.35c8.97,0,16.24,7.27,16.24,16.24v25.35h11.55v-28.54c0-13.59-11.01-24.6-24.6-24.6h-28.54Z"/>
  <path class="cls-1" d="M706.28,161.48v11.55h-25.35c-8.97,0-16.24,7.27-16.24,16.24v25.35h-11.55v-28.54c0-13.59,11.01-24.6,24.6-24.6h28.54Z"/>
  <path class="cls-1" d="M1213.72,918.52v-11.55h25.35c8.97,0,16.24-7.27,16.24-16.24v-25.35h11.55v28.54c0,13.59-11.01,24.6-24.6,24.6h-28.54Z"/>
  <path class="cls-1" d="M706.28,918.52v-11.55h-25.35c-8.97,0-16.24-7.27-16.24-16.24v-25.35h-11.55v28.54c0,13.59,11.01,24.6,24.6,24.6h28.54Z"/>
  <rect class="cls-8" x="566.91" y="161.48" width="61.04" height="517.61" rx="15" ry="15"/>
  <rect class="cls-2" x="1292.04" y="161.48" width="91.57" height="375.76" rx="15" ry="15"/>
  <rect class="cls-3" x="575.46" y="170.65" width="43.96" height="43.96" rx="10" ry="10"/>
  <path class="cls-1" d="M606.59,197.12c-.92-.1-1.84-.2-2.76-.3-2.09-.23-4.17-.45-6.25-.69-.22-.03-.35,.04-.49,.21-1.87,2.27-3.74,4.53-5.61,6.79-.05,.06-.11,.12-.21,.23,.08-7.18,.16-14.3,.24-21.48,5.07,5.09,10.09,10.14,15.11,15.18,0,.02-.01,.03-.02,.05Z"/>
  <path class="cls-1" d="M588.26,349.36v3.23h3v-1.23c0-.55,.45-1,1-1h2.67c.55,0,1,.45,1,1v11.48c0,.55-.45,1-1,1h-1.34v3h7.67v-3h-1.34c-.55,0-1-.45-1-1v-11.48c0-.55,.45-1,1-1h2.67c.55,0,1,.45,1,1v1.23h3v-3.23c0-1.1-.9-2-2-2h-14.35c-1.1,0-2,.9-2,2Z"/>
  <g>
    <path class="cls-1" d="M587.61,310.54c.15-.51,.31-1.02,.46-1.54,.9-3.15,1.8-6.3,2.7-9.45,.09-.33,.23-.44,.56-.44,1.85-.03,3.55-.61,5.15-1.5,.15-.08,.29-.17,.43-.25,.2-.11,.38-.08,.55,.07,.04,.03,.07,.07,.11,.11,1.54,1.54,3.08,3.08,4.61,4.61,.29,.29,.32,.44,.11,.79-.7,1.17-1.23,2.41-1.49,3.76-.1,.54-.14,1.09-.18,1.64-.03,.4-.11,.52-.48,.63-3.61,1.03-7.22,2.06-10.83,3.09-.3,.09-.5,.04-.62-.14-.14-.2-.1-.42,.12-.63,.5-.47,.99-.94,1.49-1.41,1.33-1.26,2.66-2.51,3.99-3.77,.27-.26,.57-.32,.93-.31,.69,.02,1.2-.4,1.34-1.07,.16-.71-.33-1.43-1.08-1.57-.69-.14-1.42,.37-1.54,1.06-.02,.13-.02,.27-.02,.4,.02,.31-.07,.57-.29,.8-1.72,1.82-3.44,3.65-5.17,5.47-.33,.35-.64,.31-.86-.11,0-.08,0-.15,0-.23Z"/>
    <path class="cls-1" d="M600.77,292.46c.43,.09,.74,.38,1.04,.68,1.65,1.67,3.31,3.32,4.97,4.98,.42,.41,.6,.9,.39,1.46-.08,.21-.21,.41-.37,.57-.54,.57-1.1,1.12-1.66,1.67-.62,.61-1.41,.61-2.02,0-1.75-1.74-3.49-3.49-5.23-5.24-.61-.61-.61-1.41,0-2.02,.55-.55,1.11-1.1,1.65-1.66,.23-.23,.5-.36,.81-.45h.42Z"/>
  </g>
  <polygon class="cls-1" points="597.43 403.98 588.26 419.87 606.61 419.87 597.43 403.98"/>
  <polygon class="cls-1" points="606.93 521.58 587.93 510.61 587.93 532.55 606.93 521.58"/>
  <circle class="cls-1" cx="597.43" cy="247.46" r="9.17"/>
  <rect class="cls-1" x="587.93" y="457.25" width="19" height="19"/>
  <circle class="cls-9" cx="962.13" cy="506.13" r="31.11"/>
  <polygon class="cls-3" points="872.75 342.22 872.75 298.08 866.75 298.08 866.75 342.22 828.61 342.22 822.61 342.22 822.61 348.22 822.61 386.49 784.47 386.49 778.47 386.49 778.47 392.49 778.47 436.63 784.47 436.63 784.47 392.49 822.61 392.49 828.61 392.49 866.75 392.49 866.75 430.75 822.61 430.75 822.61 436.75 872.75 436.75 872.75 436.63 872.75 430.75 872.75 392.49 872.75 386.49 866.75 386.49 828.61 386.49 828.61 348.22 866.75 348.22 872.75 348.22 916.89 348.22 916.89 342.22 872.75 342.22"/>
  <polygon class="cls-3" points="1095.65 387.74 1089.65 387.74 1051.51 387.74 1051.51 349.48 1089.65 349.48 1095.65 349.48 1095.65 343.48 1095.65 305.22 1095.65 299.34 1095.65 299.22 1045.51 299.22 1045.51 305.22 1089.65 305.22 1089.65 343.48 1051.51 343.48 1045.51 343.48 1007.37 343.48 1007.37 299.34 1001.37 299.34 1001.37 343.48 1001.37 349.48 1007.37 349.48 1045.51 349.48 1045.51 387.74 1045.51 393.74 1051.51 393.74 1089.65 393.74 1089.65 437.88 1095.65 437.88 1095.65 393.74 1139.8 393.74 1139.8 387.74 1095.65 387.74"/>
  <polygon class="cls-3" points="873.42 664.04 867.42 664.04 829.28 664.04 829.28 625.78 867.42 625.78 873.42 625.78 873.42 619.78 873.42 581.51 873.42 575.63 873.42 575.51 823.28 575.51 823.28 581.51 867.42 581.51 867.42 619.78 829.28 619.78 823.28 619.78 785.13 619.78 785.13 575.63 779.13 575.63 779.13 619.78 779.13 625.78 785.13 625.78 823.28 625.78 823.28 664.04 823.28 670.04 829.28 670.04 867.42 670.04 867.42 714.18 873.42 714.18 873.42 670.04 917.56 670.04 917.56 664.04 873.42 664.04"/>
  <polygon class="cls-3" points="1101.65 619.66 1101.65 575.51 1095.65 575.51 1095.65 619.66 1057.51 619.66 1051.51 619.66 1051.51 625.66 1051.51 663.92 1013.37 663.92 1007.37 663.92 1007.37 669.92 1007.37 714.06 1013.37 714.06 1013.37 669.92 1051.51 669.92 1057.51 669.92 1095.65 669.92 1095.65 708.18 1051.51 708.18 1051.51 714.18 1101.65 714.18 1101.65 714.06 1101.65 708.18 1101.65 669.92 1101.65 663.92 1095.65 663.92 1057.51 663.92 1057.51 625.66 1095.65 625.66 1101.65 625.66 1145.8 625.66 1145.8 619.66 1101.65 619.66"/>
  <polygon class="cls-1" points="1337.07 178.76 1324.22 201.01 1349.91 201.01 1337.07 178.76"/>
  <path class="cls-5" d="M1306.9,499.22h10.94v12.94h-10.94c-1.1,0-2-.9-2-2v-8.94c0-1.1,.9-2,2-2Z"/>
  <rect class="cls-10" x="1317.85" y="499.22" width="12.94" height="12.94"/>
  <rect class="cls-8" x="1330.79" y="499.22" width="12.94" height="12.94"/>
  <rect class="cls-1" x="1343.73" y="499.22" width="12.94" height="12.94"/>
  <path class="cls-9" d="M1356.67,499.22h10.94c1.1,0,2,.9,2,2v8.94c0,1.1-.9,2-2,2h-10.94v-12.94h0Z"/>
  <line class="cls-4" x1="1317.85" y1="236.75" x2="1317.85" y2="321.17"/>
  <line class="cls-4" x1="1356.67" y1="293.23" x2="1356.67" y2="368.55"/>
  <line class="cls-4" x1="1337.83" y1="414.92" x2="1337.83" y2="463.47"/>
  <path class="cls-11" d="M1190.89,843.34c13.51,3.65,24.45,14.76,27.92,28.32,.8,3.11,5.62,1.79,4.82-1.33-3.9-15.2-16.27-27.71-31.42-31.81-3.11-.84-4.44,3.98-1.33,4.82h0Z"/>
  <path class="cls-11" d="M1221.83,853.97c3.2,7.49,6.5,14.94,9.6,22.47,1.13,2.74,2.56,6.43,.53,9.12-2.01,2.65-5.71,.1-7.96-.93-4.3-1.97-8.6-3.93-12.9-5.9-1.23-.56-2.69-.35-3.42,.9-.63,1.08-.34,2.86,.9,3.42,4.38,2,8.75,4,13.13,6,3.82,1.75,8.32,4.22,12.29,1.39,3.54-2.52,4.45-6.9,3.67-10.97-.43-2.25-1.4-4.36-2.29-6.45-.94-2.2-1.88-4.39-2.82-6.58-2.14-5-4.27-9.99-6.41-14.99-.53-1.24-2.36-1.52-3.42-.9-1.28,.75-1.43,2.17-.9,3.42h0Z"/>
  <path class="cls-11" d="M721.68,845.43c-14.14,8.66-26.11,20.63-34.76,34.78-1.68,2.75,2.64,5.27,4.32,2.52,8.21-13.42,19.56-24.77,32.97-32.98,2.74-1.68,.23-6-2.52-4.32h0Z"/>
  <path class="cls-11" d="M682.83,860.19c-1.25,4.06-2.5,8.12-3.75,12.18-1.14,3.69-3.07,8.11-.26,11.54,1.14,1.39,2.74,2.16,4.38,2.82,1.79,.72,3.64,1.32,5.5,1.84,3.92,1.09,7.98,1.75,12.04,2.02,4.53,.3,9.06,.02,13.54-.69,1.33-.21,2.08-1.88,1.75-3.08-.39-1.42-1.74-1.96-3.08-1.75-8.67,1.38-17.65,.56-25.95-2.26-1.27-.43-3.7-.96-4.45-2.23-.8-1.36,.36-3.65,.78-5.01,1.44-4.68,2.88-9.37,4.33-14.05,.95-3.08-3.88-4.4-4.82-1.33h0Z"/>
  <path class="cls-11" d="M695.61,206.35c11.96,8.14,22.14,18.78,29.77,31.06,1.7,2.73,6.02,.22,4.32-2.52-8.1-13.03-18.88-24.23-31.57-32.86-2.67-1.81-5.17,2.52-2.52,4.32h0Z"/>
  <path class="cls-11" d="M700.78,214.76c-5.97-7.73-11-16.15-14.99-25.07-.3,1.14-.6,2.28-.9,3.42,4.13-2.3,9.57-1.6,12.98,1.68,2.32,2.23,5.86-1.3,3.54-3.54-5.04-4.85-12.93-5.86-19.04-2.46-1.27,.71-1.44,2.21-.9,3.42,3.99,8.92,9.02,17.33,14.99,25.07,.82,1.07,2.15,1.64,3.42,.9,1.05-.61,1.73-2.34,.9-3.42h0Z"/>
  <path class="cls-11" d="M1227.94,199.73c-3.97,8.42-7.94,16.84-11.91,25.26-.58,1.22-.34,2.7,.9,3.42,1.09,.64,2.84,.33,3.42-.9,3.97-8.42,7.94-16.84,11.91-25.26,.58-1.22,.34-2.7-.9-3.42-1.09-.64-2.84-.33-3.42,.9h0Z"/>
  <path class="cls-11" d="M1218.75,201.19c5.04-1.41,10.08-2.82,15.11-4.24,2.36-.66,4.72-1.32,7.08-1.99,.84-.24,1.92-.73,2.82-.63,.54,.06,.56,.32,.68,.82,.39,1.6-.13,3.77-.37,5.48-.34,2.47-.68,4.95-1.02,7.42-.73,5.28-1.46,10.56-2.18,15.83-.18,1.34,.32,2.68,1.75,3.08,1.17,.32,2.89-.4,3.08-1.75,1.26-9.11,2.77-18.22,3.76-27.36,.37-3.38-.54-7.45-4.36-8.34-2.15-.5-4.37,.32-6.42,.9s-4.25,1.19-6.38,1.79c-4.96,1.39-9.92,2.78-14.88,4.17-3.09,.87-1.78,5.69,1.33,4.82h0Z"/>
  <rect class="cls-6" x="512.18" y="76.92" width="926.15" height="926.15"/>
</svg>