<?xml version="1.0" encoding="UTF-8"?>
<svg id="Frame_8" data-name="Frame 8" xmlns="http://www.w3.org/2000/svg" xmlns:xlink="http://www.w3.org/1999/xlink" viewBox="0 0 1920 1080">
  <defs>
    <style>
      .cls-1, .cls-2 {
        fill: #7237bd;
      }

      .cls-3 {
        fill: #6262c5;
      }

      .cls-3, .cls-2, .cls-4 {
        opacity: .25;
      }

      .cls-5 {
        fill: #111;
      }

      .cls-6 {
        stroke: #fff;
        stroke-width: 2px;
      }

      .cls-6, .cls-7, .cls-4 {
        stroke-miterlimit: 10;
      }

      .cls-6, .cls-4 {
        fill: none;
      }

      .cls-8 {
        fill: #16163c;
      }

      .cls-7 {
        fill: url(#Dégradé_sans_nom_3);
        stroke: #1d1d1b;
      }

      .cls-9 {
        fill: #fd0988;
      }

      .cls-4 {
        stroke: #6262c5;
        stroke-width: 4px;
      }

      .cls-10 {
        fill: #191c26;
      }

      .cls-11 {
        fill: red;
      }
    </style>
    <linearGradient id="Dégradé_sans_nom_3" data-name="Dégradé sans nom 3" x1="-2.06" y1="1076.31" x2="1918.46" y2="5.7" gradientUnits="userSpaceOnUse">
      <stop offset="0" stop-color="#191c26"/>
      <stop offset="1" stop-color="#16163c"/>
    </linearGradient>
  </defs>
  <rect class="cls-7" width="1920" height="1080"/>
  <path class="cls-1" d="M1470.1,256.86v17.33h38.02c13.45,0,24.35,10.9,24.35,24.35v38.02h17.33v-42.8c0-20.38-16.52-36.9-36.9-36.9h-42.8Z"/>
  <path class="cls-1" d="M708.95,256.86v17.33h-38.02c-13.45,0-24.35,10.9-24.35,24.35v38.02h-17.33v-42.8c0-20.38,16.52-36.9,36.9-36.9h42.8Z"/>
  <rect class="cls-8" x="499.89" y="256.86" width="91.57" height="776.42" rx="15" ry="15"/>
  <rect class="cls-2" x="1587.59" y="256.86" width="137.35" height="563.64" rx="15" ry="15"/>
  <rect class="cls-3" x="512.71" y="515.36" width="65.94" height="65.94" rx="10" ry="10"/>
  <path class="cls-1" d="M559.41,310.33c-1.38-.15-2.77-.29-4.15-.44-3.13-.34-6.26-.68-9.38-1.03-.34-.04-.53,.06-.74,.31-2.8,3.4-5.61,6.79-8.41,10.19-.08,.09-.16,.18-.31,.34,.12-10.77,.24-21.45,.36-32.22,7.6,7.64,15.13,15.21,22.66,22.77,0,.03-.02,.05-.03,.08Z"/>
  <path class="cls-1" d="M531.92,538.69v4.85h4.5v-1.85c0-.83,.67-1.5,1.5-1.5h4.01c.83,0,1.5,.67,1.5,1.5v17.23c0,.83-.67,1.5-1.5,1.5h-2.01v4.5h11.51v-4.5h-2.01c-.83,0-1.5-.67-1.5-1.5v-17.23c0-.83,.67-1.5,1.5-1.5h4.01c.83,0,1.5,.67,1.5,1.5v1.85h4.5v-4.85c0-1.66-1.34-3-3-3h-21.52c-1.66,0-3,1.34-3,3Z"/>
  <g>
    <path class="cls-1" d="M530.94,480.46c.23-.77,.47-1.53,.69-2.31,1.35-4.72,2.7-9.45,4.05-14.17,.14-.49,.34-.66,.84-.67,2.78-.05,5.33-.91,7.73-2.25,.22-.12,.43-.25,.65-.37,.3-.16,.57-.11,.82,.1,.06,.05,.11,.11,.16,.16,2.31,2.31,4.61,4.61,6.92,6.92,.44,.44,.48,.66,.16,1.19-1.04,1.76-1.85,3.62-2.23,5.64-.15,.81-.21,1.63-.27,2.45-.05,.6-.16,.78-.72,.94-5.42,1.55-10.83,3.09-16.25,4.64-.45,.13-.74,.06-.93-.21-.21-.31-.15-.64,.18-.95,.74-.71,1.49-1.41,2.24-2.12,2-1.88,4-3.76,5.98-5.66,.4-.38,.86-.48,1.39-.47,1.03,.03,1.8-.6,2.02-1.6,.23-1.07-.5-2.14-1.62-2.36-1.03-.2-2.13,.55-2.3,1.6-.03,.2-.04,.4-.02,.6,.03,.47-.11,.86-.44,1.2-2.59,2.73-5.17,5.47-7.75,8.2-.5,.53-.96,.47-1.29-.17,0-.12,0-.23,0-.35Z"/>
    <path class="cls-1" d="M550.69,453.34c.65,.14,1.11,.56,1.56,1.02,2.48,2.5,4.97,4.99,7.46,7.48,.62,.62,.89,1.35,.59,2.19-.11,.31-.32,.61-.55,.86-.82,.85-1.66,1.68-2.49,2.51-.93,.92-2.11,.92-3.03,0-2.62-2.62-5.23-5.24-7.85-7.86-.91-.92-.91-2.11,0-3.03,.82-.83,1.66-1.65,2.48-2.49,.34-.35,.76-.54,1.21-.67h.63Z"/>
  </g>
  <polygon class="cls-1" points="545.68 620.62 531.91 644.46 559.44 644.46 545.68 620.62"/>
  <polygon class="cls-1" points="559.93 797.01 531.43 780.56 531.43 813.47 559.93 797.01"/>
  <circle class="cls-1" cx="545.68" cy="385.83" r="13.76"/>
  <rect class="cls-1" x="531.43" y="700.53" width="28.5" height="28.5"/>
  <circle class="cls-9" cx="578.64" cy="567.47" r="19.15"/>
  <polygon class="cls-3" points="958.65 527.98 958.65 461.77 949.65 461.77 949.65 527.98 892.44 527.98 883.44 527.98 883.44 536.98 883.44 594.38 826.22 594.38 817.22 594.38 817.22 603.38 817.22 669.59 826.22 669.59 826.22 603.38 883.44 603.38 892.44 603.38 949.65 603.38 949.65 660.77 883.44 660.77 883.44 669.77 958.65 669.77 958.65 669.59 958.65 660.77 958.65 603.38 958.65 594.38 949.65 594.38 892.44 594.38 892.44 536.98 949.65 536.98 958.65 536.98 1024.87 536.98 1024.87 527.98 958.65 527.98"/>
  <polygon class="cls-3" points="1293 596.26 1284 596.26 1226.79 596.26 1226.79 538.87 1284 538.87 1293 538.87 1293 529.87 1293 472.47 1293 463.65 1293 463.47 1217.79 463.47 1217.79 472.47 1284 472.47 1284 529.87 1226.79 529.87 1217.79 529.87 1160.57 529.87 1160.57 463.65 1151.57 463.65 1151.57 529.87 1151.57 538.87 1160.57 538.87 1217.79 538.87 1217.79 596.26 1217.79 605.26 1226.79 605.26 1284 605.26 1284 671.47 1293 671.47 1293 605.26 1359.22 605.26 1359.22 596.26 1293 596.26"/>
  <polygon class="cls-3" points="959.65 1010.71 950.65 1010.71 893.44 1010.71 893.44 953.31 950.65 953.31 959.65 953.31 959.65 944.31 959.65 886.92 959.65 878.1 959.65 877.92 884.44 877.92 884.44 886.92 950.65 886.92 950.65 944.31 893.44 944.31 884.44 944.31 827.22 944.31 827.22 878.1 818.22 878.1 818.22 944.31 818.22 953.31 827.22 953.31 884.44 953.31 884.44 1010.71 884.44 1019.71 893.44 1019.71 950.65 1019.71 950.65 1085.92 959.65 1085.92 959.65 1019.71 1025.87 1019.71 1025.87 1010.71 959.65 1010.71"/>
  <polygon class="cls-3" points="1302 944.13 1302 877.92 1293 877.92 1293 944.13 1235.79 944.13 1226.79 944.13 1226.79 953.13 1226.79 1010.53 1169.57 1010.53 1160.57 1010.53 1160.57 1019.53 1160.57 1085.74 1169.57 1085.74 1169.57 1019.53 1226.79 1019.53 1235.79 1019.53 1293 1019.53 1293 1076.92 1226.79 1076.92 1226.79 1085.92 1302 1085.92 1302 1085.74 1302 1076.92 1302 1019.53 1302 1010.53 1293 1010.53 1235.79 1010.53 1235.79 953.13 1293 953.13 1302 953.13 1368.22 953.13 1368.22 944.13 1302 944.13"/>
  <polygon class="cls-1" points="1655.12 282.78 1635.86 316.16 1674.39 316.16 1655.12 282.78"/>
  <path class="cls-5" d="M1608.88,763.47h17.41v19.41h-17.41c-1.1,0-2-.9-2-2v-15.41c0-1.1,.9-2,2-2Z"/>
  <rect class="cls-10" x="1626.29" y="763.47" width="19.41" height="19.41"/>
  <rect class="cls-8" x="1645.7" y="763.47" width="19.41" height="19.41"/>
  <rect class="cls-1" x="1665.11" y="763.47" width="19.41" height="19.41"/>
  <path class="cls-9" d="M1684.53,763.47h17.41c1.1,0,2,.9,2,2v15.41c0,1.1-.9,2-2,2h-17.41v-19.41h0Z"/>
  <line class="cls-4" x1="1626.29" y1="369.77" x2="1626.29" y2="496.41"/>
  <line class="cls-4" x1="1684.53" y1="454.49" x2="1684.53" y2="567.47"/>
  <line class="cls-4" x1="1656.26" y1="637.03" x2="1656.26" y2="709.86"/>
  <polyline class="cls-6" points="416.37 935.93 416.37 164.67 645.51 164.67"/>
  <path class="cls-11" d="M372.29,144.69c-14.51-12.76-27.84-26.89-39.64-42.19-3.37-4.37-6.61-8.84-9.74-13.39-.76-1.11-2.19-1.61-3.42-.9-1.1,.64-1.67,2.3-.9,3.42,11.19,16.28,23.92,31.51,38.02,45.34,3.94,3.86,7.99,7.62,12.14,11.26,1.01,.89,2.54,1,3.54,0,.91-.91,1.02-2.64,0-3.54h0Z"/>
  <path class="cls-11" d="M310.53,125.34c-2.97-12.9-6.11-25.78-8.91-38.72-1.02-4.73-2.02-10.66,1.41-14.69,2.82-3.31,7.47-4.43,11.65-4.15,6.45,.43,12.28,4.3,17.58,7.64,2.73,1.72,5.24-2.61,2.52-4.32-5.47-3.44-11.23-7.01-17.72-8.04-5.28-.84-11.03,.05-15.37,3.33-5.12,3.88-6.56,10.09-5.82,16.24,.82,6.81,2.79,13.54,4.33,20.21,1.83,7.94,3.66,15.88,5.49,23.82,.72,3.13,5.54,1.81,4.82-1.33h0Z"/>
  <path class="cls-11" d="M343.93,1001.74c-21.41,19.03-43.92,36.79-67.44,53.14-6.62,4.61-13.32,9.1-20.09,13.48-2.69,1.74-.19,6.07,2.52,4.32,24.26-15.71,47.59-32.86,69.84-51.33,6.32-5.25,12.56-10.61,18.7-16.07,2.41-2.14-1.14-5.67-3.54-3.54h0Z"/>
  <path class="cls-11" d="M246.31,1027.61c-1.17,5.39-2.13,10.82-2.87,16.28s-1.4,10.74-1.56,16.13c-.15,4.91,.79,9.67,4,13.5,2.59,3.09,6.27,5.05,10.01,6.42,4.15,1.52,8.54,2.23,12.9,2.85,5.42,.78,10.87,1.33,16.34,1.66,10.92,.65,21.87,.44,32.78-.22,12.34-.74,24.63-2.05,36.91-3.37,1.34-.14,2.5-1.05,2.5-2.5,0-1.24-1.15-2.64-2.5-2.5-20.89,2.24-41.87,4.48-62.91,3.88-9.84-.28-19.94-.94-29.56-3.14-3.61-.82-7.18-1.99-10.24-4.12s-4.87-5.4-5.17-9.14c-.22-2.72,.02-5.46,.25-8.17,.24-2.91,.54-5.81,.91-8.71,.74-5.89,1.77-11.74,3.03-17.55,.68-3.14-4.14-4.48-4.82-1.33h0Z"/>
  <path class="cls-11" d="M1690.1,1001.24c16.45,7.83,31.49,18.38,44.42,31.22,2.28,2.27,5.82-1.26,3.54-3.54-13.21-13.12-28.62-24-45.43-32-1.22-.58-2.7-.34-3.42,.9-.64,1.09-.33,2.84,.9,3.42h0Z"/>
  <path class="cls-11" d="M1742.84,1059.97c6.79-.57,13.58-1.14,20.36-1.72,3.48-.29,6.95-.59,10.43-.88,2.93-.25,5.95-.32,8.82-.97,4.4-1,8.22-4.54,7.71-9.34-.4-3.82-2.79-7.06-4.84-10.18-1.05-1.6-2.44-3.78-3-5.18-.16-.4-.3-.8-.42-1.22-.07-.24-.13-.48-.18-.73,0-.03-.12-.8-.07-.31-.13-1.18-.06-1.57,.23-2.49,.97-3.08-3.86-4.39-4.82-1.33-2.39,7.6,4.77,13.53,7.57,19.82-.14-.31,.22,.6,.27,.74,.1,.33,.18,.66,.26,.99,.03,.14,.06,.62,.02,.1,.01,.14,.03,.29,.03,.43,0,.18,0,.36-.01,.53,0,.15,.12-.34-.03,.18-.04,.15-.35,.98-.14,.54-.08,.18-.19,.34-.28,.51-.04,.08-.33,.5-.1,.2-.62,.82-1.5,1.32-2.46,1.63-2.5,.79-5.23,.8-7.82,1.01-3.23,.27-6.46,.54-9.68,.82-7.28,.61-14.57,1.23-21.85,1.84-1.35,.11-2.5,1.07-2.5,2.5,0,1.26,1.15,2.61,2.5,2.5h0Z"/>
  <path class="cls-11" d="M1593.12,171.97c12.82-2.6,24.74-9.63,33.29-19.52,2.46-2.84,4.66-5.91,6.55-9.16,1.62-2.79-2.7-5.31-4.32-2.52-7.87,13.57-21.49,23.27-36.85,26.38-1.32,.27-2.09,1.84-1.75,3.08,.38,1.38,1.75,2.02,3.08,1.75h0Z"/>
  <path class="cls-11" d="M1624.9,105.47c7.24-1.64,14.49-3.29,21.73-4.93,3.62-.82,7.24-1.64,10.87-2.47,1.69-.38,3.38-.77,5.07-1.15s3.51-.96,5.28-1.13c2.59-.25,3.59,1.71,4.21,3.93,.83,2.95,1.18,6.08,1.42,9.12,.48,6.2,.17,12.47-1.01,18.58-1.37,7.12-3.81,13.97-7.29,20.33-1.55,2.82,2.77,5.35,4.32,2.52,6.75-12.32,9.97-26.55,9.04-40.57-.23-3.43-.64-6.92-1.4-10.28-.66-2.91-1.95-5.97-4.61-7.59-3.31-2.03-7.33-.63-10.81,.16-3.86,.88-7.73,1.75-11.59,2.63-8.85,2.01-17.71,4.02-26.56,6.03-3.14,.71-1.81,5.53,1.33,4.82h0Z"/>
  <path class="cls-11" d="M1079.19,774.3c-29.3,13.22-62.3,15.41-93.92,12.13-33.55-3.47-66.42-12.66-98.87-21.53-30.55-8.35-61.18-18.09-88.3-34.83-14.13-8.73-27.07-19.2-40.02-29.55-13.52-10.8-27-21.64-40.44-32.54-26.88-21.78-53.62-43.75-80.2-65.9-3.32-2.77-6.64-5.54-9.96-8.31-2.45-2.05-6.01,1.47-3.54,3.54,27,22.58,54.16,44.97,81.47,67.17,13.66,11.1,27.35,22.15,41.09,33.15,13.19,10.56,26.24,21.4,40.18,30.96,26.68,18.32,57.2,29.42,88.12,38.27,16,4.58,32.11,8.8,48.26,12.83,16.84,4.21,33.82,7.99,51.03,10.38,32.22,4.48,65.89,4.14,96.8-7.03,3.66-1.33,7.27-2.81,10.82-4.41,2.93-1.32,.39-5.63-2.52-4.32h0Z"/>
</svg>