<?xml version="1.0" encoding="UTF-8"?>
<svg id="Frame_9" data-name="Frame 9" xmlns="http://www.w3.org/2000/svg" xmlns:xlink="http://www.w3.org/1999/xlink" viewBox="0 0 1920 1080">
  <defs>
    <style>
      .cls-1, .cls-2 {
        fill: #7237bd;
      }

      .cls-3 {
        fill: #fff;
      }

      .cls-4 {
        fill: #6262c5;
      }

      .cls-4, .cls-2, .cls-5 {
        opacity: .25;
      }

      .cls-6 {
        fill: #111;
      }

      .cls-7 {
        stroke: #fff;
        stroke-width: 2px;
      }

      .cls-7, .cls-8, .cls-5 {
        stroke-miterlimit: 10;
      }

      .cls-7, .cls-5 {
        fill: none;
      }

      .cls-9 {
        fill: #16163c;
      }

      .cls-8 {
        fill: url(#Dégradé_sans_nom_3);
        stroke: #1d1d1b;
      }

      .cls-10 {
        fill: #fd0988;
      }

      .cls-5 {
        stroke: #6262c5;
        stroke-width: 4px;
      }

      .cls-11 {
        fill: #191c26;
      }

      .cls-12 {
        fill: red;
      }
    </style>
    <linearGradient id="Dégradé_sans_nom_3" data-name="Dégradé sans nom 3" x1="-2.06" y1="1076.31" x2="1918.46" y2="5.7" gradientUnits="userSpaceOnUse">
      <stop offset="0" stop-color="#191c26"/>
      <stop offset="1" stop-color="#16163c"/>
    </linearGradient>
  </defs>
  <rect class="cls-8" width="1920" height="1080"/>
  <path class="cls-1" d="M1213.72,161.48v11.55h25.35c8.97,0,16.24,7.27,16.24,16.24v25.35h11.55v-28.54c0-13.59-11.01-24.6-24.6-24.6h-28.54Z"/>
  <path class="cls-1" d="M706.28,161.48v11.55h-25.35c-8.97,0-16.24,7.27-16.24,16.24v25.35h-11.55v-28.54c0-13.59,11.01-24.6,24.6-24.6h28.54Z"/>
  <path class="cls-1" d="M1213.72,918.52v-11.55h25.35c8.97,0,16.24-7.27,16.24-16.24v-25.35h11.55v28.54c0,13.59-11.01,24.6-24.6,24.6h-28.54Z"/>
  <path class="cls-1" d="M706.28,918.52v-11.55h-25.35c-8.97,0-16.24-7.27-16.24-16.24v-25.35h-11.55v28.54c0,13.59,11.01,24.6,24.6,24.6h28.54Z"/>
  <rect class="cls-9" x="566.91" y="161.48" width="61.04" height="517.61" rx="15" ry="15"/>
  <rect class="cls-2" x="1292.04" y="161.48" width="91.57" height="375.76" rx="15" ry="15"/>
  <rect class="cls-4" x="575.46" y="336.06" width="43.96" height="43.96" rx="10" ry="10"/>
  <path class="cls-1" d="M606.59,197.12c-.92-.1-1.84-.2-2.76-.3-2.09-.23-4.17-.45-6.25-.69-.22-.03-.35,.04-.49,.21-1.87,2.27-3.74,4.53-5.61,6.79-.05,.06-.11,.12-.21,.23,.08-7.18,.16-14.3,.24-21.48,5.07,5.09,10.09,10.14,15.11,15.18,0,.02-.01,.03-.02,.05Z"/>
  <path class="cls-1" d="M588.26,349.36v3.23h3v-1.23c0-.55,.45-1,1-1h2.67c.55,0,1,.45,1,1v11.48c0,.55-.45,1-1,1h-1.34v3h7.67v-3h-1.34c-.55,0-1-.45-1-1v-11.48c0-.55,.45-1,1-1h2.67c.55,0,1,.45,1,1v1.23h3v-3.23c0-1.1-.9-2-2-2h-14.35c-1.1,0-2,.9-2,2Z"/>
  <g>
    <path class="cls-1" d="M587.61,310.54c.15-.51,.31-1.02,.46-1.54,.9-3.15,1.8-6.3,2.7-9.45,.09-.33,.23-.44,.56-.44,1.85-.03,3.55-.61,5.15-1.5,.15-.08,.29-.17,.43-.25,.2-.11,.38-.08,.55,.07,.04,.03,.07,.07,.11,.11,1.54,1.54,3.08,3.08,4.61,4.61,.29,.29,.32,.44,.11,.79-.7,1.17-1.23,2.41-1.49,3.76-.1,.54-.14,1.09-.18,1.64-.03,.4-.11,.52-.48,.63-3.61,1.03-7.22,2.06-10.83,3.09-.3,.09-.5,.04-.62-.14-.14-.2-.1-.42,.12-.63,.5-.47,.99-.94,1.49-1.41,1.33-1.26,2.66-2.51,3.99-3.77,.27-.26,.57-.32,.93-.31,.69,.02,1.2-.4,1.34-1.07,.16-.71-.33-1.43-1.08-1.57-.69-.14-1.42,.37-1.54,1.06-.02,.13-.02,.27-.02,.4,.02,.31-.07,.57-.29,.8-1.72,1.82-3.44,3.65-5.17,5.47-.33,.35-.64,.31-.86-.11,0-.08,0-.15,0-.23Z"/>
    <path class="cls-1" d="M600.77,292.46c.43,.09,.74,.38,1.04,.68,1.65,1.67,3.31,3.32,4.97,4.98,.42,.41,.6,.9,.39,1.46-.08,.21-.21,.41-.37,.57-.54,.57-1.1,1.12-1.66,1.67-.62,.61-1.41,.61-2.02,0-1.75-1.74-3.49-3.49-5.23-5.24-.61-.61-.61-1.41,0-2.02,.55-.55,1.11-1.1,1.65-1.66,.23-.23,.5-.36,.81-.45h.42Z"/>
  </g>
  <polygon class="cls-1" points="597.43 403.98 588.26 419.87 606.61 419.87 597.43 403.98"/>
  <polygon class="cls-1" points="606.93 521.58 587.93 510.61 587.93 532.55 606.93 521.58"/>
  <circle class="cls-1" cx="597.43" cy="247.46" r="9.17"/>
  <rect class="cls-1" x="587.93" y="457.25" width="19" height="19"/>
  <circle class="cls-10" cx="1176.9" cy="506.13" r="31.11"/>
  <polygon class="cls-4" points="872.75 342.22 872.75 298.08 866.75 298.08 866.75 342.22 828.61 342.22 822.61 342.22 822.61 348.22 822.61 386.49 784.47 386.49 778.47 386.49 778.47 392.49 778.47 436.63 784.47 436.63 784.47 392.49 822.61 392.49 828.61 392.49 866.75 392.49 866.75 430.75 822.61 430.75 822.61 436.75 872.75 436.75 872.75 436.63 872.75 430.75 872.75 392.49 872.75 386.49 866.75 386.49 828.61 386.49 828.61 348.22 866.75 348.22 872.75 348.22 916.89 348.22 916.89 342.22 872.75 342.22"/>
  <polygon class="cls-4" points="1095.65 387.74 1089.65 387.74 1051.51 387.74 1051.51 349.48 1089.65 349.48 1095.65 349.48 1095.65 343.48 1095.65 305.22 1095.65 299.34 1095.65 299.22 1045.51 299.22 1045.51 305.22 1089.65 305.22 1089.65 343.48 1051.51 343.48 1045.51 343.48 1007.37 343.48 1007.37 299.34 1001.37 299.34 1001.37 343.48 1001.37 349.48 1007.37 349.48 1045.51 349.48 1045.51 387.74 1045.51 393.74 1051.51 393.74 1089.65 393.74 1089.65 437.88 1095.65 437.88 1095.65 393.74 1139.8 393.74 1139.8 387.74 1095.65 387.74"/>
  <polygon class="cls-4" points="873.42 664.04 867.42 664.04 829.28 664.04 829.28 625.78 867.42 625.78 873.42 625.78 873.42 619.78 873.42 581.51 873.42 575.63 873.42 575.51 823.28 575.51 823.28 581.51 867.42 581.51 867.42 619.78 829.28 619.78 823.28 619.78 785.13 619.78 785.13 575.63 779.13 575.63 779.13 619.78 779.13 625.78 785.13 625.78 823.28 625.78 823.28 664.04 823.28 670.04 829.28 670.04 867.42 670.04 867.42 714.18 873.42 714.18 873.42 670.04 917.56 670.04 917.56 664.04 873.42 664.04"/>
  <polygon class="cls-4" points="1101.65 619.66 1101.65 575.51 1095.65 575.51 1095.65 619.66 1057.51 619.66 1051.51 619.66 1051.51 625.66 1051.51 663.92 1013.37 663.92 1007.37 663.92 1007.37 669.92 1007.37 714.06 1013.37 714.06 1013.37 669.92 1051.51 669.92 1057.51 669.92 1095.65 669.92 1095.65 708.18 1051.51 708.18 1051.51 714.18 1101.65 714.18 1101.65 714.06 1101.65 708.18 1101.65 669.92 1101.65 663.92 1095.65 663.92 1057.51 663.92 1057.51 625.66 1095.65 625.66 1101.65 625.66 1145.8 625.66 1145.8 619.66 1101.65 619.66"/>
  <polygon class="cls-1" points="1337.07 178.76 1324.22 201.01 1349.91 201.01 1337.07 178.76"/>
  <path class="cls-6" d="M1306.9,499.22h10.94v12.94h-10.94c-1.1,0-2-.9-2-2v-8.94c0-1.1,.9-2,2-2Z"/>
  <rect class="cls-11" x="1317.85" y="499.22" width="12.94" height="12.94"/>
  <rect class="cls-9" x="1330.79" y="499.22" width="12.94" height="12.94"/>
  <rect class="cls-1" x="1343.73" y="499.22" width="12.94" height="12.94"/>
  <path class="cls-10" d="M1356.67,499.22h10.94c1.1,0,2,.9,2,2v8.94c0,1.1-.9,2-2,2h-10.94v-12.94h0Z"/>
  <line class="cls-5" x1="1317.85" y1="236.75" x2="1317.85" y2="321.17"/>
  <line class="cls-5" x1="1356.67" y1="293.23" x2="1356.67" y2="368.55"/>
  <line class="cls-5" x1="1337.83" y1="414.92" x2="1337.83" y2="463.47"/>
  <polyline class="cls-7" points="511.23 614.19 511.23 100.02 663.99 100.02"/>
  <polyline class="cls-7" points="1076.58 996.04 1437.38 996.04 1437.38 918.52"/>
  <path class="cls-12" d="M638.21,386.36c17,32.22,34.18,64.67,57.15,93.13,20.55,25.46,46,47.6,76.42,60.31,33.53,14,70.46,16.25,106.31,18.13,39.62,2.09,79.29,3.09,118.96,3.01,39.67-.08,79.34-1.24,118.95-3.48,4.87-.28,9.74-.57,14.61-.88,3.2-.2,3.22-5.2,0-5-39.11,2.47-78.28,3.9-117.46,4.27-39.18,.37-78.37-.32-117.52-2.07-35.96-1.6-73.01-2.54-107.63-13.39-31.94-10.01-58.95-30.03-81.01-54.88-23.76-26.75-41.38-58.21-58.09-89.64-2.13-4.01-4.25-8.02-6.37-12.04-1.5-2.85-5.82-.32-4.32,2.52h0Z"/>
  <path class="cls-12" d="M1114.32,545.34c8.34,1.28,16.54,3.57,24.27,6.96v-4.32c-10.26,4.78-20.52,9.57-30.78,14.35-1.22,.57-1.53,2.33-.9,3.42,.73,1.25,2.19,1.47,3.42,.9,10.26-4.78,20.52-9.57,30.78-14.35,1.61-.75,1.67-3.59,0-4.32-8.15-3.57-16.66-6.12-25.46-7.46-1.33-.2-2.69,.34-3.08,1.75-.33,1.18,.4,2.87,1.75,3.08h0Z"/>
  <path class="cls-12" d="M473.37,1012.16c17.53-7.02,33.64-17.26,47.37-30.23,3.83-3.61,7.45-7.44,10.86-11.44,.88-1.03,1.01-2.53,0-3.54-.9-.9-2.66-1.03-3.54,0-11.83,13.88-26.2,25.44-42.31,34-4.46,2.37-9.03,4.51-13.72,6.38-1.25,.5-2.13,1.67-1.75,3.08,.33,1.19,1.81,2.25,3.08,1.75h0Z"/>
  <path class="cls-12" d="M509.64,954.49c14.89-.24,29.77,2.85,43.27,9.15-.3-1.14-.6-2.28-.9-3.42-5.01,7.23-12.04,12.84-20.09,16.33-1.24,.54-1.52,2.35-.9,3.42,.75,1.28,2.18,1.44,3.42,.9,8.85-3.84,16.4-10.21,21.89-18.13,.72-1.04,.26-2.88-.9-3.42-14.32-6.67-29.99-10.09-45.8-9.83-3.21,.05-3.22,5.05,0,5h0Z"/>
  <path class="cls-12" d="M528.56,42.95c13.57,6.29,26.24,14.48,37.45,24.38,3.22,2.84,6.31,5.82,9.29,8.91,2.24,2.32,5.77-1.22,3.54-3.54-10.6-11.02-22.81-20.53-36.11-28.09-3.79-2.16-7.68-4.15-11.64-5.98-1.22-.57-2.69-.35-3.42,.9-.63,1.08-.33,2.85,.9,3.42h0Z"/>
  <path class="cls-12" d="M599.47,61.54c4.92,7.02,9.83,14.03,14.75,21.05,2.46,3.51,4.92,7.02,7.37,10.52,2.08,2.96,4.45,5.97,5.6,9.44,.89,2.68,.79,5.68-1.48,7.52-1.92,1.56-4.74,1.96-7.22,2.03-3.36,.09-6.73-.41-10.05-.9-4.02-.59-8.02-1.33-11.99-2.2-8.93-1.97-17.7-4.66-26.21-8.01-1.26-.49-2.74,.54-3.08,1.75-.39,1.42,.48,2.58,1.75,3.08,8.07,3.18,16.37,5.76,24.83,7.7,4.19,.96,8.42,1.76,12.67,2.41,3.81,.58,7.7,1.23,11.56,1.19,3.2-.03,6.56-.52,9.37-2.14,3.14-1.81,5.1-4.98,5.38-8.58,.32-4.01-1.63-7.98-3.72-11.27-2.34-3.7-4.99-7.22-7.5-10.8-5.91-8.43-11.82-16.86-17.72-25.3-.77-1.1-2.19-1.62-3.42-.9-1.09,.64-1.68,2.31-.9,3.42h0Z"/>
  <path class="cls-12" d="M1378.42,53.57c-2.52,13.12-8.23,25.56-16.74,35.89-.86,1.04-1.02,2.52,0,3.54,.88,.88,2.67,1.05,3.54,0,9.05-10.99,15.34-24.1,18.02-38.09,.25-1.32-.37-2.7-1.75-3.08-1.22-.34-2.82,.41-3.08,1.75h0Z"/>
  <path class="cls-12" d="M1329.96,76.75c-2.53,7.77-4.12,16.05-4.2,24.23-.06,6.56,.97,13.24,3.82,19.19,2.61,5.44,7.28,10.5,13.25,12.12,5.22,1.42,11.09,.43,15.71-2.3,5.35-3.16,8.68-8.75,7.42-15.02-.27-1.32-1.84-2.09-3.08-1.75-1.38,.38-2.01,1.75-1.75,3.08,.12,.57,.12,.55,.14,1.24,0,.26,0,.53,0,.79,0,.01-.09,.85-.02,.36-.07,.5-.2,1-.36,1.48-.16,.51-.19,.6-.56,1.26-.92,1.65-2.24,2.93-3.85,3.95-3.54,2.25-8,3.14-11.92,2.19-4.6-1.11-8.26-5.13-10.44-9.46-2.48-4.91-3.31-10.59-3.37-16.05-.08-8.12,1.51-16.29,4.02-23.99,1-3.07-3.83-4.38-4.82-1.33h0Z"/>
  <path class="cls-12" d="M1477.32,1000.7c15.25,8.17,28.48,20.02,38.19,34.36,2.77,4.09,5.26,8.37,7.45,12.8,1.43,2.88,5.74,.35,4.32-2.52-8.01-16.17-20-30.22-34.56-40.86-4.1-2.99-8.4-5.69-12.87-8.09-2.84-1.52-5.36,2.8-2.52,4.32h0Z"/>
  <path class="cls-12" d="M1473.64,1010.6c-4.55-5-9.45-10.32-11.52-16.91-1.58-5.04-.99-10.83,2.65-14.96,1.88-2.13,4.21-3.42,6.96-3.41,3.22,0,3.22-4.99,0-5-7.06-.02-12.31,5.48-14.45,11.82-2.48,7.35-.02,15,4.09,21.25,2.54,3.86,5.63,7.33,8.73,10.74,2.17,2.39,5.7-1.16,3.54-3.54h0Z"/>
  <path class="cls-3" d="M829.18,506.41h9.84v14.21c-4.08,2.78-9.7,4.27-14.64,4.27-10.85,0-18.77-7.25-18.77-17.57s7.92-17.57,19.01-17.57c6.62,0,11.95,2.3,15.36,6.48l-7.25,6.38c-2.11-2.45-4.56-3.7-7.54-3.7-4.99,0-8.16,3.22-8.16,8.4s3.17,8.4,8.02,8.4c1.39,0,2.74-.24,4.13-.82v-8.5Z"/>
  <path class="cls-3" d="M858.27,515.67h-3.07v8.45h-11.33v-33.6h16.18c9.36,0,15.31,4.9,15.31,12.67,0,4.85-2.3,8.5-6.34,10.56l7.06,10.37h-12.1l-5.71-8.45Zm1.06-16.42h-4.13v7.87h4.13c3.12,0,4.61-1.49,4.61-3.94s-1.49-3.94-4.61-3.94Z"/>
  <path class="cls-3" d="M902.52,518.27h-12.77l-2.26,5.86h-11.52l14.69-33.6h11.14l14.69,33.6h-11.71l-2.26-5.86Zm-3.12-8.16l-3.26-8.45-3.26,8.45h6.53Z"/>
  <path class="cls-3" d="M949.8,503.19c0,7.78-5.95,12.67-15.31,12.67h-4.85v8.26h-11.33v-33.6h16.18c9.36,0,15.31,4.9,15.31,12.67Zm-11.42,0c0-2.45-1.49-3.94-4.61-3.94h-4.13v7.87h4.13c3.12,0,4.61-1.49,4.61-3.94Z"/>
  <path class="cls-3" d="M986.62,490.52v33.6h-11.33v-12.38h-10.46v12.38h-11.33v-33.6h11.33v11.91h10.46v-11.91h11.33Z"/>
  <path class="cls-3" d="M992.09,490.52h11.33v33.6h-11.33v-33.6Z"/>
  <path class="cls-3" d="M1006.78,521.43l3.65-8.26c3.17,1.87,7.39,3.07,11.09,3.07,3.22,0,4.37-.67,4.37-1.82,0-4.22-18.58-.82-18.58-13.35,0-6.24,5.23-11.33,15.65-11.33,4.51,0,9.17,.96,12.67,2.93l-3.41,8.21c-3.31-1.68-6.43-2.5-9.36-2.5-3.31,0-4.37,.96-4.37,2.11,0,4.03,18.58,.67,18.58,13.06,0,6.14-5.23,11.33-15.65,11.33-5.62,0-11.28-1.39-14.64-3.46Z"/>
  <path class="cls-3" d="M1070.43,524.12l-.1-15.31-7.3,12.29h-4.99l-7.3-11.76v14.79h-10.32v-33.6h9.31l10.94,17.91,10.66-17.91h9.31l.1,33.6h-10.32Z"/>
  <path class="cls-3" d="M1114.15,515.58v8.54h-27.94v-33.6h27.31v8.54h-16.18v3.94h14.21v8.16h-14.21v4.42h16.8Z"/>
</svg>