<?xml version="1.0" encoding="UTF-8"?>
<svg id="Frame_6" data-name="Frame 6" xmlns="http://www.w3.org/2000/svg" xmlns:xlink="http://www.w3.org/1999/xlink" viewBox="0 0 1920 1080">
  <defs>
    <style>
      .cls-1 {
        fill: url(#Dégradé_sans_nom_4-11);
      }

      .cls-2 {
        fill: url(#Dégradé_sans_nom_4-6);
      }

      .cls-3 {
        fill: url(#Dégradé_sans_nom_4-3);
      }

      .cls-4 {
        fill: url(#Dégradé_sans_nom_4-7);
      }

      .cls-5 {
        fill: #16163c;
      }

      .cls-6 {
        fill: url(#Dégradé_sans_nom_4-10);
      }

      .cls-7 {
        fill: url(#Dégradé_sans_nom_4-12);
      }

      .cls-8 {
        fill: url(#Dégradé_sans_nom_4-5);
      }

      .cls-9 {
        fill: url(#Dégradé_sans_nom_4);
      }

      .cls-10 {
        fill: url(#Dégradé_sans_nom_4-4);
      }

      .cls-11 {
        fill: url(#Dégradé_sans_nom_4-2);
      }

      .cls-12 {
        fill: url(#Dégradé_sans_nom_4-8);
      }

      .cls-13 {
        fill: url(#Dégradé_sans_nom_6);
      }

      .cls-14 {
        fill: url(#Dégradé_sans_nom_4-9);
      }

      .cls-15 {
        fill: red;
      }
    </style>
    <linearGradient id="Dégradé_sans_nom_6" data-name="Dégradé sans nom 6" x1="735.08" y1="762.6" x2="1062.46" y2="438.6" gradientUnits="userSpaceOnUse">
      <stop offset="0" stop-color="#fd0988"/>
      <stop offset="1" stop-color="#7237bd"/>
    </linearGradient>
    <linearGradient id="Dégradé_sans_nom_4" data-name="Dégradé sans nom 4" x1="666.72" y1="693.08" x2="563.78" y2="802.77" gradientUnits="userSpaceOnUse">
      <stop offset="0" stop-color="#7237bd"/>
      <stop offset="1" stop-color="#fd0988"/>
    </linearGradient>
    <linearGradient id="Dégradé_sans_nom_4-2" data-name="Dégradé sans nom 4" x1="886.45" y1="117.08" x2="783.51" y2="226.77" xlink:href="#Dégradé_sans_nom_4"/>
    <linearGradient id="Dégradé_sans_nom_4-3" data-name="Dégradé sans nom 4" x1="682.06" y1="408.43" x2="579.13" y2="518.11" xlink:href="#Dégradé_sans_nom_4"/>
    <linearGradient id="Dégradé_sans_nom_4-4" data-name="Dégradé sans nom 4" x1="1074.99" y1="782.64" x2="998.19" y2="864.47" xlink:href="#Dégradé_sans_nom_4"/>
    <linearGradient id="Dégradé_sans_nom_4-5" data-name="Dégradé sans nom 4" x1="1108.79" y1="241.34" x2="1031.99" y2="323.18" xlink:href="#Dégradé_sans_nom_4"/>
    <linearGradient id="Dégradé_sans_nom_4-6" data-name="Dégradé sans nom 4" x1="1325.66" y1="520.86" x2="1239.32" y2="612.87" xlink:href="#Dégradé_sans_nom_4"/>
    <linearGradient id="Dégradé_sans_nom_4-7" data-name="Dégradé sans nom 4" x1="1363.63" y1="970.26" x2="1157.76" y2="1189.64" xlink:href="#Dégradé_sans_nom_4"/>
    <linearGradient id="Dégradé_sans_nom_4-8" data-name="Dégradé sans nom 4" x1="526.12" y1="-124.78" x2="320.24" y2="94.6" xlink:href="#Dégradé_sans_nom_4"/>
    <linearGradient id="Dégradé_sans_nom_4-9" data-name="Dégradé sans nom 4" x1="307.86" y1="417.41" x2="101.98" y2="636.79" xlink:href="#Dégradé_sans_nom_4"/>
    <linearGradient id="Dégradé_sans_nom_4-10" data-name="Dégradé sans nom 4" x1="527.45" y1="972.34" x2="373.84" y2="1136.01" xlink:href="#Dégradé_sans_nom_4"/>
    <linearGradient id="Dégradé_sans_nom_4-11" data-name="Dégradé sans nom 4" x1="1772.76" y1="486.69" x2="1619.16" y2="650.37" xlink:href="#Dégradé_sans_nom_4"/>
    <linearGradient id="Dégradé_sans_nom_4-12" data-name="Dégradé sans nom 4" x1="1449.54" y1="55.04" x2="1276.85" y2="239.06" xlink:href="#Dégradé_sans_nom_4"/>
  </defs>
  <rect class="cls-5" width="1920" height="1080"/>
  <circle class="cls-13" cx="960" cy="540" r="141.75"/>
  <path class="cls-15" d="M1107.53,664.04c18.51,10.44,34.96,24.64,47.85,41.55,3.7,4.85,7.12,9.92,10.24,15.16,1.64,2.76,5.97,.25,4.32-2.52-11.27-18.92-26.38-35.41-44.15-48.39-5.04-3.68-10.29-7.05-15.73-10.12-2.81-1.58-5.33,2.74-2.52,4.32h0Z"/>
  <path class="cls-15" d="M1157,739.87c9.95-.28,19.89,.51,29.66,2.42,1.83,.36,3.61-1.13,3.08-3.08-3.17-11.57-4.19-23.57-3.07-35.51,.13-1.35-1.24-2.5-2.5-2.5-1.46,0-2.37,1.15-2.5,2.5-1.16,12.35-.03,24.88,3.25,36.84l3.08-3.08c-10.2-2-20.6-2.89-30.99-2.6-3.21,.09-3.22,5.09,0,5h0Z"/>
  <path class="cls-15" d="M1084.49,426.5c16.26-9.97,32.32-20.25,48.18-30.85,4.52-3.02,9.02-6.07,13.51-9.14,1.11-.76,1.61-2.2,.9-3.42-.65-1.1-2.3-1.66-3.42-.9-15.74,10.77-31.69,21.23-47.83,31.38-4.6,2.89-9.22,5.76-13.86,8.6-2.74,1.68-.23,6.01,2.52,4.32h0Z"/>
  <path class="cls-15" d="M1146.02,352.57c6.67-1.38,13.33-2.76,20-4.14l4.88-1.01c1.38-.28,3.17-1.01,4.59-.8,1.53,.23,1.27,3.62,1.32,4.77,.44,10.14-2.6,20.22-8.26,28.61-3.12,4.63-7.11,8.71-11.71,11.88-1.11,.77-1.61,2.19-.9,3.42,.64,1.1,2.3,1.67,3.42,.9,9.67-6.67,16.78-16.59,20.22-27.81,1.68-5.47,2.47-11.28,2.22-16.99-.12-2.73-.19-6.05-2.25-8.13-2.7-2.72-6.75-1.33-9.99-.66-8.29,1.72-16.59,3.43-24.88,5.15-1.32,.27-2.09,1.83-1.75,3.08,.38,1.37,1.75,2.02,3.08,1.75h0Z"/>
  <path class="cls-15" d="M825.76,417.79c-8.32-14.51-15.3-29.76-20.79-45.56-1.57-4.51-3.01-9.06-4.34-13.64-.9-3.08-5.72-1.77-4.82,1.33,4.76,16.4,11.04,32.35,18.74,47.59,2.19,4.33,4.49,8.6,6.9,12.8,1.6,2.79,5.92,.28,4.32-2.52h0Z"/>
  <path class="cls-15" d="M770.78,364.74c2.27-5.24,4.85-10.34,7.77-15.24,2.72-4.58,5.6-9.46,9.32-13.31,2.48-2.57,6.96-6.31,10.69-4.11,2.05,1.21,3.18,3.78,4.37,5.74,1.63,2.7,3.25,5.4,4.88,8.09,3.68,6.11,7.36,12.21,11.04,18.32,1.66,2.75,5.98,.24,4.32-2.52-3.51-5.82-7.02-11.65-10.53-17.47-1.8-2.98-3.6-5.96-5.39-8.95-1.5-2.49-2.91-5.15-5.28-6.93-4.71-3.54-10.53-1.57-14.75,1.71-4.62,3.59-7.87,8.75-10.97,13.63-3.75,5.9-7.01,12.09-9.78,18.51-.54,1.24-.37,2.68,.9,3.42,1.06,.62,2.88,.35,3.42-.9h0Z"/>
  <path class="cls-15" d="M798.98,651.07c-15.2,12.41-30.17,25.11-44.89,38.1-4.14,3.65-8.25,7.32-12.35,11.01-2.4,2.16,1.15,5.69,3.54,3.54,14.58-13.14,29.41-26.01,44.48-38.58,4.24-3.53,8.49-7.04,12.76-10.53,1.05-.85,.89-2.65,0-3.54-1.04-1.04-2.49-.86-3.54,0h0Z"/>
  <path class="cls-15" d="M719.17,669.94c-.3,10.14,.2,20.29,1.51,30.35,.67,5.09,1.5,10.16,2.56,15.18,.53,2.52,1.11,5.03,1.75,7.53,.49,1.92,1.06,3.86,2.05,5.59,2.21,3.87,6.6,5.72,10.86,4.14s7.48-5.2,10.65-8.45c7.07-7.24,14.27-14.36,21.59-21.35,4.07-3.88,8.17-7.72,12.32-11.53,1.43-1.31,2.48-2.3,4.31-2.8,.17-.05,.97-.19,.67-.16,.17-.02,.34-.02,.51-.03,.05,0,.83,.05,.27,0,.51,.05,.34,.23,.01-.11,.33,.35,.02,.02,0-.04-.2-.47,.03,.29-.02-.16,.15,1.34,1.04,2.5,2.5,2.5,1.23,0,2.65-1.15,2.5-2.5-.46-4.04-4.04-5.27-7.63-4.35-4.05,1.04-6.89,4.32-9.84,7.06-7.42,6.88-14.73,13.89-21.9,21.03-3.59,3.57-7.14,7.17-10.67,10.81-1.44,1.49-2.88,3.01-4.61,4.16-1.35,.9-3.06,1.85-4.74,1.41-1.52-.39-2.41-1.82-2.98-3.18-.82-1.96-1.23-4.12-1.72-6.18-1.17-4.93-2.14-9.91-2.92-14.93-1.73-11.23-2.37-22.63-2.04-33.99,.09-3.22-4.91-3.22-5,0h0Z"/>
  <polygon class="cls-9" points="615.23 716.66 659.47 703.7 646.51 747.95 659.47 792.19 615.23 779.23 570.99 792.19 583.95 747.95 570.99 703.7 615.23 716.66"/>
  <polygon class="cls-11" points="834.96 140.66 879.2 127.7 866.24 171.95 879.2 216.19 834.96 203.23 790.71 216.19 803.67 171.95 790.71 127.7 834.96 140.66"/>
  <rect class="cls-3" x="586.33" y="419.05" width="88.49" height="88.49"/>
  <circle class="cls-10" cx="1036.57" cy="823.57" r="46.66"/>
  <circle class="cls-8" cx="1070.38" cy="282.28" r="46.66"/>
  <polygon class="cls-2" points="1280.76 493.34 1226.88 586.66 1334.64 586.66 1280.76 493.34"/>
  <polygon class="cls-4" points="1260.65 1017.43 1349.14 991.51 1323.22 1080 1349.14 1168.49 1260.65 1142.57 1172.16 1168.49 1198.08 1080 1172.16 991.51 1260.65 1017.43"/>
  <polygon class="cls-12" points="423.14 -77.61 511.62 -103.53 485.71 -15.04 511.62 73.44 423.14 47.53 334.65 73.44 360.57 -15.04 334.65 -103.53 423.14 -77.61"/>
  <rect class="cls-14" x="116.39" y="438.66" width="176.97" height="176.97"/>
  <circle class="cls-6" cx="450.61" cy="1054.21" r="93.32"/>
  <circle class="cls-1" cx="1695.93" cy="568.56" r="93.32"/>
  <polygon class="cls-7" points="1359.74 0 1251.99 186.64 1467.5 186.64 1359.74 0"/>
</svg>