<?xml version="1.0" encoding="UTF-8"?>
<svg id="Frame_11" data-name="Frame 11" xmlns="http://www.w3.org/2000/svg" xmlns:xlink="http://www.w3.org/1999/xlink" viewBox="0 0 1920 1080">
  <defs>
    <style>
      .cls-1 {
        letter-spacing: -.04em;
      }

      .cls-2, .cls-3 {
        fill: #fff;
      }

      .cls-4 {
        letter-spacing: -.01em;
      }

      .cls-5 {
        fill: none;
        stroke: #fff;
        stroke-miterlimit: 10;
        stroke-width: 2px;
      }

      .cls-6 {
        fill: url(#Dégradé_sans_nom_4);
      }

      .cls-7 {
        fill: #191c26;
      }

      .cls-8 {
        letter-spacing: 0em;
      }

      .cls-9 {
        fill: url(#Dégradé_sans_nom_4-2);
      }

      .cls-10 {
        fill: url(#Dégradé_sans_nom_10);
      }

      .cls-11 {
        fill: red;
      }

      .cls-3 {
        font-family: Montserrat-Black, Montserrat;
        font-size: 110px;
      }
    </style>
    <linearGradient id="Dégradé_sans_nom_10" data-name="Dégradé sans nom 10" x1="146.42" y1="1079.49" x2="1829.42" y2="-36.51" gradientUnits="userSpaceOnUse">
      <stop offset="0" stop-color="#111"/>
      <stop offset="1" stop-color="#16163c"/>
    </linearGradient>
    <linearGradient id="Dégradé_sans_nom_4" data-name="Dégradé sans nom 4" x1="1268.53" y1="314.06" x2="1242.93" y2="341.34" gradientUnits="userSpaceOnUse">
      <stop offset="0" stop-color="#7237bd"/>
      <stop offset="1" stop-color="#fd0988"/>
    </linearGradient>
    <linearGradient id="Dégradé_sans_nom_4-2" data-name="Dégradé sans nom 4" x1="676.66" y1="673.78" x2="651.06" y2="701.06" xlink:href="#Dégradé_sans_nom_4"/>
  </defs>
  <rect class="cls-10" width="1920" height="1080"/>
  <text class="cls-3" transform="translate(257.71 578.4)"><tspan x="0" y="0">UN </tspan><tspan class="cls-8" x="207.68" y="0">A</tspan><tspan class="cls-4" x="295.24" y="0">CC</tspan><tspan x="455.61" y="0">OM</tspan><tspan class="cls-1" x="653.83" y="0">P</tspan><tspan class="cls-8" x="730.61" y="0">A</tspan><tspan x="818.17" y="0">GNEMENT</tspan></text>
  <line class="cls-5" x1="493.76" y1="749.25" x2="865.06" y2="749.25"/>
  <line class="cls-5" x1="1003.44" y1="344.25" x2="1543.16" y2="344.25"/>
  <circle class="cls-6" cx="1255.73" cy="327.7" r="15.55"/>
  <circle class="cls-9" cx="663.86" cy="687.42" r="15.55"/>
  <polygon class="cls-2" points="1266.47 315.04 1275.85 307.5 1267.61 316.88 1275.85 326.25 1266.47 318.76 1257.1 326.25 1265.4 316.88 1257.1 307.5 1266.47 315.04"/>
  <polygon class="cls-7" points="89.94 966.19 110.38 928.84 130.81 966.19 168.16 986.62 130.81 1007.06 110.38 1044.41 89.94 1007.06 52.59 986.62 89.94 966.19"/>
  <polygon class="cls-7" points="107.94 750.19 128.38 712.84 148.81 750.19 186.16 770.62 148.81 791.06 128.38 828.41 107.94 791.06 70.59 770.62 107.94 750.19"/>
  <polygon class="cls-7" points="300.18 840.19 320.62 802.84 341.05 840.19 378.41 860.62 341.05 881.06 320.62 918.41 300.18 881.06 262.83 860.62 300.18 840.19"/>
  <polygon class="cls-7" points="453.18 981.94 473.62 944.59 494.05 981.94 531.41 1002.38 494.05 1022.81 473.62 1060.16 453.18 1022.81 415.83 1002.38 453.18 981.94"/>
  <polygon class="cls-2" points="1672.1 475.31 1677.71 465.06 1683.31 475.31 1693.56 480.92 1683.31 486.53 1677.71 496.78 1672.1 486.53 1661.85 480.92 1672.1 475.31"/>
  <path class="cls-11" d="M630.54,733.21c-.51-8.53-.12-17.1,1.26-25.53,.22-1.33-.35-2.69-1.75-3.08-1.19-.33-2.86,.41-3.08,1.75-1.46,8.88-1.97,17.87-1.44,26.86,.19,3.2,5.19,3.22,5,0h0Z"/>
  <path class="cls-11" d="M627.81,692.81c-4.17,1.74-7.96,4-11.46,6.86-1.24,1.02-.8,3.21,.51,3.93,2.39,1.31,4.98,.51,6.99-1.1,.73-.58,1.34-1.29,2-1.95,.14-.14,.29-.28,.43-.42,.07-.06,.57-.45,.23-.21,.19-.14,.39-.26,.6-.37,.24-.12,.28-.14,.13-.06-.14,.07-.1,.06,.13-.02l.2-.05c-.33,.03-.35,.03-.07,0,.16,0,.33,.02,.48,0,.19,.02,.13,0-.19-.02,.09,.02,.19,.04,.28,.07,.27,.09,.32,.12,.03-.02,.18,.08,.35,.18,.52,.28,.07,.04,.6,.43,.16,.08,.33,.27,.64,.57,.93,.88,.12,.14,.24,.28,.36,.42,.11,.14,.09,.12-.05-.06,.07,.09,.13,.18,.2,.28,.24,.35,.47,.7,.68,1.07,.23,.4,.45,.81,.65,1.22,.1,.2,.19,.41,.28,.62-.18-.4,.03,.07,.08,.22,.48,1.21,1.69,2.19,3.08,1.75,1.17-.38,2.26-1.77,1.75-3.08-1.49-3.77-4.02-8.17-8.47-8.66-2.28-.25-4.3,.91-5.87,2.47-.35,.34-.67,.7-1.01,1.05-.17,.17-.34,.35-.51,.51-.04,.04-.57,.46-.25,.23-.24,.17-.49,.32-.74,.45-.16,.08-.15,.08,.04,0-.11,.04-.23,.08-.34,.1-.18,.04-.15,.05,.09,.01-.11,.01-.23,.01-.34,0-.19,0-.15,0,.11,.01,.24,.13,.22,.13-.04-.02l.51,3.93c2.59-2.12,6.2-4.3,9.26-5.57,1.2-.5,2.2-1.68,1.75-3.08-.37-1.16-1.78-2.29-3.08-1.75h0Z"/>
</svg>