<?xml version="1.0" encoding="UTF-8"?>
<svg id="Frame_10" data-name="Frame 10" xmlns="http://www.w3.org/2000/svg" xmlns:xlink="http://www.w3.org/1999/xlink" viewBox="0 0 1920 1080">
  <defs>
    <style>
      .cls-1 {
        fill: none;
        stroke: #fff;
        stroke-miterlimit: 10;
        stroke-width: 2px;
      }

      .cls-2 {
        fill: url(#Dégradé_sans_nom_4);
      }

      .cls-3 {
        letter-spacing: 0em;
      }

      .cls-4 {
        fill: url(#Dégradé_sans_nom_4-2);
      }

      .cls-5 {
        fill: url(#Dégradé_sans_nom_10);
      }

      .cls-6 {
        fill: red;
      }

      .cls-7 {
        fill: #fff;
        font-family: Montserrat-Black, Montserrat;
        font-size: 110px;
      }
    </style>
    <linearGradient id="Dégradé_sans_nom_10" data-name="Dégradé sans nom 10" x1="146.42" y1="1079.49" x2="1829.42" y2="-36.51" gradientUnits="userSpaceOnUse">
      <stop offset="0" stop-color="#111"/>
      <stop offset="1" stop-color="#16163c"/>
    </linearGradient>
    <linearGradient id="Dégradé_sans_nom_4" data-name="Dégradé sans nom 4" x1="768.19" y1="314.06" x2="742.59" y2="341.34" gradientUnits="userSpaceOnUse">
      <stop offset="0" stop-color="#7237bd"/>
      <stop offset="1" stop-color="#fd0988"/>
    </linearGradient>
    <linearGradient id="Dégradé_sans_nom_4-2" data-name="Dégradé sans nom 4" x1="542.49" y1="719.06" x2="516.89" y2="746.34" xlink:href="#Dégradé_sans_nom_4"/>
  </defs>
  <rect class="cls-5" width="1920" height="1080"/>
  <text class="cls-7" transform="translate(394.82 578.4)"><tspan x="0" y="0">NOUS </tspan><tspan class="cls-3" x="373.23" y="0">P</tspan><tspan x="453.86" y="0">ROPOSONS</tspan></text>
  <line class="cls-1" x1="252.34" y1="749.25" x2="1136.74" y2="749.25"/>
  <line class="cls-1" x1="520.39" y1="344.25" x2="1404.79" y2="344.25"/>
  <circle class="cls-2" cx="755.38" cy="327.7" r="15.55"/>
  <circle class="cls-4" cx="529.68" cy="732.7" r="15.55"/>
  <path class="cls-6" d="M414.28,280.46c16.52-14.86,30.72-32.01,45.67-48.4,14.58-15.98,30.12-31.85,49.25-42.38,20.78-11.44,44.48-14.33,67.39-8,24.95,6.89,46.45,22.64,63.4,41.87,20.18,22.88,34.43,50.19,48.5,77.05,.64,1.22,2.28,1.51,3.42,.9,18.43-9.94,27.42-29.98,38.88-46.43,5.61-8.06,12.22-15.82,21.13-20.32,11.98-6.06,26-4.24,37.72,1.54,12.95,6.39,22.83,17.19,31.53,28.47,4.39,5.68,8.51,11.56,12.84,17.29,3.43,4.55,7.52,9.25,13.68,9.43s11.54-4.16,15.82-8.2c5.3-5,10.57-10.01,16.15-14.7,11.56-9.72,23.94-18.44,36.95-26.09,7-4.12,16.17-10.74,24.72-8.48,7.6,2.01,12.83,9.89,17.44,15.71,10.8,13.64,20.4,28.22,28.82,43.45,.85,1.54,2.71,1.47,3.93,.51,17.84-14.15,37.97-27.01,60.74-31.07,19.4-3.45,40.15,1.26,54.88,14.77,7.72,7.07,13.25,16.36,14.56,26.85,.4,3.15,5.4,3.19,5,0-2.56-20.42-17.97-35.67-36.54-43.02-21.83-8.65-45.61-4.27-66.25,5.6-12.93,6.19-24.72,14.45-35.92,23.34l3.93,.51c-7.7-13.91-16.38-27.26-26.04-39.89-7.48-9.77-16.5-23.89-30.7-21.95-7.43,1.01-14.18,5.33-20.54,9.05-6.7,3.92-13.23,8.12-19.57,12.59-12.35,8.71-23.74,18.49-34.67,28.9-5.47,5.21-12.56,10.39-19.1,3.73-5.12-5.21-9.05-11.88-13.43-17.71-8.46-11.27-17.67-22.42-29.71-30.03-11.14-7.04-24.69-11.1-37.86-8.66-10.37,1.92-19.2,8.15-26.1,15.91-15.49,17.43-23.35,43.03-44.81,54.6l3.42,.9c-24.72-47.19-52.84-98.4-105.63-118.2-22.94-8.61-47.96-8.87-70.62,.71-20.31,8.58-37.06,23.57-52.13,39.34-18.03,18.87-34.24,39.51-53.69,57-2.4,2.16,1.15,5.68,3.54,3.54h0Z"/>
  <path class="cls-6" d="M1096.22,303.32c7.68,2.41,15.45,4.5,23.3,6.25,3.77,.84,7.56,1.6,11.36,2.28s7.84,1.52,11.78,1.8c3.64,.26,7.19-.76,9.55-3.67,2.11-2.6,3.32-5.86,4.43-8.99,2.42-6.8,3.7-14.04,3.87-21.25,.2-8.24-1.09-16.54-3.83-24.32-.45-1.27-1.71-2.12-3.08-1.75-1.23,.34-2.2,1.8-1.75,3.08,4.48,12.71,4.87,26.65,1.04,39.58-.88,2.97-1.88,6.04-3.4,8.76-.56,1.01-1.22,2.01-2.17,2.69-1.24,.88-2.78,.96-4.25,.89-3.47-.17-6.98-.95-10.4-1.56-3.64-.65-7.27-1.37-10.89-2.16-8.17-1.79-16.26-3.95-24.24-6.46-3.08-.97-4.39,3.86-1.33,4.82h0Z"/>
  <path class="cls-6" d="M304.72,710.46c24.61-1.05,49.21-2.1,73.82-3.15,24.61-1.05,49.21-2.1,73.82-3.15,13.8-.59,27.6-1.18,41.4-1.77,3.21-.14,3.22-5.14,0-5-24.61,1.05-49.21,2.1-73.82,3.15-24.61,1.05-49.21,2.1-73.82,3.15-13.8,.59-27.6,1.18-41.4,1.77-3.21,.14-3.22,5.14,0,5h0Z"/>
  <path class="cls-6" d="M479.88,680.84c11.79,3.01,22.91,8.1,32.93,15.02v-4.32c-10.13,6.68-21.52,11.12-33.49,13.1-1.33,.22-2.08,1.87-1.75,3.08,.39,1.42,1.74,1.97,3.08,1.75,12.35-2.03,24.24-6.71,34.69-13.6,1.64-1.08,1.58-3.23,0-4.32-10.34-7.14-21.95-12.41-34.12-15.53-3.12-.8-4.45,4.02-1.33,4.82h0Z"/>
</svg>