<?xml version="1.0" encoding="UTF-8"?>
<svg id="Frame_4" data-name="Frame 4" xmlns="http://www.w3.org/2000/svg" xmlns:xlink="http://www.w3.org/1999/xlink" viewBox="0 0 1920 1080">
  <defs>
    <style>
      .cls-1 {
        fill: url(#Dégradé_sans_nom_4-11);
      }

      .cls-2 {
        fill: #7237bd;
      }

      .cls-3, .cls-4 {
        fill: #fff;
      }

      .cls-5 {
        fill: url(#Dégradé_sans_nom_4-6);
      }

      .cls-6 {
        fill: url(#Dégradé_sans_nom_4-3);
      }

      .cls-4 {
        font-family: Montserrat-Black, Montserrat;
        font-size: 80px;
      }

      .cls-7 {
        fill: url(#Dégradé_sans_nom_4-7);
      }

      .cls-8 {
        fill: url(#Dégradé_sans_nom_5);
      }

      .cls-9 {
        fill: url(#Dégradé_sans_nom_4-10);
      }

      .cls-10 {
        letter-spacing: 0em;
      }

      .cls-11 {
        fill: url(#Dégradé_sans_nom_4-5);
      }

      .cls-12 {
        fill: #fd0988;
      }

      .cls-13 {
        fill: url(#Dégradé_sans_nom_4);
      }

      .cls-14 {
        fill: #191c26;
      }

      .cls-15 {
        fill: url(#Dégradé_sans_nom_4-4);
      }

      .cls-16 {
        fill: url(#Dégradé_sans_nom_4-2);
      }

      .cls-17 {
        fill: url(#Dégradé_sans_nom_4-8);
      }

      .cls-18 {
        fill: url(#Dégradé_sans_nom_4-9);
      }

      .cls-19 {
        fill: red;
      }
    </style>
    <linearGradient id="Dégradé_sans_nom_5" data-name="Dégradé sans nom 5" x1="960" y1="1076.63" x2="960" y2="8.2" gradientUnits="userSpaceOnUse">
      <stop offset="0" stop-color="#111"/>
      <stop offset="1" stop-color="#16163c"/>
    </linearGradient>
    <linearGradient id="Dégradé_sans_nom_4" data-name="Dégradé sans nom 4" x1="803.52" y1="418.06" x2="769.21" y2="454.62" gradientUnits="userSpaceOnUse">
      <stop offset="0" stop-color="#7237bd"/>
      <stop offset="1" stop-color="#fd0988"/>
    </linearGradient>
    <linearGradient id="Dégradé_sans_nom_4-2" data-name="Dégradé sans nom 4" x1="1146.2" y1="418.06" x2="1111.89" y2="454.62" xlink:href="#Dégradé_sans_nom_4"/>
    <linearGradient id="Dégradé_sans_nom_4-3" data-name="Dégradé sans nom 4" x1="992.72" y1="617.12" x2="958.4" y2="653.68" xlink:href="#Dégradé_sans_nom_4"/>
    <linearGradient id="Dégradé_sans_nom_4-4" data-name="Dégradé sans nom 4" x1="665.63" y1="453.02" x2="631.32" y2="489.58" xlink:href="#Dégradé_sans_nom_4"/>
    <linearGradient id="Dégradé_sans_nom_4-5" data-name="Dégradé sans nom 4" x1="1030.64" y1="418.86" x2="996.33" y2="455.43" xlink:href="#Dégradé_sans_nom_4"/>
    <linearGradient id="Dégradé_sans_nom_4-6" data-name="Dégradé sans nom 4" x1="1116.71" y1="617.12" x2="1082.39" y2="653.68" xlink:href="#Dégradé_sans_nom_4"/>
    <linearGradient id="Dégradé_sans_nom_4-7" data-name="Dégradé sans nom 4" x1="676.02" y1="580.46" x2="650.42" y2="607.74" xlink:href="#Dégradé_sans_nom_4"/>
    <linearGradient id="Dégradé_sans_nom_4-8" data-name="Dégradé sans nom 4" x1="1272.64" y1="580.46" x2="1247.03" y2="607.74" xlink:href="#Dégradé_sans_nom_4"/>
    <linearGradient id="Dégradé_sans_nom_4-9" data-name="Dégradé sans nom 4" x1="816.07" y1="616.72" x2="787.29" y2="647.38" xlink:href="#Dégradé_sans_nom_4"/>
    <linearGradient id="Dégradé_sans_nom_4-10" data-name="Dégradé sans nom 4" x1="919.76" y1="429.97" x2="890.98" y2="460.64" xlink:href="#Dégradé_sans_nom_4"/>
    <linearGradient id="Dégradé_sans_nom_4-11" data-name="Dégradé sans nom 4" x1="1280.99" y1="460.27" x2="1252.21" y2="490.94" xlink:href="#Dégradé_sans_nom_4"/>
  </defs>
  <rect class="cls-8" width="1920" height="1080"/>
  <polygon class="cls-2" points="961 356.48 960 587.77 959 356.48 961 356.48 961 356.48"/>
  <circle class="cls-12" cx="960" cy="356.48" r="15.55"/>
  <text class="cls-4" transform="translate(674.28 558.14)"><tspan x="0" y="0">UN OBJE</tspan><tspan class="cls-10" x="380.47" y="0">C</tspan><tspan x="439.59" y="0">TIF</tspan></text>
  <path class="cls-19" d="M539.57,991.89c33.6-13.35,66.35-28.83,97.98-46.37,31.43-17.43,61.76-36.86,90.73-58.12,28.98-21.27,56.63-44.35,82.68-69.11,25.91-24.63,51.02-50.72,70.46-80.89,18.57-28.83,32.13-62.48,29.89-97.33-.27-4.23-.78-8.45-1.47-12.63-.52-3.17-5.34-1.82-4.82,1.33,5.63,33.99-5.19,67.72-22.25,96.88s-42.04,56.68-67.22,81.27c-25.41,24.82-52.39,48.03-80.74,69.43s-58.06,41.02-88.86,58.7c-30.8,17.68-62.71,33.45-95.51,47.07-4.05,1.68-8.12,3.33-12.2,4.95-1.26,.5-2.12,1.67-1.75,3.08,.32,1.2,1.82,2.24,3.08,1.75h0Z"/>
  <path class="cls-19" d="M896.5,641.48c3.1-1.9,5.05-4.89,6.81-7.99,1.54-2.73,2.95-5.46,5.79-7.04,2.58-1.44,4.75-1.08,5.9,1.84,1.63,4.15,2.84,8.52,4.24,12.76,1.62,4.9,3.24,9.8,4.86,14.69,1.01,3.04,5.84,1.74,4.82-1.33-1.57-4.74-3.13-9.48-4.7-14.23s-2.8-9.32-4.61-13.78c-1.69-4.15-5.26-6.52-9.77-5.55-3.69,.79-6.79,3.54-8.79,6.63-2.12,3.28-3.58,7.56-7.06,9.69-2.74,1.68-.23,6,2.52,4.32h0Z"/>
  <path class="cls-19" d="M695.8,1060.19c27.73-19.37,55.55-38.62,83.19-58.12,12.64-8.91,25.17-18.16,36.14-29.11,11.18-11.16,20.3-24.12,29.05-37.21,17.56-26.24,35.13-52.55,50.63-80.07,15.52-27.57,28.61-56.44,37.53-86.84,8.95-30.49,13.98-62.17,14.92-93.93,.12-3.91,.16-7.83,.16-11.74,0-3.22-5.01-3.22-5,0,.05,31.49-3.93,62.91-11.87,93.38-7.92,30.41-19.93,59.4-34.8,87.05-14.73,27.39-31.82,53.42-49.02,79.3-8.7,13.08-17.22,26.4-27.51,38.31s-22.11,21.58-34.6,30.69c-13.07,9.54-26.47,18.64-39.73,27.91-13.77,9.62-27.53,19.23-41.3,28.85-3.44,2.4-6.88,4.81-10.32,7.21-2.62,1.83-.12,6.17,2.52,4.32h0Z"/>
  <path class="cls-19" d="M930.36,665.27c6.05-3.17,12.1-6.34,18.15-9.5l-3.76-2.16c-.9,14.96,1.62,30.11,7.37,43.95,.52,1.25,1.66,2.14,3.08,1.75,1.18-.32,2.27-1.82,1.75-3.08-5.6-13.49-8.07-28.05-7.19-42.63,.12-1.99-2.19-2.98-3.76-2.16-6.05,3.17-12.1,6.34-18.15,9.5-2.85,1.49-.33,5.81,2.52,4.32h0Z"/>
  <path class="cls-19" d="M635.49,1047.99c23.43-21.75,46.86-43.5,70.28-65.25,23.43-21.75,46.86-43.5,70.28-65.25,21.41-19.87,43-39.63,62.78-61.17s36.66-43.52,49.79-68.73c12.72-24.43,21.43-51.17,23.1-78.77,.2-3.38,.29-6.77,.28-10.16s-5.01-3.22-5,0c.09,27.37-7.21,54.26-18.94,78.86-12.09,25.37-28.7,48.23-47.29,69.2-19.01,21.44-40,41-60.98,60.48-23.13,21.48-46.27,42.95-69.4,64.43-23.26,21.59-46.52,43.19-69.78,64.78-2.89,2.68-5.77,5.36-8.66,8.04-2.36,2.19,1.18,5.72,3.54,3.54h0Z"/>
  <path class="cls-19" d="M894.41,701.22c9.1-2.84,16.95-8.75,22.23-16.68l-4.57-.6c1.36,9.88,1.6,19.92,.86,29.86-.1,1.35,1.22,2.5,2.5,2.5,1.44,0,2.4-1.15,2.5-2.5,.77-10.42,.38-20.84-1.04-31.19-.13-.95-1.22-1.69-2.08-1.79-1.03-.12-1.92,.33-2.49,1.19-4.54,6.83-11.42,11.95-19.24,14.39-3.06,.95-1.76,5.78,1.33,4.82h0Z"/>
  <path class="cls-3" d="M1191.5,550.12v-23.62c0-3.22-5-3.22-5,0v23.62c0,3.22,5,3.22,5,0h0Z"/>
  <path class="cls-3" d="M1178.47,518.53c5.44-3.6,10.89-7.21,16.33-10.81-1.25-.72-2.51-1.44-3.76-2.16-.86,8.98,.87,18.01,4.78,26.12,.59,1.22,2.32,1.54,3.42,.9,1.24-.73,1.49-2.2,.9-3.42-3.54-7.33-4.88-15.51-4.1-23.6,.18-1.87-2.27-3.15-3.76-2.16-5.44,3.6-10.89,7.21-16.33,10.81-2.67,1.77-.17,6.1,2.52,4.32h0Z"/>
  <polygon class="cls-13" points="786.36 425.92 801.11 421.6 796.79 436.35 801.11 451.1 786.36 446.78 771.61 451.1 775.93 436.35 771.61 421.6 786.36 425.92"/>
  <polygon class="cls-16" points="1129.04 425.92 1143.79 421.6 1139.47 436.35 1143.79 451.1 1129.04 446.78 1114.29 451.1 1118.61 436.35 1114.29 421.6 1129.04 425.92"/>
  <polygon class="cls-6" points="975.55 624.98 990.3 620.66 985.98 635.41 990.3 650.15 975.55 645.83 960.81 650.15 965.12 635.41 960.81 620.66 975.55 624.98"/>
  <rect class="cls-15" x="633.72" y="456.56" width="29.5" height="29.5"/>
  <rect class="cls-11" x="998.73" y="422.41" width="29.5" height="29.5"/>
  <rect class="cls-5" x="1084.79" y="620.66" width="29.5" height="29.5"/>
  <circle class="cls-7" cx="663.21" cy="594.11" r="15.55"/>
  <circle class="cls-17" cx="1259.83" cy="594.11" r="15.55"/>
  <polygon class="cls-18" points="801.11 607.54 783.15 638.65 819.07 638.65 801.11 607.54"/>
  <polygon class="cls-9" points="904.8 420.79 886.84 451.9 922.76 451.9 904.8 420.79"/>
  <polygon class="cls-1" points="1266.02 451.1 1248.06 482.2 1283.98 482.2 1266.02 451.1"/>
  <polygon class="cls-14" points="201.63 919.98 222.06 882.62 242.49 919.98 279.85 940.41 242.49 960.85 222.06 998.2 201.63 960.85 164.27 940.41 201.63 919.98"/>
  <polygon class="cls-14" points="532.38 761.77 552.81 724.42 573.24 761.77 610.6 782.2 573.24 802.64 552.81 839.99 532.38 802.64 495.02 782.2 532.38 761.77"/>
  <polygon class="cls-14" points="884.37 969.05 904.8 931.69 925.23 969.05 962.59 989.48 925.23 1009.91 904.8 1047.27 884.37 1009.91 847.01 989.48 884.37 969.05"/>
  <polygon class="cls-14" points="1123.35 745.32 1143.79 707.97 1164.22 745.32 1201.58 765.76 1164.22 786.19 1143.79 823.55 1123.35 786.19 1086 765.76 1123.35 745.32"/>
  <polygon class="cls-14" points="1388.53 935.14 1408.96 897.78 1429.39 935.14 1466.75 955.57 1429.39 976.01 1408.96 1013.36 1388.53 976.01 1351.17 955.57 1388.53 935.14"/>
  <polygon class="cls-14" points="1678.78 819.56 1699.21 782.2 1719.64 819.56 1757 839.99 1719.64 860.43 1699.21 897.78 1678.78 860.43 1641.42 839.99 1678.78 819.56"/>
</svg>