<?xml version="1.0" encoding="UTF-8"?>
<svg id="Frame_8" data-name="Frame 8" xmlns="http://www.w3.org/2000/svg" xmlns:xlink="http://www.w3.org/1999/xlink" viewBox="0 0 1920 1080">
  <defs>
    <style>
      .cls-1 {
        fill: url(#Dégradé_sans_nom_4-3);
      }

      .cls-2 {
        fill: none;
        stroke: #fff;
        stroke-miterlimit: 10;
        stroke-width: 2px;
      }

      .cls-3 {
        fill: url(#Dégradé_sans_nom_8);
      }

      .cls-4 {
        fill: url(#Dégradé_sans_nom_4);
      }

      .cls-5 {
        fill: #191c26;
      }

      .cls-6 {
        fill: url(#Dégradé_sans_nom_4-4);
      }

      .cls-7 {
        fill: url(#Dégradé_sans_nom_4-2);
      }

      .cls-8 {
        fill: red;
      }

      .cls-9 {
        fill: #fff;
        font-family: Montserrat-Black, Montserrat;
        font-size: 110px;
      }
    </style>
    <linearGradient id="Dégradé_sans_nom_8" data-name="Dégradé sans nom 8" x1="-49.61" y1="1095.85" x2="1952.89" y2="-6.65" gradientUnits="userSpaceOnUse">
      <stop offset="0" stop-color="#16163c"/>
      <stop offset="1" stop-color="#7237bd"/>
    </linearGradient>
    <linearGradient id="Dégradé_sans_nom_4" data-name="Dégradé sans nom 4" x1="1513.92" y1="718.29" x2="1628.67" y2="617.04" gradientUnits="userSpaceOnUse">
      <stop offset="0" stop-color="#7237bd"/>
      <stop offset="1" stop-color="#fd0988"/>
    </linearGradient>
    <linearGradient id="Dégradé_sans_nom_4-2" data-name="Dégradé sans nom 4" x1="1613.94" y1="358.91" x2="1526.18" y2="452.43" xlink:href="#Dégradé_sans_nom_4"/>
    <linearGradient id="Dégradé_sans_nom_4-3" data-name="Dégradé sans nom 4" x1="473.63" y1="574.89" x2="363.29" y2="692.47" xlink:href="#Dégradé_sans_nom_4"/>
    <linearGradient id="Dégradé_sans_nom_4-4" data-name="Dégradé sans nom 4" x1="1451.35" y1="878.7" x2="1341" y2="996.28" xlink:href="#Dégradé_sans_nom_4"/>
  </defs>
  <rect class="cls-3" width="1920" height="1080"/>
  <path class="cls-2" d="M766.16,1096.36c-122.38-32.74-232.72-109.56-305.3-222.83"/>
  <path class="cls-2" d="M1079.09-63.74c140.4,25.48,265.14,107.82,343.76,226.91"/>
  <text class="cls-9" transform="translate(601.4 575.96)"><tspan x="0" y="0">MARKETING</tspan></text>
  <circle class="cls-5" cx="399.12" cy="342.59" r="94.85"/>
  <circle class="cls-4" cx="1568.3" cy="670.3" r="47.43"/>
  <path class="cls-8" d="M1091.53,464.15c-.09-4.9-.19-9.83,.42-14.7,.28-2.25,.66-4.66,1.48-6.79,.36-.93,.9-2.23,1.97-1.98,1.43,.33,2.5,2.54,3.01,3.75,.74,1.78,1.09,3.75,1.24,5.67,.37,4.61,.07,9.35-.59,13.92-.19,1.33,.33,2.69,1.75,3.08,1.17,.32,2.88-.4,3.08-1.75,.65-4.51,1.03-9.08,.86-13.65-.15-4.02-.81-8.25-3.04-11.68s-6.54-6.05-10.27-3.06c-3.2,2.57-3.82,7.56-4.34,11.36-.71,5.25-.66,10.54-.57,15.83,.06,3.21,5.06,3.22,5,0h0Z"/>
  <path class="cls-8" d="M1094.93,462.47c.22,.15,.19,.12-.11-.09,.08,.07,.16,.15,.23,.23,.34,.33-.24-.43,.01,.02,.2,.34,.4,.68,.59,1.03,.45,.84,.96,1.6,1.55,2.35,.65,.82,1.43,1.69,2.47,1.99s2.04-.02,2.83-.7c.28-.25,.5-.54,.75-.82,.58-.66,1.2-1.29,1.86-1.87,.29-.25,.58-.55,.9-.75-.75,.47,.66-.51,.53-.41,.13-.1,.26-.2,.38-.3,1.54-1.23,2.63-2.75,2.76-4.76,.09-1.31-1.21-2.56-2.5-2.5-1.43,.06-2.4,1.1-2.5,2.5-.02,.28-.01,.21,.03-.21-.02,.1-.05,.19-.08,.29-.07-.1,.29-.56,0-.06s-.08-.02,.04,0c-.05,0-.38,.41-.43,.46-.23,.23-.48,.44-.73,.64-.08,.07-.17,.14-.25,.2-.21,.16-.17,.13,.12-.09,0,0-1.09,.85-.76,.58-.67,.52-1.31,1.08-1.92,1.68-.32,.32-.64,.65-.94,1-.13,.15-.26,.3-.38,.45-.07,.09-.14,.17-.22,.26-.31,.3-.1,.18,.63-.37h1.33c.18,.06,.33,.16,.48,.27,.16,.13,.19,.14,.07,.04-.09-.12-.22-.22-.33-.33s-.21-.23-.31-.35c-.04-.05-.08-.09-.12-.14-.12-.14-.08-.09,.1,.14-.2-.14-.35-.49-.48-.7-.16-.25-.3-.51-.45-.77-.68-1.27-1.41-2.39-2.63-3.21-1.09-.73-2.82-.24-3.42,.9-.67,1.26-.26,2.64,.9,3.42h0Z"/>
  <polygon class="cls-7" points="1568.3 330.94 1513.54 425.79 1623.07 425.79 1568.3 330.94"/>
  <polygon class="cls-1" points="418.43 600.17 465.86 586.28 451.97 633.7 465.86 681.13 418.43 667.24 371.01 681.13 384.9 633.7 371.01 586.28 418.43 600.17"/>
  <rect class="cls-6" x="1348.72" y="890.09" width="94.85" height="94.85"/>
</svg>