<?xml version="1.0" encoding="UTF-8"?>
<svg id="Frame_12" data-name="Frame 12" xmlns="http://www.w3.org/2000/svg" xmlns:xlink="http://www.w3.org/1999/xlink" viewBox="0 0 1920 1080">
  <defs>
    <style>
      .cls-1, .cls-2 {
        fill: #fff;
      }

      .cls-3 {
        letter-spacing: -.02em;
      }

      .cls-4 {
        fill: none;
        stroke: #fff;
        stroke-miterlimit: 10;
        stroke-width: 2px;
      }

      .cls-5 {
        letter-spacing: 0em;
      }

      .cls-6 {
        letter-spacing: 0em;
      }

      .cls-7 {
        fill: url(#Dégradé_sans_nom_4);
      }

      .cls-8 {
        fill: #191c26;
      }

      .cls-9 {
        letter-spacing: 0em;
      }

      .cls-10 {
        fill: url(#Dégradé_sans_nom_4-2);
      }

      .cls-11 {
        letter-spacing: -.02em;
      }

      .cls-12 {
        fill: url(#Dégradé_sans_nom_10);
      }

      .cls-13 {
        fill: red;
      }

      .cls-2 {
        font-family: Montserrat-Black, Montserrat;
        font-size: 110px;
      }
    </style>
    <linearGradient id="Dégradé_sans_nom_10" data-name="Dégradé sans nom 10" x1="146.42" y1="1079.49" x2="1829.42" y2="-36.51" gradientUnits="userSpaceOnUse">
      <stop offset="0" stop-color="#111"/>
      <stop offset="1" stop-color="#16163c"/>
    </linearGradient>
    <linearGradient id="Dégradé_sans_nom_4" data-name="Dégradé sans nom 4" x1="1268.53" y1="250.5" x2="1242.93" y2="277.78" gradientUnits="userSpaceOnUse">
      <stop offset="0" stop-color="#7237bd"/>
      <stop offset="1" stop-color="#fd0988"/>
    </linearGradient>
    <linearGradient id="Dégradé_sans_nom_4-2" data-name="Dégradé sans nom 4" x1="676.66" y1="735.6" x2="651.06" y2="762.88" xlink:href="#Dégradé_sans_nom_4"/>
  </defs>
  <rect class="cls-12" width="1920" height="1080"/>
  <text class="cls-2" transform="translate(365.02 578.4)"><tspan class="cls-9" x="0" y="0">D</tspan><tspan x="89.76" y="0">ANS </tspan><tspan class="cls-3" x="372.13" y="0">V</tspan><tspan x="455.84" y="0">OS </tspan><tspan class="cls-6" x="654.38" y="0">P</tspan><tspan class="cls-5" x="735.01" y="0">R</tspan><tspan class="cls-11" x="816.96" y="0">O</tspan><tspan x="908.59" y="0">JETS</tspan></text>
  <line class="cls-4" x1="1135.78" y1="344.25" x2="1375.68" y2="344.25"/>
  <circle class="cls-7" cx="1255.73" cy="264.15" r="15.55"/>
  <circle class="cls-10" cx="663.86" cy="749.25" r="15.55"/>
  <polygon class="cls-8" points="89.94 966.19 110.38 928.84 130.81 966.19 168.16 986.62 130.81 1007.06 110.38 1044.41 89.94 1007.06 52.59 986.62 89.94 966.19"/>
  <polygon class="cls-8" points="107.94 750.19 128.38 712.84 148.81 750.19 186.16 770.62 148.81 791.06 128.38 828.41 107.94 791.06 70.59 770.62 107.94 750.19"/>
  <polygon class="cls-8" points="300.18 840.19 320.62 802.84 341.05 840.19 378.41 860.62 341.05 881.06 320.62 918.41 300.18 881.06 262.83 860.62 300.18 840.19"/>
  <polygon class="cls-8" points="453.18 981.94 473.62 944.59 494.05 981.94 531.41 1002.38 494.05 1022.81 473.62 1060.16 453.18 1022.81 415.83 1002.38 453.18 981.94"/>
  <polygon class="cls-1" points="1563.81 475.31 1569.41 465.06 1575.02 475.31 1585.27 480.92 1575.02 486.53 1569.41 496.78 1563.81 486.53 1553.55 480.92 1563.81 475.31"/>
  <path class="cls-4" d="M646.95,749.25s2.45,73.12,83.45,73.12c39.38,0,59.62-36.56,59.62-36.56"/>
  <path class="cls-13" d="M1236.44,332.99c-.41-8.07-1.01-16.12-1.79-24.16-.13-1.34-1.06-2.5-2.5-2.5-1.25,0-2.63,1.15-2.5,2.5,.78,8.04,1.38,16.09,1.79,24.16,.16,3.2,5.16,3.22,5,0h0Z"/>
  <path class="cls-13" d="M1226.43,312.14l6.46-6.79,3.23-3.39c1.02-1.08,2-2.25,3.1-3.25l-1.1,.64,.13-.05-1.93-.25,.17,.1-.9-.9c-.11-.24,.04,.22,.05,.24,.08,.27,.17,.53,.26,.79,.14,.42,.27,.85,.41,1.27,.31,.95,.61,1.91,.92,2.86,.6,1.85,1.19,3.7,1.79,5.56,.41,1.28,1.73,2.11,3.08,1.75,1.26-.35,2.16-1.78,1.75-3.08-.87-2.7-1.74-5.4-2.61-8.1-.22-.69-.44-1.38-.66-2.06-.25-.78-.45-1.66-1.05-2.26-.8-.8-2.01-1.04-3.03-.57-.76,.34-1.27,.99-1.83,1.58-3.92,4.12-7.84,8.24-11.76,12.36-.93,.98-.97,2.56,0,3.54s2.6,.98,3.54,0h0Z"/>
</svg>