<?xml version="1.0" encoding="UTF-8"?>
<svg id="Frame_9" data-name="Frame 9" xmlns="http://www.w3.org/2000/svg" xmlns:xlink="http://www.w3.org/1999/xlink" viewBox="0 0 1920 1080">
  <defs>
    <style>
      .cls-1 {
        fill: url(#Dégradé_sans_nom_4-3);
      }

      .cls-2 {
        fill: none;
        stroke: #fff;
        stroke-miterlimit: 10;
        stroke-width: 2px;
      }

      .cls-3 {
        letter-spacing: -.03em;
      }

      .cls-4 {
        fill: url(#Dégradé_sans_nom_4);
      }

      .cls-5 {
        fill: #191c26;
      }

      .cls-6 {
        fill: url(#Dégradé_sans_nom_4-4);
      }

      .cls-7 {
        fill: url(#Dégradé_sans_nom_9);
      }

      .cls-8 {
        fill: url(#Dégradé_sans_nom_4-2);
      }

      .cls-9 {
        fill: red;
      }

      .cls-10 {
        fill: #fff;
        font-family: Montserrat-Black, Montserrat;
        font-size: 110px;
      }
    </style>
    <linearGradient id="Dégradé_sans_nom_9" data-name="Dégradé sans nom 9" x1="-49.51" y1="1147.55" x2="2081.73" y2="-135.09" gradientUnits="userSpaceOnUse">
      <stop offset="0" stop-color="#16163c"/>
      <stop offset="1" stop-color="#fd0988"/>
    </linearGradient>
    <linearGradient id="Dégradé_sans_nom_4" data-name="Dégradé sans nom 4" x1="1526.98" y1="733.11" x2="1611.36" y2="604.86" gradientUnits="userSpaceOnUse">
      <stop offset="0" stop-color="#7237bd"/>
      <stop offset="1" stop-color="#fd0988"/>
    </linearGradient>
    <linearGradient id="Dégradé_sans_nom_4-2" data-name="Dégradé sans nom 4" x1="1601.46" y1="358.91" x2="1513.7" y2="452.43" xlink:href="#Dégradé_sans_nom_4"/>
    <linearGradient id="Dégradé_sans_nom_4-3" data-name="Dégradé sans nom 4" x1="1380.81" y1="926.13" x2="1270.46" y2="1043.71" xlink:href="#Dégradé_sans_nom_4"/>
    <linearGradient id="Dégradé_sans_nom_4-4" data-name="Dégradé sans nom 4" x1="447.25" y1="595.2" x2="336.9" y2="712.78" xlink:href="#Dégradé_sans_nom_4"/>
  </defs>
  <rect class="cls-7" width="1920" height="1080"/>
  <path class="cls-2" d="M766.16,1096.36c-122.38-32.74-232.72-109.56-305.3-222.83"/>
  <path class="cls-2" d="M1079.09-63.74c140.4,25.48,265.14,107.82,343.76,226.91"/>
  <text class="cls-10" transform="translate(721.47 578.4)"><tspan x="0" y="0">DIGI</tspan><tspan class="cls-3" x="252.45" y="0">T</tspan><tspan x="320.54" y="0">AL</tspan></text>
  <circle class="cls-5" cx="399.12" cy="342.59" r="94.85"/>
  <circle class="cls-4" cx="1568.3" cy="670.3" r="47.43"/>
  <path class="cls-9" d="M1076.43,606.59c.27,14.99-7.55,28.73-18.34,38.68-12.21,11.26-28.24,17.19-44.21,20.78-8.5,1.91-17.14,3.25-25.78,4.35-9.59,1.22-19.29,2.02-28.95,1.37-16.48-1.11-32.23-6.9-46.64-14.75s-28.15-18-41.29-28.26c-1.67-1.3-3.33-2.61-5-3.92-1.06-.83-2.5-1.03-3.54,0-.87,.87-1.07,2.7,0,3.54,13.66,10.76,27.47,21.47,42.52,30.26,14.81,8.65,30.89,15.32,47.99,17.55,9.66,1.26,19.41,.91,29.08-.1s18.61-2.31,27.78-4.12c17.07-3.36,34.19-8.99,47.93-20.02,12.21-9.8,21.51-23.91,23.21-39.69,.2-1.88,.28-3.77,.24-5.66-.06-3.21-5.06-3.22-5,0h0Z"/>
  <path class="cls-9" d="M859.51,648.22c.49-10.76,.98-21.53,1.47-32.29,.05-1.13,.28-2.42,.16-3.53-.06-.58,.3-.24-.12-.06,.1-.04-.49,.5-.54,.34,0-.03,1.58,.21,1.62,.22,2.5,.48,4.99,.99,7.47,1.54,5.12,1.13,10.21,2.41,15.25,3.83,5.66,1.59,11.26,3.37,16.81,5.32,1.27,.45,2.74-.51,3.08-1.75,.38-1.38-.47-2.63-1.75-3.08-10.64-3.74-21.51-6.84-32.52-9.26-2.74-.6-5.5-1.23-8.27-1.68s-5.25,.47-5.87,3.4c-.27,1.28-.22,2.65-.28,3.95l-.2,4.44-.4,8.87c-.3,6.57-.6,13.15-.89,19.72-.15,3.22,4.85,3.21,5,0h0Z"/>
  <path class="cls-9" d="M1522.63,736.28c-13.28,20.72-27.58,40.8-42.88,60.08-15.38,19.39-31.74,38.01-48.99,55.77-9.69,9.97-19.66,19.66-29.89,29.07-2.37,2.18,1.17,5.71,3.54,3.54,18.28-16.8,35.71-34.52,52.21-53.08s32.14-38.04,46.73-58.21c8.19-11.32,16.06-22.88,23.6-34.64,1.74-2.72-2.58-5.23-4.32-2.52h0Z"/>
  <path class="cls-9" d="M1392.76,843.18c-10.5,26.98-15.41,56.14-14.36,85.07,.13,3.53,.35,7.06,.65,10.58s.51,7.07,1.29,10.47c.72,3.17,2.41,5.92,5.15,7.72,2.24,1.46,5.02,2.1,7.67,2.09,6.27-.02,11.5-3.72,15.4-8.36,2.11-2.5,3.94-5.22,5.79-7.92,2.26-3.29,4.51-6.58,6.77-9.87,9.87-14.4,19.75-28.8,29.62-43.2,.76-1.11,.21-2.77-.9-3.42-1.24-.72-2.65-.22-3.42,.9-8.46,12.34-16.93,24.69-25.39,37.03-4.1,5.98-8.19,11.97-12.3,17.94-3.03,4.39-6.64,9.66-12,11.34-4.08,1.28-9.43,.53-11.11-3.93-1.1-2.92-1.16-6.32-1.45-9.4-.32-3.37-.55-6.74-.7-10.12-.62-13.66,.08-27.41,2.15-40.92,2.34-15.27,6.35-30.26,11.96-44.66,.49-1.26-.54-2.74-1.75-3.08-1.41-.39-2.58,.48-3.08,1.75h0Z"/>
  <path class="cls-9" d="M492.37,232.32c3.5-16.28,12.74-30.39,21.97-43.96,10.54-15.49,21.12-30.96,31.68-46.44,5.99-8.78,11.98-17.56,17.97-26.34,1.82-2.66-2.51-5.17-4.32-2.52-10.72,15.71-21.43,31.42-32.15,47.12-5.34,7.82-10.67,15.64-16.01,23.46-4.71,6.91-9.43,13.84-13.53,21.14-4.62,8.22-8.46,16.97-10.45,26.21-.68,3.14,4.14,4.48,4.82,1.33h0Z"/>
  <path class="cls-9" d="M551.52,68.33c19.72-5.64,39.57-10.84,59.52-15.58,4.85-1.15,9.7-2.4,14.58-3.37,1.19-.24,3.04-.61,4.08,.16,1.18,.86,.55,2.91,.24,4.07-2.48,9.09-5.93,18.04-9.61,26.7-4.23,9.95-9.08,19.63-14.5,28.99-1.61,2.79,2.7,5.31,4.32,2.52,10.16-17.57,18.36-36.31,24.27-55.73,.66-2.18,1.22-4.47,.73-6.74s-2.21-4.04-4.39-4.79c-2.01-.69-4.25-.43-6.29-.03-2.54,.49-5.05,1.13-7.57,1.72-10.55,2.44-21.07,5.02-31.56,7.72-11.76,3.02-23.48,6.21-35.15,9.55-3.09,.88-1.78,5.71,1.33,4.82h0Z"/>
  <polygon class="cls-8" points="1555.82 330.94 1501.06 425.79 1610.59 425.79 1555.82 330.94"/>
  <rect class="cls-1" x="1278.18" y="937.52" width="94.85" height="94.85"/>
  <polygon class="cls-6" points="392.05 620.48 439.48 606.59 425.58 654.02 439.48 701.45 392.05 687.55 344.62 701.45 358.51 654.02 344.62 606.59 392.05 620.48"/>
</svg>