<?xml version="1.0" encoding="UTF-8"?>
<svg id="Frame_15" data-name="Frame 15" xmlns="http://www.w3.org/2000/svg" xmlns:xlink="http://www.w3.org/1999/xlink" viewBox="0 0 1920 1080">
  <defs>
    <style>
      .cls-1 {
        fill: url(#Dégradé_sans_nom_2);
      }

      .cls-2 {
        fill: url(#Dégradé_sans_nom_4-6);
      }

      .cls-3 {
        fill: url(#Dégradé_sans_nom_4-3);
      }

      .cls-4 {
        fill: url(#Dégradé_sans_nom_4-7);
      }

      .cls-5 {
        fill: url(#Dégradé_sans_nom_4-5);
      }

      .cls-6 {
        fill: url(#Dégradé_sans_nom_4);
      }

      .cls-7 {
        fill: #191c26;
      }

      .cls-8 {
        fill: url(#Dégradé_sans_nom_4-4);
      }

      .cls-9 {
        letter-spacing: 0em;
      }

      .cls-10 {
        fill: url(#Dégradé_sans_nom_4-2);
      }

      .cls-11 {
        fill: url(#Dégradé_sans_nom_4-8);
      }

      .cls-12 {
        fill: #fff;
        font-family: Montserrat-Black, Montserrat;
        font-size: 110px;
      }
    </style>
    <linearGradient id="Dégradé_sans_nom_2" data-name="Dégradé sans nom 2" x1="960" y1="1100.25" x2="960" y2="-865.16" gradientUnits="userSpaceOnUse">
      <stop offset="0" stop-color="#111"/>
      <stop offset="1" stop-color="#7237bd"/>
    </linearGradient>
    <linearGradient id="Dégradé_sans_nom_4" data-name="Dégradé sans nom 4" x1="350.66" y1="930.25" x2="1585.91" y2="444.25" gradientUnits="userSpaceOnUse">
      <stop offset="0" stop-color="#7237bd"/>
      <stop offset="1" stop-color="#fd0988"/>
    </linearGradient>
    <linearGradient id="Dégradé_sans_nom_4-2" data-name="Dégradé sans nom 4" x1="393.96" y1="1040.31" x2="1629.21" y2="554.31" xlink:href="#Dégradé_sans_nom_4"/>
    <linearGradient id="Dégradé_sans_nom_4-3" data-name="Dégradé sans nom 4" x1="437.27" y1="1150.37" x2="1672.52" y2="664.37" xlink:href="#Dégradé_sans_nom_4"/>
    <linearGradient id="Dégradé_sans_nom_4-4" data-name="Dégradé sans nom 4" x1="480.57" y1="1260.43" x2="1715.82" y2="774.43" xlink:href="#Dégradé_sans_nom_4"/>
    <linearGradient id="Dégradé_sans_nom_4-5" data-name="Dégradé sans nom 4" x1="330.33" y1="812.04" x2="1277.02" y2="408.73" xlink:href="#Dégradé_sans_nom_4"/>
    <linearGradient id="Dégradé_sans_nom_4-6" data-name="Dégradé sans nom 4" x1="483.09" y1="894.99" x2="1443.84" y2="451.74" xlink:href="#Dégradé_sans_nom_4"/>
    <linearGradient id="Dégradé_sans_nom_4-7" data-name="Dégradé sans nom 4" x1="568.72" y1="1004.9" x2="1792.16" y2="439.59" xlink:href="#Dégradé_sans_nom_4"/>
    <linearGradient id="Dégradé_sans_nom_4-8" data-name="Dégradé sans nom 4" x1="879" y1="1036.51" x2="1603.5" y2="667.51" xlink:href="#Dégradé_sans_nom_4"/>
  </defs>
  <rect class="cls-1" width="1920" height="1080"/>
  <text class="cls-12" transform="translate(670.81 578.4)"><tspan x="0" y="0">EFFI</tspan><tspan class="cls-9" x="254.21" y="0">CA</tspan><tspan x="422.51" y="0">CE</tspan></text>
  <path class="cls-6" d="M472.53,815.79c-31.69,0-57.38,25.69-57.38,57.38v57.38h114.75v-57.38c0-31.69-25.69-57.38-57.38-57.38Z"/>
  <path class="cls-10" d="M795.57,815.79c-31.69,0-57.38,25.69-57.38,57.38v57.38h114.75v-57.38c0-31.69-25.69-57.38-57.38-57.38Z"/>
  <path class="cls-3" d="M1118.6,815.79c-31.69,0-57.38,25.69-57.38,57.38v57.38h114.75v-57.38c0-31.69-25.69-57.38-57.38-57.38Z"/>
  <path class="cls-8" d="M1441.64,815.79c-31.69,0-57.38,25.69-57.38,57.38v57.38h114.75v-57.38c0-31.69-25.69-57.38-57.38-57.38Z"/>
  <polygon class="cls-7" points="1318.2 164.84 1338.63 127.48 1359.06 164.84 1396.42 185.27 1359.06 205.7 1338.63 243.06 1318.2 205.7 1280.84 185.27 1318.2 164.84"/>
  <polygon class="cls-7" points="614.33 122.09 634.76 84.73 655.19 122.09 692.55 142.52 655.19 162.95 634.76 200.31 614.33 162.95 576.97 142.52 614.33 122.09"/>
  <polygon class="cls-7" points="232.93 250.46 253.36 213.11 273.8 250.46 311.15 270.9 273.8 291.33 253.36 328.68 232.93 291.33 195.57 270.9 232.93 250.46"/>
  <polygon class="cls-7" points="964.25 280.42 984.68 243.06 1005.11 280.42 1042.47 300.85 1005.11 321.28 984.68 358.64 964.25 321.28 926.89 300.85 964.25 280.42"/>
  <polygon class="cls-7" points="1688.16 107.05 1708.59 69.69 1729.02 107.05 1766.38 127.48 1729.02 147.91 1708.59 185.27 1688.16 147.91 1650.8 127.48 1688.16 107.05"/>
  <path class="cls-5" d="M472.53,728.37l-7.31-6.75c-10.14-9.43-25.83-9.43-35.97,0-9.43,10.14-9.43,25.83,0,35.97l43.28,43.84,43.28-43.84c9.43-10.14,9.43-25.83,0-35.97-10.14-9.43-25.83-9.43-35.97,0l-7.31,6.75Z"/>
  <path class="cls-2" d="M795.57,728.37l-7.31-6.75c-10.14-9.43-25.83-9.43-35.97,0-9.43,10.14-9.43,25.83,0,35.97l43.28,43.84,43.28-43.84c9.43-10.14,9.43-25.83,0-35.97-10.14-9.43-25.83-9.43-35.97,0l-7.31,6.75Z"/>
  <path class="cls-4" d="M1118.6,728.37l-7.31-6.75c-10.14-9.43-25.83-9.43-35.97,0-9.43,10.14-9.43,25.83,0,35.97l43.28,43.84,43.28-43.84c9.43-10.14,9.43-25.83,0-35.97-10.14-9.43-25.83-9.43-35.97,0l-7.31,6.75Z"/>
  <path class="cls-11" d="M1441.64,728.37l-7.31-6.75c-10.14-9.43-25.83-9.43-35.97,0-9.43,10.14-9.43,25.83,0,35.97l43.28,43.84,43.28-43.84c9.43-10.14,9.43-25.83,0-35.97-10.14-9.43-25.83-9.43-35.97,0l-7.31,6.75Z"/>
</svg>