<?xml version="1.0" encoding="UTF-8"?>
<svg id="Frame_14" data-name="Frame 14" xmlns="http://www.w3.org/2000/svg" xmlns:xlink="http://www.w3.org/1999/xlink" viewBox="0 0 1920 1080">
  <defs>
    <style>
      .cls-1 {
        fill: url(#Dégradé_sans_nom_2);
      }

      .cls-2 {
        letter-spacing: -.01em;
      }

      .cls-3 {
        fill: url(#Dégradé_sans_nom_4-6);
      }

      .cls-4 {
        fill: url(#Dégradé_sans_nom_4-3);
      }

      .cls-5 {
        fill: url(#Dégradé_sans_nom_4-7);
      }

      .cls-6 {
        letter-spacing: 0em;
      }

      .cls-7 {
        fill: url(#Dégradé_sans_nom_4-5);
      }

      .cls-8 {
        fill: url(#Dégradé_sans_nom_4);
      }

      .cls-9 {
        fill: #191c26;
      }

      .cls-10 {
        fill: url(#Dégradé_sans_nom_4-4);
      }

      .cls-11 {
        letter-spacing: 0em;
      }

      .cls-12 {
        fill: url(#Dégradé_sans_nom_4-2);
      }

      .cls-13 {
        fill: url(#Dégradé_sans_nom_4-8);
      }

      .cls-14 {
        fill: #fff;
        font-family: Montserrat-Black, Montserrat;
        font-size: 110px;
      }
    </style>
    <linearGradient id="Dégradé_sans_nom_2" data-name="Dégradé sans nom 2" x1="961.76" y1="1100.25" x2="961.76" y2="-865.16" gradientUnits="userSpaceOnUse">
      <stop offset="0" stop-color="#111"/>
      <stop offset="1" stop-color="#7237bd"/>
    </linearGradient>
    <linearGradient id="Dégradé_sans_nom_4" data-name="Dégradé sans nom 4" x1="350.66" y1="930.25" x2="1585.91" y2="444.25" gradientUnits="userSpaceOnUse">
      <stop offset="0" stop-color="#7237bd"/>
      <stop offset="1" stop-color="#fd0988"/>
    </linearGradient>
    <linearGradient id="Dégradé_sans_nom_4-2" data-name="Dégradé sans nom 4" x1="349.08" y1="806.57" x2="1277.66" y2="441.23" xlink:href="#Dégradé_sans_nom_4"/>
    <linearGradient id="Dégradé_sans_nom_4-3" data-name="Dégradé sans nom 4" x1="393.96" y1="1040.31" x2="1629.21" y2="554.31" xlink:href="#Dégradé_sans_nom_4"/>
    <linearGradient id="Dégradé_sans_nom_4-4" data-name="Dégradé sans nom 4" x1="452.9" y1="892.82" x2="1406.33" y2="517.7" xlink:href="#Dégradé_sans_nom_4"/>
    <linearGradient id="Dégradé_sans_nom_4-5" data-name="Dégradé sans nom 4" x1="437.27" y1="1150.37" x2="1672.52" y2="664.37" xlink:href="#Dégradé_sans_nom_4"/>
    <linearGradient id="Dégradé_sans_nom_4-6" data-name="Dégradé sans nom 4" x1="574.59" y1="972.04" x2="1503.16" y2="606.7" xlink:href="#Dégradé_sans_nom_4"/>
    <linearGradient id="Dégradé_sans_nom_4-7" data-name="Dégradé sans nom 4" x1="480.57" y1="1260.43" x2="1715.82" y2="774.43" xlink:href="#Dégradé_sans_nom_4"/>
    <linearGradient id="Dégradé_sans_nom_4-8" data-name="Dégradé sans nom 4" x1="687.34" y1="1054.78" x2="1615.91" y2="689.44" xlink:href="#Dégradé_sans_nom_4"/>
  </defs>
  <rect class="cls-1" x="1.76" width="1920" height="1080"/>
  <text class="cls-14" transform="translate(662.95 578.4)"><tspan x="0" y="0">RÉ</tspan><tspan class="cls-11" x="155.98" y="0">A</tspan><tspan class="cls-6" x="243.54" y="0">C</tspan><tspan x="324.83" y="0">TI</tspan><tspan class="cls-2" x="435.27" y="0">V</tspan><tspan x="520.08" y="0">E</tspan></text>
  <path class="cls-8" d="M472.53,815.79c-31.69,0-57.38,25.69-57.38,57.38v57.38h114.75v-57.38c0-31.69-25.69-57.38-57.38-57.38Z"/>
  <polygon class="cls-12" points="457.17 742.64 472.53 714.56 487.89 742.64 515.97 758 487.89 773.36 472.53 801.45 457.17 773.36 429.08 758 457.17 742.64"/>
  <path class="cls-4" d="M795.57,815.79c-31.69,0-57.38,25.69-57.38,57.38v57.38h114.75v-57.38c0-31.69-25.69-57.38-57.38-57.38Z"/>
  <polygon class="cls-10" points="779.79 742.23 795.57 713.4 811.34 742.23 840.17 758 811.34 773.77 795.57 802.61 779.79 773.77 750.96 758 779.79 742.23"/>
  <path class="cls-7" d="M1118.6,815.79c-31.69,0-57.38,25.69-57.38,57.38v57.38h114.75v-57.38c0-31.69-25.69-57.38-57.38-57.38Z"/>
  <polygon class="cls-3" points="1103.25 742.64 1118.6 714.56 1133.96 742.64 1162.05 758 1133.96 773.36 1118.6 801.45 1103.25 773.36 1075.16 758 1103.25 742.64"/>
  <path class="cls-5" d="M1441.64,815.79c-31.69,0-57.38,25.69-57.38,57.38v57.38h114.75v-57.38c0-31.69-25.69-57.38-57.38-57.38Z"/>
  <polygon class="cls-13" points="1426.28 742.64 1441.64 714.56 1457 742.64 1485.09 758 1457 773.36 1441.64 801.45 1426.28 773.36 1398.2 758 1426.28 742.64"/>
  <polygon class="cls-9" points="1318.2 164.84 1338.63 127.48 1359.06 164.84 1396.42 185.27 1359.06 205.7 1338.63 243.06 1318.2 205.7 1280.84 185.27 1318.2 164.84"/>
  <polygon class="cls-9" points="614.33 122.09 634.76 84.73 655.19 122.09 692.55 142.52 655.19 162.95 634.76 200.31 614.33 162.95 576.97 142.52 614.33 122.09"/>
  <polygon class="cls-9" points="232.93 250.46 253.36 213.11 273.8 250.46 311.15 270.9 273.8 291.33 253.36 328.68 232.93 291.33 195.57 270.9 232.93 250.46"/>
  <polygon class="cls-9" points="964.25 280.42 984.68 243.06 1005.11 280.42 1042.47 300.85 1005.11 321.28 984.68 358.64 964.25 321.28 926.89 300.85 964.25 280.42"/>
  <polygon class="cls-9" points="1688.16 107.05 1708.59 69.69 1729.02 107.05 1766.38 127.48 1729.02 147.91 1708.59 185.27 1688.16 147.91 1650.8 127.48 1688.16 107.05"/>
</svg>