<?xml version="1.0" encoding="UTF-8"?>
<svg id="Frame_5" data-name="Frame 5" xmlns="http://www.w3.org/2000/svg" xmlns:xlink="http://www.w3.org/1999/xlink" viewBox="0 0 1920 1080">
  <defs>
    <style>
      .cls-1 {
        fill: #7237bd;
      }

      .cls-2 {
        fill: url(#Dégradé_sans_nom_5);
      }

      .cls-3 {
        fill: #fd0988;
      }

      .cls-4 {
        fill: red;
      }
    </style>
    <linearGradient id="Dégradé_sans_nom_5" data-name="Dégradé sans nom 5" x1="960" y1="1569.37" x2="960" y2="527.89" gradientUnits="userSpaceOnUse">
      <stop offset="0" stop-color="#111"/>
      <stop offset="1" stop-color="#16163c"/>
    </linearGradient>
  </defs>
  <rect class="cls-2" width="1920" height="1080"/>
  <polygon class="cls-1" points="961 733.07 960 964.36 959 733.07 961 733.07 961 733.07"/>
  <circle class="cls-3" cx="960" cy="733.07" r="15.55"/>
  <path class="cls-4" d="M1012.25,815.04c.6-12.94,1.19-25.87,1.79-38.81,.15-3.22-4.85-3.21-5,0-.6,12.94-1.19,25.87-1.79,38.81-.15,3.22,4.85,3.21,5,0h0Z"/>
  <path class="cls-4" d="M1006.24,770.3c3.09-8.57,7.4-16.68,12.74-24.06,.05-.07,.86-.98,.84-1.07,.02-.05,.05-.09,.08-.13-.13-.02-.26-.02-.39,.01,0,.28,.86,1.4,.99,1.65,1.24,2.36,2.47,4.73,3.7,7.09,2.39,4.58,4.78,9.16,7.17,13.74,1.49,2.85,5.81,.33,4.32-2.52-2.12-4.06-4.24-8.12-6.36-12.19-1.08-2.07-2.16-4.14-3.24-6.2-.91-1.74-1.71-3.82-3.17-5.19-1.55-1.45-3.73-1.78-5.58-.66-1.71,1.04-2.85,3.15-3.96,4.76-2.31,3.35-4.41,6.84-6.29,10.45-2.18,4.19-4.07,8.54-5.67,12.99-.46,1.27,.52,2.74,1.75,3.08,1.39,.38,2.62-.47,3.08-1.75h0Z"/>
</svg>