<?xml version="1.0" encoding="UTF-8"?>
<svg id="Frame_2" data-name="Frame 2" xmlns="http://www.w3.org/2000/svg" xmlns:xlink="http://www.w3.org/1999/xlink" viewBox="0 0 1920 1080">
  <defs>
    <style>
      .cls-1 {
        letter-spacing: 0em;
      }

      .cls-2 {
        fill: #7237bd;
      }

      .cls-3 {
        letter-spacing: -.01em;
      }

      .cls-4 {
        fill: url(#Dégradé_sans_nom_4-6);
      }

      .cls-5 {
        fill: url(#Dégradé_sans_nom_4-3);
      }

      .cls-6 {
        fill: #fff;
        font-family: Montserrat-Black, Montserrat;
        font-size: 80px;
      }

      .cls-7 {
        fill: #111;
      }

      .cls-8 {
        fill: url(#Dégradé_sans_nom_4-7);
      }

      .cls-9 {
        fill: url(#Dégradé_sans_nom_3);
      }

      .cls-10 {
        fill: url(#Dégradé_sans_nom_4-5);
      }

      .cls-11 {
        fill: #fd0988;
      }

      .cls-12 {
        fill: url(#Dégradé_sans_nom_4);
      }

      .cls-13 {
        fill: #191c26;
      }

      .cls-14 {
        fill: url(#Dégradé_sans_nom_4-4);
      }

      .cls-15 {
        fill: url(#Dégradé_sans_nom_4-2);
      }

      .cls-16 {
        fill: url(#Dégradé_sans_nom_4-8);
      }
    </style>
    <linearGradient id="Dégradé_sans_nom_3" data-name="Dégradé sans nom 3" x1="699.74" y1="480.8" x2="1246.08" y2="600.65" gradientUnits="userSpaceOnUse">
      <stop offset="0" stop-color="#7237bd"/>
      <stop offset="1" stop-color="#fff"/>
    </linearGradient>
    <linearGradient id="Dégradé_sans_nom_4" data-name="Dégradé sans nom 4" x1="977.16" y1="607.95" x2="942.85" y2="644.51" gradientUnits="userSpaceOnUse">
      <stop offset="0" stop-color="#7237bd"/>
      <stop offset="1" stop-color="#fd0988"/>
    </linearGradient>
    <linearGradient id="Dégradé_sans_nom_4-2" data-name="Dégradé sans nom 4" x1="755.66" y1="536.46" x2="721.35" y2="573.02" xlink:href="#Dégradé_sans_nom_4"/>
    <linearGradient id="Dégradé_sans_nom_4-3" data-name="Dégradé sans nom 4" x1="862.22" y1="605.69" x2="827.91" y2="642.25" xlink:href="#Dégradé_sans_nom_4"/>
    <linearGradient id="Dégradé_sans_nom_4-4" data-name="Dégradé sans nom 4" x1="1157.44" y1="460.59" x2="1123.13" y2="497.15" xlink:href="#Dégradé_sans_nom_4"/>
    <linearGradient id="Dégradé_sans_nom_4-5" data-name="Dégradé sans nom 4" x1="799.71" y1="441.57" x2="774.11" y2="468.85" xlink:href="#Dégradé_sans_nom_4"/>
    <linearGradient id="Dégradé_sans_nom_4-6" data-name="Dégradé sans nom 4" x1="1029.25" y1="439.31" x2="1003.65" y2="466.59" xlink:href="#Dégradé_sans_nom_4"/>
    <linearGradient id="Dégradé_sans_nom_4-7" data-name="Dégradé sans nom 4" x1="930.43" y1="446.58" x2="901.65" y2="477.25" xlink:href="#Dégradé_sans_nom_4"/>
    <linearGradient id="Dégradé_sans_nom_4-8" data-name="Dégradé sans nom 4" x1="1102.68" y1="611.59" x2="1073.89" y2="642.26" xlink:href="#Dégradé_sans_nom_4"/>
  </defs>
  <rect class="cls-7" width="1920" height="1080"/>
  <g>
    <g>
      <path class="cls-9" d="M720.08,532.94v-30.8h18.88v30.24c0,8.56,3.28,11.76,8.56,11.76s8.56-3.2,8.56-11.76v-30.24h18.56v30.8c0,16.8-10.08,26.48-27.28,26.48s-27.28-9.68-27.28-26.48Z"/>
      <path class="cls-9" d="M838.48,502.14v56h-15.52l-21.28-25.44v25.44h-18.4v-56h15.52l21.28,25.44v-25.44h18.4Z"/>
      <path class="cls-9" d="M924.08,523.26c0,12.96-9.92,21.12-25.52,21.12h-8.08v13.76h-18.88v-56h26.96c15.6,0,25.52,8.16,25.52,21.12Zm-19.04,0c0-4.08-2.48-6.56-7.68-6.56h-6.88v13.12h6.88c5.2,0,7.68-2.48,7.68-6.56Z"/>
      <path class="cls-9" d="M954.24,544.06h-5.12v14.08h-18.88v-56h26.96c15.6,0,25.52,8.16,25.52,21.12,0,8.08-3.84,14.16-10.56,17.6l11.76,17.28h-20.16l-9.52-14.08Zm1.76-27.36h-6.88v13.12h6.88c5.2,0,7.68-2.48,7.68-6.56s-2.48-6.56-7.68-6.56Z"/>
      <path class="cls-9" d="M987.6,530.14c0-16.96,13.36-29.28,31.6-29.28s31.6,12.32,31.6,29.28-13.36,29.28-31.6,29.28-31.6-12.32-31.6-29.28Zm44.16,0c0-8.72-5.6-14-12.56-14s-12.56,5.28-12.56,14,5.6,14,12.56,14,12.56-5.28,12.56-14Z"/>
      <path class="cls-9" d="M1050,551.1l10.16-12c2.96,3.68,5.76,5.52,8.88,5.52,3.92,0,6.08-2.4,6.08-6.96v-21.28h-19.04v-14.24h37.68v34.4c0,15.36-8.08,22.88-23.12,22.88-8.72,0-16-2.88-20.64-8.32Z"/>
      <path class="cls-9" d="M1148.96,543.9v14.24h-46.56v-56h45.52v14.24h-26.96v6.56h23.68v13.6h-23.68v7.36h28Z"/>
      <path class="cls-9" d="M1168.4,516.78h-16.4v-14.64h51.68v14.64h-16.4v41.36h-18.88v-41.36Z"/>
    </g>
    <text class="cls-6" transform="translate(716 558.14)"><tspan x="0" y="0">UN </tspan><tspan class="cls-1" x="151.04" y="0">P</tspan><tspan x="209.68" y="0">R</tspan><tspan class="cls-3" x="269.28" y="0">O</tspan><tspan x="335.92" y="0">JET</tspan></text>
  </g>
  <path class="cls-2" d="M864.36,463.81c-10.38-16.98-25.18-31.19-41.2-42.89-28.7-20.88-63.27-32.84-98.34-37.36-36.65-4.7-74.39-1.51-110.52,5.74,0,0-18.09,4.07-18.09,4.07l18.06-4.2c27.02-5.59,55.32-9.01,82.88-8.45,46.4,.93,93.26,13.4,130.71,41.62,9.88,7.52,19.13,15.92,27.19,25.4,4.03,4.75,7.82,9.66,11.06,15.1l-1.75,.97h0Z"/>
  <circle class="cls-11" cx="865.24" cy="463.33" r="15.55"/>
  <polygon class="cls-12" points="960 615.81 974.75 611.49 970.43 626.24 974.75 640.99 960 636.67 945.25 640.99 949.57 626.24 945.25 611.49 960 615.81"/>
  <polygon class="cls-15" points="738.5 544.32 753.25 540 748.93 554.75 753.25 569.5 738.5 565.18 723.75 569.5 728.07 554.75 723.75 540 738.5 544.32"/>
  <rect class="cls-5" x="830.31" y="609.23" width="29.5" height="29.5"/>
  <rect class="cls-14" x="1125.53" y="464.13" width="29.5" height="29.5"/>
  <circle class="cls-10" cx="786.91" cy="455.21" r="15.55"/>
  <circle class="cls-4" cx="1016.45" cy="452.96" r="15.55"/>
  <polygon class="cls-8" points="915.46 437.4 897.5 468.51 933.42 468.51 915.46 437.4"/>
  <polygon class="cls-16" points="1087.71 602.42 1069.75 633.53 1105.67 633.53 1087.71 602.42"/>
  <polygon class="cls-13" points="313.83 514.06 334.26 476.7 354.69 514.06 392.05 534.49 354.69 554.92 334.26 592.28 313.83 554.92 276.47 534.49 313.83 514.06"/>
  <polygon class="cls-13" points="561.33 729.23 581.76 691.87 602.19 729.23 639.55 749.66 602.19 770.09 581.76 807.45 561.33 770.09 523.97 749.66 561.33 729.23"/>
  <polygon class="cls-13" points="237.33 844.81 257.76 807.45 278.19 844.81 315.55 865.24 278.19 885.67 257.76 923.03 237.33 885.67 199.97 865.24 237.33 844.81"/>
  <polygon class="cls-13" points="223.41 193.44 243.84 156.08 264.28 193.44 301.63 213.87 264.28 234.3 243.84 271.66 223.41 234.3 186.05 213.87 223.41 193.44"/>
  <polygon class="cls-13" points="575.78 288.22 596.21 250.86 616.64 288.22 654 308.65 616.64 329.08 596.21 366.44 575.78 329.08 538.42 308.65 575.78 288.22"/>
  <polygon class="cls-13" points="867.04 135.65 887.48 98.29 907.91 135.65 945.27 156.08 907.91 176.51 887.48 213.87 867.04 176.51 829.69 156.08 867.04 135.65"/>
  <polygon class="cls-13" points="996.02 346.01 1016.45 308.65 1036.88 346.01 1074.24 366.44 1036.88 386.87 1016.45 424.23 996.02 386.87 958.66 366.44 996.02 346.01"/>
  <polygon class="cls-13" points="877.07 865.61 897.5 828.25 917.93 865.61 955.29 886.04 917.93 906.47 897.5 943.83 877.07 906.47 839.71 886.04 877.07 865.61"/>
  <polygon class="cls-13" points="1218.86 922.02 1239.29 884.66 1259.72 922.02 1297.08 942.45 1259.72 962.88 1239.29 1000.24 1218.86 962.88 1181.5 942.45 1218.86 922.02"/>
  <polygon class="cls-13" points="1362.97 581.99 1383.4 544.63 1403.83 581.99 1441.19 602.42 1403.83 622.85 1383.4 660.21 1362.97 622.85 1325.61 602.42 1362.97 581.99"/>
  <polygon class="cls-13" points="1650.97 922.02 1671.4 884.66 1691.83 922.02 1729.19 942.45 1691.83 962.88 1671.4 1000.24 1650.97 962.88 1613.61 942.45 1650.97 922.02"/>
  <polygon class="cls-13" points="1593.18 706.02 1613.61 668.66 1634.04 706.02 1671.4 726.45 1634.04 746.88 1613.61 784.24 1593.18 746.88 1555.82 726.45 1593.18 706.02"/>
  <polygon class="cls-13" points="1684.31 395.12 1704.74 357.76 1725.17 395.12 1762.53 415.55 1725.17 435.98 1704.74 473.34 1684.31 435.98 1646.95 415.55 1684.31 395.12"/>
  <polygon class="cls-13" points="1269.18 251.22 1289.61 213.87 1310.04 251.22 1347.4 271.66 1310.04 292.09 1289.61 329.45 1269.18 292.09 1231.82 271.66 1269.18 251.22"/>
  <polygon class="cls-13" points="1593.18 112.85 1613.61 75.49 1634.04 112.85 1671.4 133.28 1634.04 153.71 1613.61 191.07 1593.18 153.71 1555.82 133.28 1593.18 112.85"/>
</svg>