<?xml version="1.0" encoding="UTF-8"?>
<svg id="Frame_3" data-name="Frame 3" xmlns="http://www.w3.org/2000/svg" xmlns:xlink="http://www.w3.org/1999/xlink" viewBox="0 0 1920 1080">
  <defs>
    <style>
      .cls-1 {
        fill: url(#Dégradé_sans_nom_4-11);
      }

      .cls-2 {
        fill: #7237bd;
      }

      .cls-3 {
        fill: url(#Dégradé_sans_nom_4-6);
      }

      .cls-4 {
        fill: url(#Dégradé_sans_nom_4-3);
      }

      .cls-5 {
        fill: #fff;
        font-family: Montserrat-Black, Montserrat;
        font-size: 80px;
      }

      .cls-6 {
        fill: #111;
      }

      .cls-7 {
        fill: url(#Dégradé_sans_nom_4-7);
      }

      .cls-8 {
        fill: url(#Dégradé_sans_nom_4-10);
      }

      .cls-9 {
        fill: url(#Dégradé_sans_nom_4-5);
      }

      .cls-10 {
        fill: #fd0988;
      }

      .cls-11 {
        fill: url(#Dégradé_sans_nom_4);
      }

      .cls-12 {
        fill: #191c26;
      }

      .cls-13 {
        fill: url(#Dégradé_sans_nom_4-4);
      }

      .cls-14 {
        fill: url(#Dégradé_sans_nom_4-2);
      }

      .cls-15 {
        fill: url(#Dégradé_sans_nom_4-8);
      }

      .cls-16 {
        fill: url(#Dégradé_sans_nom_4-9);
      }

      .cls-17 {
        fill: red;
      }
    </style>
    <linearGradient id="Dégradé_sans_nom_4" data-name="Dégradé sans nom 4" x1="760.39" y1="434.74" x2="726.08" y2="471.3" gradientUnits="userSpaceOnUse">
      <stop offset="0" stop-color="#7237bd"/>
      <stop offset="1" stop-color="#fd0988"/>
    </linearGradient>
    <linearGradient id="Dégradé_sans_nom_4-2" data-name="Dégradé sans nom 4" x1="1165.01" y1="591.01" x2="1130.7" y2="627.58" xlink:href="#Dégradé_sans_nom_4"/>
    <linearGradient id="Dégradé_sans_nom_4-3" data-name="Dégradé sans nom 4" x1="765.6" y1="612.76" x2="731.29" y2="649.33" xlink:href="#Dégradé_sans_nom_4"/>
    <linearGradient id="Dégradé_sans_nom_4-4" data-name="Dégradé sans nom 4" x1="1214.16" y1="461.61" x2="1179.85" y2="498.18" xlink:href="#Dégradé_sans_nom_4"/>
    <linearGradient id="Dégradé_sans_nom_4-5" data-name="Dégradé sans nom 4" x1="977.16" y1="419.86" x2="942.85" y2="456.43" xlink:href="#Dégradé_sans_nom_4"/>
    <linearGradient id="Dégradé_sans_nom_4-6" data-name="Dégradé sans nom 4" x1="886.07" y1="625.96" x2="860.47" y2="653.24" xlink:href="#Dégradé_sans_nom_4"/>
    <linearGradient id="Dégradé_sans_nom_4-7" data-name="Dégradé sans nom 4" x1="1280.95" y1="566.84" x2="1255.35" y2="594.12" xlink:href="#Dégradé_sans_nom_4"/>
    <linearGradient id="Dégradé_sans_nom_4-8" data-name="Dégradé sans nom 4" x1="870.52" y1="433.03" x2="844.92" y2="460.31" xlink:href="#Dégradé_sans_nom_4"/>
    <linearGradient id="Dégradé_sans_nom_4-9" data-name="Dégradé sans nom 4" x1="1085.29" y1="447.33" x2="1056.51" y2="478" xlink:href="#Dégradé_sans_nom_4"/>
    <linearGradient id="Dégradé_sans_nom_4-10" data-name="Dégradé sans nom 4" x1="1038.67" y1="617.67" x2="1009.89" y2="648.34" xlink:href="#Dégradé_sans_nom_4"/>
    <linearGradient id="Dégradé_sans_nom_4-11" data-name="Dégradé sans nom 4" x1="662.02" y1="537.09" x2="633.23" y2="567.76" xlink:href="#Dégradé_sans_nom_4"/>
  </defs>
  <rect class="cls-6" y="-.74" width="1920" height="1080"/>
  <text class="cls-5" transform="translate(613.92 557.4)"><tspan x="0" y="0">DES AMBITIONS </tspan></text>
  <circle class="cls-10" cx="642.68" cy="448.8" r="15.55"/>
  <path class="cls-2" d="M641.8,449.28c-10.38-16.98-25.18-31.19-41.2-42.89-28.7-20.88-63.27-32.84-98.34-37.36-36.65-4.7-74.39-1.51-110.52,5.74,0,0-18.09,4.07-18.09,4.07l18.06-4.2c27.02-5.59,55.32-9.01,82.88-8.45,46.4,.93,93.26,13.4,130.71,41.62,9.88,7.52,19.13,15.92,27.19,25.4,4.03,4.75,7.82,9.66,11.06,15.1l-1.75,.97h0Z"/>
  <path class="cls-2" d="M501.26,528.4c-13.09,21-32.72,38.06-53.68,50.9-45.3,27.61-100.24,34.83-152.34,29.76-20.55-1.73-43.81-6.27-63.88-11.19,20.15,4.8,43.35,9.15,63.92,10.75,58.09,5.34,119.55-4.99,166.76-41.02,9.73-7.51,18.84-15.89,26.74-25.31,3.94-4.69,7.68-9.64,10.74-14.85l1.75,.97h0Z"/>
  <circle class="cls-10" cx="500.39" cy="527.92" r="15.55"/>
  <path class="cls-2" d="M686.43,631.69c-13.09,21-32.72,38.06-53.68,50.9-45.3,27.61-100.24,34.83-152.34,29.76-20.55-1.73-43.81-6.27-63.88-11.19,20.15,4.8,43.35,9.15,63.92,10.75,58.09,5.34,119.55-4.99,166.76-41.02,9.73-7.51,18.84-15.89,26.74-25.31,3.94-4.69,7.68-9.64,10.74-14.85l1.75,.97h0Z"/>
  <circle class="cls-10" cx="685.56" cy="631.2" r="15.55"/>
  <path class="cls-2" d="M1807.36,480.39c-13.09,21-32.72,38.06-53.68,50.9-45.3,27.61-100.24,34.83-152.34,29.76-20.55-1.73-43.81-6.27-63.88-11.19,20.15,4.8,43.35,9.15,63.92,10.75,58.09,5.34,119.55-4.99,166.76-41.02,9.73-7.51,18.84-15.89,26.74-25.31,3.94-4.69,7.68-9.64,10.74-14.85l1.75,.97h0Z"/>
  <circle class="cls-10" cx="1806.49" cy="479.9" r="15.55"/>
  <path class="cls-17" d="M858.38,597.39c17.2-2.41,34.6-3.39,51.96-2.99,4.99,.11,9.98,.34,14.96,.68,1.35,.09,2.5-1.21,2.5-2.5,0-1.43-1.15-2.41-2.5-2.5-17.63-1.2-35.36-.99-52.96,.68-5.11,.48-10.21,1.1-15.29,1.81-1.34,.19-2.07,1.89-1.75,3.08,.4,1.44,1.73,1.93,3.08,1.75h0Z"/>
  <path class="cls-17" d="M920.27,580.55c8.73-.06,17.44,1.68,25.43,5.23l-.51-3.93c-8.75,6.89-18.62,12.42-29.05,16.31-1.26,.47-2.13,1.69-1.75,3.08,.33,1.21,1.8,2.22,3.08,1.75,11.3-4.22,21.78-10.13,31.26-17.59,1.19-.94,.87-3.32-.51-3.93-8.81-3.92-18.29-5.98-27.95-5.91-3.22,.02-3.22,5.02,0,5h0Z"/>
  <polygon class="cls-11" points="743.22 442.6 757.97 438.28 753.65 453.03 757.97 467.77 743.22 463.46 728.48 467.77 732.8 453.03 728.48 438.28 743.22 442.6"/>
  <polygon class="cls-14" points="1147.85 598.88 1162.6 594.56 1158.28 609.3 1162.6 624.05 1147.85 619.73 1133.1 624.05 1137.42 609.3 1133.1 594.56 1147.85 598.88"/>
  <rect class="cls-4" x="733.69" y="616.3" width="29.5" height="29.5"/>
  <rect class="cls-13" x="1182.25" y="465.16" width="29.5" height="29.5"/>
  <rect class="cls-9" x="945.25" y="423.41" width="29.5" height="29.5"/>
  <circle class="cls-3" cx="873.27" cy="639.6" r="15.55"/>
  <circle class="cls-7" cx="1268.14" cy="580.49" r="15.55"/>
  <circle class="cls-15" cx="857.71" cy="446.67" r="15.55"/>
  <polygon class="cls-16" points="1070.33 438.15 1052.37 469.26 1088.29 469.26 1070.33 438.15"/>
  <polygon class="cls-8" points="1023.71 608.5 1005.75 639.6 1041.66 639.6 1023.71 608.5"/>
  <polygon class="cls-1" points="647.05 527.92 629.09 559.02 665.01 559.02 647.05 527.92"/>
  <polygon class="cls-12" points="313.83 512.02 334.26 474.67 354.69 512.02 392.05 532.45 354.69 552.89 334.26 590.24 313.83 552.89 276.47 532.45 313.83 512.02"/>
  <polygon class="cls-12" points="561.33 727.19 581.76 689.84 602.19 727.19 639.55 747.63 602.19 768.06 581.76 805.42 561.33 768.06 523.97 747.63 561.33 727.19"/>
  <polygon class="cls-12" points="237.33 842.77 257.76 805.42 278.19 842.77 315.55 863.2 278.19 883.64 257.76 920.99 237.33 883.64 199.97 863.2 237.33 842.77"/>
  <polygon class="cls-12" points="223.41 191.4 243.84 154.04 264.28 191.4 301.63 211.83 264.28 232.26 243.84 269.62 223.41 232.26 186.05 211.83 223.41 191.4"/>
  <polygon class="cls-12" points="575.78 286.18 596.21 248.82 616.64 286.18 654 306.61 616.64 327.04 596.21 364.4 575.78 327.04 538.42 306.61 575.78 286.18"/>
  <polygon class="cls-12" points="867.04 133.61 887.48 96.25 907.91 133.61 945.27 154.04 907.91 174.47 887.48 211.83 867.04 174.47 829.69 154.04 867.04 133.61"/>
  <polygon class="cls-12" points="996.02 343.97 1016.45 306.61 1036.88 343.97 1074.24 364.4 1036.88 384.83 1016.45 422.19 996.02 384.83 958.66 364.4 996.02 343.97"/>
  <polygon class="cls-12" points="877.07 863.57 897.5 826.21 917.93 863.57 955.29 884 917.93 904.43 897.5 941.79 877.07 904.43 839.71 884 877.07 863.57"/>
  <polygon class="cls-12" points="1218.86 919.98 1239.29 882.62 1259.72 919.98 1297.08 940.41 1259.72 960.85 1239.29 998.2 1218.86 960.85 1181.5 940.41 1218.86 919.98"/>
  <polygon class="cls-12" points="1362.97 579.95 1383.4 542.59 1403.83 579.95 1441.19 600.38 1403.83 620.82 1383.4 658.17 1362.97 620.82 1325.61 600.38 1362.97 579.95"/>
  <polygon class="cls-12" points="1650.97 919.98 1671.4 882.62 1691.83 919.98 1729.19 940.41 1691.83 960.85 1671.4 998.2 1650.97 960.85 1613.61 940.41 1650.97 919.98"/>
  <polygon class="cls-12" points="1593.18 703.98 1613.61 666.63 1634.04 703.98 1671.4 724.42 1634.04 744.85 1613.61 782.2 1593.18 744.85 1555.82 724.42 1593.18 703.98"/>
  <polygon class="cls-12" points="1684.31 393.08 1704.74 355.73 1725.17 393.08 1762.53 413.52 1725.17 433.95 1704.74 471.31 1684.31 433.95 1646.95 413.52 1684.31 393.08"/>
  <polygon class="cls-12" points="1269.18 249.19 1289.61 211.83 1310.04 249.19 1347.4 269.62 1310.04 290.05 1289.61 327.41 1269.18 290.05 1231.82 269.62 1269.18 249.19"/>
  <polygon class="cls-12" points="1593.18 110.81 1613.61 73.45 1634.04 110.81 1671.4 131.24 1634.04 151.68 1613.61 189.03 1593.18 151.68 1555.82 131.24 1593.18 110.81"/>
  <path class="cls-17" d="M1629.11,620.58c24.41-1.78,48.74-4.47,72.95-8.05,24.15-3.57,48.16-8.04,71.97-13.4,13.4-3.02,26.74-6.32,40.01-9.9,3.1-.84,1.79-5.66-1.33-4.82-23.41,6.31-47.05,11.76-70.87,16.32-23.83,4.56-47.83,8.25-71.94,11.02-13.57,1.56-27.17,2.83-40.8,3.82-1.35,.1-2.5,1.08-2.5,2.5,0,1.28,1.15,2.6,2.5,2.5h0Z"/>
  <path class="cls-17" d="M1797.76,571.81c13.87-.03,27.75-.07,41.62-.1,6.9-.02,13.79-.03,20.69-.05l10.47-.03c2.42,0,4.85-.08,7.21,.5,1.7,.42,3.45,1.18,4.05,2.59,.35,.83,.33,1.4,.15,2.07-.16,.58-.67,1.32-1.22,1.87-3.35,3.38-8.59,4.17-13,5.36-11.9,3.2-23.53,7.39-34.77,12.45-12.66,5.7-24.78,12.56-36.19,20.47-1.11,.77-1.62,2.19-.9,3.42,.64,1.1,2.31,1.67,3.42,.9,21.2-14.69,44.85-25.72,69.77-32.41,5.16-1.39,10.51-2.49,14.65-6.12,1.85-1.62,3.19-3.85,3.34-6.34s-1.02-5.08-2.95-6.66c-4.28-3.52-10.36-3.09-15.55-3.08-7.31,.02-14.62,.04-21.93,.06-16.28,.04-32.56,.08-48.85,.12-3.22,0-3.22,5.01,0,5h0Z"/>
  <path class="cls-17" d="M239.42,537.6c11.54,2.64,23.07,5.28,34.61,7.92s22.71,5.57,34.2,7.58c10.65,1.86,21.35,2.19,31.86-.61,9.08-2.42,17.61-6.77,25.27-12.18,8.82-6.22,16.62-13.77,23.55-22.02,.87-1.03,1.01-2.52,0-3.54-.89-.89-2.66-1.04-3.54,0-11.66,13.89-26.23,26.56-43.81,32.1-9.58,3.02-19.47,3.37-29.37,1.86-11.26-1.71-22.36-4.7-33.46-7.24-12.67-2.9-25.33-5.8-38-8.7-3.13-.72-4.47,4.1-1.33,4.82h0Z"/>
  <path class="cls-17" d="M356.62,508.76c13.63,0,27.27-.01,40.9-.02h10.16c1.65,0,3.31,0,4.96,0,1.06,0,2.59-.21,3.51,.46,1.36,.99,.53,3.76,.12,5.18-.89,3.07-1.94,6.11-3.01,9.12-2.44,6.89-5.24,13.64-8.37,20.25-.58,1.22-.34,2.7,.9,3.42,1.09,.64,2.84,.33,3.42-.9,3.04-6.42,5.8-12.98,8.23-19.66,1.22-3.35,2.36-6.73,3.41-10.13,.79-2.55,1.48-5.52,.54-8.14-1.17-3.28-4.18-4.51-7.46-4.6-3.57-.1-7.15,0-10.72,0-7.27,0-14.54,0-21.81,0-8.26,0-16.53,0-24.79,0-3.22,0-3.22,5,0,5h0Z"/>
  <path class="cls-17" d="M420.14,416.96c15.22-9.79,33.59-12.36,51.34-12.92,9.52-.3,19.21-.26,28.55,1.83s17.85,6.75,26.02,11.87c9.94,6.22,19.81,12.53,29.72,18.81,2.73,1.73,5.24-2.6,2.52-4.32-9.07-5.74-18.14-11.49-27.21-17.23-8.38-5.3-16.96-10.5-26.6-13.17-9.73-2.69-19.95-3.06-29.98-2.87-9.37,.18-18.76,.85-27.98,2.62-10.18,1.96-20.15,5.42-28.9,11.05-2.7,1.74-.19,6.06,2.52,4.32h0Z"/>
  <path class="cls-17" d="M543.51,417.71c13.5,8.57,24.28,21.43,30.22,36.29l2.41-3.16c-12.79,1.26-25.81-.84-37.46-6.29-1.22-.57-2.7-.34-3.42,.9-.63,1.08-.33,2.85,.9,3.42,12.45,5.81,26.3,8.32,39.99,6.97,1.43-.14,3.07-1.51,2.41-3.16-5-12.5-12.95-23.74-23.24-32.45-2.93-2.48-6.04-4.77-9.28-6.83-2.72-1.73-5.24,2.6-2.52,4.32h0Z"/>
  <path class="cls-17" d="M511.87,701.14c19.02,1.04,38.17-.68,56.74-4.92s36.28-10.95,52.89-19.96c9.39-5.09,18.36-10.93,26.81-17.44,1.07-.82,1.64-2.15,.9-3.42-.61-1.05-2.34-1.73-3.42-.9-14.73,11.35-31.06,20.67-48.35,27.53s-35.51,11.42-54.01,13.34c-10.48,1.09-21.04,1.34-31.56,.77-3.22-.18-3.21,4.83,0,5h0Z"/>
  <path class="cls-17" d="M633.37,633.65c4.19-.02,8.39-.05,12.58-.07,1.99-.01,3.98-.06,5.97-.03,1.24,.02,2.62,.07,3.34,1.22,.66,1.05,.73,2.48,.77,3.68,.08,2.03,.06,4.07,.09,6.1,.06,4.22,.11,8.44,.17,12.66,.06,4.8,.13,9.6,.19,14.4,.04,3.21,5.04,3.22,5,0-.12-9.19-.24-18.38-.36-27.56-.05-3.78,.44-8.23-1.46-11.67-2.22-4.02-6.76-3.85-10.76-3.83-5.18,.03-10.36,.06-15.54,.09-3.22,.02-3.22,5.02,0,5h0Z"/>
</svg>