<?xml version="1.0" encoding="UTF-8"?>
<svg id="Frame_13" data-name="Frame 13" xmlns="http://www.w3.org/2000/svg" xmlns:xlink="http://www.w3.org/1999/xlink" viewBox="0 0 1920 1080">
  <defs>
    <style>
      .cls-1 {
        fill: url(#Dégradé_sans_nom_2);
      }

      .cls-2 {
        letter-spacing: -.01em;
      }

      .cls-3 {
        letter-spacing: -.04em;
      }

      .cls-4 {
        fill: url(#Dégradé_sans_nom_4-6);
      }

      .cls-5 {
        fill: url(#Dégradé_sans_nom_4-3);
      }

      .cls-6 {
        fill: url(#Dégradé_sans_nom_4-7);
      }

      .cls-7 {
        fill: url(#Dégradé_sans_nom_4-5);
      }

      .cls-8 {
        fill: url(#Dégradé_sans_nom_4);
      }

      .cls-9 {
        fill: #191c26;
      }

      .cls-10 {
        fill: url(#Dégradé_sans_nom_4-4);
      }

      .cls-11 {
        letter-spacing: 0em;
      }

      .cls-12 {
        fill: url(#Dégradé_sans_nom_4-2);
      }

      .cls-13 {
        fill: url(#Dégradé_sans_nom_4-8);
      }

      .cls-14 {
        fill: red;
      }

      .cls-15 {
        fill: #fff;
        font-family: Montserrat-Black, Montserrat;
        font-size: 110px;
      }
    </style>
    <linearGradient id="Dégradé_sans_nom_2" data-name="Dégradé sans nom 2" x1="960" y1="1100.25" x2="960" y2="-865.16" gradientUnits="userSpaceOnUse">
      <stop offset="0" stop-color="#111"/>
      <stop offset="1" stop-color="#7237bd"/>
    </linearGradient>
    <linearGradient id="Dégradé_sans_nom_4" data-name="Dégradé sans nom 4" x1="350.66" y1="930.25" x2="1585.91" y2="444.25" gradientUnits="userSpaceOnUse">
      <stop offset="0" stop-color="#7237bd"/>
      <stop offset="1" stop-color="#fd0988"/>
    </linearGradient>
    <linearGradient id="Dégradé_sans_nom_4-2" data-name="Dégradé sans nom 4" x1="344.72" y1="811.36" x2="1274.56" y2="423.18" xlink:href="#Dégradé_sans_nom_4"/>
    <linearGradient id="Dégradé_sans_nom_4-3" data-name="Dégradé sans nom 4" x1="338.98" y1="958.02" x2="1592.23" y2="409.02" xlink:href="#Dégradé_sans_nom_4"/>
    <linearGradient id="Dégradé_sans_nom_4-4" data-name="Dégradé sans nom 4" x1="397.38" y1="1085.72" x2="1918.38" y2="397.22" xlink:href="#Dégradé_sans_nom_4"/>
    <linearGradient id="Dégradé_sans_nom_4-5" data-name="Dégradé sans nom 4" x1="332.43" y1="1192.75" x2="1560.93" y2="711.25" xlink:href="#Dégradé_sans_nom_4"/>
    <linearGradient id="Dégradé_sans_nom_4-6" data-name="Dégradé sans nom 4" x1="393.96" y1="1040.31" x2="1629.21" y2="554.31" xlink:href="#Dégradé_sans_nom_4"/>
    <linearGradient id="Dégradé_sans_nom_4-7" data-name="Dégradé sans nom 4" x1="437.27" y1="1150.37" x2="1672.52" y2="664.37" xlink:href="#Dégradé_sans_nom_4"/>
    <linearGradient id="Dégradé_sans_nom_4-8" data-name="Dégradé sans nom 4" x1="480.57" y1="1260.43" x2="1715.82" y2="774.43" xlink:href="#Dégradé_sans_nom_4"/>
  </defs>
  <rect class="cls-1" width="1920" height="1080"/>
  <text class="cls-15" transform="translate(416.83 578.4)"><tspan class="cls-3" x="0" y="0">A</tspan><tspan class="cls-2" x="84.26" y="0">V</tspan><tspan x="169.07" y="0">EC UNE ÉQUI</tspan><tspan class="cls-11" x="931.69" y="0">P</tspan><tspan x="1012.32" y="0">E</tspan></text>
  <path class="cls-8" d="M472.53,815.79c-31.69,0-57.38,25.69-57.38,57.38v57.38h114.75v-57.38c0-31.69-25.69-57.38-57.38-57.38Z"/>
  <circle class="cls-12" cx="472.53" cy="758" r="43.44"/>
  <circle class="cls-5" cx="795.57" cy="758" r="43.44"/>
  <circle class="cls-10" cx="1121.35" cy="758" r="43.44"/>
  <circle class="cls-7" cx="1441.64" cy="758" r="43.44"/>
  <path class="cls-4" d="M795.57,815.79c-31.69,0-57.38,25.69-57.38,57.38v57.38h114.75v-57.38c0-31.69-25.69-57.38-57.38-57.38Z"/>
  <path class="cls-6" d="M1118.6,815.79c-31.69,0-57.38,25.69-57.38,57.38v57.38h114.75v-57.38c0-31.69-25.69-57.38-57.38-57.38Z"/>
  <path class="cls-13" d="M1441.64,815.79c-31.69,0-57.38,25.69-57.38,57.38v57.38h114.75v-57.38c0-31.69-25.69-57.38-57.38-57.38Z"/>
  <polygon class="cls-9" points="1318.2 164.84 1338.63 127.48 1359.06 164.84 1396.42 185.27 1359.06 205.7 1338.63 243.06 1318.2 205.7 1280.84 185.27 1318.2 164.84"/>
  <polygon class="cls-9" points="614.33 122.09 634.76 84.73 655.19 122.09 692.55 142.52 655.19 162.95 634.76 200.31 614.33 162.95 576.97 142.52 614.33 122.09"/>
  <polygon class="cls-9" points="232.93 250.46 253.36 213.11 273.8 250.46 311.15 270.9 273.8 291.33 253.36 328.68 232.93 291.33 195.57 270.9 232.93 250.46"/>
  <polygon class="cls-9" points="964.25 280.42 984.68 243.06 1005.11 280.42 1042.47 300.85 1005.11 321.28 984.68 358.64 964.25 321.28 926.89 300.85 964.25 280.42"/>
  <polygon class="cls-9" points="1688.16 107.05 1708.59 69.69 1729.02 107.05 1766.38 127.48 1729.02 147.91 1708.59 185.27 1688.16 147.91 1650.8 127.48 1688.16 107.05"/>
  <path class="cls-14" d="M995.25,79.31v83.93c0,27.81,0,55.62,0,83.43,0,15.65,0,31.31,0,46.96,0,3.22,5,3.22,5,0V79.31c0-3.22-5-3.22-5,0h0Z"/>
  <path class="cls-14" d="M929.89,243.26c6.43,12.98,13.67,25.56,21.68,37.64s16.86,23.76,26.35,34.79c4.7,5.46,9.57,10.78,14.61,15.94,2.57,2.63,5.18,5.22,7.83,7.77,2.44,2.35,5.08,5.35,8.58,6,6.47,1.21,10.47-4.76,12.12-10.19,1-3.31,1.35-6.86,1.76-10.27,.44-3.64,.75-7.3,1.02-10.95,1.05-14.42,1.28-29.22,6.25-42.98,.59-1.63,1.25-3.24,1.99-4.81,.57-1.22,.34-2.69-.9-3.42-1.08-.63-2.85-.33-3.42,.9-6.14,13.16-7.41,27.64-8.36,41.95-.46,6.95-.84,13.92-1.77,20.83-.41,3.08-.8,6.28-2,9.17-.41,.99-.94,2-1.59,2.86-.56,.75-1.45,1.57-2.06,1.83-2.37,1.02-4.59-1.11-6.37-2.8-2.62-2.48-5.19-5-7.73-7.56-4.87-4.91-9.59-9.98-14.16-15.18-9.28-10.57-17.89-21.7-25.79-33.34-8.83-13-16.75-26.6-23.73-40.69-1.43-2.88-5.74-.35-4.32,2.52h0Z"/>
</svg>