<?xml version="1.0" encoding="UTF-8"?>
<svg id="Frame_16" data-name="Frame 16" xmlns="http://www.w3.org/2000/svg" xmlns:xlink="http://www.w3.org/1999/xlink" viewBox="0 0 1920 1080">
  <defs>
    <style>
      .cls-1 {
        fill: #fff;
      }

      .cls-2 {
        fill: url(#Dégradé_sans_nom_9);
      }
    </style>
    <linearGradient id="Dégradé_sans_nom_9" data-name="Dégradé sans nom 9" x1="-100.8" y1="-18.94" x2="2621.7" y2="1412.06" gradientUnits="userSpaceOnUse">
      <stop offset="0" stop-color="#16163c"/>
      <stop offset="1" stop-color="#fd0988"/>
    </linearGradient>
  </defs>
  <rect class="cls-2" x="2.59" width="1920" height="1080"/>
  <path class="cls-1" d="M860.47,507.96c1.06,13.45,2.12,26.91,3.18,40.36,.26,3.32,.52,6.64,.79,9.96,.22,2.82,.41,5.74,1.47,8.39,1.94,4.85,6.22,7.53,11.33,7.85,5.46,.34,10.96-1.71,15.82-3.98,1.22-.57,1.53-2.33,.9-3.42-.73-1.25-2.19-1.47-3.42-.9-3.67,1.71-7.75,3.21-11.84,3.32-3.7,.1-7.07-1.27-8.32-5.15-.79-2.45-.87-5.06-1.07-7.6-.25-3.16-.5-6.31-.75-9.47-.48-6.15-.97-12.29-1.45-18.44-.55-6.98-1.1-13.95-1.65-20.93-.11-1.35-1.07-2.5-2.5-2.5-1.27,0-2.61,1.15-2.5,2.5h0Z"/>
  <path class="cls-1" d="M936.13,559.01c4.94,3.48,11.77,.11,14.18-4.85,3-6.18-.88-12.82-5.94-16.46-9.19-6.62-26.55-4.58-28.62,8.48-.96,6.09,1.63,12.4,7.57,14.76,1.26,.5,2.75-.54,3.08-1.75,.39-1.42-.49-2.58-1.75-3.08-1.38-.55-2.45-1.72-3.19-3.15-.73-1.41-1-3.09-.93-4.79,.16-3.56,2.41-6.66,6.03-8.18,3.88-1.63,8.62-1.38,12.42,.36,3.76,1.72,7.74,5.41,7.36,9.92-.14,1.63-1.4,3.39-2.93,4.32-1.7,1.05-3.2,1.22-4.76,.12-1.1-.78-2.78-.2-3.42,.9-.73,1.25-.21,2.64,.9,3.42h0Z"/>
  <path class="cls-1" d="M1000.7,533.37c-6.06-.83-12.98-1.25-17.18,4.09-1.9,2.42-3.01,5.44-3.73,8.41-.67,2.74-.99,5.61-.64,8.41s1.4,5.63,3.43,7.76c2.25,2.36,5.45,3.51,8.61,3.97,6.25,.91,13.49-.78,16.26-7.09,1.54-3.52,1.25-8.32-3.07-9.5-1.95-.53-4.02-.77-6-1.15-2.09-.39-4.17-.78-6.26-1.18-1.33-.25-2.7,.37-3.08,1.75-.35,1.28,.43,2.75,1.75,3.08,6.36,1.57,12.89,2.41,19.43,2.5,3.22,.04,3.22-4.96,0-5-6.12-.08-12.16-.85-18.1-2.32-.44,1.61-.89,3.21-1.33,4.82,2.97,.56,5.94,1.12,8.91,1.68,.72,.14,1.44,.27,2.17,.41,.4,.08,1.22,.07,1.53,.34-.12-.11-.02,.01-.05,.28-.06,.54-.02,.98-.17,1.51-1.28,4.61-6.83,5.59-10.91,5.03-2.09-.29-4.36-.9-5.91-2.41-1.31-1.27-1.99-3.01-2.24-4.79-.55-3.98,.53-8.69,2.49-12.16,2.65-4.67,8.12-4.24,12.77-3.6,1.34,.18,2.68-.32,3.08-1.75,.32-1.17-.4-2.89-1.75-3.08h0Z"/>
  <path class="cls-1" d="M1041.77,561.6c4.84,3.07,11.79,1.96,15.36-2.56,3.68-4.66,3.05-12.09-1.51-15.96-2.61-2.22-5.97-3.14-9.29-3.67-3.28-.52-6.66-.75-9.91,.1-6.02,1.59-10.37,7.38-9.94,13.67,.49,7.04,6.99,12.69,14.07,12.12,1.35-.11,2.5-1.07,2.5-2.5,0-1.27-1.15-2.61-2.5-2.5-3.94,.32-7.9-2.12-8.89-6.07-.94-3.76,1.21-8,4.79-9.48,2.13-.88,4.49-.92,6.75-.74s4.81,.59,6.96,1.51c3.49,1.48,5.41,5.41,3.9,9.03-1.57,3.78-6.53,4.77-9.76,2.72-2.73-1.73-5.24,2.6-2.52,4.32h0Z"/>
</svg>